%TF.GenerationSoftware,KiCad,Pcbnew,9.0.4*%
%TF.CreationDate,2025-08-22T20:00:46+03:00*%
%TF.ProjectId,MOKETA,4d4f4b45-5441-42e6-9b69-6361645f7063,rev?*%
%TF.SameCoordinates,Original*%
%TF.FileFunction,Drillmap*%
%TF.FilePolarity,Positive*%
%FSLAX45Y45*%
G04 Gerber Fmt 4.5, Leading zero omitted, Abs format (unit mm)*
G04 Created by KiCad (PCBNEW 9.0.4) date 2025-08-22 20:00:46*
%MOMM*%
%LPD*%
G01*
G04 APERTURE LIST*
%ADD10C,0.200000*%
%ADD11C,0.010000*%
%ADD12C,0.100000*%
%ADD13C,0.170180*%
%ADD14C,0.300000*%
%ADD15C,0.398780*%
G04 APERTURE END LIST*
D10*
X20319573Y-20340063D02*
G75*
G02*
X20739728Y-20612803I-3J-459997D01*
G01*
X14780754Y-9186174D02*
X9581830Y-9186174D01*
X6454828Y-16995303D02*
G75*
G02*
X6127035Y-16927077I-131758J188523D01*
G01*
X32120271Y-9389920D02*
G75*
G02*
X32425879Y-9284379I206209J-101870D01*
G01*
X8213269Y-9284380D02*
G75*
G02*
X8518870Y-9389923I99391J-207420D01*
G01*
X17572138Y-9843931D02*
X17572138Y-9186512D01*
X27786964Y-19012953D02*
G75*
G02*
X27537812Y-18920972I-59535J222173D01*
G01*
X7679509Y-9927355D02*
G75*
G02*
X8213269Y-9284380I965921J-258815D01*
G01*
X23067008Y-9843930D02*
X23067008Y-9186512D01*
X21309571Y-13655920D02*
X21309573Y-12057001D01*
X33292672Y-17537703D02*
X27786964Y-19012953D01*
X33462364Y-17334474D02*
G75*
G02*
X33292673Y-17537708I-229214J18924D01*
G01*
X23067008Y-9843930D02*
G75*
G02*
X22891272Y-10268194I-599998J0D01*
G01*
X21209570Y-13655920D02*
X21209573Y-12055920D01*
X13101332Y-18920970D02*
G75*
G02*
X13939156Y-19145466I379228J-260350D01*
G01*
X26699985Y-19145466D02*
G75*
G02*
X26528598Y-19350123I-229316J17946D01*
G01*
X31057313Y-9186174D02*
X25858393Y-9186174D01*
X31057313Y-9186174D02*
G75*
G02*
X31274163Y-9339507I7J-229996D01*
G01*
X15864984Y-9339508D02*
G75*
G02*
X16081830Y-9186181I216836J-76662D01*
G01*
X26699985Y-19145466D02*
G75*
G02*
X27537809Y-18920974I458595J-35854D01*
G01*
X19253837Y-11631657D02*
X17818584Y-10196405D01*
X25641546Y-9339508D02*
G75*
G02*
X25858393Y-9186178I216854J-76683D01*
G01*
X34625715Y-16145241D02*
G75*
G02*
X34512109Y-16927076I-965905J-258819D01*
G01*
X19899415Y-20612801D02*
G75*
G02*
X20319573Y-20340064I420155J-187259D01*
G01*
X32959637Y-9927355D02*
X34625715Y-16145241D01*
X20944035Y-20749098D02*
G75*
G02*
X20739734Y-20612800I5785J229938D01*
G01*
X17572138Y-9186512D02*
X16081830Y-9186174D01*
X23067008Y-9186512D02*
X24557313Y-9186174D01*
X19429569Y-13655921D02*
G75*
G02*
X19329571Y-13655921I-49999J1D01*
G01*
X34512110Y-16927076D02*
G75*
G02*
X34184320Y-16995300I-196030J120286D01*
G01*
X26528600Y-19350131D02*
X21900935Y-20590110D01*
X15864984Y-9339508D02*
G75*
G02*
X14997600Y-9339508I-433692J153333D01*
G01*
X21900935Y-20590110D02*
G75*
G02*
X20944035Y-20749098I-1294095J4829610D01*
G01*
X7346473Y-17537703D02*
X12852189Y-19012955D01*
X7346473Y-17537703D02*
G75*
G02*
X7176780Y-17334474I59537J222173D01*
G01*
X24557313Y-9186174D02*
G75*
G02*
X24774163Y-9339507I7J-229996D01*
G01*
X21385309Y-11631658D02*
X22820562Y-10196405D01*
X14108932Y-19349698D02*
X14108932Y-19349698D01*
X14108932Y-19349698D02*
G75*
G02*
X13939156Y-19145466I59528J222168D01*
G01*
X22967008Y-9842852D02*
G75*
G02*
X22820562Y-10196406I-500008J2D01*
G01*
X19183126Y-11703447D02*
G75*
G02*
X19329572Y-12057000I-353556J-353553D01*
G01*
X19183126Y-11703447D02*
X17747874Y-10268195D01*
X13101332Y-18920970D02*
G75*
G02*
X12852189Y-19012955I-189612J130170D01*
G01*
X14780754Y-9186174D02*
G75*
G02*
X14997600Y-9339508I-4J-230006D01*
G01*
X6454828Y-16995303D02*
G75*
G02*
X7176782Y-17334474I263515J-377042D01*
G01*
X19329573Y-12057000D02*
X19329569Y-13655921D01*
X17818584Y-10196405D02*
G75*
G02*
X17672141Y-9842851I353546J353545D01*
G01*
X25858393Y-9186177D02*
X25858393Y-9186174D01*
X22967008Y-9842852D02*
X22967008Y-9186512D01*
X21456020Y-11703447D02*
X22891272Y-10268194D01*
X19253837Y-11631657D02*
G75*
G02*
X19429572Y-12055921I-424287J-424273D01*
G01*
X9364984Y-9339508D02*
G75*
G02*
X8518872Y-9389922I-433694J153338D01*
G01*
X33462364Y-17334474D02*
G75*
G02*
X34184312Y-16995311I458426J-37856D01*
G01*
X14108932Y-19349698D02*
X18738212Y-20590110D01*
X32120271Y-9389920D02*
G75*
G02*
X31274154Y-9339510I-412421J203750D01*
G01*
X9364984Y-9339508D02*
G75*
G02*
X9581830Y-9186181I216836J-76662D01*
G01*
X21209573Y-12055922D02*
G75*
G02*
X21385307Y-11631655I600007J2D01*
G01*
X21309573Y-12057001D02*
G75*
G02*
X21456018Y-11703446I500007J1D01*
G01*
X32425878Y-9284381D02*
G75*
G02*
X32959639Y-9927355I-432158J-901790D01*
G01*
X7679509Y-9927355D02*
X6013432Y-16145239D01*
X19899415Y-20612801D02*
G75*
G02*
X19695111Y-20749100I-210075J93621D01*
G01*
X17672138Y-9842851D02*
X17672138Y-9186512D01*
X22967008Y-9186512D02*
X17672138Y-9186512D01*
X21309571Y-13655920D02*
G75*
G02*
X21209571Y-13655920I-50000J-1D01*
G01*
X19695111Y-20749098D02*
G75*
G02*
X18738212Y-20590109I337209J4988668D01*
G01*
X19429569Y-13655921D02*
X19429572Y-12055921D01*
X6127036Y-16927076D02*
G75*
G02*
X6013429Y-16145238I852354J523026D01*
G01*
X17747874Y-10268195D02*
G75*
G02*
X17572137Y-9843931I424286J424275D01*
G01*
X25641546Y-9339508D02*
G75*
G02*
X24774162Y-9339508I-433692J153333D01*
G01*
D11*
X28657865Y-13260402D02*
X28339109Y-13345812D01*
X28264052Y-13065693D01*
X28582807Y-12980283D01*
X28657865Y-13260402D01*
X30185576Y-11613398D02*
X29866821Y-11698809D01*
X29791763Y-11418690D01*
X30110519Y-11333280D01*
X30185576Y-11613398D01*
X29149621Y-15095661D02*
X28830865Y-15181071D01*
X28755808Y-14900953D01*
X29074563Y-14815542D01*
X29149621Y-15095661D01*
X8824999Y-11625298D02*
X8749941Y-11905417D01*
X8431186Y-11820007D01*
X8506243Y-11539888D01*
X8824999Y-11625298D01*
X17696663Y-15220974D02*
X17621606Y-15501092D01*
X17302850Y-15415682D01*
X17377908Y-15135563D01*
X17696663Y-15220974D01*
X7841486Y-15295816D02*
X7766429Y-15575935D01*
X7447673Y-15490524D01*
X7522731Y-15210406D01*
X7841486Y-15295816D01*
X17204907Y-17056233D02*
X17129850Y-17336351D01*
X16811094Y-17250941D01*
X16886152Y-16970823D01*
X17204907Y-17056233D01*
X30676332Y-13448657D02*
X30357577Y-13534068D01*
X30282519Y-13253949D01*
X30601275Y-13168539D01*
X30676332Y-13448657D01*
X18484482Y-19621831D02*
X18409424Y-19901950D01*
X18090669Y-19816540D01*
X18165726Y-19536421D01*
X18484482Y-19621831D01*
X22548477Y-19816540D02*
X22229722Y-19901950D01*
X22154665Y-19621832D01*
X22473420Y-19536421D01*
X22548477Y-19816540D01*
X28167108Y-11424143D02*
X27848353Y-11509553D01*
X27773295Y-11229434D01*
X28092051Y-11144024D01*
X28167108Y-11424143D01*
X16713151Y-18891492D02*
X16638094Y-19171610D01*
X16319338Y-19086200D01*
X16394396Y-18806081D01*
X16713151Y-18891492D01*
X32206961Y-11819006D02*
X31888206Y-11904417D01*
X31813148Y-11624298D01*
X32131904Y-11538888D01*
X32206961Y-11819006D01*
X18188420Y-13385714D02*
X18113363Y-13665833D01*
X17794607Y-13580423D01*
X17869665Y-13300304D01*
X18188420Y-13385714D01*
X13839795Y-14932928D02*
X13764738Y-15213046D01*
X13445982Y-15127636D01*
X13521040Y-14847518D01*
X13839795Y-14932928D01*
X22844540Y-13580423D02*
X22525784Y-13665833D01*
X22450727Y-13385715D01*
X22769482Y-13300304D01*
X22844540Y-13580423D01*
X24497590Y-12408655D02*
X24178835Y-12494065D01*
X24103777Y-12213946D01*
X24422533Y-12128536D01*
X24497590Y-12408655D01*
X33189474Y-15490525D02*
X32870718Y-15575935D01*
X32795661Y-15295816D01*
X33114416Y-15210406D01*
X33189474Y-15490525D01*
X16043613Y-14049206D02*
X15968556Y-14329324D01*
X15649800Y-14243914D01*
X15724858Y-13963796D01*
X16043613Y-14049206D01*
X27191164Y-15127637D02*
X26872408Y-15213047D01*
X26797351Y-14932929D01*
X27116106Y-14847518D01*
X27191164Y-15127637D01*
X23828052Y-17250941D02*
X23509297Y-17336351D01*
X23434239Y-17056233D01*
X23752995Y-16970823D01*
X23828052Y-17250941D01*
X15551857Y-15884464D02*
X15476799Y-16164583D01*
X15158044Y-16079173D01*
X15233101Y-15799054D01*
X15551857Y-15884464D01*
X10355627Y-13253949D02*
X10280569Y-13534067D01*
X9961814Y-13448657D01*
X10036871Y-13168538D01*
X10355627Y-13253949D01*
X16535369Y-12213947D02*
X16460312Y-12494065D01*
X16141556Y-12408655D01*
X16216614Y-12128537D01*
X16535369Y-12213947D01*
X14331552Y-13097669D02*
X14256494Y-13377788D01*
X13937739Y-13292377D01*
X14012796Y-13012259D01*
X14331552Y-13097669D01*
X26700408Y-13291377D02*
X26381652Y-13376788D01*
X26306595Y-13096669D01*
X26625350Y-13011259D01*
X26700408Y-13291377D01*
X26209651Y-11457118D02*
X25890896Y-11542528D01*
X25815838Y-11262410D01*
X26134594Y-11177000D01*
X26209651Y-11457118D01*
X23335296Y-15414682D02*
X23016540Y-15500093D01*
X22941483Y-15219974D01*
X23260238Y-15134564D01*
X23335296Y-15414682D01*
X12373095Y-13065693D02*
X12298037Y-13345812D01*
X11979282Y-13260402D01*
X12054339Y-12980283D01*
X12373095Y-13065693D01*
X32699717Y-13655266D02*
X32380962Y-13740676D01*
X32305904Y-13460558D01*
X32624660Y-13375148D01*
X32699717Y-13655266D01*
X24318808Y-19087200D02*
X24000053Y-19172610D01*
X23924995Y-18892492D01*
X24243751Y-18807081D01*
X24318808Y-19087200D01*
X9863871Y-15089208D02*
X9788814Y-15369327D01*
X9470058Y-15283916D01*
X9545116Y-15003798D01*
X9863871Y-15089208D01*
X11881339Y-14900953D02*
X11806281Y-15181071D01*
X11487526Y-15095661D01*
X11562583Y-14815542D01*
X11881339Y-14900953D01*
X25479103Y-16079173D02*
X25160347Y-16164583D01*
X25085290Y-15884465D01*
X25404045Y-15799055D01*
X25479103Y-16079173D01*
X12864851Y-11230434D02*
X12789794Y-11510552D01*
X12471038Y-11425142D01*
X12546096Y-11145024D01*
X12864851Y-11230434D01*
X8333242Y-13460557D02*
X8258184Y-13740676D01*
X7939429Y-13655266D01*
X8014486Y-13375147D01*
X8333242Y-13460557D01*
X14941821Y-18161152D02*
X14866763Y-18441270D01*
X14548008Y-18355860D01*
X14623065Y-18075741D01*
X14941821Y-18161152D01*
X24987347Y-14243914D02*
X24668591Y-14329324D01*
X24593534Y-14049206D01*
X24912289Y-13963795D01*
X24987347Y-14243914D01*
X10847383Y-11418690D02*
X10772326Y-11698808D01*
X10453570Y-11613398D01*
X10528628Y-11333279D01*
X10847383Y-11418690D01*
X14823308Y-11262410D02*
X14748250Y-11542529D01*
X14429495Y-11457118D01*
X14504552Y-11177000D01*
X14823308Y-11262410D01*
X26089139Y-18355860D02*
X25770383Y-18441270D01*
X25695326Y-18161152D01*
X26014081Y-18075742D01*
X26089139Y-18355860D01*
X31168089Y-15282917D02*
X30849333Y-15368327D01*
X30774276Y-15088209D01*
X31093031Y-15002798D01*
X31168089Y-15282917D01*
D10*
D12*
X21854573Y-9301513D02*
X21924573Y-9371513D01*
X21924573Y-9301513D02*
X21854573Y-9371513D01*
X22154573Y-9301513D02*
X22224573Y-9371513D01*
X22224573Y-9301513D02*
X22154573Y-9371513D01*
D13*
X7370977Y-14769068D02*
G75*
G02*
X7200797Y-14769068I-85090J0D01*
G01*
X7200797Y-14769068D02*
G75*
G02*
X7370977Y-14769068I85090J0D01*
G01*
X7862733Y-12933809D02*
G75*
G02*
X7692553Y-12933809I-85090J0D01*
G01*
X7692553Y-12933809D02*
G75*
G02*
X7862733Y-12933809I85090J0D01*
G01*
X8352357Y-15032028D02*
G75*
G02*
X8182177Y-15032028I-85090J0D01*
G01*
X8182177Y-15032028D02*
G75*
G02*
X8352357Y-15032028I85090J0D01*
G01*
X8354489Y-11098550D02*
G75*
G02*
X8184309Y-11098550I-85090J0D01*
G01*
X8184309Y-11098550D02*
G75*
G02*
X8354489Y-11098550I85090J0D01*
G01*
X8844114Y-13196769D02*
G75*
G02*
X8673934Y-13196769I-85090J0D01*
G01*
X8673934Y-13196769D02*
G75*
G02*
X8844114Y-13196769I85090J0D01*
G01*
X9335870Y-11361510D02*
G75*
G02*
X9165690Y-11361510I-85090J0D01*
G01*
X9165690Y-11361510D02*
G75*
G02*
X9335870Y-11361510I85090J0D01*
G01*
X9393362Y-14562460D02*
G75*
G02*
X9223182Y-14562460I-85090J0D01*
G01*
X9223182Y-14562460D02*
G75*
G02*
X9393362Y-14562460I85090J0D01*
G01*
X9885118Y-12727201D02*
G75*
G02*
X9714938Y-12727201I-85090J0D01*
G01*
X9714938Y-12727201D02*
G75*
G02*
X9885118Y-12727201I85090J0D01*
G01*
X10374742Y-14825420D02*
G75*
G02*
X10204562Y-14825420I-85090J0D01*
G01*
X10204562Y-14825420D02*
G75*
G02*
X10374742Y-14825420I85090J0D01*
G01*
X10376874Y-10891942D02*
G75*
G02*
X10206694Y-10891942I-85090J0D01*
G01*
X10206694Y-10891942D02*
G75*
G02*
X10376874Y-10891942I85090J0D01*
G01*
X10866499Y-12990161D02*
G75*
G02*
X10696319Y-12990161I-85090J0D01*
G01*
X10696319Y-12990161D02*
G75*
G02*
X10866499Y-12990161I85090J0D01*
G01*
X11358255Y-11154902D02*
G75*
G02*
X11188075Y-11154902I-85090J0D01*
G01*
X11188075Y-11154902D02*
G75*
G02*
X11358255Y-11154902I85090J0D01*
G01*
X11410830Y-14374204D02*
G75*
G02*
X11240650Y-14374204I-85090J0D01*
G01*
X11240650Y-14374204D02*
G75*
G02*
X11410830Y-14374204I85090J0D01*
G01*
X11902586Y-12538945D02*
G75*
G02*
X11732406Y-12538945I-85090J0D01*
G01*
X11732406Y-12538945D02*
G75*
G02*
X11902586Y-12538945I85090J0D01*
G01*
X12392210Y-14637164D02*
G75*
G02*
X12222030Y-14637164I-85090J0D01*
G01*
X12222030Y-14637164D02*
G75*
G02*
X12392210Y-14637164I85090J0D01*
G01*
X12394342Y-10703686D02*
G75*
G02*
X12224162Y-10703686I-85090J0D01*
G01*
X12224162Y-10703686D02*
G75*
G02*
X12394342Y-10703686I85090J0D01*
G01*
X12883967Y-12801905D02*
G75*
G02*
X12713787Y-12801905I-85090J0D01*
G01*
X12713787Y-12801905D02*
G75*
G02*
X12883967Y-12801905I85090J0D01*
G01*
X13369287Y-14406180D02*
G75*
G02*
X13199107Y-14406180I-85090J0D01*
G01*
X13199107Y-14406180D02*
G75*
G02*
X13369287Y-14406180I85090J0D01*
G01*
X13375723Y-10966646D02*
G75*
G02*
X13205543Y-10966646I-85090J0D01*
G01*
X13205543Y-10966646D02*
G75*
G02*
X13375723Y-10966646I85090J0D01*
G01*
X13861042Y-12570921D02*
G75*
G02*
X13690862Y-12570921I-85090J0D01*
G01*
X13690862Y-12570921D02*
G75*
G02*
X13861042Y-12570921I85090J0D01*
G01*
X14350667Y-14669140D02*
G75*
G02*
X14180487Y-14669140I-85090J0D01*
G01*
X14180487Y-14669140D02*
G75*
G02*
X14350667Y-14669140I85090J0D01*
G01*
X14352799Y-10735662D02*
G75*
G02*
X14182619Y-10735662I-85090J0D01*
G01*
X14182619Y-10735662D02*
G75*
G02*
X14352799Y-10735662I85090J0D01*
G01*
X14471312Y-17634404D02*
G75*
G02*
X14301132Y-17634404I-85090J0D01*
G01*
X14301132Y-17634404D02*
G75*
G02*
X14471312Y-17634404I85090J0D01*
G01*
X14842423Y-12833881D02*
G75*
G02*
X14672243Y-12833881I-85090J0D01*
G01*
X14672243Y-12833881D02*
G75*
G02*
X14842423Y-12833881I85090J0D01*
G01*
X15081348Y-15357717D02*
G75*
G02*
X14911168Y-15357717I-85090J0D01*
G01*
X14911168Y-15357717D02*
G75*
G02*
X15081348Y-15357717I85090J0D01*
G01*
X15334179Y-10998622D02*
G75*
G02*
X15163999Y-10998622I-85090J0D01*
G01*
X15163999Y-10998622D02*
G75*
G02*
X15334179Y-10998622I85090J0D01*
G01*
X15452692Y-17897364D02*
G75*
G02*
X15282512Y-17897364I-85090J0D01*
G01*
X15282512Y-17897364D02*
G75*
G02*
X15452692Y-17897364I85090J0D01*
G01*
X15573104Y-13522458D02*
G75*
G02*
X15402924Y-13522458I-85090J0D01*
G01*
X15402924Y-13522458D02*
G75*
G02*
X15573104Y-13522458I85090J0D01*
G01*
X16062729Y-15620677D02*
G75*
G02*
X15892549Y-15620677I-85090J0D01*
G01*
X15892549Y-15620677D02*
G75*
G02*
X16062729Y-15620677I85090J0D01*
G01*
X16064860Y-11687198D02*
G75*
G02*
X15894680Y-11687198I-85090J0D01*
G01*
X15894680Y-11687198D02*
G75*
G02*
X16064860Y-11687198I85090J0D01*
G01*
X16242642Y-18364744D02*
G75*
G02*
X16072462Y-18364744I-85090J0D01*
G01*
X16072462Y-18364744D02*
G75*
G02*
X16242642Y-18364744I85090J0D01*
G01*
X16554485Y-13785418D02*
G75*
G02*
X16384305Y-13785418I-85090J0D01*
G01*
X16384305Y-13785418D02*
G75*
G02*
X16554485Y-13785418I85090J0D01*
G01*
X16734398Y-16529484D02*
G75*
G02*
X16564218Y-16529484I-85090J0D01*
G01*
X16564218Y-16529484D02*
G75*
G02*
X16734398Y-16529484I85090J0D01*
G01*
X17046241Y-11950159D02*
G75*
G02*
X16876061Y-11950159I-85090J0D01*
G01*
X16876061Y-11950159D02*
G75*
G02*
X17046241Y-11950159I85090J0D01*
G01*
X17224023Y-18627704D02*
G75*
G02*
X17053843Y-18627704I-85090J0D01*
G01*
X17053843Y-18627704D02*
G75*
G02*
X17224023Y-18627704I85090J0D01*
G01*
X17226155Y-14694226D02*
G75*
G02*
X17055975Y-14694226I-85090J0D01*
G01*
X17055975Y-14694226D02*
G75*
G02*
X17226155Y-14694226I85090J0D01*
G01*
X17715779Y-16792445D02*
G75*
G02*
X17545599Y-16792445I-85090J0D01*
G01*
X17545599Y-16792445D02*
G75*
G02*
X17715779Y-16792445I85090J0D01*
G01*
X17717911Y-12858967D02*
G75*
G02*
X17547731Y-12858967I-85090J0D01*
G01*
X17547731Y-12858967D02*
G75*
G02*
X17717911Y-12858967I85090J0D01*
G01*
X18013973Y-19095084D02*
G75*
G02*
X17843793Y-19095084I-85090J0D01*
G01*
X17843793Y-19095084D02*
G75*
G02*
X18013973Y-19095084I85090J0D01*
G01*
X18207535Y-14957186D02*
G75*
G02*
X18037355Y-14957186I-85090J0D01*
G01*
X18037355Y-14957186D02*
G75*
G02*
X18207535Y-14957186I85090J0D01*
G01*
X18699291Y-13121927D02*
G75*
G02*
X18529111Y-13121927I-85090J0D01*
G01*
X18529111Y-13121927D02*
G75*
G02*
X18699291Y-13121927I85090J0D01*
G01*
X18995353Y-19358044D02*
G75*
G02*
X18825173Y-19358044I-85090J0D01*
G01*
X18825173Y-19358044D02*
G75*
G02*
X18995353Y-19358044I85090J0D01*
G01*
X21813973Y-19358044D02*
G75*
G02*
X21643793Y-19358044I-85090J0D01*
G01*
X21643793Y-19358044D02*
G75*
G02*
X21813973Y-19358044I85090J0D01*
G01*
X22110036Y-13121927D02*
G75*
G02*
X21939856Y-13121927I-85090J0D01*
G01*
X21939856Y-13121927D02*
G75*
G02*
X22110036Y-13121927I85090J0D01*
G01*
X22600791Y-14956186D02*
G75*
G02*
X22430611Y-14956186I-85090J0D01*
G01*
X22430611Y-14956186D02*
G75*
G02*
X22600791Y-14956186I85090J0D01*
G01*
X22795353Y-19095084D02*
G75*
G02*
X22625173Y-19095084I-85090J0D01*
G01*
X22625173Y-19095084D02*
G75*
G02*
X22795353Y-19095084I85090J0D01*
G01*
X23091416Y-12858967D02*
G75*
G02*
X22921236Y-12858967I-85090J0D01*
G01*
X22921236Y-12858967D02*
G75*
G02*
X23091416Y-12858967I85090J0D01*
G01*
X23093547Y-16792445D02*
G75*
G02*
X22923367Y-16792445I-85090J0D01*
G01*
X22923367Y-16792445D02*
G75*
G02*
X23093547Y-16792445I85090J0D01*
G01*
X23582172Y-14693225D02*
G75*
G02*
X23411992Y-14693225I-85090J0D01*
G01*
X23411992Y-14693225D02*
G75*
G02*
X23582172Y-14693225I85090J0D01*
G01*
X23584304Y-18628704D02*
G75*
G02*
X23414124Y-18628704I-85090J0D01*
G01*
X23414124Y-18628704D02*
G75*
G02*
X23584304Y-18628704I85090J0D01*
G01*
X23763086Y-11950159D02*
G75*
G02*
X23592906Y-11950159I-85090J0D01*
G01*
X23592906Y-11950159D02*
G75*
G02*
X23763086Y-11950159I85090J0D01*
G01*
X24074928Y-16529485D02*
G75*
G02*
X23904748Y-16529485I-85090J0D01*
G01*
X23904748Y-16529485D02*
G75*
G02*
X24074928Y-16529485I85090J0D01*
G01*
X24252842Y-13785418D02*
G75*
G02*
X24082662Y-13785418I-85090J0D01*
G01*
X24082662Y-13785418D02*
G75*
G02*
X24252842Y-13785418I85090J0D01*
G01*
X24565684Y-18365744D02*
G75*
G02*
X24395504Y-18365744I-85090J0D01*
G01*
X24395504Y-18365744D02*
G75*
G02*
X24565684Y-18365744I85090J0D01*
G01*
X24744466Y-11687199D02*
G75*
G02*
X24574286Y-11687199I-85090J0D01*
G01*
X24574286Y-11687199D02*
G75*
G02*
X24744466Y-11687199I85090J0D01*
G01*
X24744598Y-15620677D02*
G75*
G02*
X24574418Y-15620677I-85090J0D01*
G01*
X24574418Y-15620677D02*
G75*
G02*
X24744598Y-15620677I85090J0D01*
G01*
X25234223Y-13522458D02*
G75*
G02*
X25064043Y-13522458I-85090J0D01*
G01*
X25064043Y-13522458D02*
G75*
G02*
X25234223Y-13522458I85090J0D01*
G01*
X25354635Y-17897364D02*
G75*
G02*
X25184455Y-17897364I-85090J0D01*
G01*
X25184455Y-17897364D02*
G75*
G02*
X25354635Y-17897364I85090J0D01*
G01*
X25475147Y-10998622D02*
G75*
G02*
X25304967Y-10998622I-85090J0D01*
G01*
X25304967Y-10998622D02*
G75*
G02*
X25475147Y-10998622I85090J0D01*
G01*
X25725979Y-15357717D02*
G75*
G02*
X25555799Y-15357717I-85090J0D01*
G01*
X25555799Y-15357717D02*
G75*
G02*
X25725979Y-15357717I85090J0D01*
G01*
X25965903Y-12832881D02*
G75*
G02*
X25795723Y-12832881I-85090J0D01*
G01*
X25795723Y-12832881D02*
G75*
G02*
X25965903Y-12832881I85090J0D01*
G01*
X26336015Y-17634404D02*
G75*
G02*
X26165835Y-17634404I-85090J0D01*
G01*
X26165835Y-17634404D02*
G75*
G02*
X26336015Y-17634404I85090J0D01*
G01*
X26456527Y-10735662D02*
G75*
G02*
X26286347Y-10735662I-85090J0D01*
G01*
X26286347Y-10735662D02*
G75*
G02*
X26456527Y-10735662I85090J0D01*
G01*
X26456659Y-14669140D02*
G75*
G02*
X26286479Y-14669140I-85090J0D01*
G01*
X26286479Y-14669140D02*
G75*
G02*
X26456659Y-14669140I85090J0D01*
G01*
X26947283Y-12569921D02*
G75*
G02*
X26777103Y-12569921I-85090J0D01*
G01*
X26777103Y-12569921D02*
G75*
G02*
X26947283Y-12569921I85090J0D01*
G01*
X27432604Y-10965647D02*
G75*
G02*
X27262424Y-10965647I-85090J0D01*
G01*
X27262424Y-10965647D02*
G75*
G02*
X27432604Y-10965647I85090J0D01*
G01*
X27438040Y-14406180D02*
G75*
G02*
X27267860Y-14406180I-85090J0D01*
G01*
X27267860Y-14406180D02*
G75*
G02*
X27438040Y-14406180I85090J0D01*
G01*
X27923360Y-12801906D02*
G75*
G02*
X27753180Y-12801906I-85090J0D01*
G01*
X27753180Y-12801906D02*
G75*
G02*
X27923360Y-12801906I85090J0D01*
G01*
X28413984Y-10702686D02*
G75*
G02*
X28243804Y-10702686I-85090J0D01*
G01*
X28243804Y-10702686D02*
G75*
G02*
X28413984Y-10702686I85090J0D01*
G01*
X28415116Y-14637164D02*
G75*
G02*
X28244936Y-14637164I-85090J0D01*
G01*
X28244936Y-14637164D02*
G75*
G02*
X28415116Y-14637164I85090J0D01*
G01*
X28904741Y-12538945D02*
G75*
G02*
X28734561Y-12538945I-85090J0D01*
G01*
X28734561Y-12538945D02*
G75*
G02*
X28904741Y-12538945I85090J0D01*
G01*
X29396497Y-14374204D02*
G75*
G02*
X29226317Y-14374204I-85090J0D01*
G01*
X29226317Y-14374204D02*
G75*
G02*
X29396497Y-14374204I85090J0D01*
G01*
X29451071Y-11154903D02*
G75*
G02*
X29280891Y-11154903I-85090J0D01*
G01*
X29280891Y-11154903D02*
G75*
G02*
X29451071Y-11154903I85090J0D01*
G01*
X29941828Y-12990161D02*
G75*
G02*
X29771648Y-12990161I-85090J0D01*
G01*
X29771648Y-12990161D02*
G75*
G02*
X29941828Y-12990161I85090J0D01*
G01*
X30432452Y-10891942D02*
G75*
G02*
X30262272Y-10891942I-85090J0D01*
G01*
X30262272Y-10891942D02*
G75*
G02*
X30432452Y-10891942I85090J0D01*
G01*
X30433584Y-14824420D02*
G75*
G02*
X30263404Y-14824420I-85090J0D01*
G01*
X30263404Y-14824420D02*
G75*
G02*
X30433584Y-14824420I85090J0D01*
G01*
X30923208Y-12727201D02*
G75*
G02*
X30753028Y-12727201I-85090J0D01*
G01*
X30753028Y-12727201D02*
G75*
G02*
X30923208Y-12727201I85090J0D01*
G01*
X31414965Y-14561460D02*
G75*
G02*
X31244785Y-14561460I-85090J0D01*
G01*
X31244785Y-14561460D02*
G75*
G02*
X31414965Y-14561460I85090J0D01*
G01*
X31472457Y-11360510D02*
G75*
G02*
X31302277Y-11360510I-85090J0D01*
G01*
X31302277Y-11360510D02*
G75*
G02*
X31472457Y-11360510I85090J0D01*
G01*
X31965213Y-13196770D02*
G75*
G02*
X31795033Y-13196770I-85090J0D01*
G01*
X31795033Y-13196770D02*
G75*
G02*
X31965213Y-13196770I85090J0D01*
G01*
X32453838Y-11097550D02*
G75*
G02*
X32283658Y-11097550I-85090J0D01*
G01*
X32283658Y-11097550D02*
G75*
G02*
X32453838Y-11097550I85090J0D01*
G01*
X32454969Y-15032028D02*
G75*
G02*
X32284789Y-15032028I-85090J0D01*
G01*
X32284789Y-15032028D02*
G75*
G02*
X32454969Y-15032028I85090J0D01*
G01*
X32946593Y-12933809D02*
G75*
G02*
X32776413Y-12933809I-85090J0D01*
G01*
X32776413Y-12933809D02*
G75*
G02*
X32946593Y-12933809I85090J0D01*
G01*
X33436350Y-14769068D02*
G75*
G02*
X33266170Y-14769068I-85090J0D01*
G01*
X33266170Y-14769068D02*
G75*
G02*
X33436350Y-14769068I85090J0D01*
G01*
D14*
X7474299Y-14406593D02*
X7474299Y-14706593D01*
X7324299Y-14556593D02*
X7624299Y-14556593D01*
X7966056Y-12571334D02*
X7966056Y-12871334D01*
X7816056Y-12721334D02*
X8116056Y-12721334D01*
X8153402Y-14325598D02*
X8153402Y-14625598D01*
X8003402Y-14475598D02*
X8303402Y-14475598D01*
X8457812Y-10736075D02*
X8457812Y-11036075D01*
X8307812Y-10886075D02*
X8607812Y-10886075D01*
X8645159Y-12490339D02*
X8645159Y-12790339D01*
X8495159Y-12640339D02*
X8795159Y-12640339D01*
X9136915Y-10655080D02*
X9136915Y-10955080D01*
X8986915Y-10805080D02*
X9286915Y-10805080D01*
X9496684Y-14199985D02*
X9496684Y-14499985D01*
X9346684Y-14349985D02*
X9646684Y-14349985D01*
X9988441Y-12364726D02*
X9988441Y-12664726D01*
X9838441Y-12514726D02*
X10138441Y-12514726D01*
X10175787Y-14118990D02*
X10175787Y-14418990D01*
X10025787Y-14268990D02*
X10325787Y-14268990D01*
X10480197Y-10529467D02*
X10480197Y-10829467D01*
X10330197Y-10679467D02*
X10630197Y-10679467D01*
X10667544Y-12283731D02*
X10667544Y-12583731D01*
X10517544Y-12433731D02*
X10817544Y-12433731D01*
X11159300Y-10448472D02*
X11159300Y-10748472D01*
X11009300Y-10598472D02*
X11309300Y-10598472D01*
X11514152Y-14011729D02*
X11514152Y-14311729D01*
X11364152Y-14161729D02*
X11664152Y-14161729D01*
X12005909Y-12176470D02*
X12005909Y-12476470D01*
X11855909Y-12326470D02*
X12155909Y-12326470D01*
X12193255Y-13930734D02*
X12193255Y-14230734D01*
X12043255Y-14080734D02*
X12343255Y-14080734D01*
X12497665Y-10341211D02*
X12497665Y-10641211D01*
X12347665Y-10491211D02*
X12647665Y-10491211D01*
X12685012Y-12095475D02*
X12685012Y-12395475D01*
X12535012Y-12245475D02*
X12835012Y-12245475D01*
X13176767Y-10260216D02*
X13176767Y-10560216D01*
X13026767Y-10410216D02*
X13326767Y-10410216D01*
X13472609Y-14043705D02*
X13472609Y-14343705D01*
X13322609Y-14193705D02*
X13622609Y-14193705D01*
X13964365Y-12208445D02*
X13964365Y-12508445D01*
X13814365Y-12358445D02*
X14114365Y-12358445D01*
X14151712Y-13962710D02*
X14151712Y-14262710D01*
X14001712Y-14112710D02*
X14301712Y-14112710D01*
X14456121Y-10373187D02*
X14456121Y-10673187D01*
X14306121Y-10523187D02*
X14606121Y-10523187D01*
X14574634Y-17271929D02*
X14574634Y-17571929D01*
X14424634Y-17421929D02*
X14724634Y-17421929D01*
X14643468Y-12127450D02*
X14643468Y-12427450D01*
X14493468Y-12277450D02*
X14793468Y-12277450D01*
X15135224Y-10292192D02*
X15135224Y-10592192D01*
X14985224Y-10442192D02*
X15285224Y-10442192D01*
X15184671Y-14995242D02*
X15184671Y-15295242D01*
X15034671Y-15145242D02*
X15334671Y-15145242D01*
X15253737Y-17190933D02*
X15253737Y-17490933D01*
X15103737Y-17340933D02*
X15403737Y-17340933D01*
X15676427Y-13159982D02*
X15676427Y-13459982D01*
X15526427Y-13309982D02*
X15826427Y-13309982D01*
X15863773Y-14914246D02*
X15863773Y-15214246D01*
X15713773Y-15064246D02*
X16013773Y-15064246D01*
X16168183Y-11324723D02*
X16168183Y-11624723D01*
X16018183Y-11474723D02*
X16318183Y-11474723D01*
X16345965Y-18002269D02*
X16345965Y-18302269D01*
X16195965Y-18152269D02*
X16495965Y-18152269D01*
X16355530Y-13078987D02*
X16355530Y-13378987D01*
X16205530Y-13228987D02*
X16505530Y-13228987D01*
X16837721Y-16167009D02*
X16837721Y-16467009D01*
X16687721Y-16317009D02*
X16987721Y-16317009D01*
X16847286Y-11243728D02*
X16847286Y-11543728D01*
X16697286Y-11393728D02*
X16997286Y-11393728D01*
X17025068Y-17921274D02*
X17025068Y-18221274D01*
X16875068Y-18071274D02*
X17175068Y-18071274D01*
X17329477Y-14331750D02*
X17329477Y-14631750D01*
X17179477Y-14481750D02*
X17479477Y-14481750D01*
X17516824Y-16086014D02*
X17516824Y-16386014D01*
X17366824Y-16236014D02*
X17666824Y-16236014D01*
X17821233Y-12496491D02*
X17821233Y-12796491D01*
X17671233Y-12646491D02*
X17971233Y-12646491D01*
X18008580Y-14250755D02*
X18008580Y-14550755D01*
X17858580Y-14400755D02*
X18158580Y-14400755D01*
X18117295Y-18732609D02*
X18117295Y-19032609D01*
X17967295Y-18882609D02*
X18267295Y-18882609D01*
X18500336Y-12415496D02*
X18500336Y-12715496D01*
X18350336Y-12565496D02*
X18650336Y-12565496D01*
X18796398Y-18651613D02*
X18796398Y-18951613D01*
X18646398Y-18801613D02*
X18946398Y-18801613D01*
X21785815Y-18929829D02*
X21785815Y-19229829D01*
X21635815Y-19079829D02*
X21935815Y-19079829D01*
X22081878Y-12693712D02*
X22081878Y-12993712D01*
X21931878Y-12843712D02*
X22231878Y-12843712D01*
X22333438Y-18520133D02*
X22333438Y-18820133D01*
X22183438Y-18670133D02*
X22483438Y-18670133D01*
X22572634Y-14527970D02*
X22572634Y-14827970D01*
X22422634Y-14677970D02*
X22722634Y-14677970D01*
X22629501Y-12284016D02*
X22629501Y-12584016D01*
X22479501Y-12434016D02*
X22779501Y-12434016D01*
X23065390Y-16364230D02*
X23065390Y-16664230D01*
X22915390Y-16514230D02*
X23215390Y-16514230D01*
X23120257Y-14118275D02*
X23120257Y-14418275D01*
X22970257Y-14268275D02*
X23270257Y-14268275D01*
X23556146Y-18200489D02*
X23556146Y-18500489D01*
X23406146Y-18350489D02*
X23706146Y-18350489D01*
X23613013Y-15954535D02*
X23613013Y-16254535D01*
X23463013Y-16104535D02*
X23763013Y-16104535D01*
X23734928Y-11521944D02*
X23734928Y-11821944D01*
X23584928Y-11671944D02*
X23884928Y-11671944D01*
X24103769Y-17790793D02*
X24103769Y-18090793D01*
X23953769Y-17940793D02*
X24253769Y-17940793D01*
X24224685Y-13357203D02*
X24224685Y-13657203D01*
X24074685Y-13507203D02*
X24374685Y-13507203D01*
X24282551Y-11112249D02*
X24282551Y-11412249D01*
X24132551Y-11262249D02*
X24432551Y-11262249D01*
X24716441Y-15192462D02*
X24716441Y-15492462D01*
X24566441Y-15342462D02*
X24866441Y-15342462D01*
X24772307Y-12947508D02*
X24772307Y-13247508D01*
X24622307Y-13097508D02*
X24922307Y-13097508D01*
X25264064Y-14782766D02*
X25264064Y-15082766D01*
X25114064Y-14932766D02*
X25414064Y-14932766D01*
X25326477Y-17469149D02*
X25326477Y-17769149D01*
X25176477Y-17619149D02*
X25476477Y-17619149D01*
X25446989Y-10570407D02*
X25446989Y-10870407D01*
X25296989Y-10720407D02*
X25596989Y-10720407D01*
X25874100Y-17059454D02*
X25874100Y-17359454D01*
X25724100Y-17209454D02*
X26024100Y-17209454D01*
X25937745Y-12404666D02*
X25937745Y-12704666D01*
X25787745Y-12554666D02*
X26087745Y-12554666D01*
X25994612Y-10160712D02*
X25994612Y-10460712D01*
X25844612Y-10310712D02*
X26144612Y-10310712D01*
X26428502Y-14240925D02*
X26428502Y-14540925D01*
X26278502Y-14390925D02*
X26578502Y-14390925D01*
X26485368Y-11994971D02*
X26485368Y-12294971D01*
X26335368Y-12144971D02*
X26635368Y-12144971D01*
X26976125Y-13831230D02*
X26976125Y-14131230D01*
X26826125Y-13981230D02*
X27126125Y-13981230D01*
X27404446Y-10537431D02*
X27404446Y-10837431D01*
X27254446Y-10687431D02*
X27554446Y-10687431D01*
X27895202Y-12373690D02*
X27895202Y-12673690D01*
X27745202Y-12523690D02*
X28045202Y-12523690D01*
X27952069Y-10127736D02*
X27952069Y-10427736D01*
X27802069Y-10277736D02*
X28102069Y-10277736D01*
X28386959Y-14208949D02*
X28386959Y-14508949D01*
X28236959Y-14358949D02*
X28536959Y-14358949D01*
X28442825Y-11963995D02*
X28442825Y-12263995D01*
X28292825Y-12113995D02*
X28592825Y-12113995D01*
X28934582Y-13799254D02*
X28934582Y-14099254D01*
X28784582Y-13949254D02*
X29084582Y-13949254D01*
X29422914Y-10726687D02*
X29422914Y-11026687D01*
X29272914Y-10876687D02*
X29572914Y-10876687D01*
X29913670Y-12561946D02*
X29913670Y-12861946D01*
X29763670Y-12711946D02*
X30063670Y-12711946D01*
X29970537Y-10316992D02*
X29970537Y-10616992D01*
X29820537Y-10466992D02*
X30120537Y-10466992D01*
X30405426Y-14396205D02*
X30405426Y-14696205D01*
X30255426Y-14546205D02*
X30555426Y-14546205D01*
X30461293Y-12152250D02*
X30461293Y-12452250D01*
X30311293Y-12302250D02*
X30611293Y-12302250D01*
X30953049Y-13986510D02*
X30953049Y-14286510D01*
X30803049Y-14136510D02*
X31103049Y-14136510D01*
X31444300Y-10932295D02*
X31444300Y-11232295D01*
X31294300Y-11082295D02*
X31594300Y-11082295D01*
X31937055Y-12768554D02*
X31937055Y-13068554D01*
X31787055Y-12918554D02*
X32087055Y-12918554D01*
X31991922Y-10522600D02*
X31991922Y-10822600D01*
X31841922Y-10672600D02*
X32141922Y-10672600D01*
X32426812Y-14603813D02*
X32426812Y-14903813D01*
X32276812Y-14753813D02*
X32576812Y-14753813D01*
X32484678Y-12358859D02*
X32484678Y-12658859D01*
X32334678Y-12508859D02*
X32634678Y-12508859D01*
X32974435Y-14194118D02*
X32974435Y-14494118D01*
X32824435Y-14344118D02*
X33124435Y-14344118D01*
D15*
X7917568Y-15041539D02*
X7917568Y-14759557D01*
X7635586Y-14759557D01*
X7635586Y-15041539D01*
X7917568Y-15041539D01*
X8409325Y-13206281D02*
X8409325Y-12924298D01*
X8127342Y-12924298D01*
X8127342Y-13206281D01*
X8409325Y-13206281D01*
X8901081Y-11371021D02*
X8901081Y-11089039D01*
X8619098Y-11089039D01*
X8619098Y-11371021D01*
X8901081Y-11371021D01*
X9939953Y-14834932D02*
X9939953Y-14552949D01*
X9657971Y-14552949D01*
X9657971Y-14834932D01*
X9939953Y-14834932D01*
X10431710Y-12999672D02*
X10431710Y-12717689D01*
X10149727Y-12717689D01*
X10149727Y-12999672D01*
X10431710Y-12999672D01*
X10923466Y-11164414D02*
X10923466Y-10882431D01*
X10641483Y-10882431D01*
X10641483Y-11164414D01*
X10923466Y-11164414D01*
X11957421Y-14646675D02*
X11957421Y-14364693D01*
X11675439Y-14364693D01*
X11675439Y-14646675D01*
X11957421Y-14646675D01*
X12449178Y-12811417D02*
X12449178Y-12529434D01*
X12167195Y-12529434D01*
X12167195Y-12811417D01*
X12449178Y-12811417D01*
X12940934Y-10976158D02*
X12940934Y-10694175D01*
X12658951Y-10694175D01*
X12658951Y-10976158D01*
X12940934Y-10976158D01*
X13915878Y-14678651D02*
X13915878Y-14396668D01*
X13633896Y-14396668D01*
X13633896Y-14678651D01*
X13915878Y-14678651D01*
X14407634Y-12843392D02*
X14407634Y-12561409D01*
X14125651Y-12561409D01*
X14125651Y-12843392D01*
X14407634Y-12843392D01*
X14899391Y-11008133D02*
X14899391Y-10726151D01*
X14617408Y-10726151D01*
X14617408Y-11008133D01*
X14899391Y-11008133D01*
X15017903Y-17906875D02*
X15017903Y-17624892D01*
X14735921Y-17624892D01*
X14735921Y-17906875D01*
X15017903Y-17906875D01*
X15627940Y-15630188D02*
X15627940Y-15348205D01*
X15345957Y-15348205D01*
X15345957Y-15630188D01*
X15627940Y-15630188D01*
X16119696Y-13794929D02*
X16119696Y-13512946D01*
X15837713Y-13512946D01*
X15837713Y-13794929D01*
X16119696Y-13794929D01*
X16611452Y-11959670D02*
X16611452Y-11677687D01*
X16329469Y-11677687D01*
X16329469Y-11959670D01*
X16611452Y-11959670D01*
X16789234Y-18637215D02*
X16789234Y-18355233D01*
X16507251Y-18355233D01*
X16507251Y-18637215D01*
X16789234Y-18637215D01*
X17280990Y-16801956D02*
X17280990Y-16519973D01*
X16999007Y-16519973D01*
X16999007Y-16801956D01*
X17280990Y-16801956D01*
X17772746Y-14966697D02*
X17772746Y-14684714D01*
X17490763Y-14684714D01*
X17490763Y-14966697D01*
X17772746Y-14966697D01*
X18264503Y-13131438D02*
X18264503Y-12849455D01*
X17982520Y-12849455D01*
X17982520Y-13131438D01*
X18264503Y-13131438D01*
X18560565Y-19367555D02*
X18560565Y-19085572D01*
X18278582Y-19085572D01*
X18278582Y-19367555D01*
X18560565Y-19367555D01*
X22360565Y-19367555D02*
X22360565Y-19085572D01*
X22078582Y-19085572D01*
X22078582Y-19367555D01*
X22360565Y-19367555D01*
X22656627Y-13131438D02*
X22656627Y-12849455D01*
X22374644Y-12849455D01*
X22374644Y-13131438D01*
X22656627Y-13131438D01*
X23147383Y-14965697D02*
X23147383Y-14683714D01*
X22865400Y-14683714D01*
X22865400Y-14965697D01*
X23147383Y-14965697D01*
X23640139Y-16801957D02*
X23640139Y-16519974D01*
X23358156Y-16519974D01*
X23358156Y-16801957D01*
X23640139Y-16801957D01*
X24130895Y-18638215D02*
X24130895Y-18356232D01*
X23848912Y-18356232D01*
X23848912Y-18638215D01*
X24130895Y-18638215D01*
X24309678Y-11959670D02*
X24309678Y-11677688D01*
X24027695Y-11677688D01*
X24027695Y-11959670D01*
X24309678Y-11959670D01*
X24799434Y-13794929D02*
X24799434Y-13512947D01*
X24517451Y-13512947D01*
X24517451Y-13794929D01*
X24799434Y-13794929D01*
X25291190Y-15630188D02*
X25291190Y-15348205D01*
X25009207Y-15348205D01*
X25009207Y-15630188D01*
X25291190Y-15630188D01*
X25901226Y-17906875D02*
X25901226Y-17624893D01*
X25619243Y-17624893D01*
X25619243Y-17906875D01*
X25901226Y-17906875D01*
X26021739Y-11008134D02*
X26021739Y-10726151D01*
X25739756Y-10726151D01*
X25739756Y-11008134D01*
X26021739Y-11008134D01*
X26512494Y-12842393D02*
X26512494Y-12560410D01*
X26230512Y-12560410D01*
X26230512Y-12842393D01*
X26512494Y-12842393D01*
X27003251Y-14678652D02*
X27003251Y-14396669D01*
X26721268Y-14396669D01*
X26721268Y-14678652D01*
X27003251Y-14678652D01*
X27979195Y-10975158D02*
X27979195Y-10693175D01*
X27697213Y-10693175D01*
X27697213Y-10975158D01*
X27979195Y-10975158D01*
X28469952Y-12811417D02*
X28469952Y-12529434D01*
X28187969Y-12529434D01*
X28187969Y-12811417D01*
X28469952Y-12811417D01*
X28961708Y-14646676D02*
X28961708Y-14364693D01*
X28679725Y-14364693D01*
X28679725Y-14646676D01*
X28961708Y-14646676D01*
X29997663Y-11164414D02*
X29997663Y-10882431D01*
X29715680Y-10882431D01*
X29715680Y-11164414D01*
X29997663Y-11164414D01*
X30488420Y-12999672D02*
X30488420Y-12717689D01*
X30206437Y-12717689D01*
X30206437Y-12999672D01*
X30488420Y-12999672D01*
X30980176Y-14833932D02*
X30980176Y-14551949D01*
X30698193Y-14551949D01*
X30698193Y-14833932D01*
X30980176Y-14833932D01*
X32019049Y-11370021D02*
X32019049Y-11088039D01*
X31737066Y-11088039D01*
X31737066Y-11370021D01*
X32019049Y-11370021D01*
X32511805Y-13206281D02*
X32511805Y-12924298D01*
X32229822Y-12924298D01*
X32229822Y-13206281D01*
X32511805Y-13206281D01*
X33001561Y-15041540D02*
X33001561Y-14759557D01*
X32719578Y-14759557D01*
X32719578Y-15041540D01*
X33001561Y-15041540D01*
D10*
X6230135Y-21070582D02*
X6230135Y-20870582D01*
X6230135Y-20870582D02*
X6277754Y-20870582D01*
X6277754Y-20870582D02*
X6306326Y-20880105D01*
X6306326Y-20880105D02*
X6325373Y-20899153D01*
X6325373Y-20899153D02*
X6334897Y-20918201D01*
X6334897Y-20918201D02*
X6344421Y-20956296D01*
X6344421Y-20956296D02*
X6344421Y-20984867D01*
X6344421Y-20984867D02*
X6334897Y-21022963D01*
X6334897Y-21022963D02*
X6325373Y-21042010D01*
X6325373Y-21042010D02*
X6306326Y-21061058D01*
X6306326Y-21061058D02*
X6277754Y-21070582D01*
X6277754Y-21070582D02*
X6230135Y-21070582D01*
X6430135Y-21070582D02*
X6430135Y-20937248D01*
X6430135Y-20975344D02*
X6439659Y-20956296D01*
X6439659Y-20956296D02*
X6449183Y-20946772D01*
X6449183Y-20946772D02*
X6468230Y-20937248D01*
X6468230Y-20937248D02*
X6487278Y-20937248D01*
X6553945Y-21070582D02*
X6553945Y-20937248D01*
X6553945Y-20870582D02*
X6544421Y-20880105D01*
X6544421Y-20880105D02*
X6553945Y-20889629D01*
X6553945Y-20889629D02*
X6563468Y-20880105D01*
X6563468Y-20880105D02*
X6553945Y-20870582D01*
X6553945Y-20870582D02*
X6553945Y-20889629D01*
X6677754Y-21070582D02*
X6658707Y-21061058D01*
X6658707Y-21061058D02*
X6649183Y-21042010D01*
X6649183Y-21042010D02*
X6649183Y-20870582D01*
X6782516Y-21070582D02*
X6763468Y-21061058D01*
X6763468Y-21061058D02*
X6753945Y-21042010D01*
X6753945Y-21042010D02*
X6753945Y-20870582D01*
X7011088Y-21070582D02*
X7011088Y-20870582D01*
X7011088Y-20870582D02*
X7077754Y-21013439D01*
X7077754Y-21013439D02*
X7144421Y-20870582D01*
X7144421Y-20870582D02*
X7144421Y-21070582D01*
X7325373Y-21070582D02*
X7325373Y-20965820D01*
X7325373Y-20965820D02*
X7315849Y-20946772D01*
X7315849Y-20946772D02*
X7296802Y-20937248D01*
X7296802Y-20937248D02*
X7258707Y-20937248D01*
X7258707Y-20937248D02*
X7239659Y-20946772D01*
X7325373Y-21061058D02*
X7306326Y-21070582D01*
X7306326Y-21070582D02*
X7258707Y-21070582D01*
X7258707Y-21070582D02*
X7239659Y-21061058D01*
X7239659Y-21061058D02*
X7230135Y-21042010D01*
X7230135Y-21042010D02*
X7230135Y-21022963D01*
X7230135Y-21022963D02*
X7239659Y-21003915D01*
X7239659Y-21003915D02*
X7258707Y-20994391D01*
X7258707Y-20994391D02*
X7306326Y-20994391D01*
X7306326Y-20994391D02*
X7325373Y-20984867D01*
X7420611Y-20937248D02*
X7420611Y-21137248D01*
X7420611Y-20946772D02*
X7439659Y-20937248D01*
X7439659Y-20937248D02*
X7477754Y-20937248D01*
X7477754Y-20937248D02*
X7496802Y-20946772D01*
X7496802Y-20946772D02*
X7506326Y-20956296D01*
X7506326Y-20956296D02*
X7515849Y-20975344D01*
X7515849Y-20975344D02*
X7515849Y-21032486D01*
X7515849Y-21032486D02*
X7506326Y-21051534D01*
X7506326Y-21051534D02*
X7496802Y-21061058D01*
X7496802Y-21061058D02*
X7477754Y-21070582D01*
X7477754Y-21070582D02*
X7439659Y-21070582D01*
X7439659Y-21070582D02*
X7420611Y-21061058D01*
X7601564Y-21051534D02*
X7611088Y-21061058D01*
X7611088Y-21061058D02*
X7601564Y-21070582D01*
X7601564Y-21070582D02*
X7592040Y-21061058D01*
X7592040Y-21061058D02*
X7601564Y-21051534D01*
X7601564Y-21051534D02*
X7601564Y-21070582D01*
X7601564Y-20946772D02*
X7611088Y-20956296D01*
X7611088Y-20956296D02*
X7601564Y-20965820D01*
X7601564Y-20965820D02*
X7592040Y-20956296D01*
X7592040Y-20956296D02*
X7601564Y-20946772D01*
X7601564Y-20946772D02*
X7601564Y-20965820D01*
D12*
X5899358Y-21364098D02*
X5969358Y-21434098D01*
X5969358Y-21364098D02*
X5899358Y-21434098D01*
D10*
X6268230Y-21290582D02*
X6287278Y-21290582D01*
X6287278Y-21290582D02*
X6306326Y-21300105D01*
X6306326Y-21300105D02*
X6315849Y-21309629D01*
X6315849Y-21309629D02*
X6325373Y-21328677D01*
X6325373Y-21328677D02*
X6334897Y-21366772D01*
X6334897Y-21366772D02*
X6334897Y-21414391D01*
X6334897Y-21414391D02*
X6325373Y-21452486D01*
X6325373Y-21452486D02*
X6315849Y-21471534D01*
X6315849Y-21471534D02*
X6306326Y-21481058D01*
X6306326Y-21481058D02*
X6287278Y-21490582D01*
X6287278Y-21490582D02*
X6268230Y-21490582D01*
X6268230Y-21490582D02*
X6249183Y-21481058D01*
X6249183Y-21481058D02*
X6239659Y-21471534D01*
X6239659Y-21471534D02*
X6230135Y-21452486D01*
X6230135Y-21452486D02*
X6220611Y-21414391D01*
X6220611Y-21414391D02*
X6220611Y-21366772D01*
X6220611Y-21366772D02*
X6230135Y-21328677D01*
X6230135Y-21328677D02*
X6239659Y-21309629D01*
X6239659Y-21309629D02*
X6249183Y-21300105D01*
X6249183Y-21300105D02*
X6268230Y-21290582D01*
X6420611Y-21471534D02*
X6430135Y-21481058D01*
X6430135Y-21481058D02*
X6420611Y-21490582D01*
X6420611Y-21490582D02*
X6411088Y-21481058D01*
X6411088Y-21481058D02*
X6420611Y-21471534D01*
X6420611Y-21471534D02*
X6420611Y-21490582D01*
X6496802Y-21290582D02*
X6630135Y-21290582D01*
X6630135Y-21290582D02*
X6544421Y-21490582D01*
X6744421Y-21290582D02*
X6763469Y-21290582D01*
X6763469Y-21290582D02*
X6782516Y-21300105D01*
X6782516Y-21300105D02*
X6792040Y-21309629D01*
X6792040Y-21309629D02*
X6801564Y-21328677D01*
X6801564Y-21328677D02*
X6811088Y-21366772D01*
X6811088Y-21366772D02*
X6811088Y-21414391D01*
X6811088Y-21414391D02*
X6801564Y-21452486D01*
X6801564Y-21452486D02*
X6792040Y-21471534D01*
X6792040Y-21471534D02*
X6782516Y-21481058D01*
X6782516Y-21481058D02*
X6763469Y-21490582D01*
X6763469Y-21490582D02*
X6744421Y-21490582D01*
X6744421Y-21490582D02*
X6725373Y-21481058D01*
X6725373Y-21481058D02*
X6715849Y-21471534D01*
X6715849Y-21471534D02*
X6706326Y-21452486D01*
X6706326Y-21452486D02*
X6696802Y-21414391D01*
X6696802Y-21414391D02*
X6696802Y-21366772D01*
X6696802Y-21366772D02*
X6706326Y-21328677D01*
X6706326Y-21328677D02*
X6715849Y-21309629D01*
X6715849Y-21309629D02*
X6725373Y-21300105D01*
X6725373Y-21300105D02*
X6744421Y-21290582D01*
X6934897Y-21290582D02*
X6953945Y-21290582D01*
X6953945Y-21290582D02*
X6972992Y-21300105D01*
X6972992Y-21300105D02*
X6982516Y-21309629D01*
X6982516Y-21309629D02*
X6992040Y-21328677D01*
X6992040Y-21328677D02*
X7001564Y-21366772D01*
X7001564Y-21366772D02*
X7001564Y-21414391D01*
X7001564Y-21414391D02*
X6992040Y-21452486D01*
X6992040Y-21452486D02*
X6982516Y-21471534D01*
X6982516Y-21471534D02*
X6972992Y-21481058D01*
X6972992Y-21481058D02*
X6953945Y-21490582D01*
X6953945Y-21490582D02*
X6934897Y-21490582D01*
X6934897Y-21490582D02*
X6915849Y-21481058D01*
X6915849Y-21481058D02*
X6906326Y-21471534D01*
X6906326Y-21471534D02*
X6896802Y-21452486D01*
X6896802Y-21452486D02*
X6887278Y-21414391D01*
X6887278Y-21414391D02*
X6887278Y-21366772D01*
X6887278Y-21366772D02*
X6896802Y-21328677D01*
X6896802Y-21328677D02*
X6906326Y-21309629D01*
X6906326Y-21309629D02*
X6915849Y-21300105D01*
X6915849Y-21300105D02*
X6934897Y-21290582D01*
X7087278Y-21490582D02*
X7087278Y-21357248D01*
X7087278Y-21376296D02*
X7096802Y-21366772D01*
X7096802Y-21366772D02*
X7115849Y-21357248D01*
X7115849Y-21357248D02*
X7144421Y-21357248D01*
X7144421Y-21357248D02*
X7163469Y-21366772D01*
X7163469Y-21366772D02*
X7172992Y-21385820D01*
X7172992Y-21385820D02*
X7172992Y-21490582D01*
X7172992Y-21385820D02*
X7182516Y-21366772D01*
X7182516Y-21366772D02*
X7201564Y-21357248D01*
X7201564Y-21357248D02*
X7230135Y-21357248D01*
X7230135Y-21357248D02*
X7249183Y-21366772D01*
X7249183Y-21366772D02*
X7258707Y-21385820D01*
X7258707Y-21385820D02*
X7258707Y-21490582D01*
X7353945Y-21490582D02*
X7353945Y-21357248D01*
X7353945Y-21376296D02*
X7363469Y-21366772D01*
X7363469Y-21366772D02*
X7382516Y-21357248D01*
X7382516Y-21357248D02*
X7411088Y-21357248D01*
X7411088Y-21357248D02*
X7430135Y-21366772D01*
X7430135Y-21366772D02*
X7439659Y-21385820D01*
X7439659Y-21385820D02*
X7439659Y-21490582D01*
X7439659Y-21385820D02*
X7449183Y-21366772D01*
X7449183Y-21366772D02*
X7468230Y-21357248D01*
X7468230Y-21357248D02*
X7496802Y-21357248D01*
X7496802Y-21357248D02*
X7515850Y-21366772D01*
X7515850Y-21366772D02*
X7525373Y-21385820D01*
X7525373Y-21385820D02*
X7525373Y-21490582D01*
X7915850Y-21281058D02*
X7744421Y-21538201D01*
X8172992Y-21290582D02*
X8192040Y-21290582D01*
X8192040Y-21290582D02*
X8211088Y-21300105D01*
X8211088Y-21300105D02*
X8220612Y-21309629D01*
X8220612Y-21309629D02*
X8230135Y-21328677D01*
X8230135Y-21328677D02*
X8239659Y-21366772D01*
X8239659Y-21366772D02*
X8239659Y-21414391D01*
X8239659Y-21414391D02*
X8230135Y-21452486D01*
X8230135Y-21452486D02*
X8220612Y-21471534D01*
X8220612Y-21471534D02*
X8211088Y-21481058D01*
X8211088Y-21481058D02*
X8192040Y-21490582D01*
X8192040Y-21490582D02*
X8172992Y-21490582D01*
X8172992Y-21490582D02*
X8153945Y-21481058D01*
X8153945Y-21481058D02*
X8144421Y-21471534D01*
X8144421Y-21471534D02*
X8134897Y-21452486D01*
X8134897Y-21452486D02*
X8125373Y-21414391D01*
X8125373Y-21414391D02*
X8125373Y-21366772D01*
X8125373Y-21366772D02*
X8134897Y-21328677D01*
X8134897Y-21328677D02*
X8144421Y-21309629D01*
X8144421Y-21309629D02*
X8153945Y-21300105D01*
X8153945Y-21300105D02*
X8172992Y-21290582D01*
X8325373Y-21471534D02*
X8334897Y-21481058D01*
X8334897Y-21481058D02*
X8325373Y-21490582D01*
X8325373Y-21490582D02*
X8315850Y-21481058D01*
X8315850Y-21481058D02*
X8325373Y-21471534D01*
X8325373Y-21471534D02*
X8325373Y-21490582D01*
X8458707Y-21290582D02*
X8477755Y-21290582D01*
X8477755Y-21290582D02*
X8496802Y-21300105D01*
X8496802Y-21300105D02*
X8506326Y-21309629D01*
X8506326Y-21309629D02*
X8515850Y-21328677D01*
X8515850Y-21328677D02*
X8525374Y-21366772D01*
X8525374Y-21366772D02*
X8525374Y-21414391D01*
X8525374Y-21414391D02*
X8515850Y-21452486D01*
X8515850Y-21452486D02*
X8506326Y-21471534D01*
X8506326Y-21471534D02*
X8496802Y-21481058D01*
X8496802Y-21481058D02*
X8477755Y-21490582D01*
X8477755Y-21490582D02*
X8458707Y-21490582D01*
X8458707Y-21490582D02*
X8439659Y-21481058D01*
X8439659Y-21481058D02*
X8430135Y-21471534D01*
X8430135Y-21471534D02*
X8420612Y-21452486D01*
X8420612Y-21452486D02*
X8411088Y-21414391D01*
X8411088Y-21414391D02*
X8411088Y-21366772D01*
X8411088Y-21366772D02*
X8420612Y-21328677D01*
X8420612Y-21328677D02*
X8430135Y-21309629D01*
X8430135Y-21309629D02*
X8439659Y-21300105D01*
X8439659Y-21300105D02*
X8458707Y-21290582D01*
X8601564Y-21309629D02*
X8611088Y-21300105D01*
X8611088Y-21300105D02*
X8630135Y-21290582D01*
X8630135Y-21290582D02*
X8677755Y-21290582D01*
X8677755Y-21290582D02*
X8696802Y-21300105D01*
X8696802Y-21300105D02*
X8706326Y-21309629D01*
X8706326Y-21309629D02*
X8715850Y-21328677D01*
X8715850Y-21328677D02*
X8715850Y-21347724D01*
X8715850Y-21347724D02*
X8706326Y-21376296D01*
X8706326Y-21376296D02*
X8592040Y-21490582D01*
X8592040Y-21490582D02*
X8715850Y-21490582D01*
X8782516Y-21290582D02*
X8915850Y-21290582D01*
X8915850Y-21290582D02*
X8830135Y-21490582D01*
X9077755Y-21290582D02*
X9039659Y-21290582D01*
X9039659Y-21290582D02*
X9020612Y-21300105D01*
X9020612Y-21300105D02*
X9011088Y-21309629D01*
X9011088Y-21309629D02*
X8992040Y-21338201D01*
X8992040Y-21338201D02*
X8982516Y-21376296D01*
X8982516Y-21376296D02*
X8982516Y-21452486D01*
X8982516Y-21452486D02*
X8992040Y-21471534D01*
X8992040Y-21471534D02*
X9001564Y-21481058D01*
X9001564Y-21481058D02*
X9020612Y-21490582D01*
X9020612Y-21490582D02*
X9058707Y-21490582D01*
X9058707Y-21490582D02*
X9077755Y-21481058D01*
X9077755Y-21481058D02*
X9087278Y-21471534D01*
X9087278Y-21471534D02*
X9096802Y-21452486D01*
X9096802Y-21452486D02*
X9096802Y-21404867D01*
X9096802Y-21404867D02*
X9087278Y-21385820D01*
X9087278Y-21385820D02*
X9077755Y-21376296D01*
X9077755Y-21376296D02*
X9058707Y-21366772D01*
X9058707Y-21366772D02*
X9020612Y-21366772D01*
X9020612Y-21366772D02*
X9001564Y-21376296D01*
X9001564Y-21376296D02*
X8992040Y-21385820D01*
X8992040Y-21385820D02*
X8982516Y-21404867D01*
X9172993Y-21290582D02*
X9172993Y-21328677D01*
X9249183Y-21290582D02*
X9249183Y-21328677D01*
X9544421Y-21566772D02*
X9534897Y-21557248D01*
X9534897Y-21557248D02*
X9515850Y-21528677D01*
X9515850Y-21528677D02*
X9506326Y-21509629D01*
X9506326Y-21509629D02*
X9496802Y-21481058D01*
X9496802Y-21481058D02*
X9487278Y-21433439D01*
X9487278Y-21433439D02*
X9487278Y-21395344D01*
X9487278Y-21395344D02*
X9496802Y-21347724D01*
X9496802Y-21347724D02*
X9506326Y-21319153D01*
X9506326Y-21319153D02*
X9515850Y-21300105D01*
X9515850Y-21300105D02*
X9534897Y-21271534D01*
X9534897Y-21271534D02*
X9544421Y-21262010D01*
X9611088Y-21309629D02*
X9620612Y-21300105D01*
X9620612Y-21300105D02*
X9639659Y-21290582D01*
X9639659Y-21290582D02*
X9687278Y-21290582D01*
X9687278Y-21290582D02*
X9706326Y-21300105D01*
X9706326Y-21300105D02*
X9715850Y-21309629D01*
X9715850Y-21309629D02*
X9725374Y-21328677D01*
X9725374Y-21328677D02*
X9725374Y-21347724D01*
X9725374Y-21347724D02*
X9715850Y-21376296D01*
X9715850Y-21376296D02*
X9601564Y-21490582D01*
X9601564Y-21490582D02*
X9725374Y-21490582D01*
X9963469Y-21490582D02*
X9963469Y-21290582D01*
X10049183Y-21490582D02*
X10049183Y-21385820D01*
X10049183Y-21385820D02*
X10039659Y-21366772D01*
X10039659Y-21366772D02*
X10020612Y-21357248D01*
X10020612Y-21357248D02*
X9992040Y-21357248D01*
X9992040Y-21357248D02*
X9972993Y-21366772D01*
X9972993Y-21366772D02*
X9963469Y-21376296D01*
X10172993Y-21490582D02*
X10153945Y-21481058D01*
X10153945Y-21481058D02*
X10144421Y-21471534D01*
X10144421Y-21471534D02*
X10134898Y-21452486D01*
X10134898Y-21452486D02*
X10134898Y-21395344D01*
X10134898Y-21395344D02*
X10144421Y-21376296D01*
X10144421Y-21376296D02*
X10153945Y-21366772D01*
X10153945Y-21366772D02*
X10172993Y-21357248D01*
X10172993Y-21357248D02*
X10201564Y-21357248D01*
X10201564Y-21357248D02*
X10220612Y-21366772D01*
X10220612Y-21366772D02*
X10230136Y-21376296D01*
X10230136Y-21376296D02*
X10239659Y-21395344D01*
X10239659Y-21395344D02*
X10239659Y-21452486D01*
X10239659Y-21452486D02*
X10230136Y-21471534D01*
X10230136Y-21471534D02*
X10220612Y-21481058D01*
X10220612Y-21481058D02*
X10201564Y-21490582D01*
X10201564Y-21490582D02*
X10172993Y-21490582D01*
X10353945Y-21490582D02*
X10334898Y-21481058D01*
X10334898Y-21481058D02*
X10325374Y-21462010D01*
X10325374Y-21462010D02*
X10325374Y-21290582D01*
X10506326Y-21481058D02*
X10487279Y-21490582D01*
X10487279Y-21490582D02*
X10449183Y-21490582D01*
X10449183Y-21490582D02*
X10430136Y-21481058D01*
X10430136Y-21481058D02*
X10420612Y-21462010D01*
X10420612Y-21462010D02*
X10420612Y-21385820D01*
X10420612Y-21385820D02*
X10430136Y-21366772D01*
X10430136Y-21366772D02*
X10449183Y-21357248D01*
X10449183Y-21357248D02*
X10487279Y-21357248D01*
X10487279Y-21357248D02*
X10506326Y-21366772D01*
X10506326Y-21366772D02*
X10515850Y-21385820D01*
X10515850Y-21385820D02*
X10515850Y-21404867D01*
X10515850Y-21404867D02*
X10420612Y-21423915D01*
X10592040Y-21481058D02*
X10611088Y-21490582D01*
X10611088Y-21490582D02*
X10649183Y-21490582D01*
X10649183Y-21490582D02*
X10668231Y-21481058D01*
X10668231Y-21481058D02*
X10677755Y-21462010D01*
X10677755Y-21462010D02*
X10677755Y-21452486D01*
X10677755Y-21452486D02*
X10668231Y-21433439D01*
X10668231Y-21433439D02*
X10649183Y-21423915D01*
X10649183Y-21423915D02*
X10620612Y-21423915D01*
X10620612Y-21423915D02*
X10601564Y-21414391D01*
X10601564Y-21414391D02*
X10592040Y-21395344D01*
X10592040Y-21395344D02*
X10592040Y-21385820D01*
X10592040Y-21385820D02*
X10601564Y-21366772D01*
X10601564Y-21366772D02*
X10620612Y-21357248D01*
X10620612Y-21357248D02*
X10649183Y-21357248D01*
X10649183Y-21357248D02*
X10668231Y-21366772D01*
X10744421Y-21566772D02*
X10753945Y-21557248D01*
X10753945Y-21557248D02*
X10772993Y-21528677D01*
X10772993Y-21528677D02*
X10782517Y-21509629D01*
X10782517Y-21509629D02*
X10792040Y-21481058D01*
X10792040Y-21481058D02*
X10801564Y-21433439D01*
X10801564Y-21433439D02*
X10801564Y-21395344D01*
X10801564Y-21395344D02*
X10792040Y-21347724D01*
X10792040Y-21347724D02*
X10782517Y-21319153D01*
X10782517Y-21319153D02*
X10772993Y-21300105D01*
X10772993Y-21300105D02*
X10753945Y-21271534D01*
X10753945Y-21271534D02*
X10744421Y-21262010D01*
X11106326Y-21566772D02*
X11096802Y-21557248D01*
X11096802Y-21557248D02*
X11077755Y-21528677D01*
X11077755Y-21528677D02*
X11068231Y-21509629D01*
X11068231Y-21509629D02*
X11058707Y-21481058D01*
X11058707Y-21481058D02*
X11049183Y-21433439D01*
X11049183Y-21433439D02*
X11049183Y-21395344D01*
X11049183Y-21395344D02*
X11058707Y-21347724D01*
X11058707Y-21347724D02*
X11068231Y-21319153D01*
X11068231Y-21319153D02*
X11077755Y-21300105D01*
X11077755Y-21300105D02*
X11096802Y-21271534D01*
X11096802Y-21271534D02*
X11106326Y-21262010D01*
X11182517Y-21357248D02*
X11182517Y-21490582D01*
X11182517Y-21376296D02*
X11192040Y-21366772D01*
X11192040Y-21366772D02*
X11211088Y-21357248D01*
X11211088Y-21357248D02*
X11239659Y-21357248D01*
X11239659Y-21357248D02*
X11258707Y-21366772D01*
X11258707Y-21366772D02*
X11268231Y-21385820D01*
X11268231Y-21385820D02*
X11268231Y-21490582D01*
X11392040Y-21490582D02*
X11372993Y-21481058D01*
X11372993Y-21481058D02*
X11363469Y-21471534D01*
X11363469Y-21471534D02*
X11353945Y-21452486D01*
X11353945Y-21452486D02*
X11353945Y-21395344D01*
X11353945Y-21395344D02*
X11363469Y-21376296D01*
X11363469Y-21376296D02*
X11372993Y-21366772D01*
X11372993Y-21366772D02*
X11392040Y-21357248D01*
X11392040Y-21357248D02*
X11420612Y-21357248D01*
X11420612Y-21357248D02*
X11439659Y-21366772D01*
X11439659Y-21366772D02*
X11449183Y-21376296D01*
X11449183Y-21376296D02*
X11458707Y-21395344D01*
X11458707Y-21395344D02*
X11458707Y-21452486D01*
X11458707Y-21452486D02*
X11449183Y-21471534D01*
X11449183Y-21471534D02*
X11439659Y-21481058D01*
X11439659Y-21481058D02*
X11420612Y-21490582D01*
X11420612Y-21490582D02*
X11392040Y-21490582D01*
X11515850Y-21357248D02*
X11592040Y-21357248D01*
X11544421Y-21290582D02*
X11544421Y-21462010D01*
X11544421Y-21462010D02*
X11553945Y-21481058D01*
X11553945Y-21481058D02*
X11572993Y-21490582D01*
X11572993Y-21490582D02*
X11592040Y-21490582D01*
X11811088Y-21357248D02*
X11811088Y-21557248D01*
X11811088Y-21366772D02*
X11830136Y-21357248D01*
X11830136Y-21357248D02*
X11868231Y-21357248D01*
X11868231Y-21357248D02*
X11887279Y-21366772D01*
X11887279Y-21366772D02*
X11896802Y-21376296D01*
X11896802Y-21376296D02*
X11906326Y-21395344D01*
X11906326Y-21395344D02*
X11906326Y-21452486D01*
X11906326Y-21452486D02*
X11896802Y-21471534D01*
X11896802Y-21471534D02*
X11887279Y-21481058D01*
X11887279Y-21481058D02*
X11868231Y-21490582D01*
X11868231Y-21490582D02*
X11830136Y-21490582D01*
X11830136Y-21490582D02*
X11811088Y-21481058D01*
X12020612Y-21490582D02*
X12001564Y-21481058D01*
X12001564Y-21481058D02*
X11992040Y-21462010D01*
X11992040Y-21462010D02*
X11992040Y-21290582D01*
X12182517Y-21490582D02*
X12182517Y-21385820D01*
X12182517Y-21385820D02*
X12172993Y-21366772D01*
X12172993Y-21366772D02*
X12153945Y-21357248D01*
X12153945Y-21357248D02*
X12115850Y-21357248D01*
X12115850Y-21357248D02*
X12096802Y-21366772D01*
X12182517Y-21481058D02*
X12163469Y-21490582D01*
X12163469Y-21490582D02*
X12115850Y-21490582D01*
X12115850Y-21490582D02*
X12096802Y-21481058D01*
X12096802Y-21481058D02*
X12087279Y-21462010D01*
X12087279Y-21462010D02*
X12087279Y-21442963D01*
X12087279Y-21442963D02*
X12096802Y-21423915D01*
X12096802Y-21423915D02*
X12115850Y-21414391D01*
X12115850Y-21414391D02*
X12163469Y-21414391D01*
X12163469Y-21414391D02*
X12182517Y-21404867D01*
X12249183Y-21357248D02*
X12325374Y-21357248D01*
X12277755Y-21290582D02*
X12277755Y-21462010D01*
X12277755Y-21462010D02*
X12287279Y-21481058D01*
X12287279Y-21481058D02*
X12306326Y-21490582D01*
X12306326Y-21490582D02*
X12325374Y-21490582D01*
X12468231Y-21481058D02*
X12449183Y-21490582D01*
X12449183Y-21490582D02*
X12411088Y-21490582D01*
X12411088Y-21490582D02*
X12392040Y-21481058D01*
X12392040Y-21481058D02*
X12382517Y-21462010D01*
X12382517Y-21462010D02*
X12382517Y-21385820D01*
X12382517Y-21385820D02*
X12392040Y-21366772D01*
X12392040Y-21366772D02*
X12411088Y-21357248D01*
X12411088Y-21357248D02*
X12449183Y-21357248D01*
X12449183Y-21357248D02*
X12468231Y-21366772D01*
X12468231Y-21366772D02*
X12477755Y-21385820D01*
X12477755Y-21385820D02*
X12477755Y-21404867D01*
X12477755Y-21404867D02*
X12382517Y-21423915D01*
X12649183Y-21490582D02*
X12649183Y-21290582D01*
X12649183Y-21481058D02*
X12630136Y-21490582D01*
X12630136Y-21490582D02*
X12592040Y-21490582D01*
X12592040Y-21490582D02*
X12572993Y-21481058D01*
X12572993Y-21481058D02*
X12563469Y-21471534D01*
X12563469Y-21471534D02*
X12553945Y-21452486D01*
X12553945Y-21452486D02*
X12553945Y-21395344D01*
X12553945Y-21395344D02*
X12563469Y-21376296D01*
X12563469Y-21376296D02*
X12572993Y-21366772D01*
X12572993Y-21366772D02*
X12592040Y-21357248D01*
X12592040Y-21357248D02*
X12630136Y-21357248D01*
X12630136Y-21357248D02*
X12649183Y-21366772D01*
X12725374Y-21566772D02*
X12734898Y-21557248D01*
X12734898Y-21557248D02*
X12753945Y-21528677D01*
X12753945Y-21528677D02*
X12763469Y-21509629D01*
X12763469Y-21509629D02*
X12772993Y-21481058D01*
X12772993Y-21481058D02*
X12782517Y-21433439D01*
X12782517Y-21433439D02*
X12782517Y-21395344D01*
X12782517Y-21395344D02*
X12772993Y-21347724D01*
X12772993Y-21347724D02*
X12763469Y-21319153D01*
X12763469Y-21319153D02*
X12753945Y-21300105D01*
X12753945Y-21300105D02*
X12734898Y-21271534D01*
X12734898Y-21271534D02*
X12725374Y-21262010D01*
D13*
X5969358Y-21663098D02*
G75*
G02*
X5799178Y-21663098I-85090J0D01*
G01*
X5799178Y-21663098D02*
G75*
G02*
X5969358Y-21663098I85090J0D01*
G01*
D10*
X6334897Y-21754582D02*
X6220611Y-21754582D01*
X6277754Y-21754582D02*
X6277754Y-21554582D01*
X6277754Y-21554582D02*
X6258707Y-21583153D01*
X6258707Y-21583153D02*
X6239659Y-21602201D01*
X6239659Y-21602201D02*
X6220611Y-21611724D01*
X6420611Y-21735534D02*
X6430135Y-21745058D01*
X6430135Y-21745058D02*
X6420611Y-21754582D01*
X6420611Y-21754582D02*
X6411088Y-21745058D01*
X6411088Y-21745058D02*
X6420611Y-21735534D01*
X6420611Y-21735534D02*
X6420611Y-21754582D01*
X6496802Y-21554582D02*
X6630135Y-21554582D01*
X6630135Y-21554582D02*
X6544421Y-21754582D01*
X6744421Y-21554582D02*
X6763469Y-21554582D01*
X6763469Y-21554582D02*
X6782516Y-21564105D01*
X6782516Y-21564105D02*
X6792040Y-21573629D01*
X6792040Y-21573629D02*
X6801564Y-21592677D01*
X6801564Y-21592677D02*
X6811088Y-21630772D01*
X6811088Y-21630772D02*
X6811088Y-21678391D01*
X6811088Y-21678391D02*
X6801564Y-21716486D01*
X6801564Y-21716486D02*
X6792040Y-21735534D01*
X6792040Y-21735534D02*
X6782516Y-21745058D01*
X6782516Y-21745058D02*
X6763469Y-21754582D01*
X6763469Y-21754582D02*
X6744421Y-21754582D01*
X6744421Y-21754582D02*
X6725373Y-21745058D01*
X6725373Y-21745058D02*
X6715849Y-21735534D01*
X6715849Y-21735534D02*
X6706326Y-21716486D01*
X6706326Y-21716486D02*
X6696802Y-21678391D01*
X6696802Y-21678391D02*
X6696802Y-21630772D01*
X6696802Y-21630772D02*
X6706326Y-21592677D01*
X6706326Y-21592677D02*
X6715849Y-21573629D01*
X6715849Y-21573629D02*
X6725373Y-21564105D01*
X6725373Y-21564105D02*
X6744421Y-21554582D01*
X6887278Y-21573629D02*
X6896802Y-21564105D01*
X6896802Y-21564105D02*
X6915849Y-21554582D01*
X6915849Y-21554582D02*
X6963469Y-21554582D01*
X6963469Y-21554582D02*
X6982516Y-21564105D01*
X6982516Y-21564105D02*
X6992040Y-21573629D01*
X6992040Y-21573629D02*
X7001564Y-21592677D01*
X7001564Y-21592677D02*
X7001564Y-21611724D01*
X7001564Y-21611724D02*
X6992040Y-21640296D01*
X6992040Y-21640296D02*
X6877754Y-21754582D01*
X6877754Y-21754582D02*
X7001564Y-21754582D01*
X7087278Y-21754582D02*
X7087278Y-21621248D01*
X7087278Y-21640296D02*
X7096802Y-21630772D01*
X7096802Y-21630772D02*
X7115849Y-21621248D01*
X7115849Y-21621248D02*
X7144421Y-21621248D01*
X7144421Y-21621248D02*
X7163469Y-21630772D01*
X7163469Y-21630772D02*
X7172992Y-21649820D01*
X7172992Y-21649820D02*
X7172992Y-21754582D01*
X7172992Y-21649820D02*
X7182516Y-21630772D01*
X7182516Y-21630772D02*
X7201564Y-21621248D01*
X7201564Y-21621248D02*
X7230135Y-21621248D01*
X7230135Y-21621248D02*
X7249183Y-21630772D01*
X7249183Y-21630772D02*
X7258707Y-21649820D01*
X7258707Y-21649820D02*
X7258707Y-21754582D01*
X7353945Y-21754582D02*
X7353945Y-21621248D01*
X7353945Y-21640296D02*
X7363469Y-21630772D01*
X7363469Y-21630772D02*
X7382516Y-21621248D01*
X7382516Y-21621248D02*
X7411088Y-21621248D01*
X7411088Y-21621248D02*
X7430135Y-21630772D01*
X7430135Y-21630772D02*
X7439659Y-21649820D01*
X7439659Y-21649820D02*
X7439659Y-21754582D01*
X7439659Y-21649820D02*
X7449183Y-21630772D01*
X7449183Y-21630772D02*
X7468230Y-21621248D01*
X7468230Y-21621248D02*
X7496802Y-21621248D01*
X7496802Y-21621248D02*
X7515850Y-21630772D01*
X7515850Y-21630772D02*
X7525373Y-21649820D01*
X7525373Y-21649820D02*
X7525373Y-21754582D01*
X7915850Y-21545058D02*
X7744421Y-21802201D01*
X8172992Y-21554582D02*
X8192040Y-21554582D01*
X8192040Y-21554582D02*
X8211088Y-21564105D01*
X8211088Y-21564105D02*
X8220612Y-21573629D01*
X8220612Y-21573629D02*
X8230135Y-21592677D01*
X8230135Y-21592677D02*
X8239659Y-21630772D01*
X8239659Y-21630772D02*
X8239659Y-21678391D01*
X8239659Y-21678391D02*
X8230135Y-21716486D01*
X8230135Y-21716486D02*
X8220612Y-21735534D01*
X8220612Y-21735534D02*
X8211088Y-21745058D01*
X8211088Y-21745058D02*
X8192040Y-21754582D01*
X8192040Y-21754582D02*
X8172992Y-21754582D01*
X8172992Y-21754582D02*
X8153945Y-21745058D01*
X8153945Y-21745058D02*
X8144421Y-21735534D01*
X8144421Y-21735534D02*
X8134897Y-21716486D01*
X8134897Y-21716486D02*
X8125373Y-21678391D01*
X8125373Y-21678391D02*
X8125373Y-21630772D01*
X8125373Y-21630772D02*
X8134897Y-21592677D01*
X8134897Y-21592677D02*
X8144421Y-21573629D01*
X8144421Y-21573629D02*
X8153945Y-21564105D01*
X8153945Y-21564105D02*
X8172992Y-21554582D01*
X8325373Y-21735534D02*
X8334897Y-21745058D01*
X8334897Y-21745058D02*
X8325373Y-21754582D01*
X8325373Y-21754582D02*
X8315850Y-21745058D01*
X8315850Y-21745058D02*
X8325373Y-21735534D01*
X8325373Y-21735534D02*
X8325373Y-21754582D01*
X8458707Y-21554582D02*
X8477755Y-21554582D01*
X8477755Y-21554582D02*
X8496802Y-21564105D01*
X8496802Y-21564105D02*
X8506326Y-21573629D01*
X8506326Y-21573629D02*
X8515850Y-21592677D01*
X8515850Y-21592677D02*
X8525374Y-21630772D01*
X8525374Y-21630772D02*
X8525374Y-21678391D01*
X8525374Y-21678391D02*
X8515850Y-21716486D01*
X8515850Y-21716486D02*
X8506326Y-21735534D01*
X8506326Y-21735534D02*
X8496802Y-21745058D01*
X8496802Y-21745058D02*
X8477755Y-21754582D01*
X8477755Y-21754582D02*
X8458707Y-21754582D01*
X8458707Y-21754582D02*
X8439659Y-21745058D01*
X8439659Y-21745058D02*
X8430135Y-21735534D01*
X8430135Y-21735534D02*
X8420612Y-21716486D01*
X8420612Y-21716486D02*
X8411088Y-21678391D01*
X8411088Y-21678391D02*
X8411088Y-21630772D01*
X8411088Y-21630772D02*
X8420612Y-21592677D01*
X8420612Y-21592677D02*
X8430135Y-21573629D01*
X8430135Y-21573629D02*
X8439659Y-21564105D01*
X8439659Y-21564105D02*
X8458707Y-21554582D01*
X8696802Y-21554582D02*
X8658707Y-21554582D01*
X8658707Y-21554582D02*
X8639659Y-21564105D01*
X8639659Y-21564105D02*
X8630135Y-21573629D01*
X8630135Y-21573629D02*
X8611088Y-21602201D01*
X8611088Y-21602201D02*
X8601564Y-21640296D01*
X8601564Y-21640296D02*
X8601564Y-21716486D01*
X8601564Y-21716486D02*
X8611088Y-21735534D01*
X8611088Y-21735534D02*
X8620612Y-21745058D01*
X8620612Y-21745058D02*
X8639659Y-21754582D01*
X8639659Y-21754582D02*
X8677755Y-21754582D01*
X8677755Y-21754582D02*
X8696802Y-21745058D01*
X8696802Y-21745058D02*
X8706326Y-21735534D01*
X8706326Y-21735534D02*
X8715850Y-21716486D01*
X8715850Y-21716486D02*
X8715850Y-21668867D01*
X8715850Y-21668867D02*
X8706326Y-21649820D01*
X8706326Y-21649820D02*
X8696802Y-21640296D01*
X8696802Y-21640296D02*
X8677755Y-21630772D01*
X8677755Y-21630772D02*
X8639659Y-21630772D01*
X8639659Y-21630772D02*
X8620612Y-21640296D01*
X8620612Y-21640296D02*
X8611088Y-21649820D01*
X8611088Y-21649820D02*
X8601564Y-21668867D01*
X8782516Y-21554582D02*
X8915850Y-21554582D01*
X8915850Y-21554582D02*
X8830135Y-21754582D01*
X9030135Y-21554582D02*
X9049183Y-21554582D01*
X9049183Y-21554582D02*
X9068231Y-21564105D01*
X9068231Y-21564105D02*
X9077755Y-21573629D01*
X9077755Y-21573629D02*
X9087278Y-21592677D01*
X9087278Y-21592677D02*
X9096802Y-21630772D01*
X9096802Y-21630772D02*
X9096802Y-21678391D01*
X9096802Y-21678391D02*
X9087278Y-21716486D01*
X9087278Y-21716486D02*
X9077755Y-21735534D01*
X9077755Y-21735534D02*
X9068231Y-21745058D01*
X9068231Y-21745058D02*
X9049183Y-21754582D01*
X9049183Y-21754582D02*
X9030135Y-21754582D01*
X9030135Y-21754582D02*
X9011088Y-21745058D01*
X9011088Y-21745058D02*
X9001564Y-21735534D01*
X9001564Y-21735534D02*
X8992040Y-21716486D01*
X8992040Y-21716486D02*
X8982516Y-21678391D01*
X8982516Y-21678391D02*
X8982516Y-21630772D01*
X8982516Y-21630772D02*
X8992040Y-21592677D01*
X8992040Y-21592677D02*
X9001564Y-21573629D01*
X9001564Y-21573629D02*
X9011088Y-21564105D01*
X9011088Y-21564105D02*
X9030135Y-21554582D01*
X9172993Y-21554582D02*
X9172993Y-21592677D01*
X9249183Y-21554582D02*
X9249183Y-21592677D01*
X9544421Y-21830772D02*
X9534897Y-21821248D01*
X9534897Y-21821248D02*
X9515850Y-21792677D01*
X9515850Y-21792677D02*
X9506326Y-21773629D01*
X9506326Y-21773629D02*
X9496802Y-21745058D01*
X9496802Y-21745058D02*
X9487278Y-21697439D01*
X9487278Y-21697439D02*
X9487278Y-21659344D01*
X9487278Y-21659344D02*
X9496802Y-21611724D01*
X9496802Y-21611724D02*
X9506326Y-21583153D01*
X9506326Y-21583153D02*
X9515850Y-21564105D01*
X9515850Y-21564105D02*
X9534897Y-21535534D01*
X9534897Y-21535534D02*
X9544421Y-21526010D01*
X9649183Y-21640296D02*
X9630136Y-21630772D01*
X9630136Y-21630772D02*
X9620612Y-21621248D01*
X9620612Y-21621248D02*
X9611088Y-21602201D01*
X9611088Y-21602201D02*
X9611088Y-21592677D01*
X9611088Y-21592677D02*
X9620612Y-21573629D01*
X9620612Y-21573629D02*
X9630136Y-21564105D01*
X9630136Y-21564105D02*
X9649183Y-21554582D01*
X9649183Y-21554582D02*
X9687278Y-21554582D01*
X9687278Y-21554582D02*
X9706326Y-21564105D01*
X9706326Y-21564105D02*
X9715850Y-21573629D01*
X9715850Y-21573629D02*
X9725374Y-21592677D01*
X9725374Y-21592677D02*
X9725374Y-21602201D01*
X9725374Y-21602201D02*
X9715850Y-21621248D01*
X9715850Y-21621248D02*
X9706326Y-21630772D01*
X9706326Y-21630772D02*
X9687278Y-21640296D01*
X9687278Y-21640296D02*
X9649183Y-21640296D01*
X9649183Y-21640296D02*
X9630136Y-21649820D01*
X9630136Y-21649820D02*
X9620612Y-21659344D01*
X9620612Y-21659344D02*
X9611088Y-21678391D01*
X9611088Y-21678391D02*
X9611088Y-21716486D01*
X9611088Y-21716486D02*
X9620612Y-21735534D01*
X9620612Y-21735534D02*
X9630136Y-21745058D01*
X9630136Y-21745058D02*
X9649183Y-21754582D01*
X9649183Y-21754582D02*
X9687278Y-21754582D01*
X9687278Y-21754582D02*
X9706326Y-21745058D01*
X9706326Y-21745058D02*
X9715850Y-21735534D01*
X9715850Y-21735534D02*
X9725374Y-21716486D01*
X9725374Y-21716486D02*
X9725374Y-21678391D01*
X9725374Y-21678391D02*
X9715850Y-21659344D01*
X9715850Y-21659344D02*
X9706326Y-21649820D01*
X9706326Y-21649820D02*
X9687278Y-21640296D01*
X9896802Y-21621248D02*
X9896802Y-21754582D01*
X9849183Y-21545058D02*
X9801564Y-21687915D01*
X9801564Y-21687915D02*
X9925374Y-21687915D01*
X10153945Y-21754582D02*
X10153945Y-21554582D01*
X10239659Y-21754582D02*
X10239659Y-21649820D01*
X10239659Y-21649820D02*
X10230136Y-21630772D01*
X10230136Y-21630772D02*
X10211088Y-21621248D01*
X10211088Y-21621248D02*
X10182517Y-21621248D01*
X10182517Y-21621248D02*
X10163469Y-21630772D01*
X10163469Y-21630772D02*
X10153945Y-21640296D01*
X10363469Y-21754582D02*
X10344421Y-21745058D01*
X10344421Y-21745058D02*
X10334898Y-21735534D01*
X10334898Y-21735534D02*
X10325374Y-21716486D01*
X10325374Y-21716486D02*
X10325374Y-21659344D01*
X10325374Y-21659344D02*
X10334898Y-21640296D01*
X10334898Y-21640296D02*
X10344421Y-21630772D01*
X10344421Y-21630772D02*
X10363469Y-21621248D01*
X10363469Y-21621248D02*
X10392040Y-21621248D01*
X10392040Y-21621248D02*
X10411088Y-21630772D01*
X10411088Y-21630772D02*
X10420612Y-21640296D01*
X10420612Y-21640296D02*
X10430136Y-21659344D01*
X10430136Y-21659344D02*
X10430136Y-21716486D01*
X10430136Y-21716486D02*
X10420612Y-21735534D01*
X10420612Y-21735534D02*
X10411088Y-21745058D01*
X10411088Y-21745058D02*
X10392040Y-21754582D01*
X10392040Y-21754582D02*
X10363469Y-21754582D01*
X10544421Y-21754582D02*
X10525374Y-21745058D01*
X10525374Y-21745058D02*
X10515850Y-21726010D01*
X10515850Y-21726010D02*
X10515850Y-21554582D01*
X10696802Y-21745058D02*
X10677755Y-21754582D01*
X10677755Y-21754582D02*
X10639659Y-21754582D01*
X10639659Y-21754582D02*
X10620612Y-21745058D01*
X10620612Y-21745058D02*
X10611088Y-21726010D01*
X10611088Y-21726010D02*
X10611088Y-21649820D01*
X10611088Y-21649820D02*
X10620612Y-21630772D01*
X10620612Y-21630772D02*
X10639659Y-21621248D01*
X10639659Y-21621248D02*
X10677755Y-21621248D01*
X10677755Y-21621248D02*
X10696802Y-21630772D01*
X10696802Y-21630772D02*
X10706326Y-21649820D01*
X10706326Y-21649820D02*
X10706326Y-21668867D01*
X10706326Y-21668867D02*
X10611088Y-21687915D01*
X10782517Y-21745058D02*
X10801564Y-21754582D01*
X10801564Y-21754582D02*
X10839659Y-21754582D01*
X10839659Y-21754582D02*
X10858707Y-21745058D01*
X10858707Y-21745058D02*
X10868231Y-21726010D01*
X10868231Y-21726010D02*
X10868231Y-21716486D01*
X10868231Y-21716486D02*
X10858707Y-21697439D01*
X10858707Y-21697439D02*
X10839659Y-21687915D01*
X10839659Y-21687915D02*
X10811088Y-21687915D01*
X10811088Y-21687915D02*
X10792040Y-21678391D01*
X10792040Y-21678391D02*
X10782517Y-21659344D01*
X10782517Y-21659344D02*
X10782517Y-21649820D01*
X10782517Y-21649820D02*
X10792040Y-21630772D01*
X10792040Y-21630772D02*
X10811088Y-21621248D01*
X10811088Y-21621248D02*
X10839659Y-21621248D01*
X10839659Y-21621248D02*
X10858707Y-21630772D01*
X10934898Y-21830772D02*
X10944421Y-21821248D01*
X10944421Y-21821248D02*
X10963469Y-21792677D01*
X10963469Y-21792677D02*
X10972993Y-21773629D01*
X10972993Y-21773629D02*
X10982517Y-21745058D01*
X10982517Y-21745058D02*
X10992040Y-21697439D01*
X10992040Y-21697439D02*
X10992040Y-21659344D01*
X10992040Y-21659344D02*
X10982517Y-21611724D01*
X10982517Y-21611724D02*
X10972993Y-21583153D01*
X10972993Y-21583153D02*
X10963469Y-21564105D01*
X10963469Y-21564105D02*
X10944421Y-21535534D01*
X10944421Y-21535534D02*
X10934898Y-21526010D01*
X11296802Y-21830772D02*
X11287278Y-21821248D01*
X11287278Y-21821248D02*
X11268231Y-21792677D01*
X11268231Y-21792677D02*
X11258707Y-21773629D01*
X11258707Y-21773629D02*
X11249183Y-21745058D01*
X11249183Y-21745058D02*
X11239659Y-21697439D01*
X11239659Y-21697439D02*
X11239659Y-21659344D01*
X11239659Y-21659344D02*
X11249183Y-21611724D01*
X11249183Y-21611724D02*
X11258707Y-21583153D01*
X11258707Y-21583153D02*
X11268231Y-21564105D01*
X11268231Y-21564105D02*
X11287278Y-21535534D01*
X11287278Y-21535534D02*
X11296802Y-21526010D01*
X11372993Y-21621248D02*
X11372993Y-21754582D01*
X11372993Y-21640296D02*
X11382517Y-21630772D01*
X11382517Y-21630772D02*
X11401564Y-21621248D01*
X11401564Y-21621248D02*
X11430136Y-21621248D01*
X11430136Y-21621248D02*
X11449183Y-21630772D01*
X11449183Y-21630772D02*
X11458707Y-21649820D01*
X11458707Y-21649820D02*
X11458707Y-21754582D01*
X11582517Y-21754582D02*
X11563469Y-21745058D01*
X11563469Y-21745058D02*
X11553945Y-21735534D01*
X11553945Y-21735534D02*
X11544421Y-21716486D01*
X11544421Y-21716486D02*
X11544421Y-21659344D01*
X11544421Y-21659344D02*
X11553945Y-21640296D01*
X11553945Y-21640296D02*
X11563469Y-21630772D01*
X11563469Y-21630772D02*
X11582517Y-21621248D01*
X11582517Y-21621248D02*
X11611088Y-21621248D01*
X11611088Y-21621248D02*
X11630136Y-21630772D01*
X11630136Y-21630772D02*
X11639659Y-21640296D01*
X11639659Y-21640296D02*
X11649183Y-21659344D01*
X11649183Y-21659344D02*
X11649183Y-21716486D01*
X11649183Y-21716486D02*
X11639659Y-21735534D01*
X11639659Y-21735534D02*
X11630136Y-21745058D01*
X11630136Y-21745058D02*
X11611088Y-21754582D01*
X11611088Y-21754582D02*
X11582517Y-21754582D01*
X11706326Y-21621248D02*
X11782517Y-21621248D01*
X11734898Y-21554582D02*
X11734898Y-21726010D01*
X11734898Y-21726010D02*
X11744421Y-21745058D01*
X11744421Y-21745058D02*
X11763469Y-21754582D01*
X11763469Y-21754582D02*
X11782517Y-21754582D01*
X12001564Y-21621248D02*
X12001564Y-21821248D01*
X12001564Y-21630772D02*
X12020612Y-21621248D01*
X12020612Y-21621248D02*
X12058707Y-21621248D01*
X12058707Y-21621248D02*
X12077755Y-21630772D01*
X12077755Y-21630772D02*
X12087279Y-21640296D01*
X12087279Y-21640296D02*
X12096802Y-21659344D01*
X12096802Y-21659344D02*
X12096802Y-21716486D01*
X12096802Y-21716486D02*
X12087279Y-21735534D01*
X12087279Y-21735534D02*
X12077755Y-21745058D01*
X12077755Y-21745058D02*
X12058707Y-21754582D01*
X12058707Y-21754582D02*
X12020612Y-21754582D01*
X12020612Y-21754582D02*
X12001564Y-21745058D01*
X12211088Y-21754582D02*
X12192040Y-21745058D01*
X12192040Y-21745058D02*
X12182517Y-21726010D01*
X12182517Y-21726010D02*
X12182517Y-21554582D01*
X12372993Y-21754582D02*
X12372993Y-21649820D01*
X12372993Y-21649820D02*
X12363469Y-21630772D01*
X12363469Y-21630772D02*
X12344421Y-21621248D01*
X12344421Y-21621248D02*
X12306326Y-21621248D01*
X12306326Y-21621248D02*
X12287279Y-21630772D01*
X12372993Y-21745058D02*
X12353945Y-21754582D01*
X12353945Y-21754582D02*
X12306326Y-21754582D01*
X12306326Y-21754582D02*
X12287279Y-21745058D01*
X12287279Y-21745058D02*
X12277755Y-21726010D01*
X12277755Y-21726010D02*
X12277755Y-21706963D01*
X12277755Y-21706963D02*
X12287279Y-21687915D01*
X12287279Y-21687915D02*
X12306326Y-21678391D01*
X12306326Y-21678391D02*
X12353945Y-21678391D01*
X12353945Y-21678391D02*
X12372993Y-21668867D01*
X12439660Y-21621248D02*
X12515850Y-21621248D01*
X12468231Y-21554582D02*
X12468231Y-21726010D01*
X12468231Y-21726010D02*
X12477755Y-21745058D01*
X12477755Y-21745058D02*
X12496802Y-21754582D01*
X12496802Y-21754582D02*
X12515850Y-21754582D01*
X12658707Y-21745058D02*
X12639660Y-21754582D01*
X12639660Y-21754582D02*
X12601564Y-21754582D01*
X12601564Y-21754582D02*
X12582517Y-21745058D01*
X12582517Y-21745058D02*
X12572993Y-21726010D01*
X12572993Y-21726010D02*
X12572993Y-21649820D01*
X12572993Y-21649820D02*
X12582517Y-21630772D01*
X12582517Y-21630772D02*
X12601564Y-21621248D01*
X12601564Y-21621248D02*
X12639660Y-21621248D01*
X12639660Y-21621248D02*
X12658707Y-21630772D01*
X12658707Y-21630772D02*
X12668231Y-21649820D01*
X12668231Y-21649820D02*
X12668231Y-21668867D01*
X12668231Y-21668867D02*
X12572993Y-21687915D01*
X12839660Y-21754582D02*
X12839660Y-21554582D01*
X12839660Y-21745058D02*
X12820612Y-21754582D01*
X12820612Y-21754582D02*
X12782517Y-21754582D01*
X12782517Y-21754582D02*
X12763469Y-21745058D01*
X12763469Y-21745058D02*
X12753945Y-21735534D01*
X12753945Y-21735534D02*
X12744421Y-21716486D01*
X12744421Y-21716486D02*
X12744421Y-21659344D01*
X12744421Y-21659344D02*
X12753945Y-21640296D01*
X12753945Y-21640296D02*
X12763469Y-21630772D01*
X12763469Y-21630772D02*
X12782517Y-21621248D01*
X12782517Y-21621248D02*
X12820612Y-21621248D01*
X12820612Y-21621248D02*
X12839660Y-21630772D01*
X12915850Y-21830772D02*
X12925374Y-21821248D01*
X12925374Y-21821248D02*
X12944421Y-21792677D01*
X12944421Y-21792677D02*
X12953945Y-21773629D01*
X12953945Y-21773629D02*
X12963469Y-21745058D01*
X12963469Y-21745058D02*
X12972993Y-21697439D01*
X12972993Y-21697439D02*
X12972993Y-21659344D01*
X12972993Y-21659344D02*
X12963469Y-21611724D01*
X12963469Y-21611724D02*
X12953945Y-21583153D01*
X12953945Y-21583153D02*
X12944421Y-21564105D01*
X12944421Y-21564105D02*
X12925374Y-21535534D01*
X12925374Y-21535534D02*
X12915850Y-21526010D01*
X5869358Y-21853278D02*
X5869358Y-22053278D01*
X5769358Y-21953278D02*
X5969358Y-21953278D01*
X6211088Y-21844762D02*
X6334897Y-21844762D01*
X6334897Y-21844762D02*
X6268230Y-21920952D01*
X6268230Y-21920952D02*
X6296802Y-21920952D01*
X6296802Y-21920952D02*
X6315849Y-21930476D01*
X6315849Y-21930476D02*
X6325373Y-21940000D01*
X6325373Y-21940000D02*
X6334897Y-21959047D01*
X6334897Y-21959047D02*
X6334897Y-22006666D01*
X6334897Y-22006666D02*
X6325373Y-22025714D01*
X6325373Y-22025714D02*
X6315849Y-22035238D01*
X6315849Y-22035238D02*
X6296802Y-22044762D01*
X6296802Y-22044762D02*
X6239659Y-22044762D01*
X6239659Y-22044762D02*
X6220611Y-22035238D01*
X6220611Y-22035238D02*
X6211088Y-22025714D01*
X6420611Y-22025714D02*
X6430135Y-22035238D01*
X6430135Y-22035238D02*
X6420611Y-22044762D01*
X6420611Y-22044762D02*
X6411088Y-22035238D01*
X6411088Y-22035238D02*
X6420611Y-22025714D01*
X6420611Y-22025714D02*
X6420611Y-22044762D01*
X6553945Y-21844762D02*
X6572992Y-21844762D01*
X6572992Y-21844762D02*
X6592040Y-21854285D01*
X6592040Y-21854285D02*
X6601564Y-21863809D01*
X6601564Y-21863809D02*
X6611088Y-21882857D01*
X6611088Y-21882857D02*
X6620611Y-21920952D01*
X6620611Y-21920952D02*
X6620611Y-21968571D01*
X6620611Y-21968571D02*
X6611088Y-22006666D01*
X6611088Y-22006666D02*
X6601564Y-22025714D01*
X6601564Y-22025714D02*
X6592040Y-22035238D01*
X6592040Y-22035238D02*
X6572992Y-22044762D01*
X6572992Y-22044762D02*
X6553945Y-22044762D01*
X6553945Y-22044762D02*
X6534897Y-22035238D01*
X6534897Y-22035238D02*
X6525373Y-22025714D01*
X6525373Y-22025714D02*
X6515849Y-22006666D01*
X6515849Y-22006666D02*
X6506326Y-21968571D01*
X6506326Y-21968571D02*
X6506326Y-21920952D01*
X6506326Y-21920952D02*
X6515849Y-21882857D01*
X6515849Y-21882857D02*
X6525373Y-21863809D01*
X6525373Y-21863809D02*
X6534897Y-21854285D01*
X6534897Y-21854285D02*
X6553945Y-21844762D01*
X6744421Y-21844762D02*
X6763469Y-21844762D01*
X6763469Y-21844762D02*
X6782516Y-21854285D01*
X6782516Y-21854285D02*
X6792040Y-21863809D01*
X6792040Y-21863809D02*
X6801564Y-21882857D01*
X6801564Y-21882857D02*
X6811088Y-21920952D01*
X6811088Y-21920952D02*
X6811088Y-21968571D01*
X6811088Y-21968571D02*
X6801564Y-22006666D01*
X6801564Y-22006666D02*
X6792040Y-22025714D01*
X6792040Y-22025714D02*
X6782516Y-22035238D01*
X6782516Y-22035238D02*
X6763469Y-22044762D01*
X6763469Y-22044762D02*
X6744421Y-22044762D01*
X6744421Y-22044762D02*
X6725373Y-22035238D01*
X6725373Y-22035238D02*
X6715849Y-22025714D01*
X6715849Y-22025714D02*
X6706326Y-22006666D01*
X6706326Y-22006666D02*
X6696802Y-21968571D01*
X6696802Y-21968571D02*
X6696802Y-21920952D01*
X6696802Y-21920952D02*
X6706326Y-21882857D01*
X6706326Y-21882857D02*
X6715849Y-21863809D01*
X6715849Y-21863809D02*
X6725373Y-21854285D01*
X6725373Y-21854285D02*
X6744421Y-21844762D01*
X6934897Y-21844762D02*
X6953945Y-21844762D01*
X6953945Y-21844762D02*
X6972992Y-21854285D01*
X6972992Y-21854285D02*
X6982516Y-21863809D01*
X6982516Y-21863809D02*
X6992040Y-21882857D01*
X6992040Y-21882857D02*
X7001564Y-21920952D01*
X7001564Y-21920952D02*
X7001564Y-21968571D01*
X7001564Y-21968571D02*
X6992040Y-22006666D01*
X6992040Y-22006666D02*
X6982516Y-22025714D01*
X6982516Y-22025714D02*
X6972992Y-22035238D01*
X6972992Y-22035238D02*
X6953945Y-22044762D01*
X6953945Y-22044762D02*
X6934897Y-22044762D01*
X6934897Y-22044762D02*
X6915849Y-22035238D01*
X6915849Y-22035238D02*
X6906326Y-22025714D01*
X6906326Y-22025714D02*
X6896802Y-22006666D01*
X6896802Y-22006666D02*
X6887278Y-21968571D01*
X6887278Y-21968571D02*
X6887278Y-21920952D01*
X6887278Y-21920952D02*
X6896802Y-21882857D01*
X6896802Y-21882857D02*
X6906326Y-21863809D01*
X6906326Y-21863809D02*
X6915849Y-21854285D01*
X6915849Y-21854285D02*
X6934897Y-21844762D01*
X7087278Y-22044762D02*
X7087278Y-21911428D01*
X7087278Y-21930476D02*
X7096802Y-21920952D01*
X7096802Y-21920952D02*
X7115849Y-21911428D01*
X7115849Y-21911428D02*
X7144421Y-21911428D01*
X7144421Y-21911428D02*
X7163469Y-21920952D01*
X7163469Y-21920952D02*
X7172992Y-21940000D01*
X7172992Y-21940000D02*
X7172992Y-22044762D01*
X7172992Y-21940000D02*
X7182516Y-21920952D01*
X7182516Y-21920952D02*
X7201564Y-21911428D01*
X7201564Y-21911428D02*
X7230135Y-21911428D01*
X7230135Y-21911428D02*
X7249183Y-21920952D01*
X7249183Y-21920952D02*
X7258707Y-21940000D01*
X7258707Y-21940000D02*
X7258707Y-22044762D01*
X7353945Y-22044762D02*
X7353945Y-21911428D01*
X7353945Y-21930476D02*
X7363469Y-21920952D01*
X7363469Y-21920952D02*
X7382516Y-21911428D01*
X7382516Y-21911428D02*
X7411088Y-21911428D01*
X7411088Y-21911428D02*
X7430135Y-21920952D01*
X7430135Y-21920952D02*
X7439659Y-21940000D01*
X7439659Y-21940000D02*
X7439659Y-22044762D01*
X7439659Y-21940000D02*
X7449183Y-21920952D01*
X7449183Y-21920952D02*
X7468230Y-21911428D01*
X7468230Y-21911428D02*
X7496802Y-21911428D01*
X7496802Y-21911428D02*
X7515850Y-21920952D01*
X7515850Y-21920952D02*
X7525373Y-21940000D01*
X7525373Y-21940000D02*
X7525373Y-22044762D01*
X7915850Y-21835238D02*
X7744421Y-22092381D01*
X8172992Y-21844762D02*
X8192040Y-21844762D01*
X8192040Y-21844762D02*
X8211088Y-21854285D01*
X8211088Y-21854285D02*
X8220612Y-21863809D01*
X8220612Y-21863809D02*
X8230135Y-21882857D01*
X8230135Y-21882857D02*
X8239659Y-21920952D01*
X8239659Y-21920952D02*
X8239659Y-21968571D01*
X8239659Y-21968571D02*
X8230135Y-22006666D01*
X8230135Y-22006666D02*
X8220612Y-22025714D01*
X8220612Y-22025714D02*
X8211088Y-22035238D01*
X8211088Y-22035238D02*
X8192040Y-22044762D01*
X8192040Y-22044762D02*
X8172992Y-22044762D01*
X8172992Y-22044762D02*
X8153945Y-22035238D01*
X8153945Y-22035238D02*
X8144421Y-22025714D01*
X8144421Y-22025714D02*
X8134897Y-22006666D01*
X8134897Y-22006666D02*
X8125373Y-21968571D01*
X8125373Y-21968571D02*
X8125373Y-21920952D01*
X8125373Y-21920952D02*
X8134897Y-21882857D01*
X8134897Y-21882857D02*
X8144421Y-21863809D01*
X8144421Y-21863809D02*
X8153945Y-21854285D01*
X8153945Y-21854285D02*
X8172992Y-21844762D01*
X8325373Y-22025714D02*
X8334897Y-22035238D01*
X8334897Y-22035238D02*
X8325373Y-22044762D01*
X8325373Y-22044762D02*
X8315850Y-22035238D01*
X8315850Y-22035238D02*
X8325373Y-22025714D01*
X8325373Y-22025714D02*
X8325373Y-22044762D01*
X8525374Y-22044762D02*
X8411088Y-22044762D01*
X8468231Y-22044762D02*
X8468231Y-21844762D01*
X8468231Y-21844762D02*
X8449183Y-21873333D01*
X8449183Y-21873333D02*
X8430135Y-21892381D01*
X8430135Y-21892381D02*
X8411088Y-21901904D01*
X8715850Y-22044762D02*
X8601564Y-22044762D01*
X8658707Y-22044762D02*
X8658707Y-21844762D01*
X8658707Y-21844762D02*
X8639659Y-21873333D01*
X8639659Y-21873333D02*
X8620612Y-21892381D01*
X8620612Y-21892381D02*
X8601564Y-21901904D01*
X8830135Y-21930476D02*
X8811088Y-21920952D01*
X8811088Y-21920952D02*
X8801564Y-21911428D01*
X8801564Y-21911428D02*
X8792040Y-21892381D01*
X8792040Y-21892381D02*
X8792040Y-21882857D01*
X8792040Y-21882857D02*
X8801564Y-21863809D01*
X8801564Y-21863809D02*
X8811088Y-21854285D01*
X8811088Y-21854285D02*
X8830135Y-21844762D01*
X8830135Y-21844762D02*
X8868231Y-21844762D01*
X8868231Y-21844762D02*
X8887278Y-21854285D01*
X8887278Y-21854285D02*
X8896802Y-21863809D01*
X8896802Y-21863809D02*
X8906326Y-21882857D01*
X8906326Y-21882857D02*
X8906326Y-21892381D01*
X8906326Y-21892381D02*
X8896802Y-21911428D01*
X8896802Y-21911428D02*
X8887278Y-21920952D01*
X8887278Y-21920952D02*
X8868231Y-21930476D01*
X8868231Y-21930476D02*
X8830135Y-21930476D01*
X8830135Y-21930476D02*
X8811088Y-21940000D01*
X8811088Y-21940000D02*
X8801564Y-21949524D01*
X8801564Y-21949524D02*
X8792040Y-21968571D01*
X8792040Y-21968571D02*
X8792040Y-22006666D01*
X8792040Y-22006666D02*
X8801564Y-22025714D01*
X8801564Y-22025714D02*
X8811088Y-22035238D01*
X8811088Y-22035238D02*
X8830135Y-22044762D01*
X8830135Y-22044762D02*
X8868231Y-22044762D01*
X8868231Y-22044762D02*
X8887278Y-22035238D01*
X8887278Y-22035238D02*
X8896802Y-22025714D01*
X8896802Y-22025714D02*
X8906326Y-22006666D01*
X8906326Y-22006666D02*
X8906326Y-21968571D01*
X8906326Y-21968571D02*
X8896802Y-21949524D01*
X8896802Y-21949524D02*
X8887278Y-21940000D01*
X8887278Y-21940000D02*
X8868231Y-21930476D01*
X9096802Y-22044762D02*
X8982516Y-22044762D01*
X9039659Y-22044762D02*
X9039659Y-21844762D01*
X9039659Y-21844762D02*
X9020612Y-21873333D01*
X9020612Y-21873333D02*
X9001564Y-21892381D01*
X9001564Y-21892381D02*
X8982516Y-21901904D01*
X9172993Y-21844762D02*
X9172993Y-21882857D01*
X9249183Y-21844762D02*
X9249183Y-21882857D01*
X9544421Y-22120952D02*
X9534897Y-22111428D01*
X9534897Y-22111428D02*
X9515850Y-22082857D01*
X9515850Y-22082857D02*
X9506326Y-22063809D01*
X9506326Y-22063809D02*
X9496802Y-22035238D01*
X9496802Y-22035238D02*
X9487278Y-21987619D01*
X9487278Y-21987619D02*
X9487278Y-21949524D01*
X9487278Y-21949524D02*
X9496802Y-21901904D01*
X9496802Y-21901904D02*
X9506326Y-21873333D01*
X9506326Y-21873333D02*
X9515850Y-21854285D01*
X9515850Y-21854285D02*
X9534897Y-21825714D01*
X9534897Y-21825714D02*
X9544421Y-21816190D01*
X9649183Y-21930476D02*
X9630136Y-21920952D01*
X9630136Y-21920952D02*
X9620612Y-21911428D01*
X9620612Y-21911428D02*
X9611088Y-21892381D01*
X9611088Y-21892381D02*
X9611088Y-21882857D01*
X9611088Y-21882857D02*
X9620612Y-21863809D01*
X9620612Y-21863809D02*
X9630136Y-21854285D01*
X9630136Y-21854285D02*
X9649183Y-21844762D01*
X9649183Y-21844762D02*
X9687278Y-21844762D01*
X9687278Y-21844762D02*
X9706326Y-21854285D01*
X9706326Y-21854285D02*
X9715850Y-21863809D01*
X9715850Y-21863809D02*
X9725374Y-21882857D01*
X9725374Y-21882857D02*
X9725374Y-21892381D01*
X9725374Y-21892381D02*
X9715850Y-21911428D01*
X9715850Y-21911428D02*
X9706326Y-21920952D01*
X9706326Y-21920952D02*
X9687278Y-21930476D01*
X9687278Y-21930476D02*
X9649183Y-21930476D01*
X9649183Y-21930476D02*
X9630136Y-21940000D01*
X9630136Y-21940000D02*
X9620612Y-21949524D01*
X9620612Y-21949524D02*
X9611088Y-21968571D01*
X9611088Y-21968571D02*
X9611088Y-22006666D01*
X9611088Y-22006666D02*
X9620612Y-22025714D01*
X9620612Y-22025714D02*
X9630136Y-22035238D01*
X9630136Y-22035238D02*
X9649183Y-22044762D01*
X9649183Y-22044762D02*
X9687278Y-22044762D01*
X9687278Y-22044762D02*
X9706326Y-22035238D01*
X9706326Y-22035238D02*
X9715850Y-22025714D01*
X9715850Y-22025714D02*
X9725374Y-22006666D01*
X9725374Y-22006666D02*
X9725374Y-21968571D01*
X9725374Y-21968571D02*
X9715850Y-21949524D01*
X9715850Y-21949524D02*
X9706326Y-21940000D01*
X9706326Y-21940000D02*
X9687278Y-21930476D01*
X9896802Y-21911428D02*
X9896802Y-22044762D01*
X9849183Y-21835238D02*
X9801564Y-21978095D01*
X9801564Y-21978095D02*
X9925374Y-21978095D01*
X10153945Y-22044762D02*
X10153945Y-21844762D01*
X10239659Y-22044762D02*
X10239659Y-21940000D01*
X10239659Y-21940000D02*
X10230136Y-21920952D01*
X10230136Y-21920952D02*
X10211088Y-21911428D01*
X10211088Y-21911428D02*
X10182517Y-21911428D01*
X10182517Y-21911428D02*
X10163469Y-21920952D01*
X10163469Y-21920952D02*
X10153945Y-21930476D01*
X10363469Y-22044762D02*
X10344421Y-22035238D01*
X10344421Y-22035238D02*
X10334898Y-22025714D01*
X10334898Y-22025714D02*
X10325374Y-22006666D01*
X10325374Y-22006666D02*
X10325374Y-21949524D01*
X10325374Y-21949524D02*
X10334898Y-21930476D01*
X10334898Y-21930476D02*
X10344421Y-21920952D01*
X10344421Y-21920952D02*
X10363469Y-21911428D01*
X10363469Y-21911428D02*
X10392040Y-21911428D01*
X10392040Y-21911428D02*
X10411088Y-21920952D01*
X10411088Y-21920952D02*
X10420612Y-21930476D01*
X10420612Y-21930476D02*
X10430136Y-21949524D01*
X10430136Y-21949524D02*
X10430136Y-22006666D01*
X10430136Y-22006666D02*
X10420612Y-22025714D01*
X10420612Y-22025714D02*
X10411088Y-22035238D01*
X10411088Y-22035238D02*
X10392040Y-22044762D01*
X10392040Y-22044762D02*
X10363469Y-22044762D01*
X10544421Y-22044762D02*
X10525374Y-22035238D01*
X10525374Y-22035238D02*
X10515850Y-22016190D01*
X10515850Y-22016190D02*
X10515850Y-21844762D01*
X10696802Y-22035238D02*
X10677755Y-22044762D01*
X10677755Y-22044762D02*
X10639659Y-22044762D01*
X10639659Y-22044762D02*
X10620612Y-22035238D01*
X10620612Y-22035238D02*
X10611088Y-22016190D01*
X10611088Y-22016190D02*
X10611088Y-21940000D01*
X10611088Y-21940000D02*
X10620612Y-21920952D01*
X10620612Y-21920952D02*
X10639659Y-21911428D01*
X10639659Y-21911428D02*
X10677755Y-21911428D01*
X10677755Y-21911428D02*
X10696802Y-21920952D01*
X10696802Y-21920952D02*
X10706326Y-21940000D01*
X10706326Y-21940000D02*
X10706326Y-21959047D01*
X10706326Y-21959047D02*
X10611088Y-21978095D01*
X10782517Y-22035238D02*
X10801564Y-22044762D01*
X10801564Y-22044762D02*
X10839659Y-22044762D01*
X10839659Y-22044762D02*
X10858707Y-22035238D01*
X10858707Y-22035238D02*
X10868231Y-22016190D01*
X10868231Y-22016190D02*
X10868231Y-22006666D01*
X10868231Y-22006666D02*
X10858707Y-21987619D01*
X10858707Y-21987619D02*
X10839659Y-21978095D01*
X10839659Y-21978095D02*
X10811088Y-21978095D01*
X10811088Y-21978095D02*
X10792040Y-21968571D01*
X10792040Y-21968571D02*
X10782517Y-21949524D01*
X10782517Y-21949524D02*
X10782517Y-21940000D01*
X10782517Y-21940000D02*
X10792040Y-21920952D01*
X10792040Y-21920952D02*
X10811088Y-21911428D01*
X10811088Y-21911428D02*
X10839659Y-21911428D01*
X10839659Y-21911428D02*
X10858707Y-21920952D01*
X10934898Y-22120952D02*
X10944421Y-22111428D01*
X10944421Y-22111428D02*
X10963469Y-22082857D01*
X10963469Y-22082857D02*
X10972993Y-22063809D01*
X10972993Y-22063809D02*
X10982517Y-22035238D01*
X10982517Y-22035238D02*
X10992040Y-21987619D01*
X10992040Y-21987619D02*
X10992040Y-21949524D01*
X10992040Y-21949524D02*
X10982517Y-21901904D01*
X10982517Y-21901904D02*
X10972993Y-21873333D01*
X10972993Y-21873333D02*
X10963469Y-21854285D01*
X10963469Y-21854285D02*
X10944421Y-21825714D01*
X10944421Y-21825714D02*
X10934898Y-21816190D01*
X11296802Y-22120952D02*
X11287278Y-22111428D01*
X11287278Y-22111428D02*
X11268231Y-22082857D01*
X11268231Y-22082857D02*
X11258707Y-22063809D01*
X11258707Y-22063809D02*
X11249183Y-22035238D01*
X11249183Y-22035238D02*
X11239659Y-21987619D01*
X11239659Y-21987619D02*
X11239659Y-21949524D01*
X11239659Y-21949524D02*
X11249183Y-21901904D01*
X11249183Y-21901904D02*
X11258707Y-21873333D01*
X11258707Y-21873333D02*
X11268231Y-21854285D01*
X11268231Y-21854285D02*
X11287278Y-21825714D01*
X11287278Y-21825714D02*
X11296802Y-21816190D01*
X11372993Y-21911428D02*
X11372993Y-22044762D01*
X11372993Y-21930476D02*
X11382517Y-21920952D01*
X11382517Y-21920952D02*
X11401564Y-21911428D01*
X11401564Y-21911428D02*
X11430136Y-21911428D01*
X11430136Y-21911428D02*
X11449183Y-21920952D01*
X11449183Y-21920952D02*
X11458707Y-21940000D01*
X11458707Y-21940000D02*
X11458707Y-22044762D01*
X11582517Y-22044762D02*
X11563469Y-22035238D01*
X11563469Y-22035238D02*
X11553945Y-22025714D01*
X11553945Y-22025714D02*
X11544421Y-22006666D01*
X11544421Y-22006666D02*
X11544421Y-21949524D01*
X11544421Y-21949524D02*
X11553945Y-21930476D01*
X11553945Y-21930476D02*
X11563469Y-21920952D01*
X11563469Y-21920952D02*
X11582517Y-21911428D01*
X11582517Y-21911428D02*
X11611088Y-21911428D01*
X11611088Y-21911428D02*
X11630136Y-21920952D01*
X11630136Y-21920952D02*
X11639659Y-21930476D01*
X11639659Y-21930476D02*
X11649183Y-21949524D01*
X11649183Y-21949524D02*
X11649183Y-22006666D01*
X11649183Y-22006666D02*
X11639659Y-22025714D01*
X11639659Y-22025714D02*
X11630136Y-22035238D01*
X11630136Y-22035238D02*
X11611088Y-22044762D01*
X11611088Y-22044762D02*
X11582517Y-22044762D01*
X11706326Y-21911428D02*
X11782517Y-21911428D01*
X11734898Y-21844762D02*
X11734898Y-22016190D01*
X11734898Y-22016190D02*
X11744421Y-22035238D01*
X11744421Y-22035238D02*
X11763469Y-22044762D01*
X11763469Y-22044762D02*
X11782517Y-22044762D01*
X12001564Y-21911428D02*
X12001564Y-22111428D01*
X12001564Y-21920952D02*
X12020612Y-21911428D01*
X12020612Y-21911428D02*
X12058707Y-21911428D01*
X12058707Y-21911428D02*
X12077755Y-21920952D01*
X12077755Y-21920952D02*
X12087279Y-21930476D01*
X12087279Y-21930476D02*
X12096802Y-21949524D01*
X12096802Y-21949524D02*
X12096802Y-22006666D01*
X12096802Y-22006666D02*
X12087279Y-22025714D01*
X12087279Y-22025714D02*
X12077755Y-22035238D01*
X12077755Y-22035238D02*
X12058707Y-22044762D01*
X12058707Y-22044762D02*
X12020612Y-22044762D01*
X12020612Y-22044762D02*
X12001564Y-22035238D01*
X12211088Y-22044762D02*
X12192040Y-22035238D01*
X12192040Y-22035238D02*
X12182517Y-22016190D01*
X12182517Y-22016190D02*
X12182517Y-21844762D01*
X12372993Y-22044762D02*
X12372993Y-21940000D01*
X12372993Y-21940000D02*
X12363469Y-21920952D01*
X12363469Y-21920952D02*
X12344421Y-21911428D01*
X12344421Y-21911428D02*
X12306326Y-21911428D01*
X12306326Y-21911428D02*
X12287279Y-21920952D01*
X12372993Y-22035238D02*
X12353945Y-22044762D01*
X12353945Y-22044762D02*
X12306326Y-22044762D01*
X12306326Y-22044762D02*
X12287279Y-22035238D01*
X12287279Y-22035238D02*
X12277755Y-22016190D01*
X12277755Y-22016190D02*
X12277755Y-21997143D01*
X12277755Y-21997143D02*
X12287279Y-21978095D01*
X12287279Y-21978095D02*
X12306326Y-21968571D01*
X12306326Y-21968571D02*
X12353945Y-21968571D01*
X12353945Y-21968571D02*
X12372993Y-21959047D01*
X12439660Y-21911428D02*
X12515850Y-21911428D01*
X12468231Y-21844762D02*
X12468231Y-22016190D01*
X12468231Y-22016190D02*
X12477755Y-22035238D01*
X12477755Y-22035238D02*
X12496802Y-22044762D01*
X12496802Y-22044762D02*
X12515850Y-22044762D01*
X12658707Y-22035238D02*
X12639660Y-22044762D01*
X12639660Y-22044762D02*
X12601564Y-22044762D01*
X12601564Y-22044762D02*
X12582517Y-22035238D01*
X12582517Y-22035238D02*
X12572993Y-22016190D01*
X12572993Y-22016190D02*
X12572993Y-21940000D01*
X12572993Y-21940000D02*
X12582517Y-21920952D01*
X12582517Y-21920952D02*
X12601564Y-21911428D01*
X12601564Y-21911428D02*
X12639660Y-21911428D01*
X12639660Y-21911428D02*
X12658707Y-21920952D01*
X12658707Y-21920952D02*
X12668231Y-21940000D01*
X12668231Y-21940000D02*
X12668231Y-21959047D01*
X12668231Y-21959047D02*
X12572993Y-21978095D01*
X12839660Y-22044762D02*
X12839660Y-21844762D01*
X12839660Y-22035238D02*
X12820612Y-22044762D01*
X12820612Y-22044762D02*
X12782517Y-22044762D01*
X12782517Y-22044762D02*
X12763469Y-22035238D01*
X12763469Y-22035238D02*
X12753945Y-22025714D01*
X12753945Y-22025714D02*
X12744421Y-22006666D01*
X12744421Y-22006666D02*
X12744421Y-21949524D01*
X12744421Y-21949524D02*
X12753945Y-21930476D01*
X12753945Y-21930476D02*
X12763469Y-21920952D01*
X12763469Y-21920952D02*
X12782517Y-21911428D01*
X12782517Y-21911428D02*
X12820612Y-21911428D01*
X12820612Y-21911428D02*
X12839660Y-21920952D01*
X12915850Y-22120952D02*
X12925374Y-22111428D01*
X12925374Y-22111428D02*
X12944421Y-22082857D01*
X12944421Y-22082857D02*
X12953945Y-22063809D01*
X12953945Y-22063809D02*
X12963469Y-22035238D01*
X12963469Y-22035238D02*
X12972993Y-21987619D01*
X12972993Y-21987619D02*
X12972993Y-21949524D01*
X12972993Y-21949524D02*
X12963469Y-21901904D01*
X12963469Y-21901904D02*
X12953945Y-21873333D01*
X12953945Y-21873333D02*
X12944421Y-21854285D01*
X12944421Y-21854285D02*
X12925374Y-21825714D01*
X12925374Y-21825714D02*
X12915850Y-21816190D01*
X5940070Y-22343989D02*
X5940070Y-22202566D01*
X5798647Y-22202566D01*
X5798647Y-22343989D01*
X5940070Y-22343989D01*
X6211088Y-22164762D02*
X6334897Y-22164762D01*
X6334897Y-22164762D02*
X6268230Y-22240952D01*
X6268230Y-22240952D02*
X6296802Y-22240952D01*
X6296802Y-22240952D02*
X6315849Y-22250476D01*
X6315849Y-22250476D02*
X6325373Y-22260000D01*
X6325373Y-22260000D02*
X6334897Y-22279047D01*
X6334897Y-22279047D02*
X6334897Y-22326666D01*
X6334897Y-22326666D02*
X6325373Y-22345714D01*
X6325373Y-22345714D02*
X6315849Y-22355238D01*
X6315849Y-22355238D02*
X6296802Y-22364762D01*
X6296802Y-22364762D02*
X6239659Y-22364762D01*
X6239659Y-22364762D02*
X6220611Y-22355238D01*
X6220611Y-22355238D02*
X6211088Y-22345714D01*
X6420611Y-22345714D02*
X6430135Y-22355238D01*
X6430135Y-22355238D02*
X6420611Y-22364762D01*
X6420611Y-22364762D02*
X6411088Y-22355238D01*
X6411088Y-22355238D02*
X6420611Y-22345714D01*
X6420611Y-22345714D02*
X6420611Y-22364762D01*
X6525373Y-22364762D02*
X6563468Y-22364762D01*
X6563468Y-22364762D02*
X6582516Y-22355238D01*
X6582516Y-22355238D02*
X6592040Y-22345714D01*
X6592040Y-22345714D02*
X6611088Y-22317143D01*
X6611088Y-22317143D02*
X6620611Y-22279047D01*
X6620611Y-22279047D02*
X6620611Y-22202857D01*
X6620611Y-22202857D02*
X6611088Y-22183809D01*
X6611088Y-22183809D02*
X6601564Y-22174285D01*
X6601564Y-22174285D02*
X6582516Y-22164762D01*
X6582516Y-22164762D02*
X6544421Y-22164762D01*
X6544421Y-22164762D02*
X6525373Y-22174285D01*
X6525373Y-22174285D02*
X6515849Y-22183809D01*
X6515849Y-22183809D02*
X6506326Y-22202857D01*
X6506326Y-22202857D02*
X6506326Y-22250476D01*
X6506326Y-22250476D02*
X6515849Y-22269524D01*
X6515849Y-22269524D02*
X6525373Y-22279047D01*
X6525373Y-22279047D02*
X6544421Y-22288571D01*
X6544421Y-22288571D02*
X6582516Y-22288571D01*
X6582516Y-22288571D02*
X6601564Y-22279047D01*
X6601564Y-22279047D02*
X6611088Y-22269524D01*
X6611088Y-22269524D02*
X6620611Y-22250476D01*
X6734897Y-22250476D02*
X6715849Y-22240952D01*
X6715849Y-22240952D02*
X6706326Y-22231428D01*
X6706326Y-22231428D02*
X6696802Y-22212381D01*
X6696802Y-22212381D02*
X6696802Y-22202857D01*
X6696802Y-22202857D02*
X6706326Y-22183809D01*
X6706326Y-22183809D02*
X6715849Y-22174285D01*
X6715849Y-22174285D02*
X6734897Y-22164762D01*
X6734897Y-22164762D02*
X6772992Y-22164762D01*
X6772992Y-22164762D02*
X6792040Y-22174285D01*
X6792040Y-22174285D02*
X6801564Y-22183809D01*
X6801564Y-22183809D02*
X6811088Y-22202857D01*
X6811088Y-22202857D02*
X6811088Y-22212381D01*
X6811088Y-22212381D02*
X6801564Y-22231428D01*
X6801564Y-22231428D02*
X6792040Y-22240952D01*
X6792040Y-22240952D02*
X6772992Y-22250476D01*
X6772992Y-22250476D02*
X6734897Y-22250476D01*
X6734897Y-22250476D02*
X6715849Y-22260000D01*
X6715849Y-22260000D02*
X6706326Y-22269524D01*
X6706326Y-22269524D02*
X6696802Y-22288571D01*
X6696802Y-22288571D02*
X6696802Y-22326666D01*
X6696802Y-22326666D02*
X6706326Y-22345714D01*
X6706326Y-22345714D02*
X6715849Y-22355238D01*
X6715849Y-22355238D02*
X6734897Y-22364762D01*
X6734897Y-22364762D02*
X6772992Y-22364762D01*
X6772992Y-22364762D02*
X6792040Y-22355238D01*
X6792040Y-22355238D02*
X6801564Y-22345714D01*
X6801564Y-22345714D02*
X6811088Y-22326666D01*
X6811088Y-22326666D02*
X6811088Y-22288571D01*
X6811088Y-22288571D02*
X6801564Y-22269524D01*
X6801564Y-22269524D02*
X6792040Y-22260000D01*
X6792040Y-22260000D02*
X6772992Y-22250476D01*
X6925373Y-22250476D02*
X6906326Y-22240952D01*
X6906326Y-22240952D02*
X6896802Y-22231428D01*
X6896802Y-22231428D02*
X6887278Y-22212381D01*
X6887278Y-22212381D02*
X6887278Y-22202857D01*
X6887278Y-22202857D02*
X6896802Y-22183809D01*
X6896802Y-22183809D02*
X6906326Y-22174285D01*
X6906326Y-22174285D02*
X6925373Y-22164762D01*
X6925373Y-22164762D02*
X6963469Y-22164762D01*
X6963469Y-22164762D02*
X6982516Y-22174285D01*
X6982516Y-22174285D02*
X6992040Y-22183809D01*
X6992040Y-22183809D02*
X7001564Y-22202857D01*
X7001564Y-22202857D02*
X7001564Y-22212381D01*
X7001564Y-22212381D02*
X6992040Y-22231428D01*
X6992040Y-22231428D02*
X6982516Y-22240952D01*
X6982516Y-22240952D02*
X6963469Y-22250476D01*
X6963469Y-22250476D02*
X6925373Y-22250476D01*
X6925373Y-22250476D02*
X6906326Y-22260000D01*
X6906326Y-22260000D02*
X6896802Y-22269524D01*
X6896802Y-22269524D02*
X6887278Y-22288571D01*
X6887278Y-22288571D02*
X6887278Y-22326666D01*
X6887278Y-22326666D02*
X6896802Y-22345714D01*
X6896802Y-22345714D02*
X6906326Y-22355238D01*
X6906326Y-22355238D02*
X6925373Y-22364762D01*
X6925373Y-22364762D02*
X6963469Y-22364762D01*
X6963469Y-22364762D02*
X6982516Y-22355238D01*
X6982516Y-22355238D02*
X6992040Y-22345714D01*
X6992040Y-22345714D02*
X7001564Y-22326666D01*
X7001564Y-22326666D02*
X7001564Y-22288571D01*
X7001564Y-22288571D02*
X6992040Y-22269524D01*
X6992040Y-22269524D02*
X6982516Y-22260000D01*
X6982516Y-22260000D02*
X6963469Y-22250476D01*
X7087278Y-22364762D02*
X7087278Y-22231428D01*
X7087278Y-22250476D02*
X7096802Y-22240952D01*
X7096802Y-22240952D02*
X7115849Y-22231428D01*
X7115849Y-22231428D02*
X7144421Y-22231428D01*
X7144421Y-22231428D02*
X7163469Y-22240952D01*
X7163469Y-22240952D02*
X7172992Y-22260000D01*
X7172992Y-22260000D02*
X7172992Y-22364762D01*
X7172992Y-22260000D02*
X7182516Y-22240952D01*
X7182516Y-22240952D02*
X7201564Y-22231428D01*
X7201564Y-22231428D02*
X7230135Y-22231428D01*
X7230135Y-22231428D02*
X7249183Y-22240952D01*
X7249183Y-22240952D02*
X7258707Y-22260000D01*
X7258707Y-22260000D02*
X7258707Y-22364762D01*
X7353945Y-22364762D02*
X7353945Y-22231428D01*
X7353945Y-22250476D02*
X7363469Y-22240952D01*
X7363469Y-22240952D02*
X7382516Y-22231428D01*
X7382516Y-22231428D02*
X7411088Y-22231428D01*
X7411088Y-22231428D02*
X7430135Y-22240952D01*
X7430135Y-22240952D02*
X7439659Y-22260000D01*
X7439659Y-22260000D02*
X7439659Y-22364762D01*
X7439659Y-22260000D02*
X7449183Y-22240952D01*
X7449183Y-22240952D02*
X7468230Y-22231428D01*
X7468230Y-22231428D02*
X7496802Y-22231428D01*
X7496802Y-22231428D02*
X7515850Y-22240952D01*
X7515850Y-22240952D02*
X7525373Y-22260000D01*
X7525373Y-22260000D02*
X7525373Y-22364762D01*
X7915850Y-22155238D02*
X7744421Y-22412381D01*
X8172992Y-22164762D02*
X8192040Y-22164762D01*
X8192040Y-22164762D02*
X8211088Y-22174285D01*
X8211088Y-22174285D02*
X8220612Y-22183809D01*
X8220612Y-22183809D02*
X8230135Y-22202857D01*
X8230135Y-22202857D02*
X8239659Y-22240952D01*
X8239659Y-22240952D02*
X8239659Y-22288571D01*
X8239659Y-22288571D02*
X8230135Y-22326666D01*
X8230135Y-22326666D02*
X8220612Y-22345714D01*
X8220612Y-22345714D02*
X8211088Y-22355238D01*
X8211088Y-22355238D02*
X8192040Y-22364762D01*
X8192040Y-22364762D02*
X8172992Y-22364762D01*
X8172992Y-22364762D02*
X8153945Y-22355238D01*
X8153945Y-22355238D02*
X8144421Y-22345714D01*
X8144421Y-22345714D02*
X8134897Y-22326666D01*
X8134897Y-22326666D02*
X8125373Y-22288571D01*
X8125373Y-22288571D02*
X8125373Y-22240952D01*
X8125373Y-22240952D02*
X8134897Y-22202857D01*
X8134897Y-22202857D02*
X8144421Y-22183809D01*
X8144421Y-22183809D02*
X8153945Y-22174285D01*
X8153945Y-22174285D02*
X8172992Y-22164762D01*
X8325373Y-22345714D02*
X8334897Y-22355238D01*
X8334897Y-22355238D02*
X8325373Y-22364762D01*
X8325373Y-22364762D02*
X8315850Y-22355238D01*
X8315850Y-22355238D02*
X8325373Y-22345714D01*
X8325373Y-22345714D02*
X8325373Y-22364762D01*
X8525374Y-22364762D02*
X8411088Y-22364762D01*
X8468231Y-22364762D02*
X8468231Y-22164762D01*
X8468231Y-22164762D02*
X8449183Y-22193333D01*
X8449183Y-22193333D02*
X8430135Y-22212381D01*
X8430135Y-22212381D02*
X8411088Y-22221904D01*
X8706326Y-22164762D02*
X8611088Y-22164762D01*
X8611088Y-22164762D02*
X8601564Y-22260000D01*
X8601564Y-22260000D02*
X8611088Y-22250476D01*
X8611088Y-22250476D02*
X8630135Y-22240952D01*
X8630135Y-22240952D02*
X8677755Y-22240952D01*
X8677755Y-22240952D02*
X8696802Y-22250476D01*
X8696802Y-22250476D02*
X8706326Y-22260000D01*
X8706326Y-22260000D02*
X8715850Y-22279047D01*
X8715850Y-22279047D02*
X8715850Y-22326666D01*
X8715850Y-22326666D02*
X8706326Y-22345714D01*
X8706326Y-22345714D02*
X8696802Y-22355238D01*
X8696802Y-22355238D02*
X8677755Y-22364762D01*
X8677755Y-22364762D02*
X8630135Y-22364762D01*
X8630135Y-22364762D02*
X8611088Y-22355238D01*
X8611088Y-22355238D02*
X8601564Y-22345714D01*
X8782516Y-22164762D02*
X8915850Y-22164762D01*
X8915850Y-22164762D02*
X8830135Y-22364762D01*
X9030135Y-22164762D02*
X9049183Y-22164762D01*
X9049183Y-22164762D02*
X9068231Y-22174285D01*
X9068231Y-22174285D02*
X9077755Y-22183809D01*
X9077755Y-22183809D02*
X9087278Y-22202857D01*
X9087278Y-22202857D02*
X9096802Y-22240952D01*
X9096802Y-22240952D02*
X9096802Y-22288571D01*
X9096802Y-22288571D02*
X9087278Y-22326666D01*
X9087278Y-22326666D02*
X9077755Y-22345714D01*
X9077755Y-22345714D02*
X9068231Y-22355238D01*
X9068231Y-22355238D02*
X9049183Y-22364762D01*
X9049183Y-22364762D02*
X9030135Y-22364762D01*
X9030135Y-22364762D02*
X9011088Y-22355238D01*
X9011088Y-22355238D02*
X9001564Y-22345714D01*
X9001564Y-22345714D02*
X8992040Y-22326666D01*
X8992040Y-22326666D02*
X8982516Y-22288571D01*
X8982516Y-22288571D02*
X8982516Y-22240952D01*
X8982516Y-22240952D02*
X8992040Y-22202857D01*
X8992040Y-22202857D02*
X9001564Y-22183809D01*
X9001564Y-22183809D02*
X9011088Y-22174285D01*
X9011088Y-22174285D02*
X9030135Y-22164762D01*
X9172993Y-22164762D02*
X9172993Y-22202857D01*
X9249183Y-22164762D02*
X9249183Y-22202857D01*
X9544421Y-22440952D02*
X9534897Y-22431428D01*
X9534897Y-22431428D02*
X9515850Y-22402857D01*
X9515850Y-22402857D02*
X9506326Y-22383809D01*
X9506326Y-22383809D02*
X9496802Y-22355238D01*
X9496802Y-22355238D02*
X9487278Y-22307619D01*
X9487278Y-22307619D02*
X9487278Y-22269524D01*
X9487278Y-22269524D02*
X9496802Y-22221904D01*
X9496802Y-22221904D02*
X9506326Y-22193333D01*
X9506326Y-22193333D02*
X9515850Y-22174285D01*
X9515850Y-22174285D02*
X9534897Y-22145714D01*
X9534897Y-22145714D02*
X9544421Y-22136190D01*
X9706326Y-22231428D02*
X9706326Y-22364762D01*
X9658707Y-22155238D02*
X9611088Y-22298095D01*
X9611088Y-22298095D02*
X9734897Y-22298095D01*
X9801564Y-22183809D02*
X9811088Y-22174285D01*
X9811088Y-22174285D02*
X9830136Y-22164762D01*
X9830136Y-22164762D02*
X9877755Y-22164762D01*
X9877755Y-22164762D02*
X9896802Y-22174285D01*
X9896802Y-22174285D02*
X9906326Y-22183809D01*
X9906326Y-22183809D02*
X9915850Y-22202857D01*
X9915850Y-22202857D02*
X9915850Y-22221904D01*
X9915850Y-22221904D02*
X9906326Y-22250476D01*
X9906326Y-22250476D02*
X9792040Y-22364762D01*
X9792040Y-22364762D02*
X9915850Y-22364762D01*
X10153945Y-22364762D02*
X10153945Y-22164762D01*
X10239659Y-22364762D02*
X10239659Y-22260000D01*
X10239659Y-22260000D02*
X10230136Y-22240952D01*
X10230136Y-22240952D02*
X10211088Y-22231428D01*
X10211088Y-22231428D02*
X10182517Y-22231428D01*
X10182517Y-22231428D02*
X10163469Y-22240952D01*
X10163469Y-22240952D02*
X10153945Y-22250476D01*
X10363469Y-22364762D02*
X10344421Y-22355238D01*
X10344421Y-22355238D02*
X10334898Y-22345714D01*
X10334898Y-22345714D02*
X10325374Y-22326666D01*
X10325374Y-22326666D02*
X10325374Y-22269524D01*
X10325374Y-22269524D02*
X10334898Y-22250476D01*
X10334898Y-22250476D02*
X10344421Y-22240952D01*
X10344421Y-22240952D02*
X10363469Y-22231428D01*
X10363469Y-22231428D02*
X10392040Y-22231428D01*
X10392040Y-22231428D02*
X10411088Y-22240952D01*
X10411088Y-22240952D02*
X10420612Y-22250476D01*
X10420612Y-22250476D02*
X10430136Y-22269524D01*
X10430136Y-22269524D02*
X10430136Y-22326666D01*
X10430136Y-22326666D02*
X10420612Y-22345714D01*
X10420612Y-22345714D02*
X10411088Y-22355238D01*
X10411088Y-22355238D02*
X10392040Y-22364762D01*
X10392040Y-22364762D02*
X10363469Y-22364762D01*
X10544421Y-22364762D02*
X10525374Y-22355238D01*
X10525374Y-22355238D02*
X10515850Y-22336190D01*
X10515850Y-22336190D02*
X10515850Y-22164762D01*
X10696802Y-22355238D02*
X10677755Y-22364762D01*
X10677755Y-22364762D02*
X10639659Y-22364762D01*
X10639659Y-22364762D02*
X10620612Y-22355238D01*
X10620612Y-22355238D02*
X10611088Y-22336190D01*
X10611088Y-22336190D02*
X10611088Y-22260000D01*
X10611088Y-22260000D02*
X10620612Y-22240952D01*
X10620612Y-22240952D02*
X10639659Y-22231428D01*
X10639659Y-22231428D02*
X10677755Y-22231428D01*
X10677755Y-22231428D02*
X10696802Y-22240952D01*
X10696802Y-22240952D02*
X10706326Y-22260000D01*
X10706326Y-22260000D02*
X10706326Y-22279047D01*
X10706326Y-22279047D02*
X10611088Y-22298095D01*
X10782517Y-22355238D02*
X10801564Y-22364762D01*
X10801564Y-22364762D02*
X10839659Y-22364762D01*
X10839659Y-22364762D02*
X10858707Y-22355238D01*
X10858707Y-22355238D02*
X10868231Y-22336190D01*
X10868231Y-22336190D02*
X10868231Y-22326666D01*
X10868231Y-22326666D02*
X10858707Y-22307619D01*
X10858707Y-22307619D02*
X10839659Y-22298095D01*
X10839659Y-22298095D02*
X10811088Y-22298095D01*
X10811088Y-22298095D02*
X10792040Y-22288571D01*
X10792040Y-22288571D02*
X10782517Y-22269524D01*
X10782517Y-22269524D02*
X10782517Y-22260000D01*
X10782517Y-22260000D02*
X10792040Y-22240952D01*
X10792040Y-22240952D02*
X10811088Y-22231428D01*
X10811088Y-22231428D02*
X10839659Y-22231428D01*
X10839659Y-22231428D02*
X10858707Y-22240952D01*
X10934898Y-22440952D02*
X10944421Y-22431428D01*
X10944421Y-22431428D02*
X10963469Y-22402857D01*
X10963469Y-22402857D02*
X10972993Y-22383809D01*
X10972993Y-22383809D02*
X10982517Y-22355238D01*
X10982517Y-22355238D02*
X10992040Y-22307619D01*
X10992040Y-22307619D02*
X10992040Y-22269524D01*
X10992040Y-22269524D02*
X10982517Y-22221904D01*
X10982517Y-22221904D02*
X10972993Y-22193333D01*
X10972993Y-22193333D02*
X10963469Y-22174285D01*
X10963469Y-22174285D02*
X10944421Y-22145714D01*
X10944421Y-22145714D02*
X10934898Y-22136190D01*
X11296802Y-22440952D02*
X11287278Y-22431428D01*
X11287278Y-22431428D02*
X11268231Y-22402857D01*
X11268231Y-22402857D02*
X11258707Y-22383809D01*
X11258707Y-22383809D02*
X11249183Y-22355238D01*
X11249183Y-22355238D02*
X11239659Y-22307619D01*
X11239659Y-22307619D02*
X11239659Y-22269524D01*
X11239659Y-22269524D02*
X11249183Y-22221904D01*
X11249183Y-22221904D02*
X11258707Y-22193333D01*
X11258707Y-22193333D02*
X11268231Y-22174285D01*
X11268231Y-22174285D02*
X11287278Y-22145714D01*
X11287278Y-22145714D02*
X11296802Y-22136190D01*
X11372993Y-22231428D02*
X11372993Y-22364762D01*
X11372993Y-22250476D02*
X11382517Y-22240952D01*
X11382517Y-22240952D02*
X11401564Y-22231428D01*
X11401564Y-22231428D02*
X11430136Y-22231428D01*
X11430136Y-22231428D02*
X11449183Y-22240952D01*
X11449183Y-22240952D02*
X11458707Y-22260000D01*
X11458707Y-22260000D02*
X11458707Y-22364762D01*
X11582517Y-22364762D02*
X11563469Y-22355238D01*
X11563469Y-22355238D02*
X11553945Y-22345714D01*
X11553945Y-22345714D02*
X11544421Y-22326666D01*
X11544421Y-22326666D02*
X11544421Y-22269524D01*
X11544421Y-22269524D02*
X11553945Y-22250476D01*
X11553945Y-22250476D02*
X11563469Y-22240952D01*
X11563469Y-22240952D02*
X11582517Y-22231428D01*
X11582517Y-22231428D02*
X11611088Y-22231428D01*
X11611088Y-22231428D02*
X11630136Y-22240952D01*
X11630136Y-22240952D02*
X11639659Y-22250476D01*
X11639659Y-22250476D02*
X11649183Y-22269524D01*
X11649183Y-22269524D02*
X11649183Y-22326666D01*
X11649183Y-22326666D02*
X11639659Y-22345714D01*
X11639659Y-22345714D02*
X11630136Y-22355238D01*
X11630136Y-22355238D02*
X11611088Y-22364762D01*
X11611088Y-22364762D02*
X11582517Y-22364762D01*
X11706326Y-22231428D02*
X11782517Y-22231428D01*
X11734898Y-22164762D02*
X11734898Y-22336190D01*
X11734898Y-22336190D02*
X11744421Y-22355238D01*
X11744421Y-22355238D02*
X11763469Y-22364762D01*
X11763469Y-22364762D02*
X11782517Y-22364762D01*
X12001564Y-22231428D02*
X12001564Y-22431428D01*
X12001564Y-22240952D02*
X12020612Y-22231428D01*
X12020612Y-22231428D02*
X12058707Y-22231428D01*
X12058707Y-22231428D02*
X12077755Y-22240952D01*
X12077755Y-22240952D02*
X12087279Y-22250476D01*
X12087279Y-22250476D02*
X12096802Y-22269524D01*
X12096802Y-22269524D02*
X12096802Y-22326666D01*
X12096802Y-22326666D02*
X12087279Y-22345714D01*
X12087279Y-22345714D02*
X12077755Y-22355238D01*
X12077755Y-22355238D02*
X12058707Y-22364762D01*
X12058707Y-22364762D02*
X12020612Y-22364762D01*
X12020612Y-22364762D02*
X12001564Y-22355238D01*
X12211088Y-22364762D02*
X12192040Y-22355238D01*
X12192040Y-22355238D02*
X12182517Y-22336190D01*
X12182517Y-22336190D02*
X12182517Y-22164762D01*
X12372993Y-22364762D02*
X12372993Y-22260000D01*
X12372993Y-22260000D02*
X12363469Y-22240952D01*
X12363469Y-22240952D02*
X12344421Y-22231428D01*
X12344421Y-22231428D02*
X12306326Y-22231428D01*
X12306326Y-22231428D02*
X12287279Y-22240952D01*
X12372993Y-22355238D02*
X12353945Y-22364762D01*
X12353945Y-22364762D02*
X12306326Y-22364762D01*
X12306326Y-22364762D02*
X12287279Y-22355238D01*
X12287279Y-22355238D02*
X12277755Y-22336190D01*
X12277755Y-22336190D02*
X12277755Y-22317143D01*
X12277755Y-22317143D02*
X12287279Y-22298095D01*
X12287279Y-22298095D02*
X12306326Y-22288571D01*
X12306326Y-22288571D02*
X12353945Y-22288571D01*
X12353945Y-22288571D02*
X12372993Y-22279047D01*
X12439660Y-22231428D02*
X12515850Y-22231428D01*
X12468231Y-22164762D02*
X12468231Y-22336190D01*
X12468231Y-22336190D02*
X12477755Y-22355238D01*
X12477755Y-22355238D02*
X12496802Y-22364762D01*
X12496802Y-22364762D02*
X12515850Y-22364762D01*
X12658707Y-22355238D02*
X12639660Y-22364762D01*
X12639660Y-22364762D02*
X12601564Y-22364762D01*
X12601564Y-22364762D02*
X12582517Y-22355238D01*
X12582517Y-22355238D02*
X12572993Y-22336190D01*
X12572993Y-22336190D02*
X12572993Y-22260000D01*
X12572993Y-22260000D02*
X12582517Y-22240952D01*
X12582517Y-22240952D02*
X12601564Y-22231428D01*
X12601564Y-22231428D02*
X12639660Y-22231428D01*
X12639660Y-22231428D02*
X12658707Y-22240952D01*
X12658707Y-22240952D02*
X12668231Y-22260000D01*
X12668231Y-22260000D02*
X12668231Y-22279047D01*
X12668231Y-22279047D02*
X12572993Y-22298095D01*
X12839660Y-22364762D02*
X12839660Y-22164762D01*
X12839660Y-22355238D02*
X12820612Y-22364762D01*
X12820612Y-22364762D02*
X12782517Y-22364762D01*
X12782517Y-22364762D02*
X12763469Y-22355238D01*
X12763469Y-22355238D02*
X12753945Y-22345714D01*
X12753945Y-22345714D02*
X12744421Y-22326666D01*
X12744421Y-22326666D02*
X12744421Y-22269524D01*
X12744421Y-22269524D02*
X12753945Y-22250476D01*
X12753945Y-22250476D02*
X12763469Y-22240952D01*
X12763469Y-22240952D02*
X12782517Y-22231428D01*
X12782517Y-22231428D02*
X12820612Y-22231428D01*
X12820612Y-22231428D02*
X12839660Y-22240952D01*
X12915850Y-22440952D02*
X12925374Y-22431428D01*
X12925374Y-22431428D02*
X12944421Y-22402857D01*
X12944421Y-22402857D02*
X12953945Y-22383809D01*
X12953945Y-22383809D02*
X12963469Y-22355238D01*
X12963469Y-22355238D02*
X12972993Y-22307619D01*
X12972993Y-22307619D02*
X12972993Y-22269524D01*
X12972993Y-22269524D02*
X12963469Y-22221904D01*
X12963469Y-22221904D02*
X12953945Y-22193333D01*
X12953945Y-22193333D02*
X12944421Y-22174285D01*
X12944421Y-22174285D02*
X12925374Y-22145714D01*
X12925374Y-22145714D02*
X12915850Y-22136190D01*
M02*
