%TF.GenerationSoftware,KiCad,Pcbnew,9.0.4*%
%TF.CreationDate,2025-08-26T18:52:05+03:00*%
%TF.ProjectId,MOKETA,4d4f4b45-5441-42e6-9b69-6361645f7063,rev?*%
%TF.SameCoordinates,Original*%
%TF.FileFunction,Soldermask,Top*%
%TF.FilePolarity,Negative*%
%FSLAX46Y46*%
G04 Gerber Fmt 4.6, Leading zero omitted, Abs format (unit mm)*
G04 Created by KiCad (PCBNEW 9.0.4) date 2025-08-26 18:52:05*
%MOMM*%
%LPD*%
G01*
G04 APERTURE LIST*
G04 Aperture macros list*
%AMRoundRect*
0 Rectangle with rounded corners*
0 $1 Rounding radius*
0 $2 $3 $4 $5 $6 $7 $8 $9 X,Y pos of 4 corners*
0 Add a 4 corners polygon primitive as box body*
4,1,4,$2,$3,$4,$5,$6,$7,$8,$9,$2,$3,0*
0 Add four circle primitives for the rounded corners*
1,1,$1+$1,$2,$3*
1,1,$1+$1,$4,$5*
1,1,$1+$1,$6,$7*
1,1,$1+$1,$8,$9*
0 Add four rect primitives between the rounded corners*
20,1,$1+$1,$2,$3,$4,$5,0*
20,1,$1+$1,$4,$5,$6,$7,0*
20,1,$1+$1,$6,$7,$8,$9,0*
20,1,$1+$1,$8,$9,$2,$3,0*%
G04 Aperture macros list end*
%ADD10C,1.701800*%
%ADD11C,3.000000*%
%ADD12C,3.987800*%
%ADD13O,1.900000X1.900000*%
%ADD14RoundRect,0.250000X-0.700000X-0.700000X0.700000X-0.700000X0.700000X0.700000X-0.700000X0.700000X0*%
%ADD15C,3.500000*%
%ADD16RoundRect,0.200000X0.784645X-0.320334X0.519355X0.669740X-0.784645X0.320334X-0.519355X-0.669740X0*%
%ADD17RoundRect,0.200000X-0.259964X-0.768469X0.609369X-0.535531X0.259964X0.768469X-0.609369X0.535531X0*%
%ADD18RoundRect,0.200000X-0.300000X-0.100000X0.300000X-0.100000X0.300000X0.100000X-0.300000X0.100000X0*%
%ADD19C,0.700000*%
%ADD20RoundRect,0.200000X0.100000X-0.300000X0.100000X0.300000X-0.100000X0.300000X-0.100000X-0.300000X0*%
%ADD21O,1.800000X1.800000*%
%ADD22RoundRect,0.250000X0.650000X-0.650000X0.650000X0.650000X-0.650000X0.650000X-0.650000X-0.650000X0*%
G04 APERTURE END LIST*
D10*
%TO.C,SW24*%
X318801229Y-131967696D03*
D11*
X319370554Y-129185544D03*
D12*
X323708132Y-130652895D03*
D11*
X324846784Y-125088591D03*
D10*
X328615035Y-129338094D03*
%TD*%
D13*
%TO.C,U1*%
X210828193Y-95657847D03*
X210828193Y-98197847D03*
D14*
X210828193Y-100737847D03*
X210828193Y-103277847D03*
D13*
X210828193Y-105817847D03*
X210828193Y-108357847D03*
X210828193Y-110897847D03*
X210828193Y-113437847D03*
X210828193Y-115977847D03*
X210828193Y-118517847D03*
X210828193Y-121057847D03*
X210828193Y-123597847D03*
X195588193Y-123597847D03*
X195588193Y-121057847D03*
X195588193Y-118517847D03*
X195588193Y-115977847D03*
X195588193Y-113437847D03*
X195588193Y-110897847D03*
X195588193Y-108357847D03*
X195588193Y-105817847D03*
X195588193Y-103277847D03*
X195588193Y-100737847D03*
D14*
X195588193Y-98197847D03*
D13*
X195588193Y-95657847D03*
%TD*%
D10*
%TO.C,SW8*%
X236779959Y-119501591D03*
D11*
X237349284Y-116719439D03*
D12*
X241686862Y-118186790D03*
D11*
X242825514Y-112622486D03*
D10*
X246593765Y-116871989D03*
%TD*%
%TO.C,SW22*%
X278382700Y-128019056D03*
D11*
X278952025Y-125236904D03*
D12*
X283289603Y-126704255D03*
D11*
X284428255Y-121139951D03*
D10*
X288196506Y-125389454D03*
%TD*%
%TO.C,SW16*%
X137759525Y-125709206D03*
D11*
X139643651Y-123584455D03*
D12*
X142666428Y-127024007D03*
D11*
X146434680Y-122774504D03*
D10*
X147573331Y-128338808D03*
%TD*%
%TO.C,SW6*%
X176328208Y-128589666D03*
D11*
X178212334Y-126464915D03*
D12*
X181235111Y-129904467D03*
D11*
X185003363Y-125654964D03*
D10*
X186142014Y-131219268D03*
%TD*%
D15*
%TO.C,MH*%
X179721380Y-94865123D03*
%TD*%
D16*
%TO.C,D45*%
X333167737Y-118227128D03*
X332397751Y-115353498D03*
%TD*%
D10*
%TO.C,SW34*%
X283300265Y-146371645D03*
D11*
X283869590Y-143589493D03*
D12*
X288207168Y-145056844D03*
D11*
X289345820Y-139492540D03*
D10*
X293114071Y-143742043D03*
%TD*%
D17*
%TO.C,R2*%
X309287473Y-169242239D03*
X312281843Y-168439899D03*
%TD*%
D10*
%TO.C,SW10*%
X273475138Y-109656466D03*
D11*
X274044463Y-106874314D03*
D12*
X278382041Y-108341665D03*
D11*
X279520693Y-102777361D03*
D10*
X283288944Y-107026864D03*
%TD*%
%TO.C,SW33*%
X263715693Y-146691403D03*
D11*
X264285018Y-143909251D03*
D12*
X268622596Y-145376602D03*
D11*
X269761248Y-139812298D03*
D10*
X273529499Y-144061801D03*
%TD*%
%TO.C,SW20*%
X241677521Y-137854181D03*
D11*
X242246846Y-135072029D03*
D12*
X246584424Y-136539380D03*
D11*
X247723076Y-130975076D03*
D10*
X251491327Y-135224579D03*
%TD*%
%TO.C,SW40*%
X217288828Y-193580439D03*
D11*
X217858153Y-190798287D03*
D12*
X222195731Y-192265638D03*
D11*
X223334383Y-186701334D03*
D10*
X227102634Y-190950837D03*
%TD*%
D15*
%TO.C,MH*%
X268622596Y-158376602D03*
%TD*%
D18*
%TO.C,SW44*%
X216795730Y-92272125D03*
X216795730Y-94508125D03*
D19*
X218895730Y-93365125D03*
X221895730Y-93365125D03*
D18*
X223995730Y-92272125D03*
X223995730Y-94508125D03*
D20*
X222645730Y-95215125D03*
X219645730Y-95215125D03*
X218145730Y-95215125D03*
%TD*%
D10*
%TO.C,SW35*%
X303484939Y-148244204D03*
D11*
X304054264Y-145462052D03*
D12*
X308391842Y-146929403D03*
D11*
X309530494Y-141365099D03*
D10*
X313298745Y-145614602D03*
%TD*%
%TO.C,SW29*%
X149962580Y-153577166D03*
D11*
X151846706Y-151452415D03*
D12*
X154869483Y-154891967D03*
D11*
X158637735Y-150642464D03*
D10*
X159776386Y-156206768D03*
%TD*%
%TO.C,SW3*%
X123092520Y-107036860D03*
D11*
X124976646Y-104912109D03*
D12*
X127999423Y-108351661D03*
D11*
X131767675Y-104102158D03*
D10*
X132906326Y-109666462D03*
%TD*%
%TO.C,SW5*%
X159797702Y-116871985D03*
D11*
X161681828Y-114747234D03*
D12*
X164704605Y-118186786D03*
D11*
X168472857Y-113937283D03*
D10*
X169611508Y-119501587D03*
%TD*%
D16*
%TO.C,D46*%
X334591239Y-123539717D03*
X333821253Y-120666087D03*
%TD*%
D10*
%TO.C,SW25*%
X72858868Y-147690680D03*
D11*
X74742994Y-145565929D03*
D12*
X77765771Y-149005481D03*
D11*
X81534023Y-144755978D03*
D10*
X82672674Y-150320282D03*
%TD*%
D15*
%TO.C,MH*%
X188721372Y-105849998D03*
%TD*%
D10*
%TO.C,SW27*%
X113257397Y-143742040D03*
D11*
X115141523Y-141617289D03*
D12*
X118164300Y-145056841D03*
D11*
X121932552Y-140807338D03*
D10*
X123071203Y-146371642D03*
%TD*%
%TO.C,SW17*%
X154880143Y-135224576D03*
D11*
X156764269Y-133099825D03*
D12*
X159787046Y-136539377D03*
D11*
X163555298Y-132289874D03*
D10*
X164693949Y-137854178D03*
%TD*%
D17*
%TO.C,R4*%
X311202733Y-176390091D03*
X314197103Y-175587751D03*
%TD*%
D10*
%TO.C,SW28*%
X132841967Y-144061799D03*
D11*
X134726093Y-141937048D03*
D12*
X137748870Y-145376600D03*
D11*
X141517122Y-141127097D03*
D10*
X142655773Y-146691401D03*
%TD*%
D15*
%TO.C,MH*%
X137748870Y-158376599D03*
%TD*%
D16*
%TO.C,D44*%
X331744232Y-112914534D03*
X330974246Y-110040904D03*
%TD*%
D10*
%TO.C,SW39*%
X179288828Y-190950836D03*
D11*
X181172954Y-188826085D03*
D12*
X184195731Y-192265637D03*
D11*
X187963983Y-188016134D03*
D10*
X189102634Y-193580438D03*
%TD*%
D17*
%TO.C,R3*%
X310245103Y-172816168D03*
X313239473Y-172013828D03*
%TD*%
D10*
%TO.C,SW7*%
X220249455Y-131219268D03*
D11*
X220818780Y-128437116D03*
D12*
X225156358Y-129904467D03*
D11*
X226295010Y-124340163D03*
D10*
X230063261Y-128589666D03*
%TD*%
%TO.C,SW9*%
X253900569Y-109986223D03*
D11*
X254469894Y-107204071D03*
D12*
X258807472Y-108671422D03*
D11*
X259946124Y-103107118D03*
D10*
X263714375Y-107356621D03*
%TD*%
D15*
%TO.C,MH*%
X226670082Y-94865120D03*
%TD*%
D10*
%TO.C,SW32*%
X246595084Y-156206768D03*
D11*
X247164409Y-153424616D03*
D12*
X251501987Y-154891967D03*
D11*
X252640639Y-149327663D03*
D10*
X256408890Y-153577166D03*
%TD*%
D21*
%TO.C,J1*%
X200655733Y-192450000D03*
D22*
X205735733Y-192450000D03*
%TD*%
D17*
%TO.C,R1*%
X308329842Y-165668317D03*
X311324212Y-164865977D03*
%TD*%
D16*
%TO.C,D43*%
X330320727Y-107601943D03*
X329550741Y-104728313D03*
%TD*%
D10*
%TO.C,SW30*%
X166493083Y-165294843D03*
D11*
X168377209Y-163170092D03*
D12*
X171399986Y-166609644D03*
D11*
X175168238Y-162360141D03*
D10*
X176306889Y-167924445D03*
%TD*%
%TO.C,SW31*%
X230084572Y-167924453D03*
D11*
X230653897Y-165142301D03*
D12*
X234991475Y-166609652D03*
D11*
X236130127Y-161045348D03*
D10*
X239898378Y-165294851D03*
%TD*%
%TO.C,SW23*%
X298567379Y-129901609D03*
D11*
X299136704Y-127119457D03*
D12*
X303474282Y-128586808D03*
D11*
X304612934Y-123022504D03*
D10*
X308381185Y-127272007D03*
%TD*%
%TO.C,SW13*%
X77776430Y-129338091D03*
D11*
X79660556Y-127213340D03*
D12*
X82683333Y-130652892D03*
D11*
X86451585Y-126403389D03*
D10*
X87590236Y-131967693D03*
%TD*%
%TO.C,SW42*%
X252695446Y-178973640D03*
D11*
X253264771Y-176191488D03*
D12*
X257602349Y-177658839D03*
D11*
X258741001Y-172094535D03*
D10*
X262509252Y-176344038D03*
%TD*%
%TO.C,SW26*%
X93082717Y-145624601D03*
D11*
X94966843Y-143499850D03*
D12*
X97989620Y-146939402D03*
D11*
X101757872Y-142689899D03*
D10*
X102896523Y-148254203D03*
%TD*%
%TO.C,SW11*%
X293659815Y-111549025D03*
D11*
X294229140Y-108766873D03*
D12*
X298566718Y-110234224D03*
D11*
X299705370Y-104669920D03*
D10*
X303473621Y-108919423D03*
%TD*%
%TO.C,SW1*%
X82693991Y-110985500D03*
D11*
X84578117Y-108860749D03*
D12*
X87600894Y-112300301D03*
D11*
X91369146Y-108050798D03*
D10*
X92507797Y-113615102D03*
%TD*%
%TO.C,SW41*%
X234992136Y-186287039D03*
D11*
X235561461Y-183504887D03*
D12*
X239899039Y-184972238D03*
D11*
X241037691Y-179407934D03*
D10*
X244805942Y-183657437D03*
%TD*%
%TO.C,SW37*%
X143862217Y-176344036D03*
D11*
X145746343Y-174219285D03*
D12*
X148769120Y-177658837D03*
D11*
X152537372Y-173409334D03*
D10*
X153676023Y-178973638D03*
%TD*%
%TO.C,SW15*%
X118174962Y-125389452D03*
D11*
X120059088Y-123264701D03*
D12*
X123081865Y-126704253D03*
D11*
X126850117Y-122454750D03*
D10*
X127988768Y-128019054D03*
%TD*%
%TO.C,SW4*%
X142677089Y-107356618D03*
D11*
X144561215Y-105231867D03*
D12*
X147583992Y-108671419D03*
D11*
X151352244Y-104421916D03*
D10*
X152490895Y-109986220D03*
%TD*%
%TO.C,SW12*%
X313873671Y-113605102D03*
D11*
X314442996Y-110822950D03*
D12*
X318780574Y-112290301D03*
D11*
X319919226Y-106725997D03*
D10*
X323687477Y-110975500D03*
%TD*%
%TO.C,SW14*%
X98000283Y-127272008D03*
D11*
X99884409Y-125147257D03*
D12*
X102907186Y-128586809D03*
D11*
X106675438Y-124337306D03*
D10*
X107814089Y-129901610D03*
%TD*%
%TO.C,SW18*%
X171410645Y-146942256D03*
D11*
X173294771Y-144817505D03*
D12*
X176317548Y-148257057D03*
D11*
X180085800Y-144007554D03*
D10*
X181224451Y-149571858D03*
%TD*%
%TO.C,SW38*%
X161575522Y-183647439D03*
D11*
X163459648Y-181522688D03*
D12*
X166482425Y-184962240D03*
D11*
X170250677Y-180712737D03*
D10*
X171389328Y-186277041D03*
%TD*%
%TO.C,SW36*%
X323698792Y-150320284D03*
D11*
X324268117Y-147538132D03*
D12*
X328605695Y-149005483D03*
D11*
X329744347Y-143441179D03*
D10*
X333512598Y-147690682D03*
%TD*%
%TO.C,SW19*%
X225157013Y-149561857D03*
D11*
X225726338Y-146779705D03*
D12*
X230063916Y-148247056D03*
D11*
X231202568Y-142682752D03*
D10*
X234970819Y-146932255D03*
%TD*%
D15*
%TO.C,MH*%
X217670090Y-105880245D03*
%TD*%
D10*
%TO.C,SW21*%
X258808128Y-128328813D03*
D11*
X259377453Y-125546661D03*
D12*
X263715031Y-127014012D03*
D11*
X264853683Y-121449708D03*
D10*
X268621934Y-125699211D03*
%TD*%
%TO.C,SW2*%
X102917844Y-108919421D03*
D11*
X104801970Y-106794670D03*
D12*
X107824747Y-110234222D03*
D11*
X111592999Y-105984719D03*
D10*
X112731650Y-111549023D03*
%TD*%
M02*
