%TF.GenerationSoftware,KiCad,Pcbnew,9.0.4*%
%TF.CreationDate,2025-08-24T22:07:03+03:00*%
%TF.ProjectId,MOKETA,4d4f4b45-5441-42e6-9b69-6361645f7063,rev?*%
%TF.SameCoordinates,Original*%
%TF.FileFunction,Profile,NP*%
%FSLAX46Y46*%
G04 Gerber Fmt 4.6, Leading zero omitted, Abs format (unit mm)*
G04 Created by KiCad (PCBNEW 9.0.4) date 2025-08-24 22:07:03*
%MOMM*%
%LPD*%
G01*
G04 APERTURE LIST*
%TA.AperFunction,Profile*%
%ADD10C,0.200000*%
%TD*%
%TA.AperFunction,Profile*%
%ADD11C,0.010000*%
%TD*%
G04 APERTURE END LIST*
D10*
X64548281Y-169953025D02*
G75*
G02*
X61270354Y-169270769I-1317581J1885225D01*
G01*
X321202709Y-93899201D02*
G75*
G02*
X324258786Y-92843784I2062091J-1018699D01*
G01*
X82132686Y-92843804D02*
G75*
G02*
X85188741Y-93899208I993914J-2074296D01*
G01*
X175721380Y-98439308D02*
X175721380Y-91865124D01*
X277869645Y-190129528D02*
G75*
G02*
X275378149Y-189209698I-595345J2221628D01*
G01*
X76795092Y-99273553D02*
G75*
G02*
X82132686Y-92843804I9659208J-2588147D01*
G01*
X230670081Y-98439300D02*
X230670081Y-91865118D01*
X213095705Y-136559200D02*
X213095732Y-120570006D01*
X332926719Y-175377029D02*
X277869645Y-190129528D01*
X334623639Y-173344741D02*
G75*
G02*
X332926736Y-175377093I-2292039J189141D01*
G01*
X230670081Y-98439300D02*
G75*
G02*
X228912737Y-102681958I-6000081J0D01*
G01*
X212095704Y-136559201D02*
X212095732Y-120559200D01*
X131013318Y-189209700D02*
G75*
G02*
X139391564Y-191454659I3792282J-2603500D01*
G01*
X266999855Y-191454657D02*
G75*
G02*
X265285993Y-193501286I-2293355J179557D01*
G01*
X310573131Y-91861742D02*
X258583932Y-91861743D01*
X310573131Y-91861742D02*
G75*
G02*
X312741630Y-93395072I69J-2299958D01*
G01*
X158649843Y-93395076D02*
G75*
G02*
X160818305Y-91861690I2168557J-766724D01*
G01*
X266999855Y-191454657D02*
G75*
G02*
X275378087Y-189209740I4585945J-358543D01*
G01*
X203195731Y-203400627D02*
G75*
G02*
X207397329Y-206128006I-31J-4600073D01*
G01*
X192538369Y-116316572D02*
X178185841Y-101964052D01*
X256415463Y-93395075D02*
G75*
G02*
X258583931Y-91861775I2168537J-766825D01*
G01*
X346257146Y-161452407D02*
G75*
G02*
X345121099Y-169270765I-9659146J-2588193D01*
G01*
X198994148Y-206128011D02*
G75*
G02*
X203195731Y-203400640I4201552J-1872589D01*
G01*
X329596371Y-99273553D02*
X346257146Y-161452407D01*
X209440351Y-207490978D02*
G75*
G02*
X207397281Y-206128027I57849J2299478D01*
G01*
X175721380Y-91865124D02*
X160818305Y-91861743D01*
X230670081Y-91865118D02*
X245573132Y-91861743D01*
X194295694Y-136559213D02*
G75*
G02*
X193295706Y-136559212I-499994J13D01*
G01*
X345121098Y-169270764D02*
G75*
G02*
X341843219Y-169952971I-1960298J1202964D01*
G01*
X265285998Y-193501306D02*
X219009349Y-205901097D01*
X158649843Y-93395076D02*
G75*
G02*
X149975999Y-93395076I-4336922J1533333D01*
G01*
X219009349Y-205901097D02*
G75*
G02*
X209440351Y-207490975I-12940849J48295697D01*
G01*
X73464731Y-175377027D02*
X128521892Y-190129548D01*
X73464731Y-175377027D02*
G75*
G02*
X71767886Y-173344736I595369J2221627D01*
G01*
X245573132Y-91861743D02*
G75*
G02*
X247741629Y-93395072I68J-2299957D01*
G01*
X213853093Y-116316577D02*
X228205617Y-101964051D01*
X141089324Y-193496980D02*
G75*
G02*
X139391572Y-191454659I595176J2221580D01*
G01*
X229670078Y-98428519D02*
G75*
G02*
X228205622Y-101964056I-5000078J19D01*
G01*
X191831264Y-117034474D02*
G75*
G02*
X193295757Y-120570004I-3535664J-3535626D01*
G01*
X191831264Y-117034474D02*
X177478739Y-102681947D01*
X131013318Y-189209700D02*
G75*
G02*
X128521891Y-190129552I-1896118J1301700D01*
G01*
X147807539Y-91861743D02*
G75*
G02*
X149976001Y-93395075I-39J-2300057D01*
G01*
X64548281Y-169953025D02*
G75*
G02*
X71767827Y-173344741I2635149J-3770425D01*
G01*
X193295732Y-120570004D02*
X193295694Y-136559212D01*
X178185841Y-101964052D02*
G75*
G02*
X176721399Y-98428514I3535659J3535552D01*
G01*
X229670078Y-98428519D02*
X229670082Y-91865120D01*
X214560197Y-117034473D02*
X228912723Y-102681944D01*
X192538369Y-116316572D02*
G75*
G02*
X194295723Y-120559213I-4242869J-4242728D01*
G01*
X93649843Y-93395076D02*
G75*
G02*
X85188752Y-93899202I-4336923J1533346D01*
G01*
X334623639Y-173344741D02*
G75*
G02*
X341843171Y-169953039I4584361J-378659D01*
G01*
X141089325Y-193496981D02*
X187382116Y-205901097D01*
X321202709Y-93899201D02*
G75*
G02*
X312741554Y-93395099I-4124209J2037401D01*
G01*
X93649843Y-93395076D02*
G75*
G02*
X95818304Y-91861690I2168557J-766724D01*
G01*
X212095732Y-120559218D02*
G75*
G02*
X213853111Y-116316595I5999868J18D01*
G01*
X213095732Y-120570006D02*
G75*
G02*
X214560221Y-117034497I4999868J6D01*
G01*
X324258776Y-92843805D02*
G75*
G02*
X329596378Y-99273551I-4321476J-9017795D01*
G01*
X76795092Y-99273553D02*
X60134322Y-161452387D01*
X198994148Y-206128011D02*
G75*
G02*
X196951112Y-207490996I-2100748J936211D01*
G01*
X176721379Y-98428514D02*
X176721380Y-91865123D01*
X229670082Y-91865120D02*
X176721380Y-91865123D01*
X213095705Y-136559200D02*
G75*
G02*
X212095695Y-136559201I-500005J0D01*
G01*
X196951112Y-207490978D02*
G75*
G02*
X187382118Y-205901091I3372188J49887278D01*
G01*
X194295694Y-136559213D02*
X194295722Y-120559213D01*
X61270364Y-169270763D02*
G75*
G02*
X60134349Y-161452394I8523336J5230163D01*
G01*
X177478739Y-102681947D02*
G75*
G02*
X175721340Y-98439308I4242761J4242747D01*
G01*
X256415463Y-93395075D02*
G75*
G02*
X247741619Y-93395075I-4336922J1533332D01*
G01*
X147807539Y-91861743D02*
X95818304Y-91861743D01*
D11*
%TO.C,LED22*%
X286578646Y-132604017D02*
X283391091Y-133458120D01*
X282640516Y-130656935D01*
X285828071Y-129802832D01*
X286578646Y-132604017D01*
%TO.C,LED11*%
X301855764Y-116133984D02*
X298668209Y-116988087D01*
X297917634Y-114186902D01*
X301105189Y-113332799D01*
X301855764Y-116133984D01*
%TO.C,LED34*%
X291496206Y-150956608D02*
X288308651Y-151810711D01*
X287558076Y-149009526D01*
X290745631Y-148155423D01*
X291496206Y-150956608D01*
%TO.C,LED1*%
X88249986Y-116252985D02*
X87499411Y-119054170D01*
X84311856Y-118200067D01*
X85062431Y-115398882D01*
X88249986Y-116252985D01*
%TO.C,LED18*%
X176966632Y-152209738D02*
X176216057Y-155010923D01*
X173028502Y-154156820D01*
X173779077Y-151355635D01*
X176966632Y-152209738D01*
%TO.C,LED25*%
X78414861Y-152958162D02*
X77664286Y-155759347D01*
X74476731Y-154905244D01*
X75227306Y-152104059D01*
X78414861Y-152958162D01*
%TO.C,LED30*%
X172049072Y-170562328D02*
X171298497Y-173363513D01*
X168110942Y-172509410D01*
X168861517Y-169708225D01*
X172049072Y-170562328D01*
%TO.C,LED23*%
X306763324Y-134486573D02*
X303575769Y-135340676D01*
X302825194Y-132539491D01*
X306012749Y-131685388D01*
X306763324Y-134486573D01*
%TO.C,LED39*%
X184844818Y-196218314D02*
X184094243Y-199019499D01*
X180906688Y-198165396D01*
X181657263Y-195364211D01*
X184844818Y-196218314D01*
%TO.C,LED40*%
X225484775Y-198165399D02*
X222297220Y-199019502D01*
X221546645Y-196218317D01*
X224734200Y-195364214D01*
X225484775Y-198165399D01*
%TO.C,LED10*%
X281671084Y-114241426D02*
X278483529Y-115095529D01*
X277732954Y-112294344D01*
X280920509Y-111440241D01*
X281671084Y-114241426D01*
%TO.C,LED38*%
X167131511Y-188914915D02*
X166380936Y-191716100D01*
X163193381Y-190861997D01*
X163943956Y-188060812D01*
X167131511Y-188914915D01*
%TO.C,LED12*%
X322069615Y-118190064D02*
X318882060Y-119044167D01*
X318131485Y-116242982D01*
X321319040Y-115388879D01*
X322069615Y-118190064D01*
%TO.C,LED6*%
X181884200Y-133857145D02*
X181133625Y-136658330D01*
X177946070Y-135804227D01*
X178696645Y-133003042D01*
X181884200Y-133857145D01*
%TO.C,LED28*%
X138397954Y-149329280D02*
X137647379Y-152130465D01*
X134459824Y-151276362D01*
X135210399Y-148475177D01*
X138397954Y-149329280D01*
%TO.C,LED7*%
X228445400Y-135804228D02*
X225257845Y-136658331D01*
X224507270Y-133857146D01*
X227694825Y-133003043D01*
X228445400Y-135804228D01*
%TO.C,LED8*%
X244975902Y-124086546D02*
X241788347Y-124940649D01*
X241037772Y-122139464D01*
X244225327Y-121285361D01*
X244975902Y-124086546D01*
%TO.C,LED36*%
X331894736Y-154905247D02*
X328707181Y-155759350D01*
X327956606Y-152958165D01*
X331144161Y-152104062D01*
X331894736Y-154905247D01*
%TO.C,LED17*%
X160436132Y-140492060D02*
X159685557Y-143293245D01*
X156498002Y-142439142D01*
X157248577Y-139637957D01*
X160436132Y-140492060D01*
%TO.C,LED33*%
X271911636Y-151276368D02*
X268724081Y-152130471D01*
X267973506Y-149329286D01*
X271161061Y-148475183D01*
X271911636Y-151276368D01*
%TO.C,LED31*%
X238280521Y-172509410D02*
X235092966Y-173363513D01*
X234342391Y-170562328D01*
X237529946Y-169708225D01*
X238280521Y-172509410D01*
%TO.C,LED29*%
X155518570Y-158844645D02*
X154767995Y-161645830D01*
X151580440Y-160791727D01*
X152331015Y-157990542D01*
X155518570Y-158844645D01*
%TO.C,LED14*%
X103556269Y-132539487D02*
X102805694Y-135340672D01*
X99618139Y-134486569D01*
X100368714Y-131685384D01*
X103556269Y-132539487D01*
%TO.C,LED5*%
X165353695Y-122139470D02*
X164603120Y-124940655D01*
X161415565Y-124086552D01*
X162166140Y-121285367D01*
X165353695Y-122139470D01*
%TO.C,LED16*%
X143315518Y-130976692D02*
X142564943Y-133777877D01*
X139377388Y-132923774D01*
X140127963Y-130122589D01*
X143315518Y-130976692D01*
%TO.C,LED21*%
X267004078Y-132913773D02*
X263816523Y-133767876D01*
X263065948Y-130966691D01*
X266253503Y-130112588D01*
X267004078Y-132913773D01*
%TO.C,LED9*%
X262096514Y-114571180D02*
X258908959Y-115425283D01*
X258158384Y-112624098D01*
X261345939Y-111769995D01*
X262096514Y-114571180D01*
%TO.C,LED19*%
X233352957Y-154146825D02*
X230165402Y-155000928D01*
X229414827Y-152199743D01*
X232602382Y-151345640D01*
X233352957Y-154146825D01*
%TO.C,LED15*%
X123730947Y-130656934D02*
X122980372Y-133458119D01*
X119792817Y-132604016D01*
X120543392Y-129802831D01*
X123730947Y-130656934D01*
%TO.C,LED24*%
X326997172Y-136552662D02*
X323809617Y-137406765D01*
X323059042Y-134605580D01*
X326246597Y-133751477D01*
X326997172Y-136552662D01*
%TO.C,LED41*%
X243188085Y-190872000D02*
X240000530Y-191726103D01*
X239249955Y-188924918D01*
X242437510Y-188070815D01*
X243188085Y-190872000D01*
%TO.C,LED26*%
X98638710Y-150892082D02*
X97888135Y-153693267D01*
X94700580Y-152839164D01*
X95451155Y-150037979D01*
X98638710Y-150892082D01*
%TO.C,LED27*%
X118813386Y-149009526D02*
X118062811Y-151810711D01*
X114875256Y-150956608D01*
X115625831Y-148155423D01*
X118813386Y-149009526D01*
%TO.C,LED32*%
X254791026Y-160791731D02*
X251603471Y-161645834D01*
X250852896Y-158844649D01*
X254040451Y-157990546D01*
X254791026Y-160791731D01*
%TO.C,LED3*%
X128648515Y-112304340D02*
X127897940Y-115105525D01*
X124710385Y-114251422D01*
X125460960Y-111450237D01*
X128648515Y-112304340D01*
%TO.C,LED13*%
X83332420Y-134605574D02*
X82581845Y-137406759D01*
X79394290Y-136552656D01*
X80144865Y-133751471D01*
X83332420Y-134605574D01*
%TO.C,LED37*%
X149418208Y-181611517D02*
X148667633Y-184412702D01*
X145480078Y-183558599D01*
X146230653Y-180757414D01*
X149418208Y-181611517D01*
%TO.C,LED20*%
X249873466Y-142439138D02*
X246685911Y-143293241D01*
X245935336Y-140492056D01*
X249122891Y-139637953D01*
X249873466Y-142439138D01*
%TO.C,LED2*%
X108473833Y-114186898D02*
X107723258Y-116988083D01*
X104535703Y-116133980D01*
X105286278Y-113332795D01*
X108473833Y-114186898D01*
%TO.C,LED4*%
X148233080Y-112624102D02*
X147482505Y-115425287D01*
X144294950Y-114571184D01*
X145045525Y-111769999D01*
X148233080Y-112624102D01*
%TO.C,LED42*%
X260891388Y-183558602D02*
X257703833Y-184412705D01*
X256953258Y-181611520D01*
X260140813Y-180757417D01*
X260891388Y-183558602D01*
%TO.C,LED35*%
X311680886Y-152829168D02*
X308493331Y-153683271D01*
X307742756Y-150882086D01*
X310930311Y-150027983D01*
X311680886Y-152829168D01*
%TD*%
M02*
