%TF.GenerationSoftware,KiCad,Pcbnew,9.0.4*%
%TF.CreationDate,2025-08-25T00:44:23+03:00*%
%TF.ProjectId,MOKETA,4d4f4b45-5441-42e6-9b69-6361645f7063,rev?*%
%TF.SameCoordinates,Original*%
%TF.FileFunction,Soldermask,Bot*%
%TF.FilePolarity,Negative*%
%FSLAX46Y46*%
G04 Gerber Fmt 4.6, Leading zero omitted, Abs format (unit mm)*
G04 Created by KiCad (PCBNEW 9.0.4) date 2025-08-25 00:44:23*
%MOMM*%
%LPD*%
G01*
G04 APERTURE LIST*
G04 Aperture macros list*
%AMRoundRect*
0 Rectangle with rounded corners*
0 $1 Rounding radius*
0 $2 $3 $4 $5 $6 $7 $8 $9 X,Y pos of 4 corners*
0 Add a 4 corners polygon primitive as box body*
4,1,4,$2,$3,$4,$5,$6,$7,$8,$9,$2,$3,0*
0 Add four circle primitives for the rounded corners*
1,1,$1+$1,$2,$3*
1,1,$1+$1,$4,$5*
1,1,$1+$1,$6,$7*
1,1,$1+$1,$8,$9*
0 Add four rect primitives between the rounded corners*
20,1,$1+$1,$2,$3,$4,$5,0*
20,1,$1+$1,$4,$5,$6,$7,0*
20,1,$1+$1,$6,$7,$8,$9,0*
20,1,$1+$1,$8,$9,$2,$3,0*%
%AMHorizOval*
0 Thick line with rounded ends*
0 $1 width*
0 $2 $3 position (X,Y) of the first rounded end (center of the circle)*
0 $4 $5 position (X,Y) of the second rounded end (center of the circle)*
0 Add line between two ends*
20,1,$1,$2,$3,$4,$5,0*
0 Add two circle primitives to create the rounded ends*
1,1,$1,$2,$3*
1,1,$1,$4,$5*%
G04 Aperture macros list end*
%ADD10RoundRect,0.097561X-0.648523X-0.486879X0.805077X-0.097388X0.648523X0.486879X-0.805077X0.097388X0*%
%ADD11RoundRect,0.103659X-0.637741X-0.503559X0.804079X-0.117224X0.637741X0.503559X-0.804079X0.117224X0*%
%ADD12C,1.701800*%
%ADD13C,3.000000*%
%ADD14C,3.987800*%
%ADD15RoundRect,0.200000X-0.766610X-1.292453X1.310130X-0.735992X0.766610X1.292453X-1.310130X0.735992X0*%
%ADD16O,1.900000X1.900000*%
%ADD17RoundRect,0.250000X-0.700000X-0.700000X0.700000X-0.700000X0.700000X0.700000X-0.700000X0.700000X0*%
%ADD18RoundRect,0.200000X-1.310130X-0.735992X0.766610X-1.292453X1.310130X0.735992X-0.766610X1.292453X0*%
%ADD19RoundRect,0.250000X-0.247487X0.428661X-0.428661X-0.247487X0.247487X-0.428661X0.428661X0.247487X0*%
%ADD20HorizOval,1.200000X0.000000X0.000000X0.000000X0.000000X0*%
%ADD21C,3.500000*%
%ADD22RoundRect,0.097561X-0.805077X-0.097388X0.648523X-0.486879X0.805077X0.097388X-0.648523X0.486879X0*%
%ADD23RoundRect,0.103659X-0.804079X-0.117224X0.637741X-0.503559X0.804079X0.117224X-0.637741X0.503559X0*%
%ADD24RoundRect,0.250000X-0.428661X0.247487X-0.247487X-0.428661X0.428661X-0.247487X0.247487X0.428661X0*%
%ADD25HorizOval,1.200000X0.000000X0.000000X0.000000X0.000000X0*%
%ADD26C,0.700000*%
%ADD27RoundRect,0.200000X-0.700000X0.400000X-0.700000X-0.400000X0.700000X-0.400000X0.700000X0.400000X0*%
%ADD28O,1.800000X1.800000*%
%ADD29RoundRect,0.250000X0.650000X-0.650000X0.650000X0.650000X-0.650000X0.650000X-0.650000X-0.650000X0*%
G04 APERTURE END LIST*
D10*
%TO.C,LED22*%
X281855763Y-131591902D03*
D11*
X282243992Y-133040791D03*
X287363399Y-131669050D03*
D10*
X286975170Y-130220161D03*
%TD*%
D12*
%TO.C,SW24*%
X318801229Y-131967696D03*
D13*
X319370554Y-129185544D03*
D14*
X323708132Y-130652895D03*
D13*
X324846784Y-125088591D03*
D12*
X328615035Y-129338094D03*
D15*
X328469005Y-124118020D03*
X315748332Y-130156115D03*
%TD*%
D10*
%TO.C,LED11*%
X297132881Y-115121869D03*
D11*
X297521110Y-116570758D03*
X302640517Y-115199017D03*
D10*
X302252288Y-113750128D03*
%TD*%
D16*
%TO.C,U1*%
X210828193Y-95657847D03*
X210828193Y-98197847D03*
D17*
X210828193Y-100737847D03*
X210828193Y-103277847D03*
D16*
X210828193Y-105817847D03*
X210828193Y-108357847D03*
X210828193Y-110897847D03*
X210828193Y-113437847D03*
X210828193Y-115977847D03*
X210828193Y-118517847D03*
X210828193Y-121057847D03*
X210828193Y-123597847D03*
X195588193Y-123597847D03*
X195588193Y-121057847D03*
X195588193Y-118517847D03*
X195588193Y-115977847D03*
X195588193Y-113437847D03*
X195588193Y-110897847D03*
X195588193Y-108357847D03*
X195588193Y-105817847D03*
X195588193Y-103277847D03*
X195588193Y-100737847D03*
D17*
X195588193Y-98197847D03*
D16*
X195588193Y-95657847D03*
%TD*%
D12*
%TO.C,SW8*%
X236779959Y-119501591D03*
D13*
X237349284Y-116719439D03*
D14*
X241686862Y-118186790D03*
D13*
X242825514Y-112622486D03*
D12*
X246593765Y-116871989D03*
D15*
X246447735Y-111651915D03*
X233727062Y-117690010D03*
%TD*%
D12*
%TO.C,SW22*%
X278382700Y-128019056D03*
D13*
X278952025Y-125236904D03*
D14*
X283289603Y-126704255D03*
D13*
X284428255Y-121139951D03*
D12*
X288196506Y-125389454D03*
D15*
X288050476Y-120169380D03*
X275329803Y-126207475D03*
%TD*%
D10*
%TO.C,LED34*%
X286773323Y-149944493D03*
D11*
X287161552Y-151393382D03*
X292280959Y-150021641D03*
D10*
X291892730Y-148572752D03*
%TD*%
D12*
%TO.C,SW16*%
X137759525Y-125709206D03*
D13*
X139643651Y-123584455D03*
D14*
X142666428Y-127024007D03*
D13*
X146434680Y-122774504D03*
D12*
X147573331Y-128338808D03*
D18*
X150056902Y-123745076D03*
X136021429Y-122613883D03*
%TD*%
D12*
%TO.C,SW6*%
X176328208Y-128589666D03*
D13*
X178212334Y-126464915D03*
D14*
X181235111Y-129904467D03*
D13*
X185003363Y-125654964D03*
D12*
X186142014Y-131219268D03*
D18*
X188625585Y-126625536D03*
X174590112Y-125494343D03*
%TD*%
D19*
%TO.C,D18*%
X171393693Y-137423525D03*
D20*
X170539593Y-140611081D03*
%TD*%
D19*
%TO.C,D13*%
X77759481Y-119819356D03*
D20*
X76905381Y-123006912D03*
%TD*%
D21*
%TO.C,MH*%
X179721380Y-94865123D03*
%TD*%
D22*
%TO.C,LED1*%
X83915332Y-115816211D03*
D23*
X83527103Y-117265100D03*
X88646510Y-118636841D03*
D22*
X89034739Y-117187952D03*
%TD*%
%TO.C,LED18*%
X172631978Y-151772964D03*
D23*
X172243749Y-153221853D03*
X177363156Y-154593594D03*
D22*
X177751385Y-153144705D03*
%TD*%
D24*
%TO.C,D8*%
X232005913Y-111266600D03*
D25*
X232860013Y-114454156D03*
%TD*%
D19*
%TO.C,D3*%
X123075570Y-97518132D03*
D20*
X122221470Y-100705688D03*
%TD*%
D19*
%TO.C,D6*%
X176311256Y-119070938D03*
D20*
X175457156Y-122258494D03*
%TD*%
D12*
%TO.C,SW34*%
X283300265Y-146371645D03*
D13*
X283869590Y-143589493D03*
D14*
X288207168Y-145056844D03*
D13*
X289345820Y-139492540D03*
D12*
X293114071Y-143742043D03*
D15*
X292968041Y-138521969D03*
X280247368Y-144560064D03*
%TD*%
D12*
%TO.C,SW10*%
X273475138Y-109656466D03*
D13*
X274044463Y-106874314D03*
D14*
X278382041Y-108341665D03*
D13*
X279520693Y-102777361D03*
D12*
X283288944Y-107026864D03*
D15*
X283142914Y-101806790D03*
X270422241Y-107844885D03*
%TD*%
D24*
%TO.C,D20*%
X236896158Y-129619194D03*
D25*
X237750258Y-132806750D03*
%TD*%
D12*
%TO.C,SW33*%
X263715693Y-146691403D03*
D13*
X264285018Y-143909251D03*
D14*
X268622596Y-145376602D03*
D13*
X269761248Y-139812298D03*
D12*
X273529499Y-144061801D03*
D15*
X273383469Y-138841727D03*
X260662796Y-144879822D03*
%TD*%
D22*
%TO.C,LED25*%
X74080207Y-152521388D03*
D23*
X73691978Y-153970277D03*
X78811385Y-155342018D03*
D22*
X79199614Y-153893129D03*
%TD*%
D12*
%TO.C,SW20*%
X241677521Y-137854181D03*
D13*
X242246846Y-135072029D03*
D14*
X246584424Y-136539380D03*
D13*
X247723076Y-130975076D03*
D12*
X251491327Y-135224579D03*
D15*
X251345297Y-130004505D03*
X238624624Y-136042600D03*
%TD*%
D12*
%TO.C,SW40*%
X217288828Y-193580439D03*
D13*
X217858153Y-190798287D03*
D14*
X222195731Y-192265638D03*
D13*
X223334383Y-186701334D03*
D12*
X227102634Y-190950837D03*
D15*
X226956604Y-185730763D03*
X214235931Y-191768858D03*
%TD*%
D24*
%TO.C,D12*%
X309099627Y-105370117D03*
D25*
X309953727Y-108557673D03*
%TD*%
D24*
%TO.C,D36*%
X318924748Y-142085297D03*
D25*
X319778848Y-145272853D03*
%TD*%
D21*
%TO.C,MH*%
X268622596Y-158376602D03*
%TD*%
D26*
%TO.C,SW44*%
X218895730Y-93365125D03*
X221895730Y-93365125D03*
%TD*%
D22*
%TO.C,LED30*%
X167714418Y-170125554D03*
D23*
X167326189Y-171574443D03*
X172445596Y-172946184D03*
D22*
X172833825Y-171497295D03*
%TD*%
D12*
%TO.C,SW35*%
X303484939Y-148244204D03*
D13*
X304054264Y-145462052D03*
D14*
X308391842Y-146929403D03*
D13*
X309530494Y-141365099D03*
D12*
X313298745Y-145614602D03*
D15*
X313152715Y-140394528D03*
X300432042Y-146432623D03*
%TD*%
D27*
%TO.C,SW43*%
X188195731Y-95065123D03*
X188195731Y-99865123D03*
%TD*%
D12*
%TO.C,SW29*%
X149962580Y-153577166D03*
D13*
X151846706Y-151452415D03*
D14*
X154869483Y-154891967D03*
D13*
X158637735Y-150642464D03*
D12*
X159776386Y-156206768D03*
D18*
X162259957Y-151613036D03*
X148224484Y-150481843D03*
%TD*%
D12*
%TO.C,SW3*%
X123092520Y-107036860D03*
D13*
X124976646Y-104912109D03*
D14*
X127999423Y-108351661D03*
D13*
X131767675Y-104102158D03*
D12*
X132906326Y-109666462D03*
D18*
X135389897Y-105072730D03*
X121354424Y-103941537D03*
%TD*%
D10*
%TO.C,LED23*%
X302040441Y-133474458D03*
D11*
X302428670Y-134923347D03*
X307548077Y-133551606D03*
D10*
X307159848Y-132102717D03*
%TD*%
D22*
%TO.C,LED39*%
X180510164Y-195781540D03*
D23*
X180121935Y-197230429D03*
X185241342Y-198602170D03*
D22*
X185629571Y-197153281D03*
%TD*%
D19*
%TO.C,D29*%
X149945627Y-144058434D03*
D20*
X149091527Y-147245990D03*
%TD*%
D19*
%TO.C,D39*%
X179271879Y-181432111D03*
D20*
X178417779Y-184619667D03*
%TD*%
D19*
%TO.C,D2*%
X102900891Y-99400688D03*
D20*
X102046791Y-102588244D03*
%TD*%
D10*
%TO.C,LED40*%
X220761892Y-197153284D03*
D11*
X221150121Y-198602173D03*
X226269528Y-197230432D03*
D10*
X225881299Y-195781543D03*
%TD*%
D12*
%TO.C,SW5*%
X159797702Y-116871985D03*
D13*
X161681828Y-114747234D03*
D14*
X164704605Y-118186786D03*
D13*
X168472857Y-113937283D03*
D12*
X169611508Y-119501587D03*
D18*
X172095079Y-114907855D03*
X158059606Y-113776662D03*
%TD*%
D12*
%TO.C,SW25*%
X72858868Y-147690680D03*
D13*
X74742994Y-145565929D03*
D14*
X77765771Y-149005481D03*
D13*
X81534023Y-144755978D03*
D12*
X82672674Y-150320282D03*
D18*
X85156245Y-145726550D03*
X71120772Y-144595357D03*
%TD*%
D10*
%TO.C,LED10*%
X276948201Y-113229311D03*
D11*
X277336430Y-114678200D03*
X282455837Y-113306459D03*
D10*
X282067608Y-111857570D03*
%TD*%
D21*
%TO.C,MH*%
X188721372Y-105849998D03*
%TD*%
D22*
%TO.C,LED38*%
X162796857Y-188478141D03*
D23*
X162408628Y-189927030D03*
X167528035Y-191298771D03*
D22*
X167916264Y-189849882D03*
%TD*%
D12*
%TO.C,SW27*%
X113257397Y-143742040D03*
D13*
X115141523Y-141617289D03*
D14*
X118164300Y-145056841D03*
D13*
X121932552Y-140807338D03*
D12*
X123071203Y-146371642D03*
D18*
X125554774Y-141777910D03*
X111519301Y-140646717D03*
%TD*%
D19*
%TO.C,D30*%
X166476133Y-155776118D03*
D20*
X165622033Y-158963674D03*
%TD*%
D19*
%TO.C,D37*%
X143845266Y-166825305D03*
D20*
X142991166Y-170012861D03*
%TD*%
D12*
%TO.C,SW17*%
X154880143Y-135224576D03*
D13*
X156764269Y-133099825D03*
D14*
X159787046Y-136539377D03*
D13*
X163555298Y-132289874D03*
D12*
X164693949Y-137854178D03*
D18*
X167177520Y-133260446D03*
X153142047Y-132129253D03*
%TD*%
D10*
%TO.C,LED12*%
X317346732Y-117177949D03*
D11*
X317734961Y-118626838D03*
X322854368Y-117255097D03*
D10*
X322466139Y-115806208D03*
%TD*%
D19*
%TO.C,D27*%
X113240446Y-134223311D03*
D20*
X112386346Y-137410867D03*
%TD*%
D19*
%TO.C,D16*%
X137742574Y-116190479D03*
D20*
X136888474Y-119378035D03*
%TD*%
D24*
%TO.C,D19*%
X220382969Y-141326872D03*
D25*
X221237069Y-144514428D03*
%TD*%
D24*
%TO.C,D35*%
X298710895Y-140009213D03*
D25*
X299564995Y-143196769D03*
%TD*%
D12*
%TO.C,SW28*%
X132841967Y-144061799D03*
D13*
X134726093Y-141937048D03*
D14*
X137748870Y-145376600D03*
D13*
X141517122Y-141127097D03*
D12*
X142655773Y-146691401D03*
D18*
X145139344Y-142097669D03*
X131103871Y-140966476D03*
%TD*%
D22*
%TO.C,LED6*%
X177549546Y-133420371D03*
D23*
X177161317Y-134869260D03*
X182280724Y-136241001D03*
D22*
X182668953Y-134792112D03*
%TD*%
D21*
%TO.C,MH*%
X137748870Y-158376599D03*
%TD*%
D19*
%TO.C,D25*%
X72841919Y-138171950D03*
D20*
X71987819Y-141359506D03*
%TD*%
D19*
%TO.C,D17*%
X154863185Y-125705845D03*
D20*
X154009085Y-128893401D03*
%TD*%
D24*
%TO.C,D22*%
X273601335Y-119784068D03*
D25*
X274455435Y-122971624D03*
%TD*%
D12*
%TO.C,SW39*%
X179288828Y-190950836D03*
D13*
X181172954Y-188826085D03*
D14*
X184195731Y-192265637D03*
D13*
X187963983Y-188016134D03*
D12*
X189102634Y-193580438D03*
D18*
X191586205Y-188986706D03*
X177550732Y-187855513D03*
%TD*%
D19*
%TO.C,D38*%
X161558567Y-174128709D03*
D20*
X160704467Y-177316265D03*
%TD*%
D24*
%TO.C,D33*%
X258941650Y-138456415D03*
D25*
X259795750Y-141643971D03*
%TD*%
D12*
%TO.C,SW7*%
X220249455Y-131219268D03*
D13*
X220818780Y-128437116D03*
D14*
X225156358Y-129904467D03*
D13*
X226295010Y-124340163D03*
D12*
X230063261Y-128589666D03*
D15*
X229917231Y-123369592D03*
X217196558Y-129407687D03*
%TD*%
D24*
%TO.C,D10*%
X268701095Y-101421474D03*
D25*
X269555195Y-104609030D03*
%TD*%
D19*
%TO.C,D5*%
X159780753Y-107353251D03*
D20*
X158926653Y-110540807D03*
%TD*%
D12*
%TO.C,SW9*%
X253900569Y-109986223D03*
D13*
X254469894Y-107204071D03*
D14*
X258807472Y-108671422D03*
D13*
X259946124Y-103107118D03*
D12*
X263714375Y-107356621D03*
D15*
X263568345Y-102136547D03*
X250847672Y-108174642D03*
%TD*%
D19*
%TO.C,D14*%
X97983332Y-117753276D03*
D20*
X97129232Y-120940832D03*
%TD*%
D21*
%TO.C,MH*%
X226670082Y-94865120D03*
%TD*%
D12*
%TO.C,SW32*%
X246595084Y-156206768D03*
D13*
X247164409Y-153424616D03*
D14*
X251501987Y-154891967D03*
D13*
X252640639Y-149327663D03*
D12*
X256408890Y-153577166D03*
D15*
X256262860Y-148357092D03*
X243542187Y-154395187D03*
%TD*%
D24*
%TO.C,D9*%
X249126525Y-101751230D03*
D25*
X249980625Y-104938786D03*
%TD*%
D24*
%TO.C,D24*%
X314027188Y-123732708D03*
D25*
X314881288Y-126920264D03*
%TD*%
D19*
%TO.C,D15*%
X118158007Y-115870721D03*
D20*
X117303907Y-119058277D03*
%TD*%
D24*
%TO.C,D42*%
X247921402Y-170738651D03*
D25*
X248775502Y-173926207D03*
%TD*%
D28*
%TO.C,J1*%
X200655733Y-192450000D03*
D29*
X205735733Y-192450000D03*
%TD*%
D22*
%TO.C,LED28*%
X134063300Y-148892506D03*
D23*
X133675071Y-150341395D03*
X138794478Y-151713136D03*
D22*
X139182707Y-150264247D03*
%TD*%
D12*
%TO.C,SW30*%
X166493083Y-165294843D03*
D13*
X168377209Y-163170092D03*
D14*
X171399986Y-166609644D03*
D13*
X175168238Y-162360141D03*
D12*
X176306889Y-167924445D03*
D18*
X178790460Y-163330713D03*
X164754987Y-162199520D03*
%TD*%
D24*
%TO.C,D21*%
X254026769Y-120093829D03*
D25*
X254880869Y-123281385D03*
%TD*%
D10*
%TO.C,LED7*%
X223722517Y-134792113D03*
D11*
X224110746Y-136241002D03*
X229230153Y-134869261D03*
D10*
X228841924Y-133420372D03*
%TD*%
%TO.C,LED8*%
X240253019Y-123074431D03*
D11*
X240641248Y-124523320D03*
X245760655Y-123151579D03*
D10*
X245372426Y-121702690D03*
%TD*%
%TO.C,LED36*%
X327171853Y-153893132D03*
D11*
X327560082Y-155342021D03*
X332679489Y-153970280D03*
D10*
X332291260Y-152521391D03*
%TD*%
D12*
%TO.C,SW31*%
X230084572Y-167924453D03*
D13*
X230653897Y-165142301D03*
D14*
X234991475Y-166609652D03*
D13*
X236130127Y-161045348D03*
D12*
X239898378Y-165294851D03*
D15*
X239752348Y-160074777D03*
X227031675Y-166112872D03*
%TD*%
D12*
%TO.C,SW23*%
X298567379Y-129901609D03*
D13*
X299136704Y-127119457D03*
D14*
X303474282Y-128586808D03*
D13*
X304612934Y-123022504D03*
D12*
X308381185Y-127272007D03*
D15*
X308235155Y-122051933D03*
X295514482Y-128090028D03*
%TD*%
D12*
%TO.C,SW13*%
X77776430Y-129338091D03*
D13*
X79660556Y-127213340D03*
D14*
X82683333Y-130652892D03*
D13*
X86451585Y-126403389D03*
D12*
X87590236Y-131967693D03*
D18*
X90073807Y-127373961D03*
X76038334Y-126242768D03*
%TD*%
D22*
%TO.C,LED17*%
X156101478Y-140055286D03*
D23*
X155713249Y-141504175D03*
X160832656Y-142875916D03*
D22*
X161220885Y-141427027D03*
%TD*%
D12*
%TO.C,SW42*%
X252695446Y-178973640D03*
D13*
X253264771Y-176191488D03*
D14*
X257602349Y-177658839D03*
D13*
X258741001Y-172094535D03*
D12*
X262509252Y-176344038D03*
D15*
X262363222Y-171123964D03*
X249642549Y-177162059D03*
%TD*%
D12*
%TO.C,SW26*%
X93082717Y-145624601D03*
D13*
X94966843Y-143499850D03*
D14*
X97989620Y-146939402D03*
D13*
X101757872Y-142689899D03*
D12*
X102896523Y-148254203D03*
D18*
X105380094Y-143660471D03*
X91344621Y-142529278D03*
%TD*%
D12*
%TO.C,SW11*%
X293659815Y-111549025D03*
D13*
X294229140Y-108766873D03*
D14*
X298566718Y-110234224D03*
D13*
X299705370Y-104669920D03*
D12*
X303473621Y-108919423D03*
D15*
X303327591Y-103699349D03*
X290606918Y-109737444D03*
%TD*%
D10*
%TO.C,LED33*%
X267188753Y-150264253D03*
D11*
X267576982Y-151713142D03*
X272696389Y-150341401D03*
D10*
X272308160Y-148892512D03*
%TD*%
D24*
%TO.C,D7*%
X215475412Y-122984279D03*
D25*
X216329512Y-126171835D03*
%TD*%
D10*
%TO.C,LED31*%
X233557638Y-171497295D03*
D11*
X233945867Y-172946184D03*
X239065274Y-171574443D03*
D10*
X238677045Y-170125554D03*
%TD*%
D22*
%TO.C,LED29*%
X151183916Y-158407871D03*
D23*
X150795687Y-159856760D03*
X155915094Y-161228501D03*
D22*
X156303323Y-159779612D03*
%TD*%
%TO.C,LED14*%
X99221615Y-132102713D03*
D23*
X98833386Y-133551602D03*
X103952793Y-134923343D03*
D22*
X104341022Y-133474454D03*
%TD*%
D12*
%TO.C,SW1*%
X82693991Y-110985500D03*
D13*
X84578117Y-108860749D03*
D14*
X87600894Y-112300301D03*
D13*
X91369146Y-108050798D03*
D12*
X92507797Y-113615102D03*
D18*
X94991368Y-109021370D03*
X80955895Y-107890177D03*
%TD*%
D24*
%TO.C,D23*%
X293786016Y-121666624D03*
D25*
X294640116Y-124854180D03*
%TD*%
D22*
%TO.C,LED5*%
X161019041Y-121702696D03*
D23*
X160630812Y-123151585D03*
X165750219Y-124523326D03*
D22*
X166138448Y-123074437D03*
%TD*%
D12*
%TO.C,SW41*%
X234992136Y-186287039D03*
D13*
X235561461Y-183504887D03*
D14*
X239899039Y-184972238D03*
D13*
X241037691Y-179407934D03*
D12*
X244805942Y-183657437D03*
D15*
X244659912Y-178437363D03*
X231939239Y-184475458D03*
%TD*%
D22*
%TO.C,LED16*%
X138980864Y-130539918D03*
D23*
X138592635Y-131988807D03*
X143712042Y-133360548D03*
D22*
X144100271Y-131911659D03*
%TD*%
D10*
%TO.C,LED21*%
X262281195Y-131901658D03*
D11*
X262669424Y-133350547D03*
X267788831Y-131978806D03*
D10*
X267400602Y-130529917D03*
%TD*%
D12*
%TO.C,SW37*%
X143862217Y-176344036D03*
D13*
X145746343Y-174219285D03*
D14*
X148769120Y-177658837D03*
D13*
X152537372Y-173409334D03*
D12*
X153676023Y-178973638D03*
D18*
X156159594Y-174379906D03*
X142124121Y-173248713D03*
%TD*%
D12*
%TO.C,SW15*%
X118174962Y-125389452D03*
D13*
X120059088Y-123264701D03*
D14*
X123081865Y-126704253D03*
D13*
X126850117Y-122454750D03*
D12*
X127988768Y-128019054D03*
D18*
X130472339Y-123425322D03*
X116436866Y-122294129D03*
%TD*%
D24*
%TO.C,D11*%
X288885774Y-103314034D03*
D25*
X289739874Y-106501590D03*
%TD*%
D10*
%TO.C,LED9*%
X257373631Y-113559065D03*
D11*
X257761860Y-115007954D03*
X262881267Y-113636213D03*
D10*
X262493038Y-112187324D03*
%TD*%
%TO.C,LED19*%
X228630074Y-153134710D03*
D11*
X229018303Y-154583599D03*
X234137710Y-153211858D03*
D10*
X233749481Y-151762969D03*
%TD*%
D22*
%TO.C,LED15*%
X119396293Y-130220160D03*
D23*
X119008064Y-131669049D03*
X124127471Y-133040790D03*
D22*
X124515700Y-131591901D03*
%TD*%
D24*
%TO.C,D31*%
X225310534Y-159689460D03*
D25*
X226164634Y-162877016D03*
%TD*%
D10*
%TO.C,LED24*%
X322274289Y-135540547D03*
D11*
X322662518Y-136989436D03*
X327781925Y-135617695D03*
D10*
X327393696Y-134168806D03*
%TD*%
D24*
%TO.C,D41*%
X230218095Y-178052059D03*
D25*
X231072195Y-181239615D03*
%TD*%
D10*
%TO.C,LED41*%
X238465202Y-189859885D03*
D11*
X238853431Y-191308774D03*
X243972838Y-189937033D03*
D10*
X243584609Y-188488144D03*
%TD*%
D22*
%TO.C,LED26*%
X94304056Y-150455308D03*
D23*
X93915827Y-151904197D03*
X99035234Y-153275938D03*
D22*
X99423463Y-151827049D03*
%TD*%
D19*
%TO.C,D26*%
X93065768Y-136105870D03*
D20*
X92211668Y-139293426D03*
%TD*%
D19*
%TO.C,D1*%
X82677041Y-101466765D03*
D20*
X81822941Y-104654321D03*
%TD*%
D22*
%TO.C,LED27*%
X114478732Y-148572752D03*
D23*
X114090503Y-150021641D03*
X119209910Y-151393382D03*
D22*
X119598139Y-149944493D03*
%TD*%
D12*
%TO.C,SW4*%
X142677089Y-107356618D03*
D13*
X144561215Y-105231867D03*
D14*
X147583992Y-108671419D03*
D13*
X151352244Y-104421916D03*
D12*
X152490895Y-109986220D03*
D18*
X154974466Y-105392488D03*
X140938993Y-104261295D03*
%TD*%
D12*
%TO.C,SW12*%
X313873671Y-113605102D03*
D13*
X314442996Y-110822950D03*
D14*
X318780574Y-112290301D03*
D13*
X319919226Y-106725997D03*
D12*
X323687477Y-110975500D03*
D15*
X323541447Y-105755426D03*
X310820774Y-111793521D03*
%TD*%
D10*
%TO.C,LED32*%
X250068143Y-159779616D03*
D11*
X250456372Y-161228505D03*
X255575779Y-159856764D03*
D10*
X255187550Y-158407875D03*
%TD*%
D22*
%TO.C,LED3*%
X124313861Y-111867566D03*
D23*
X123925632Y-113316455D03*
X129045039Y-114688196D03*
D22*
X129433268Y-113239307D03*
%TD*%
D12*
%TO.C,SW14*%
X98000283Y-127272008D03*
D13*
X99884409Y-125147257D03*
D14*
X102907186Y-128586809D03*
D13*
X106675438Y-124337306D03*
D12*
X107814089Y-129901610D03*
D18*
X110297660Y-125307878D03*
X96262187Y-124176685D03*
%TD*%
D12*
%TO.C,SW18*%
X171410645Y-146942256D03*
D13*
X173294771Y-144817505D03*
D14*
X176317548Y-148257057D03*
D13*
X180085800Y-144007554D03*
D12*
X181224451Y-149571858D03*
D18*
X183708022Y-144978126D03*
X169672549Y-143846933D03*
%TD*%
D22*
%TO.C,LED13*%
X78997766Y-134168800D03*
D23*
X78609537Y-135617689D03*
X83728944Y-136989430D03*
D22*
X84117173Y-135540541D03*
%TD*%
D12*
%TO.C,SW38*%
X161575522Y-183647439D03*
D13*
X163459648Y-181522688D03*
D14*
X166482425Y-184962240D03*
D13*
X170250677Y-180712737D03*
D12*
X171389328Y-186277041D03*
D18*
X173872899Y-181683309D03*
X159837426Y-180552116D03*
%TD*%
D12*
%TO.C,SW36*%
X323698792Y-150320284D03*
D13*
X324268117Y-147538132D03*
D14*
X328605695Y-149005483D03*
D13*
X329744347Y-143441179D03*
D12*
X333512598Y-147690682D03*
D15*
X333366568Y-142470608D03*
X320645895Y-148508703D03*
%TD*%
D19*
%TO.C,D4*%
X142660137Y-97837885D03*
D20*
X141806037Y-101025441D03*
%TD*%
D12*
%TO.C,SW19*%
X225157013Y-149561857D03*
D13*
X225726338Y-146779705D03*
D14*
X230063916Y-148247056D03*
D13*
X231202568Y-142682752D03*
D12*
X234970819Y-146932255D03*
D15*
X234824789Y-141712181D03*
X222104116Y-147750276D03*
%TD*%
D22*
%TO.C,LED37*%
X145083554Y-181174743D03*
D23*
X144695325Y-182623632D03*
X149814732Y-183995373D03*
D22*
X150202961Y-182546484D03*
%TD*%
D21*
%TO.C,MH*%
X217670090Y-105880245D03*
%TD*%
D24*
%TO.C,D32*%
X241821041Y-147971782D03*
D25*
X242675141Y-151159338D03*
%TD*%
D10*
%TO.C,LED20*%
X245150583Y-141427023D03*
D11*
X245538812Y-142875912D03*
X250658219Y-141504171D03*
D10*
X250269990Y-140055282D03*
%TD*%
D19*
%TO.C,D28*%
X132825017Y-134543070D03*
D20*
X131970917Y-137730626D03*
%TD*%
D12*
%TO.C,SW21*%
X258808128Y-128328813D03*
D13*
X259377453Y-125546661D03*
D14*
X263715031Y-127014012D03*
D13*
X264853683Y-121449708D03*
D12*
X268621934Y-125699211D03*
D15*
X268475904Y-120479137D03*
X255755231Y-126517232D03*
%TD*%
D12*
%TO.C,SW2*%
X102917844Y-108919421D03*
D13*
X104801970Y-106794670D03*
D14*
X107824747Y-110234222D03*
D13*
X111592999Y-105984719D03*
D12*
X112731650Y-111549023D03*
D18*
X115215221Y-106955291D03*
X101179748Y-105824098D03*
%TD*%
D22*
%TO.C,LED2*%
X104139179Y-113750124D03*
D23*
X103750950Y-115199013D03*
X108870357Y-116570754D03*
D22*
X109258586Y-115121865D03*
%TD*%
%TO.C,LED4*%
X143898426Y-112187328D03*
D23*
X143510197Y-113636217D03*
X148629604Y-115007958D03*
D22*
X149017833Y-113559069D03*
%TD*%
D24*
%TO.C,D34*%
X278526219Y-138136658D03*
D25*
X279380319Y-141324214D03*
%TD*%
D10*
%TO.C,LED42*%
X256168505Y-182546487D03*
D11*
X256556734Y-183995376D03*
X261676141Y-182623635D03*
D10*
X261287912Y-181174746D03*
%TD*%
D24*
%TO.C,D40*%
X212514787Y-185345456D03*
D25*
X213368887Y-188533012D03*
%TD*%
D10*
%TO.C,LED35*%
X306958003Y-151817053D03*
D11*
X307346232Y-153265942D03*
X312465639Y-151894201D03*
D10*
X312077410Y-150445312D03*
%TD*%
M02*
