%TF.GenerationSoftware,KiCad,Pcbnew,9.0.4*%
%TF.CreationDate,2025-08-22T20:00:46+03:00*%
%TF.ProjectId,MOKETA,4d4f4b45-5441-42e6-9b69-6361645f7063,rev?*%
%TF.SameCoordinates,Original*%
%TF.FileFunction,Drillmap*%
%TF.FilePolarity,Positive*%
%FSLAX45Y45*%
G04 Gerber Fmt 4.5, Leading zero omitted, Abs format (unit mm)*
G04 Created by KiCad (PCBNEW 9.0.4) date 2025-08-22 20:00:46*
%MOMM*%
%LPD*%
G01*
G04 APERTURE LIST*
%ADD10C,0.200000*%
%ADD11C,0.010000*%
%ADD12C,0.100000*%
%ADD13C,0.150000*%
%ADD14C,0.220000*%
G04 APERTURE END LIST*
D10*
X20319573Y-20340063D02*
G75*
G02*
X20739728Y-20612803I-3J-459997D01*
G01*
X14780754Y-9186174D02*
X9581830Y-9186174D01*
X6454828Y-16995303D02*
G75*
G02*
X6127035Y-16927077I-131758J188523D01*
G01*
X32120271Y-9389920D02*
G75*
G02*
X32425879Y-9284379I206209J-101870D01*
G01*
X8213269Y-9284380D02*
G75*
G02*
X8518870Y-9389923I99391J-207420D01*
G01*
X17572138Y-9843931D02*
X17572138Y-9186512D01*
X27786964Y-19012953D02*
G75*
G02*
X27537812Y-18920972I-59535J222173D01*
G01*
X7679509Y-9927355D02*
G75*
G02*
X8213269Y-9284380I965921J-258815D01*
G01*
X23067008Y-9843930D02*
X23067008Y-9186512D01*
X21309571Y-13655920D02*
X21309573Y-12057001D01*
X33292672Y-17537703D02*
X27786964Y-19012953D01*
X33462364Y-17334474D02*
G75*
G02*
X33292673Y-17537708I-229214J18924D01*
G01*
X23067008Y-9843930D02*
G75*
G02*
X22891272Y-10268194I-599998J0D01*
G01*
X21209570Y-13655920D02*
X21209573Y-12055920D01*
X13101332Y-18920970D02*
G75*
G02*
X13939156Y-19145466I379228J-260350D01*
G01*
X26699985Y-19145466D02*
G75*
G02*
X26528598Y-19350123I-229316J17946D01*
G01*
X31057313Y-9186174D02*
X25858393Y-9186174D01*
X31057313Y-9186174D02*
G75*
G02*
X31274163Y-9339507I7J-229996D01*
G01*
X15864984Y-9339508D02*
G75*
G02*
X16081830Y-9186181I216836J-76662D01*
G01*
X26699985Y-19145466D02*
G75*
G02*
X27537809Y-18920974I458595J-35854D01*
G01*
X19253837Y-11631657D02*
X17818584Y-10196405D01*
X25641546Y-9339508D02*
G75*
G02*
X25858393Y-9186178I216854J-76683D01*
G01*
X34625715Y-16145241D02*
G75*
G02*
X34512109Y-16927076I-965905J-258819D01*
G01*
X19899415Y-20612801D02*
G75*
G02*
X20319573Y-20340064I420155J-187259D01*
G01*
X32959637Y-9927355D02*
X34625715Y-16145241D01*
X20944035Y-20749098D02*
G75*
G02*
X20739734Y-20612800I5785J229938D01*
G01*
X17572138Y-9186512D02*
X16081830Y-9186174D01*
X23067008Y-9186512D02*
X24557313Y-9186174D01*
X19429569Y-13655921D02*
G75*
G02*
X19329571Y-13655921I-49999J1D01*
G01*
X34512110Y-16927076D02*
G75*
G02*
X34184320Y-16995300I-196030J120286D01*
G01*
X26528600Y-19350131D02*
X21900935Y-20590110D01*
X15864984Y-9339508D02*
G75*
G02*
X14997600Y-9339508I-433692J153333D01*
G01*
X21900935Y-20590110D02*
G75*
G02*
X20944035Y-20749098I-1294095J4829610D01*
G01*
X7346473Y-17537703D02*
X12852189Y-19012955D01*
X7346473Y-17537703D02*
G75*
G02*
X7176780Y-17334474I59537J222173D01*
G01*
X24557313Y-9186174D02*
G75*
G02*
X24774163Y-9339507I7J-229996D01*
G01*
X21385309Y-11631658D02*
X22820562Y-10196405D01*
X14108932Y-19349698D02*
X14108932Y-19349698D01*
X14108932Y-19349698D02*
G75*
G02*
X13939156Y-19145466I59528J222168D01*
G01*
X22967008Y-9842852D02*
G75*
G02*
X22820562Y-10196406I-500008J2D01*
G01*
X19183126Y-11703447D02*
G75*
G02*
X19329572Y-12057000I-353556J-353553D01*
G01*
X19183126Y-11703447D02*
X17747874Y-10268195D01*
X13101332Y-18920970D02*
G75*
G02*
X12852189Y-19012955I-189612J130170D01*
G01*
X14780754Y-9186174D02*
G75*
G02*
X14997600Y-9339508I-4J-230006D01*
G01*
X6454828Y-16995303D02*
G75*
G02*
X7176782Y-17334474I263515J-377042D01*
G01*
X19329573Y-12057000D02*
X19329569Y-13655921D01*
X17818584Y-10196405D02*
G75*
G02*
X17672141Y-9842851I353546J353545D01*
G01*
X25858393Y-9186177D02*
X25858393Y-9186174D01*
X22967008Y-9842852D02*
X22967008Y-9186512D01*
X21456020Y-11703447D02*
X22891272Y-10268194D01*
X19253837Y-11631657D02*
G75*
G02*
X19429572Y-12055921I-424287J-424273D01*
G01*
X9364984Y-9339508D02*
G75*
G02*
X8518872Y-9389922I-433694J153338D01*
G01*
X33462364Y-17334474D02*
G75*
G02*
X34184312Y-16995311I458426J-37856D01*
G01*
X14108932Y-19349698D02*
X18738212Y-20590110D01*
X32120271Y-9389920D02*
G75*
G02*
X31274154Y-9339510I-412421J203750D01*
G01*
X9364984Y-9339508D02*
G75*
G02*
X9581830Y-9186181I216836J-76662D01*
G01*
X21209573Y-12055922D02*
G75*
G02*
X21385307Y-11631655I600007J2D01*
G01*
X21309573Y-12057001D02*
G75*
G02*
X21456018Y-11703446I500007J1D01*
G01*
X32425878Y-9284381D02*
G75*
G02*
X32959639Y-9927355I-432158J-901790D01*
G01*
X7679509Y-9927355D02*
X6013432Y-16145239D01*
X19899415Y-20612801D02*
G75*
G02*
X19695111Y-20749100I-210075J93621D01*
G01*
X17672138Y-9842851D02*
X17672138Y-9186512D01*
X22967008Y-9186512D02*
X17672138Y-9186512D01*
X21309571Y-13655920D02*
G75*
G02*
X21209571Y-13655920I-50000J-1D01*
G01*
X19695111Y-20749098D02*
G75*
G02*
X18738212Y-20590109I337209J4988668D01*
G01*
X19429569Y-13655921D02*
X19429572Y-12055921D01*
X6127036Y-16927076D02*
G75*
G02*
X6013429Y-16145238I852354J523026D01*
G01*
X17747874Y-10268195D02*
G75*
G02*
X17572137Y-9843931I424286J424275D01*
G01*
X25641546Y-9339508D02*
G75*
G02*
X24774162Y-9339508I-433692J153333D01*
G01*
D11*
X28657865Y-13260402D02*
X28339109Y-13345812D01*
X28264052Y-13065693D01*
X28582807Y-12980283D01*
X28657865Y-13260402D01*
X30185576Y-11613398D02*
X29866821Y-11698809D01*
X29791763Y-11418690D01*
X30110519Y-11333280D01*
X30185576Y-11613398D01*
X29149621Y-15095661D02*
X28830865Y-15181071D01*
X28755808Y-14900953D01*
X29074563Y-14815542D01*
X29149621Y-15095661D01*
X8824999Y-11625298D02*
X8749941Y-11905417D01*
X8431186Y-11820007D01*
X8506243Y-11539888D01*
X8824999Y-11625298D01*
X17696663Y-15220974D02*
X17621606Y-15501092D01*
X17302850Y-15415682D01*
X17377908Y-15135563D01*
X17696663Y-15220974D01*
X7841486Y-15295816D02*
X7766429Y-15575935D01*
X7447673Y-15490524D01*
X7522731Y-15210406D01*
X7841486Y-15295816D01*
X17204907Y-17056233D02*
X17129850Y-17336351D01*
X16811094Y-17250941D01*
X16886152Y-16970823D01*
X17204907Y-17056233D01*
X30676332Y-13448657D02*
X30357577Y-13534068D01*
X30282519Y-13253949D01*
X30601275Y-13168539D01*
X30676332Y-13448657D01*
X18484482Y-19621831D02*
X18409424Y-19901950D01*
X18090669Y-19816540D01*
X18165726Y-19536421D01*
X18484482Y-19621831D01*
X22548477Y-19816540D02*
X22229722Y-19901950D01*
X22154665Y-19621832D01*
X22473420Y-19536421D01*
X22548477Y-19816540D01*
X28167108Y-11424143D02*
X27848353Y-11509553D01*
X27773295Y-11229434D01*
X28092051Y-11144024D01*
X28167108Y-11424143D01*
X16713151Y-18891492D02*
X16638094Y-19171610D01*
X16319338Y-19086200D01*
X16394396Y-18806081D01*
X16713151Y-18891492D01*
X32206961Y-11819006D02*
X31888206Y-11904417D01*
X31813148Y-11624298D01*
X32131904Y-11538888D01*
X32206961Y-11819006D01*
X18188420Y-13385714D02*
X18113363Y-13665833D01*
X17794607Y-13580423D01*
X17869665Y-13300304D01*
X18188420Y-13385714D01*
X13839795Y-14932928D02*
X13764738Y-15213046D01*
X13445982Y-15127636D01*
X13521040Y-14847518D01*
X13839795Y-14932928D01*
X22844540Y-13580423D02*
X22525784Y-13665833D01*
X22450727Y-13385715D01*
X22769482Y-13300304D01*
X22844540Y-13580423D01*
X24497590Y-12408655D02*
X24178835Y-12494065D01*
X24103777Y-12213946D01*
X24422533Y-12128536D01*
X24497590Y-12408655D01*
X33189474Y-15490525D02*
X32870718Y-15575935D01*
X32795661Y-15295816D01*
X33114416Y-15210406D01*
X33189474Y-15490525D01*
X16043613Y-14049206D02*
X15968556Y-14329324D01*
X15649800Y-14243914D01*
X15724858Y-13963796D01*
X16043613Y-14049206D01*
X27191164Y-15127637D02*
X26872408Y-15213047D01*
X26797351Y-14932929D01*
X27116106Y-14847518D01*
X27191164Y-15127637D01*
X23828052Y-17250941D02*
X23509297Y-17336351D01*
X23434239Y-17056233D01*
X23752995Y-16970823D01*
X23828052Y-17250941D01*
X15551857Y-15884464D02*
X15476799Y-16164583D01*
X15158044Y-16079173D01*
X15233101Y-15799054D01*
X15551857Y-15884464D01*
X10355627Y-13253949D02*
X10280569Y-13534067D01*
X9961814Y-13448657D01*
X10036871Y-13168538D01*
X10355627Y-13253949D01*
X16535369Y-12213947D02*
X16460312Y-12494065D01*
X16141556Y-12408655D01*
X16216614Y-12128537D01*
X16535369Y-12213947D01*
X14331552Y-13097669D02*
X14256494Y-13377788D01*
X13937739Y-13292377D01*
X14012796Y-13012259D01*
X14331552Y-13097669D01*
X26700408Y-13291377D02*
X26381652Y-13376788D01*
X26306595Y-13096669D01*
X26625350Y-13011259D01*
X26700408Y-13291377D01*
X26209651Y-11457118D02*
X25890896Y-11542528D01*
X25815838Y-11262410D01*
X26134594Y-11177000D01*
X26209651Y-11457118D01*
X23335296Y-15414682D02*
X23016540Y-15500093D01*
X22941483Y-15219974D01*
X23260238Y-15134564D01*
X23335296Y-15414682D01*
X12373095Y-13065693D02*
X12298037Y-13345812D01*
X11979282Y-13260402D01*
X12054339Y-12980283D01*
X12373095Y-13065693D01*
X32699717Y-13655266D02*
X32380962Y-13740676D01*
X32305904Y-13460558D01*
X32624660Y-13375148D01*
X32699717Y-13655266D01*
X24318808Y-19087200D02*
X24000053Y-19172610D01*
X23924995Y-18892492D01*
X24243751Y-18807081D01*
X24318808Y-19087200D01*
X9863871Y-15089208D02*
X9788814Y-15369327D01*
X9470058Y-15283916D01*
X9545116Y-15003798D01*
X9863871Y-15089208D01*
X11881339Y-14900953D02*
X11806281Y-15181071D01*
X11487526Y-15095661D01*
X11562583Y-14815542D01*
X11881339Y-14900953D01*
X25479103Y-16079173D02*
X25160347Y-16164583D01*
X25085290Y-15884465D01*
X25404045Y-15799055D01*
X25479103Y-16079173D01*
X12864851Y-11230434D02*
X12789794Y-11510552D01*
X12471038Y-11425142D01*
X12546096Y-11145024D01*
X12864851Y-11230434D01*
X8333242Y-13460557D02*
X8258184Y-13740676D01*
X7939429Y-13655266D01*
X8014486Y-13375147D01*
X8333242Y-13460557D01*
X14941821Y-18161152D02*
X14866763Y-18441270D01*
X14548008Y-18355860D01*
X14623065Y-18075741D01*
X14941821Y-18161152D01*
X24987347Y-14243914D02*
X24668591Y-14329324D01*
X24593534Y-14049206D01*
X24912289Y-13963795D01*
X24987347Y-14243914D01*
X10847383Y-11418690D02*
X10772326Y-11698808D01*
X10453570Y-11613398D01*
X10528628Y-11333279D01*
X10847383Y-11418690D01*
X14823308Y-11262410D02*
X14748250Y-11542529D01*
X14429495Y-11457118D01*
X14504552Y-11177000D01*
X14823308Y-11262410D01*
X26089139Y-18355860D02*
X25770383Y-18441270D01*
X25695326Y-18161152D01*
X26014081Y-18075742D01*
X26089139Y-18355860D01*
X31168089Y-15282917D02*
X30849333Y-15368327D01*
X30774276Y-15088209D01*
X31093031Y-15002798D01*
X31168089Y-15282917D01*
D10*
D12*
X8600624Y-14730860D02*
X8630624Y-14760860D01*
X8630624Y-14730860D02*
X8600624Y-14760860D01*
X9092381Y-12895601D02*
X9122381Y-12925601D01*
X9122381Y-12895601D02*
X9092381Y-12925601D01*
X9584137Y-11060342D02*
X9614137Y-11090342D01*
X9614137Y-11060342D02*
X9584137Y-11090342D01*
X10103987Y-11749586D02*
X10133987Y-11779586D01*
X10133987Y-11749586D02*
X10103987Y-11779586D01*
X10285160Y-11073438D02*
X10315160Y-11103438D01*
X10315160Y-11073438D02*
X10285160Y-11103438D01*
X10603400Y-14022660D02*
X10633400Y-14052660D01*
X10633400Y-14022660D02*
X10603400Y-14052660D01*
X10623010Y-14524252D02*
X10653010Y-14554252D01*
X10653010Y-14524252D02*
X10623010Y-14554252D01*
X10659573Y-15311512D02*
X10689573Y-15341512D01*
X10689573Y-15311512D02*
X10659573Y-15341512D01*
X10784573Y-13346512D02*
X10814573Y-13376512D01*
X10814573Y-13346512D02*
X10784573Y-13376512D01*
X10840747Y-14635364D02*
X10870747Y-14665364D01*
X10870747Y-14635364D02*
X10840747Y-14665364D01*
X11114766Y-12688993D02*
X11144766Y-12718993D01*
X11144766Y-12688993D02*
X11114766Y-12718993D01*
X11606522Y-10853734D02*
X11636522Y-10883734D01*
X11636522Y-10853734D02*
X11606522Y-10883734D01*
X12640477Y-14335996D02*
X12670477Y-14365996D01*
X12670477Y-14335996D02*
X12640477Y-14365996D01*
X13132234Y-12500737D02*
X13162234Y-12530737D01*
X13162234Y-12500737D02*
X13132234Y-12530737D01*
X13446715Y-18191430D02*
X13476715Y-18221430D01*
X13476715Y-18191430D02*
X13446715Y-18221430D01*
X13623990Y-10665478D02*
X13653990Y-10695478D01*
X13653990Y-10665478D02*
X13623990Y-10695478D01*
X13627889Y-17515282D02*
X13657889Y-17545282D01*
X13657889Y-17515282D02*
X13627889Y-17545282D01*
X14598934Y-14367972D02*
X14628934Y-14397972D01*
X14628934Y-14367972D02*
X14598934Y-14397972D01*
X15090690Y-12532713D02*
X15120690Y-12562713D01*
X15120690Y-12532713D02*
X15090690Y-12562713D01*
X15582446Y-10697453D02*
X15612446Y-10727453D01*
X15612446Y-10697453D02*
X15582446Y-10727453D01*
X15700959Y-17596196D02*
X15730959Y-17626196D01*
X15730959Y-17596196D02*
X15700959Y-17626196D01*
X16310995Y-15319509D02*
X16340995Y-15349509D01*
X16340995Y-15319509D02*
X16310995Y-15349509D01*
X16802752Y-13484249D02*
X16832752Y-13514249D01*
X16832752Y-13484249D02*
X16802752Y-13514249D01*
X17213552Y-15424163D02*
X17243552Y-15454163D01*
X17243552Y-15424163D02*
X17213552Y-15454163D01*
X17294508Y-11648990D02*
X17324508Y-11678990D01*
X17324508Y-11648990D02*
X17294508Y-11678990D01*
X17383573Y-17069221D02*
X17413573Y-17099221D01*
X17413573Y-17069221D02*
X17383573Y-17099221D01*
X17472290Y-18326535D02*
X17502290Y-18356535D01*
X17502290Y-18326535D02*
X17472290Y-18356535D01*
X17964046Y-16491277D02*
X17994046Y-16521277D01*
X17994046Y-16491277D02*
X17964046Y-16521277D01*
X18455802Y-14656018D02*
X18485802Y-14686018D01*
X18485802Y-14656018D02*
X18455802Y-14686018D01*
X18947558Y-12820759D02*
X18977558Y-12850759D01*
X18977558Y-12820759D02*
X18947558Y-12850759D01*
X19243621Y-19056876D02*
X19273621Y-19086876D01*
X19273621Y-19056876D02*
X19243621Y-19086876D01*
X19545543Y-17445543D02*
X19575543Y-17475543D01*
X19575543Y-17445543D02*
X19545543Y-17475543D01*
X19704573Y-17031513D02*
X19734573Y-17061513D01*
X19734573Y-17031513D02*
X19704573Y-17061513D01*
X19723919Y-16631513D02*
X19753919Y-16661513D01*
X19753919Y-16631513D02*
X19723919Y-16661513D01*
X19778919Y-16531513D02*
X19808919Y-16561513D01*
X19808919Y-16531513D02*
X19778919Y-16561513D01*
X19833919Y-16231513D02*
X19863919Y-16261513D01*
X19863919Y-16231513D02*
X19833919Y-16261513D01*
X19890000Y-16431512D02*
X19920000Y-16461512D01*
X19920000Y-16431512D02*
X19890000Y-16461512D01*
X19945000Y-16031512D02*
X19975000Y-16061512D01*
X19975000Y-16031512D02*
X19945000Y-16061512D01*
X20000000Y-15431512D02*
X20030000Y-15461512D01*
X20030000Y-15431512D02*
X20000000Y-15461512D01*
X20065000Y-15731513D02*
X20095000Y-15761513D01*
X20095000Y-15731513D02*
X20065000Y-15761513D01*
X20305000Y-9670000D02*
X20335000Y-9700000D01*
X20335000Y-9670000D02*
X20305000Y-9700000D01*
X20380000Y-15831512D02*
X20410000Y-15861512D01*
X20410000Y-15831512D02*
X20380000Y-15861512D01*
X20470000Y-16731512D02*
X20500000Y-16761512D01*
X20500000Y-16731512D02*
X20470000Y-16761512D01*
X20545000Y-17335000D02*
X20575000Y-17365000D01*
X20575000Y-17335000D02*
X20545000Y-17365000D01*
X20604900Y-15331513D02*
X20634900Y-15361513D01*
X20634900Y-15331513D02*
X20604900Y-15361513D01*
X20659900Y-15931513D02*
X20689900Y-15961513D01*
X20689900Y-15931513D02*
X20659900Y-15961513D01*
X20715000Y-16331513D02*
X20745000Y-16361513D01*
X20745000Y-16331513D02*
X20715000Y-16361513D01*
X20770000Y-15531513D02*
X20800000Y-15561513D01*
X20800000Y-15531513D02*
X20770000Y-15561513D01*
X20825000Y-15631513D02*
X20855000Y-15661513D01*
X20855000Y-15631513D02*
X20825000Y-15661513D01*
X20880000Y-16131512D02*
X20910000Y-16161512D01*
X20910000Y-16131512D02*
X20880000Y-16161512D01*
X20940000Y-16831513D02*
X20970000Y-16861513D01*
X20970000Y-16831513D02*
X20940000Y-16861513D01*
X20995000Y-16931512D02*
X21025000Y-16961512D01*
X21025000Y-16931512D02*
X20995000Y-16961512D01*
X22165929Y-15394310D02*
X22195929Y-15424310D01*
X22195929Y-15394310D02*
X22165929Y-15424310D01*
X22717214Y-17451732D02*
X22747214Y-17481732D01*
X22747214Y-17451732D02*
X22717214Y-17481732D01*
X22853866Y-18658076D02*
X22883866Y-18688076D01*
X22883866Y-18658076D02*
X22853866Y-18688076D01*
X22942052Y-11643483D02*
X22972052Y-11673483D01*
X22972052Y-11643483D02*
X22942052Y-11673483D01*
X23149928Y-12421959D02*
X23179928Y-12451959D01*
X23179928Y-12421959D02*
X23149928Y-12451959D01*
X23640684Y-14256218D02*
X23670684Y-14286218D01*
X23670684Y-14256218D02*
X23640684Y-14286218D01*
X24133440Y-16092477D02*
X24163440Y-16122477D01*
X24163440Y-16092477D02*
X24133440Y-16122477D01*
X24624196Y-17928737D02*
X24654196Y-17958737D01*
X24654196Y-17928737D02*
X24624196Y-17958737D01*
X24802978Y-11250191D02*
X24832978Y-11280191D01*
X24832978Y-11250191D02*
X24802978Y-11280191D01*
X25292735Y-13085450D02*
X25322735Y-13115450D01*
X25322735Y-13085450D02*
X25292735Y-13115450D01*
X25784491Y-14920710D02*
X25814491Y-14950710D01*
X25814491Y-14920710D02*
X25784491Y-14950710D01*
X26057095Y-15245304D02*
X26087095Y-15275304D01*
X26087095Y-15245304D02*
X26057095Y-15275304D01*
X26175508Y-15686168D02*
X26205508Y-15716168D01*
X26205508Y-15686168D02*
X26175508Y-15716168D01*
X26298573Y-16146512D02*
X26328573Y-16176512D01*
X26328573Y-16146512D02*
X26298573Y-16176512D01*
X26394527Y-17197397D02*
X26424527Y-17227397D01*
X26424527Y-17197397D02*
X26394527Y-17227397D01*
X26416986Y-16587376D02*
X26446986Y-16617376D01*
X26446986Y-16587376D02*
X26416986Y-16617376D01*
X26515039Y-10298654D02*
X26545039Y-10328654D01*
X26545039Y-10298654D02*
X26515039Y-10328654D01*
X26911793Y-11782089D02*
X26941793Y-11812089D01*
X26941793Y-11782089D02*
X26911793Y-11812089D01*
X27005796Y-12132913D02*
X27035796Y-12162913D01*
X27035796Y-12132913D02*
X27005796Y-12162913D01*
X27102987Y-17758438D02*
X27132987Y-17788438D01*
X27132987Y-17758438D02*
X27102987Y-17788438D01*
X27284160Y-18434586D02*
X27314160Y-18464586D01*
X27314160Y-18434586D02*
X27284160Y-18464586D01*
X27496552Y-13969173D02*
X27526552Y-13999173D01*
X27526552Y-13969173D02*
X27496552Y-13999173D01*
X28472496Y-10265679D02*
X28502496Y-10295679D01*
X28502496Y-10265679D02*
X28472496Y-10295679D01*
X28963253Y-12101938D02*
X28993253Y-12131938D01*
X28993253Y-12101938D02*
X28963253Y-12131938D01*
X29455009Y-13937197D02*
X29485009Y-13967197D01*
X29485009Y-13937197D02*
X29455009Y-13967197D01*
X30362426Y-16665784D02*
X30392426Y-16695784D01*
X30392426Y-16665784D02*
X30362426Y-16695784D01*
X30459019Y-16639902D02*
X30489019Y-16669902D01*
X30489019Y-16639902D02*
X30459019Y-16669902D01*
X30490964Y-10454935D02*
X30520964Y-10484935D01*
X30520964Y-10454935D02*
X30490964Y-10484935D01*
X30555611Y-16614020D02*
X30585611Y-16644020D01*
X30585611Y-16614020D02*
X30555611Y-16644020D01*
X30654232Y-16595708D02*
X30684232Y-16625708D01*
X30684232Y-16595708D02*
X30654232Y-16625708D01*
X30981721Y-12290194D02*
X31011721Y-12320194D01*
X31011721Y-12290194D02*
X30981721Y-12320194D01*
X31362128Y-13708892D02*
X31392128Y-13738892D01*
X31392128Y-13708892D02*
X31362128Y-13738892D01*
X31473477Y-14124453D02*
X31503477Y-14154453D01*
X31503477Y-14124453D02*
X31473477Y-14154453D01*
X32512349Y-10660543D02*
X32542349Y-10690543D01*
X32542349Y-10660543D02*
X32512349Y-10690543D01*
X32610161Y-11445648D02*
X32640161Y-11475648D01*
X32640161Y-11445648D02*
X32610161Y-11475648D01*
X32728573Y-11886512D02*
X32758573Y-11916512D01*
X32758573Y-11886512D02*
X32728573Y-11916512D01*
X32978573Y-10601513D02*
X33008573Y-10631513D01*
X33008573Y-10601513D02*
X32978573Y-10631513D01*
X33005106Y-12496802D02*
X33035106Y-12526802D01*
X33035106Y-12496802D02*
X33005106Y-12526802D01*
X33120924Y-11132772D02*
X33150924Y-11162772D01*
X33150924Y-11132772D02*
X33120924Y-11162772D01*
X33263274Y-11664031D02*
X33293274Y-11694031D01*
X33293274Y-11664031D02*
X33263274Y-11694031D01*
X33405625Y-12195290D02*
X33435625Y-12225290D01*
X33435625Y-12195290D02*
X33405625Y-12225290D01*
X33494862Y-14332060D02*
X33524862Y-14362060D01*
X33524862Y-14332060D02*
X33494862Y-14362060D01*
X20115573Y-19245000D02*
G75*
G02*
X20015573Y-19245000I-50000J0D01*
G01*
X20015573Y-19245000D02*
G75*
G02*
X20115573Y-19245000I50000J0D01*
G01*
X20623573Y-19245000D02*
G75*
G02*
X20523573Y-19245000I-50000J0D01*
G01*
X20523573Y-19245000D02*
G75*
G02*
X20623573Y-19245000I50000J0D01*
G01*
D13*
X19558819Y-9490785D02*
X19558819Y-9640785D01*
X19483819Y-9565785D02*
X19633819Y-9565785D01*
X19558819Y-9744785D02*
X19558819Y-9894785D01*
X19483819Y-9819785D02*
X19633819Y-9819785D01*
X19558819Y-9998785D02*
X19558819Y-10148785D01*
X19483819Y-10073785D02*
X19633819Y-10073785D01*
X19558819Y-10252785D02*
X19558819Y-10402785D01*
X19483819Y-10327785D02*
X19633819Y-10327785D01*
X19558819Y-10506785D02*
X19558819Y-10656785D01*
X19483819Y-10581785D02*
X19633819Y-10581785D01*
X19558819Y-10760785D02*
X19558819Y-10910785D01*
X19483819Y-10835785D02*
X19633819Y-10835785D01*
X19558819Y-11014785D02*
X19558819Y-11164785D01*
X19483819Y-11089785D02*
X19633819Y-11089785D01*
X19558819Y-11268785D02*
X19558819Y-11418785D01*
X19483819Y-11343785D02*
X19633819Y-11343785D01*
X19558819Y-11522785D02*
X19558819Y-11672785D01*
X19483819Y-11597785D02*
X19633819Y-11597785D01*
X19558819Y-11776785D02*
X19558819Y-11926785D01*
X19483819Y-11851785D02*
X19633819Y-11851785D01*
X19558819Y-12030785D02*
X19558819Y-12180785D01*
X19483819Y-12105785D02*
X19633819Y-12105785D01*
X19558819Y-12284785D02*
X19558819Y-12434785D01*
X19483819Y-12359785D02*
X19633819Y-12359785D01*
X21082819Y-9490785D02*
X21082819Y-9640785D01*
X21007819Y-9565785D02*
X21157819Y-9565785D01*
X21082819Y-9744785D02*
X21082819Y-9894785D01*
X21007819Y-9819785D02*
X21157819Y-9819785D01*
X21082819Y-9998785D02*
X21082819Y-10148785D01*
X21007819Y-10073785D02*
X21157819Y-10073785D01*
X21082819Y-10252785D02*
X21082819Y-10402785D01*
X21007819Y-10327785D02*
X21157819Y-10327785D01*
X21082819Y-10506785D02*
X21082819Y-10656785D01*
X21007819Y-10581785D02*
X21157819Y-10581785D01*
X21082819Y-10760785D02*
X21082819Y-10910785D01*
X21007819Y-10835785D02*
X21157819Y-10835785D01*
X21082819Y-11014785D02*
X21082819Y-11164785D01*
X21007819Y-11089785D02*
X21157819Y-11089785D01*
X21082819Y-11268785D02*
X21082819Y-11418785D01*
X21007819Y-11343785D02*
X21157819Y-11343785D01*
X21082819Y-11522785D02*
X21082819Y-11672785D01*
X21007819Y-11597785D02*
X21157819Y-11597785D01*
X21082819Y-11776785D02*
X21082819Y-11926785D01*
X21007819Y-11851785D02*
X21157819Y-11851785D01*
X21082819Y-12030785D02*
X21082819Y-12180785D01*
X21007819Y-12105785D02*
X21157819Y-12105785D01*
X21082819Y-12284785D02*
X21082819Y-12434785D01*
X21007819Y-12359785D02*
X21157819Y-12359785D01*
D14*
X13852669Y-15915442D02*
X13852669Y-15759877D01*
X13697104Y-15759877D01*
X13697104Y-15915442D01*
X13852669Y-15915442D01*
X18049921Y-9564295D02*
X18049921Y-9408730D01*
X17894356Y-9408730D01*
X17894356Y-9564295D01*
X18049921Y-9564295D01*
X19149920Y-10662782D02*
X19149920Y-10507217D01*
X18994355Y-10507217D01*
X18994355Y-10662782D01*
X19149920Y-10662782D01*
X21644792Y-10665807D02*
X21644792Y-10510242D01*
X21489227Y-10510242D01*
X21489227Y-10665807D01*
X21644792Y-10665807D01*
X22744791Y-9564295D02*
X22744791Y-9408730D01*
X22589226Y-9408730D01*
X22589226Y-9564295D01*
X22744791Y-9564295D01*
X26940042Y-15915443D02*
X26940042Y-15759878D01*
X26784477Y-15759878D01*
X26784477Y-15915443D01*
X26940042Y-15915443D01*
D10*
X6230135Y-21070582D02*
X6230135Y-20870582D01*
X6230135Y-20870582D02*
X6277754Y-20870582D01*
X6277754Y-20870582D02*
X6306326Y-20880105D01*
X6306326Y-20880105D02*
X6325373Y-20899153D01*
X6325373Y-20899153D02*
X6334897Y-20918201D01*
X6334897Y-20918201D02*
X6344421Y-20956296D01*
X6344421Y-20956296D02*
X6344421Y-20984867D01*
X6344421Y-20984867D02*
X6334897Y-21022963D01*
X6334897Y-21022963D02*
X6325373Y-21042010D01*
X6325373Y-21042010D02*
X6306326Y-21061058D01*
X6306326Y-21061058D02*
X6277754Y-21070582D01*
X6277754Y-21070582D02*
X6230135Y-21070582D01*
X6430135Y-21070582D02*
X6430135Y-20937248D01*
X6430135Y-20975344D02*
X6439659Y-20956296D01*
X6439659Y-20956296D02*
X6449183Y-20946772D01*
X6449183Y-20946772D02*
X6468230Y-20937248D01*
X6468230Y-20937248D02*
X6487278Y-20937248D01*
X6553945Y-21070582D02*
X6553945Y-20937248D01*
X6553945Y-20870582D02*
X6544421Y-20880105D01*
X6544421Y-20880105D02*
X6553945Y-20889629D01*
X6553945Y-20889629D02*
X6563468Y-20880105D01*
X6563468Y-20880105D02*
X6553945Y-20870582D01*
X6553945Y-20870582D02*
X6553945Y-20889629D01*
X6677754Y-21070582D02*
X6658707Y-21061058D01*
X6658707Y-21061058D02*
X6649183Y-21042010D01*
X6649183Y-21042010D02*
X6649183Y-20870582D01*
X6782516Y-21070582D02*
X6763468Y-21061058D01*
X6763468Y-21061058D02*
X6753945Y-21042010D01*
X6753945Y-21042010D02*
X6753945Y-20870582D01*
X7011088Y-21070582D02*
X7011088Y-20870582D01*
X7011088Y-20870582D02*
X7077754Y-21013439D01*
X7077754Y-21013439D02*
X7144421Y-20870582D01*
X7144421Y-20870582D02*
X7144421Y-21070582D01*
X7325373Y-21070582D02*
X7325373Y-20965820D01*
X7325373Y-20965820D02*
X7315849Y-20946772D01*
X7315849Y-20946772D02*
X7296802Y-20937248D01*
X7296802Y-20937248D02*
X7258707Y-20937248D01*
X7258707Y-20937248D02*
X7239659Y-20946772D01*
X7325373Y-21061058D02*
X7306326Y-21070582D01*
X7306326Y-21070582D02*
X7258707Y-21070582D01*
X7258707Y-21070582D02*
X7239659Y-21061058D01*
X7239659Y-21061058D02*
X7230135Y-21042010D01*
X7230135Y-21042010D02*
X7230135Y-21022963D01*
X7230135Y-21022963D02*
X7239659Y-21003915D01*
X7239659Y-21003915D02*
X7258707Y-20994391D01*
X7258707Y-20994391D02*
X7306326Y-20994391D01*
X7306326Y-20994391D02*
X7325373Y-20984867D01*
X7420611Y-20937248D02*
X7420611Y-21137248D01*
X7420611Y-20946772D02*
X7439659Y-20937248D01*
X7439659Y-20937248D02*
X7477754Y-20937248D01*
X7477754Y-20937248D02*
X7496802Y-20946772D01*
X7496802Y-20946772D02*
X7506326Y-20956296D01*
X7506326Y-20956296D02*
X7515849Y-20975344D01*
X7515849Y-20975344D02*
X7515849Y-21032486D01*
X7515849Y-21032486D02*
X7506326Y-21051534D01*
X7506326Y-21051534D02*
X7496802Y-21061058D01*
X7496802Y-21061058D02*
X7477754Y-21070582D01*
X7477754Y-21070582D02*
X7439659Y-21070582D01*
X7439659Y-21070582D02*
X7420611Y-21061058D01*
X7601564Y-21051534D02*
X7611088Y-21061058D01*
X7611088Y-21061058D02*
X7601564Y-21070582D01*
X7601564Y-21070582D02*
X7592040Y-21061058D01*
X7592040Y-21061058D02*
X7601564Y-21051534D01*
X7601564Y-21051534D02*
X7601564Y-21070582D01*
X7601564Y-20946772D02*
X7611088Y-20956296D01*
X7611088Y-20956296D02*
X7601564Y-20965820D01*
X7601564Y-20965820D02*
X7592040Y-20956296D01*
X7592040Y-20956296D02*
X7601564Y-20946772D01*
X7601564Y-20946772D02*
X7601564Y-20965820D01*
D12*
X5939358Y-21384098D02*
X5969358Y-21414098D01*
X5969358Y-21384098D02*
X5939358Y-21414098D01*
D10*
X6268230Y-21290582D02*
X6287278Y-21290582D01*
X6287278Y-21290582D02*
X6306326Y-21300105D01*
X6306326Y-21300105D02*
X6315849Y-21309629D01*
X6315849Y-21309629D02*
X6325373Y-21328677D01*
X6325373Y-21328677D02*
X6334897Y-21366772D01*
X6334897Y-21366772D02*
X6334897Y-21414391D01*
X6334897Y-21414391D02*
X6325373Y-21452486D01*
X6325373Y-21452486D02*
X6315849Y-21471534D01*
X6315849Y-21471534D02*
X6306326Y-21481058D01*
X6306326Y-21481058D02*
X6287278Y-21490582D01*
X6287278Y-21490582D02*
X6268230Y-21490582D01*
X6268230Y-21490582D02*
X6249183Y-21481058D01*
X6249183Y-21481058D02*
X6239659Y-21471534D01*
X6239659Y-21471534D02*
X6230135Y-21452486D01*
X6230135Y-21452486D02*
X6220611Y-21414391D01*
X6220611Y-21414391D02*
X6220611Y-21366772D01*
X6220611Y-21366772D02*
X6230135Y-21328677D01*
X6230135Y-21328677D02*
X6239659Y-21309629D01*
X6239659Y-21309629D02*
X6249183Y-21300105D01*
X6249183Y-21300105D02*
X6268230Y-21290582D01*
X6420611Y-21471534D02*
X6430135Y-21481058D01*
X6430135Y-21481058D02*
X6420611Y-21490582D01*
X6420611Y-21490582D02*
X6411088Y-21481058D01*
X6411088Y-21481058D02*
X6420611Y-21471534D01*
X6420611Y-21471534D02*
X6420611Y-21490582D01*
X6496802Y-21290582D02*
X6620611Y-21290582D01*
X6620611Y-21290582D02*
X6553945Y-21366772D01*
X6553945Y-21366772D02*
X6582516Y-21366772D01*
X6582516Y-21366772D02*
X6601564Y-21376296D01*
X6601564Y-21376296D02*
X6611088Y-21385820D01*
X6611088Y-21385820D02*
X6620611Y-21404867D01*
X6620611Y-21404867D02*
X6620611Y-21452486D01*
X6620611Y-21452486D02*
X6611088Y-21471534D01*
X6611088Y-21471534D02*
X6601564Y-21481058D01*
X6601564Y-21481058D02*
X6582516Y-21490582D01*
X6582516Y-21490582D02*
X6525373Y-21490582D01*
X6525373Y-21490582D02*
X6506326Y-21481058D01*
X6506326Y-21481058D02*
X6496802Y-21471534D01*
X6744421Y-21290582D02*
X6763469Y-21290582D01*
X6763469Y-21290582D02*
X6782516Y-21300105D01*
X6782516Y-21300105D02*
X6792040Y-21309629D01*
X6792040Y-21309629D02*
X6801564Y-21328677D01*
X6801564Y-21328677D02*
X6811088Y-21366772D01*
X6811088Y-21366772D02*
X6811088Y-21414391D01*
X6811088Y-21414391D02*
X6801564Y-21452486D01*
X6801564Y-21452486D02*
X6792040Y-21471534D01*
X6792040Y-21471534D02*
X6782516Y-21481058D01*
X6782516Y-21481058D02*
X6763469Y-21490582D01*
X6763469Y-21490582D02*
X6744421Y-21490582D01*
X6744421Y-21490582D02*
X6725373Y-21481058D01*
X6725373Y-21481058D02*
X6715849Y-21471534D01*
X6715849Y-21471534D02*
X6706326Y-21452486D01*
X6706326Y-21452486D02*
X6696802Y-21414391D01*
X6696802Y-21414391D02*
X6696802Y-21366772D01*
X6696802Y-21366772D02*
X6706326Y-21328677D01*
X6706326Y-21328677D02*
X6715849Y-21309629D01*
X6715849Y-21309629D02*
X6725373Y-21300105D01*
X6725373Y-21300105D02*
X6744421Y-21290582D01*
X6934897Y-21290582D02*
X6953945Y-21290582D01*
X6953945Y-21290582D02*
X6972992Y-21300105D01*
X6972992Y-21300105D02*
X6982516Y-21309629D01*
X6982516Y-21309629D02*
X6992040Y-21328677D01*
X6992040Y-21328677D02*
X7001564Y-21366772D01*
X7001564Y-21366772D02*
X7001564Y-21414391D01*
X7001564Y-21414391D02*
X6992040Y-21452486D01*
X6992040Y-21452486D02*
X6982516Y-21471534D01*
X6982516Y-21471534D02*
X6972992Y-21481058D01*
X6972992Y-21481058D02*
X6953945Y-21490582D01*
X6953945Y-21490582D02*
X6934897Y-21490582D01*
X6934897Y-21490582D02*
X6915849Y-21481058D01*
X6915849Y-21481058D02*
X6906326Y-21471534D01*
X6906326Y-21471534D02*
X6896802Y-21452486D01*
X6896802Y-21452486D02*
X6887278Y-21414391D01*
X6887278Y-21414391D02*
X6887278Y-21366772D01*
X6887278Y-21366772D02*
X6896802Y-21328677D01*
X6896802Y-21328677D02*
X6906326Y-21309629D01*
X6906326Y-21309629D02*
X6915849Y-21300105D01*
X6915849Y-21300105D02*
X6934897Y-21290582D01*
X7087278Y-21490582D02*
X7087278Y-21357248D01*
X7087278Y-21376296D02*
X7096802Y-21366772D01*
X7096802Y-21366772D02*
X7115849Y-21357248D01*
X7115849Y-21357248D02*
X7144421Y-21357248D01*
X7144421Y-21357248D02*
X7163469Y-21366772D01*
X7163469Y-21366772D02*
X7172992Y-21385820D01*
X7172992Y-21385820D02*
X7172992Y-21490582D01*
X7172992Y-21385820D02*
X7182516Y-21366772D01*
X7182516Y-21366772D02*
X7201564Y-21357248D01*
X7201564Y-21357248D02*
X7230135Y-21357248D01*
X7230135Y-21357248D02*
X7249183Y-21366772D01*
X7249183Y-21366772D02*
X7258707Y-21385820D01*
X7258707Y-21385820D02*
X7258707Y-21490582D01*
X7353945Y-21490582D02*
X7353945Y-21357248D01*
X7353945Y-21376296D02*
X7363469Y-21366772D01*
X7363469Y-21366772D02*
X7382516Y-21357248D01*
X7382516Y-21357248D02*
X7411088Y-21357248D01*
X7411088Y-21357248D02*
X7430135Y-21366772D01*
X7430135Y-21366772D02*
X7439659Y-21385820D01*
X7439659Y-21385820D02*
X7439659Y-21490582D01*
X7439659Y-21385820D02*
X7449183Y-21366772D01*
X7449183Y-21366772D02*
X7468230Y-21357248D01*
X7468230Y-21357248D02*
X7496802Y-21357248D01*
X7496802Y-21357248D02*
X7515850Y-21366772D01*
X7515850Y-21366772D02*
X7525373Y-21385820D01*
X7525373Y-21385820D02*
X7525373Y-21490582D01*
X7915850Y-21281058D02*
X7744421Y-21538201D01*
X8172992Y-21290582D02*
X8192040Y-21290582D01*
X8192040Y-21290582D02*
X8211088Y-21300105D01*
X8211088Y-21300105D02*
X8220612Y-21309629D01*
X8220612Y-21309629D02*
X8230135Y-21328677D01*
X8230135Y-21328677D02*
X8239659Y-21366772D01*
X8239659Y-21366772D02*
X8239659Y-21414391D01*
X8239659Y-21414391D02*
X8230135Y-21452486D01*
X8230135Y-21452486D02*
X8220612Y-21471534D01*
X8220612Y-21471534D02*
X8211088Y-21481058D01*
X8211088Y-21481058D02*
X8192040Y-21490582D01*
X8192040Y-21490582D02*
X8172992Y-21490582D01*
X8172992Y-21490582D02*
X8153945Y-21481058D01*
X8153945Y-21481058D02*
X8144421Y-21471534D01*
X8144421Y-21471534D02*
X8134897Y-21452486D01*
X8134897Y-21452486D02*
X8125373Y-21414391D01*
X8125373Y-21414391D02*
X8125373Y-21366772D01*
X8125373Y-21366772D02*
X8134897Y-21328677D01*
X8134897Y-21328677D02*
X8144421Y-21309629D01*
X8144421Y-21309629D02*
X8153945Y-21300105D01*
X8153945Y-21300105D02*
X8172992Y-21290582D01*
X8325373Y-21471534D02*
X8334897Y-21481058D01*
X8334897Y-21481058D02*
X8325373Y-21490582D01*
X8325373Y-21490582D02*
X8315850Y-21481058D01*
X8315850Y-21481058D02*
X8325373Y-21471534D01*
X8325373Y-21471534D02*
X8325373Y-21490582D01*
X8458707Y-21290582D02*
X8477755Y-21290582D01*
X8477755Y-21290582D02*
X8496802Y-21300105D01*
X8496802Y-21300105D02*
X8506326Y-21309629D01*
X8506326Y-21309629D02*
X8515850Y-21328677D01*
X8515850Y-21328677D02*
X8525374Y-21366772D01*
X8525374Y-21366772D02*
X8525374Y-21414391D01*
X8525374Y-21414391D02*
X8515850Y-21452486D01*
X8515850Y-21452486D02*
X8506326Y-21471534D01*
X8506326Y-21471534D02*
X8496802Y-21481058D01*
X8496802Y-21481058D02*
X8477755Y-21490582D01*
X8477755Y-21490582D02*
X8458707Y-21490582D01*
X8458707Y-21490582D02*
X8439659Y-21481058D01*
X8439659Y-21481058D02*
X8430135Y-21471534D01*
X8430135Y-21471534D02*
X8420612Y-21452486D01*
X8420612Y-21452486D02*
X8411088Y-21414391D01*
X8411088Y-21414391D02*
X8411088Y-21366772D01*
X8411088Y-21366772D02*
X8420612Y-21328677D01*
X8420612Y-21328677D02*
X8430135Y-21309629D01*
X8430135Y-21309629D02*
X8439659Y-21300105D01*
X8439659Y-21300105D02*
X8458707Y-21290582D01*
X8715850Y-21490582D02*
X8601564Y-21490582D01*
X8658707Y-21490582D02*
X8658707Y-21290582D01*
X8658707Y-21290582D02*
X8639659Y-21319153D01*
X8639659Y-21319153D02*
X8620612Y-21338201D01*
X8620612Y-21338201D02*
X8601564Y-21347724D01*
X8906326Y-21490582D02*
X8792040Y-21490582D01*
X8849183Y-21490582D02*
X8849183Y-21290582D01*
X8849183Y-21290582D02*
X8830135Y-21319153D01*
X8830135Y-21319153D02*
X8811088Y-21338201D01*
X8811088Y-21338201D02*
X8792040Y-21347724D01*
X9020612Y-21376296D02*
X9001564Y-21366772D01*
X9001564Y-21366772D02*
X8992040Y-21357248D01*
X8992040Y-21357248D02*
X8982516Y-21338201D01*
X8982516Y-21338201D02*
X8982516Y-21328677D01*
X8982516Y-21328677D02*
X8992040Y-21309629D01*
X8992040Y-21309629D02*
X9001564Y-21300105D01*
X9001564Y-21300105D02*
X9020612Y-21290582D01*
X9020612Y-21290582D02*
X9058707Y-21290582D01*
X9058707Y-21290582D02*
X9077755Y-21300105D01*
X9077755Y-21300105D02*
X9087278Y-21309629D01*
X9087278Y-21309629D02*
X9096802Y-21328677D01*
X9096802Y-21328677D02*
X9096802Y-21338201D01*
X9096802Y-21338201D02*
X9087278Y-21357248D01*
X9087278Y-21357248D02*
X9077755Y-21366772D01*
X9077755Y-21366772D02*
X9058707Y-21376296D01*
X9058707Y-21376296D02*
X9020612Y-21376296D01*
X9020612Y-21376296D02*
X9001564Y-21385820D01*
X9001564Y-21385820D02*
X8992040Y-21395344D01*
X8992040Y-21395344D02*
X8982516Y-21414391D01*
X8982516Y-21414391D02*
X8982516Y-21452486D01*
X8982516Y-21452486D02*
X8992040Y-21471534D01*
X8992040Y-21471534D02*
X9001564Y-21481058D01*
X9001564Y-21481058D02*
X9020612Y-21490582D01*
X9020612Y-21490582D02*
X9058707Y-21490582D01*
X9058707Y-21490582D02*
X9077755Y-21481058D01*
X9077755Y-21481058D02*
X9087278Y-21471534D01*
X9087278Y-21471534D02*
X9096802Y-21452486D01*
X9096802Y-21452486D02*
X9096802Y-21414391D01*
X9096802Y-21414391D02*
X9087278Y-21395344D01*
X9087278Y-21395344D02*
X9077755Y-21385820D01*
X9077755Y-21385820D02*
X9058707Y-21376296D01*
X9172993Y-21290582D02*
X9172993Y-21328677D01*
X9249183Y-21290582D02*
X9249183Y-21328677D01*
X9544421Y-21566772D02*
X9534897Y-21557248D01*
X9534897Y-21557248D02*
X9515850Y-21528677D01*
X9515850Y-21528677D02*
X9506326Y-21509629D01*
X9506326Y-21509629D02*
X9496802Y-21481058D01*
X9496802Y-21481058D02*
X9487278Y-21433439D01*
X9487278Y-21433439D02*
X9487278Y-21395344D01*
X9487278Y-21395344D02*
X9496802Y-21347724D01*
X9496802Y-21347724D02*
X9506326Y-21319153D01*
X9506326Y-21319153D02*
X9515850Y-21300105D01*
X9515850Y-21300105D02*
X9534897Y-21271534D01*
X9534897Y-21271534D02*
X9544421Y-21262010D01*
X9630136Y-21490582D02*
X9668231Y-21490582D01*
X9668231Y-21490582D02*
X9687278Y-21481058D01*
X9687278Y-21481058D02*
X9696802Y-21471534D01*
X9696802Y-21471534D02*
X9715850Y-21442963D01*
X9715850Y-21442963D02*
X9725374Y-21404867D01*
X9725374Y-21404867D02*
X9725374Y-21328677D01*
X9725374Y-21328677D02*
X9715850Y-21309629D01*
X9715850Y-21309629D02*
X9706326Y-21300105D01*
X9706326Y-21300105D02*
X9687278Y-21290582D01*
X9687278Y-21290582D02*
X9649183Y-21290582D01*
X9649183Y-21290582D02*
X9630136Y-21300105D01*
X9630136Y-21300105D02*
X9620612Y-21309629D01*
X9620612Y-21309629D02*
X9611088Y-21328677D01*
X9611088Y-21328677D02*
X9611088Y-21376296D01*
X9611088Y-21376296D02*
X9620612Y-21395344D01*
X9620612Y-21395344D02*
X9630136Y-21404867D01*
X9630136Y-21404867D02*
X9649183Y-21414391D01*
X9649183Y-21414391D02*
X9687278Y-21414391D01*
X9687278Y-21414391D02*
X9706326Y-21404867D01*
X9706326Y-21404867D02*
X9715850Y-21395344D01*
X9715850Y-21395344D02*
X9725374Y-21376296D01*
X9896802Y-21357248D02*
X9896802Y-21490582D01*
X9849183Y-21281058D02*
X9801564Y-21423915D01*
X9801564Y-21423915D02*
X9925374Y-21423915D01*
X10153945Y-21490582D02*
X10153945Y-21290582D01*
X10239659Y-21490582D02*
X10239659Y-21385820D01*
X10239659Y-21385820D02*
X10230136Y-21366772D01*
X10230136Y-21366772D02*
X10211088Y-21357248D01*
X10211088Y-21357248D02*
X10182517Y-21357248D01*
X10182517Y-21357248D02*
X10163469Y-21366772D01*
X10163469Y-21366772D02*
X10153945Y-21376296D01*
X10363469Y-21490582D02*
X10344421Y-21481058D01*
X10344421Y-21481058D02*
X10334898Y-21471534D01*
X10334898Y-21471534D02*
X10325374Y-21452486D01*
X10325374Y-21452486D02*
X10325374Y-21395344D01*
X10325374Y-21395344D02*
X10334898Y-21376296D01*
X10334898Y-21376296D02*
X10344421Y-21366772D01*
X10344421Y-21366772D02*
X10363469Y-21357248D01*
X10363469Y-21357248D02*
X10392040Y-21357248D01*
X10392040Y-21357248D02*
X10411088Y-21366772D01*
X10411088Y-21366772D02*
X10420612Y-21376296D01*
X10420612Y-21376296D02*
X10430136Y-21395344D01*
X10430136Y-21395344D02*
X10430136Y-21452486D01*
X10430136Y-21452486D02*
X10420612Y-21471534D01*
X10420612Y-21471534D02*
X10411088Y-21481058D01*
X10411088Y-21481058D02*
X10392040Y-21490582D01*
X10392040Y-21490582D02*
X10363469Y-21490582D01*
X10544421Y-21490582D02*
X10525374Y-21481058D01*
X10525374Y-21481058D02*
X10515850Y-21462010D01*
X10515850Y-21462010D02*
X10515850Y-21290582D01*
X10696802Y-21481058D02*
X10677755Y-21490582D01*
X10677755Y-21490582D02*
X10639659Y-21490582D01*
X10639659Y-21490582D02*
X10620612Y-21481058D01*
X10620612Y-21481058D02*
X10611088Y-21462010D01*
X10611088Y-21462010D02*
X10611088Y-21385820D01*
X10611088Y-21385820D02*
X10620612Y-21366772D01*
X10620612Y-21366772D02*
X10639659Y-21357248D01*
X10639659Y-21357248D02*
X10677755Y-21357248D01*
X10677755Y-21357248D02*
X10696802Y-21366772D01*
X10696802Y-21366772D02*
X10706326Y-21385820D01*
X10706326Y-21385820D02*
X10706326Y-21404867D01*
X10706326Y-21404867D02*
X10611088Y-21423915D01*
X10782517Y-21481058D02*
X10801564Y-21490582D01*
X10801564Y-21490582D02*
X10839659Y-21490582D01*
X10839659Y-21490582D02*
X10858707Y-21481058D01*
X10858707Y-21481058D02*
X10868231Y-21462010D01*
X10868231Y-21462010D02*
X10868231Y-21452486D01*
X10868231Y-21452486D02*
X10858707Y-21433439D01*
X10858707Y-21433439D02*
X10839659Y-21423915D01*
X10839659Y-21423915D02*
X10811088Y-21423915D01*
X10811088Y-21423915D02*
X10792040Y-21414391D01*
X10792040Y-21414391D02*
X10782517Y-21395344D01*
X10782517Y-21395344D02*
X10782517Y-21385820D01*
X10782517Y-21385820D02*
X10792040Y-21366772D01*
X10792040Y-21366772D02*
X10811088Y-21357248D01*
X10811088Y-21357248D02*
X10839659Y-21357248D01*
X10839659Y-21357248D02*
X10858707Y-21366772D01*
X10934898Y-21566772D02*
X10944421Y-21557248D01*
X10944421Y-21557248D02*
X10963469Y-21528677D01*
X10963469Y-21528677D02*
X10972993Y-21509629D01*
X10972993Y-21509629D02*
X10982517Y-21481058D01*
X10982517Y-21481058D02*
X10992040Y-21433439D01*
X10992040Y-21433439D02*
X10992040Y-21395344D01*
X10992040Y-21395344D02*
X10982517Y-21347724D01*
X10982517Y-21347724D02*
X10972993Y-21319153D01*
X10972993Y-21319153D02*
X10963469Y-21300105D01*
X10963469Y-21300105D02*
X10944421Y-21271534D01*
X10944421Y-21271534D02*
X10934898Y-21262010D01*
D12*
X5969358Y-21663098D02*
G75*
G02*
X5869358Y-21663098I-50000J0D01*
G01*
X5869358Y-21663098D02*
G75*
G02*
X5969358Y-21663098I50000J0D01*
G01*
D10*
X6334897Y-21754582D02*
X6220611Y-21754582D01*
X6277754Y-21754582D02*
X6277754Y-21554582D01*
X6277754Y-21554582D02*
X6258707Y-21583153D01*
X6258707Y-21583153D02*
X6239659Y-21602201D01*
X6239659Y-21602201D02*
X6220611Y-21611724D01*
X6420611Y-21735534D02*
X6430135Y-21745058D01*
X6430135Y-21745058D02*
X6420611Y-21754582D01*
X6420611Y-21754582D02*
X6411088Y-21745058D01*
X6411088Y-21745058D02*
X6420611Y-21735534D01*
X6420611Y-21735534D02*
X6420611Y-21754582D01*
X6553945Y-21554582D02*
X6572992Y-21554582D01*
X6572992Y-21554582D02*
X6592040Y-21564105D01*
X6592040Y-21564105D02*
X6601564Y-21573629D01*
X6601564Y-21573629D02*
X6611088Y-21592677D01*
X6611088Y-21592677D02*
X6620611Y-21630772D01*
X6620611Y-21630772D02*
X6620611Y-21678391D01*
X6620611Y-21678391D02*
X6611088Y-21716486D01*
X6611088Y-21716486D02*
X6601564Y-21735534D01*
X6601564Y-21735534D02*
X6592040Y-21745058D01*
X6592040Y-21745058D02*
X6572992Y-21754582D01*
X6572992Y-21754582D02*
X6553945Y-21754582D01*
X6553945Y-21754582D02*
X6534897Y-21745058D01*
X6534897Y-21745058D02*
X6525373Y-21735534D01*
X6525373Y-21735534D02*
X6515849Y-21716486D01*
X6515849Y-21716486D02*
X6506326Y-21678391D01*
X6506326Y-21678391D02*
X6506326Y-21630772D01*
X6506326Y-21630772D02*
X6515849Y-21592677D01*
X6515849Y-21592677D02*
X6525373Y-21573629D01*
X6525373Y-21573629D02*
X6534897Y-21564105D01*
X6534897Y-21564105D02*
X6553945Y-21554582D01*
X6744421Y-21554582D02*
X6763469Y-21554582D01*
X6763469Y-21554582D02*
X6782516Y-21564105D01*
X6782516Y-21564105D02*
X6792040Y-21573629D01*
X6792040Y-21573629D02*
X6801564Y-21592677D01*
X6801564Y-21592677D02*
X6811088Y-21630772D01*
X6811088Y-21630772D02*
X6811088Y-21678391D01*
X6811088Y-21678391D02*
X6801564Y-21716486D01*
X6801564Y-21716486D02*
X6792040Y-21735534D01*
X6792040Y-21735534D02*
X6782516Y-21745058D01*
X6782516Y-21745058D02*
X6763469Y-21754582D01*
X6763469Y-21754582D02*
X6744421Y-21754582D01*
X6744421Y-21754582D02*
X6725373Y-21745058D01*
X6725373Y-21745058D02*
X6715849Y-21735534D01*
X6715849Y-21735534D02*
X6706326Y-21716486D01*
X6706326Y-21716486D02*
X6696802Y-21678391D01*
X6696802Y-21678391D02*
X6696802Y-21630772D01*
X6696802Y-21630772D02*
X6706326Y-21592677D01*
X6706326Y-21592677D02*
X6715849Y-21573629D01*
X6715849Y-21573629D02*
X6725373Y-21564105D01*
X6725373Y-21564105D02*
X6744421Y-21554582D01*
X6934897Y-21554582D02*
X6953945Y-21554582D01*
X6953945Y-21554582D02*
X6972992Y-21564105D01*
X6972992Y-21564105D02*
X6982516Y-21573629D01*
X6982516Y-21573629D02*
X6992040Y-21592677D01*
X6992040Y-21592677D02*
X7001564Y-21630772D01*
X7001564Y-21630772D02*
X7001564Y-21678391D01*
X7001564Y-21678391D02*
X6992040Y-21716486D01*
X6992040Y-21716486D02*
X6982516Y-21735534D01*
X6982516Y-21735534D02*
X6972992Y-21745058D01*
X6972992Y-21745058D02*
X6953945Y-21754582D01*
X6953945Y-21754582D02*
X6934897Y-21754582D01*
X6934897Y-21754582D02*
X6915849Y-21745058D01*
X6915849Y-21745058D02*
X6906326Y-21735534D01*
X6906326Y-21735534D02*
X6896802Y-21716486D01*
X6896802Y-21716486D02*
X6887278Y-21678391D01*
X6887278Y-21678391D02*
X6887278Y-21630772D01*
X6887278Y-21630772D02*
X6896802Y-21592677D01*
X6896802Y-21592677D02*
X6906326Y-21573629D01*
X6906326Y-21573629D02*
X6915849Y-21564105D01*
X6915849Y-21564105D02*
X6934897Y-21554582D01*
X7087278Y-21754582D02*
X7087278Y-21621248D01*
X7087278Y-21640296D02*
X7096802Y-21630772D01*
X7096802Y-21630772D02*
X7115849Y-21621248D01*
X7115849Y-21621248D02*
X7144421Y-21621248D01*
X7144421Y-21621248D02*
X7163469Y-21630772D01*
X7163469Y-21630772D02*
X7172992Y-21649820D01*
X7172992Y-21649820D02*
X7172992Y-21754582D01*
X7172992Y-21649820D02*
X7182516Y-21630772D01*
X7182516Y-21630772D02*
X7201564Y-21621248D01*
X7201564Y-21621248D02*
X7230135Y-21621248D01*
X7230135Y-21621248D02*
X7249183Y-21630772D01*
X7249183Y-21630772D02*
X7258707Y-21649820D01*
X7258707Y-21649820D02*
X7258707Y-21754582D01*
X7353945Y-21754582D02*
X7353945Y-21621248D01*
X7353945Y-21640296D02*
X7363469Y-21630772D01*
X7363469Y-21630772D02*
X7382516Y-21621248D01*
X7382516Y-21621248D02*
X7411088Y-21621248D01*
X7411088Y-21621248D02*
X7430135Y-21630772D01*
X7430135Y-21630772D02*
X7439659Y-21649820D01*
X7439659Y-21649820D02*
X7439659Y-21754582D01*
X7439659Y-21649820D02*
X7449183Y-21630772D01*
X7449183Y-21630772D02*
X7468230Y-21621248D01*
X7468230Y-21621248D02*
X7496802Y-21621248D01*
X7496802Y-21621248D02*
X7515850Y-21630772D01*
X7515850Y-21630772D02*
X7525373Y-21649820D01*
X7525373Y-21649820D02*
X7525373Y-21754582D01*
X7915850Y-21545058D02*
X7744421Y-21802201D01*
X8172992Y-21554582D02*
X8192040Y-21554582D01*
X8192040Y-21554582D02*
X8211088Y-21564105D01*
X8211088Y-21564105D02*
X8220612Y-21573629D01*
X8220612Y-21573629D02*
X8230135Y-21592677D01*
X8230135Y-21592677D02*
X8239659Y-21630772D01*
X8239659Y-21630772D02*
X8239659Y-21678391D01*
X8239659Y-21678391D02*
X8230135Y-21716486D01*
X8230135Y-21716486D02*
X8220612Y-21735534D01*
X8220612Y-21735534D02*
X8211088Y-21745058D01*
X8211088Y-21745058D02*
X8192040Y-21754582D01*
X8192040Y-21754582D02*
X8172992Y-21754582D01*
X8172992Y-21754582D02*
X8153945Y-21745058D01*
X8153945Y-21745058D02*
X8144421Y-21735534D01*
X8144421Y-21735534D02*
X8134897Y-21716486D01*
X8134897Y-21716486D02*
X8125373Y-21678391D01*
X8125373Y-21678391D02*
X8125373Y-21630772D01*
X8125373Y-21630772D02*
X8134897Y-21592677D01*
X8134897Y-21592677D02*
X8144421Y-21573629D01*
X8144421Y-21573629D02*
X8153945Y-21564105D01*
X8153945Y-21564105D02*
X8172992Y-21554582D01*
X8325373Y-21735534D02*
X8334897Y-21745058D01*
X8334897Y-21745058D02*
X8325373Y-21754582D01*
X8325373Y-21754582D02*
X8315850Y-21745058D01*
X8315850Y-21745058D02*
X8325373Y-21735534D01*
X8325373Y-21735534D02*
X8325373Y-21754582D01*
X8458707Y-21554582D02*
X8477755Y-21554582D01*
X8477755Y-21554582D02*
X8496802Y-21564105D01*
X8496802Y-21564105D02*
X8506326Y-21573629D01*
X8506326Y-21573629D02*
X8515850Y-21592677D01*
X8515850Y-21592677D02*
X8525374Y-21630772D01*
X8525374Y-21630772D02*
X8525374Y-21678391D01*
X8525374Y-21678391D02*
X8515850Y-21716486D01*
X8515850Y-21716486D02*
X8506326Y-21735534D01*
X8506326Y-21735534D02*
X8496802Y-21745058D01*
X8496802Y-21745058D02*
X8477755Y-21754582D01*
X8477755Y-21754582D02*
X8458707Y-21754582D01*
X8458707Y-21754582D02*
X8439659Y-21745058D01*
X8439659Y-21745058D02*
X8430135Y-21735534D01*
X8430135Y-21735534D02*
X8420612Y-21716486D01*
X8420612Y-21716486D02*
X8411088Y-21678391D01*
X8411088Y-21678391D02*
X8411088Y-21630772D01*
X8411088Y-21630772D02*
X8420612Y-21592677D01*
X8420612Y-21592677D02*
X8430135Y-21573629D01*
X8430135Y-21573629D02*
X8439659Y-21564105D01*
X8439659Y-21564105D02*
X8458707Y-21554582D01*
X8592040Y-21554582D02*
X8715850Y-21554582D01*
X8715850Y-21554582D02*
X8649183Y-21630772D01*
X8649183Y-21630772D02*
X8677755Y-21630772D01*
X8677755Y-21630772D02*
X8696802Y-21640296D01*
X8696802Y-21640296D02*
X8706326Y-21649820D01*
X8706326Y-21649820D02*
X8715850Y-21668867D01*
X8715850Y-21668867D02*
X8715850Y-21716486D01*
X8715850Y-21716486D02*
X8706326Y-21735534D01*
X8706326Y-21735534D02*
X8696802Y-21745058D01*
X8696802Y-21745058D02*
X8677755Y-21754582D01*
X8677755Y-21754582D02*
X8620612Y-21754582D01*
X8620612Y-21754582D02*
X8601564Y-21745058D01*
X8601564Y-21745058D02*
X8592040Y-21735534D01*
X8811088Y-21754582D02*
X8849183Y-21754582D01*
X8849183Y-21754582D02*
X8868231Y-21745058D01*
X8868231Y-21745058D02*
X8877755Y-21735534D01*
X8877755Y-21735534D02*
X8896802Y-21706963D01*
X8896802Y-21706963D02*
X8906326Y-21668867D01*
X8906326Y-21668867D02*
X8906326Y-21592677D01*
X8906326Y-21592677D02*
X8896802Y-21573629D01*
X8896802Y-21573629D02*
X8887278Y-21564105D01*
X8887278Y-21564105D02*
X8868231Y-21554582D01*
X8868231Y-21554582D02*
X8830135Y-21554582D01*
X8830135Y-21554582D02*
X8811088Y-21564105D01*
X8811088Y-21564105D02*
X8801564Y-21573629D01*
X8801564Y-21573629D02*
X8792040Y-21592677D01*
X8792040Y-21592677D02*
X8792040Y-21640296D01*
X8792040Y-21640296D02*
X8801564Y-21659344D01*
X8801564Y-21659344D02*
X8811088Y-21668867D01*
X8811088Y-21668867D02*
X8830135Y-21678391D01*
X8830135Y-21678391D02*
X8868231Y-21678391D01*
X8868231Y-21678391D02*
X8887278Y-21668867D01*
X8887278Y-21668867D02*
X8896802Y-21659344D01*
X8896802Y-21659344D02*
X8906326Y-21640296D01*
X9077755Y-21621248D02*
X9077755Y-21754582D01*
X9030135Y-21545058D02*
X8982516Y-21687915D01*
X8982516Y-21687915D02*
X9106326Y-21687915D01*
X9172993Y-21554582D02*
X9172993Y-21592677D01*
X9249183Y-21554582D02*
X9249183Y-21592677D01*
X9544421Y-21830772D02*
X9534897Y-21821248D01*
X9534897Y-21821248D02*
X9515850Y-21792677D01*
X9515850Y-21792677D02*
X9506326Y-21773629D01*
X9506326Y-21773629D02*
X9496802Y-21745058D01*
X9496802Y-21745058D02*
X9487278Y-21697439D01*
X9487278Y-21697439D02*
X9487278Y-21659344D01*
X9487278Y-21659344D02*
X9496802Y-21611724D01*
X9496802Y-21611724D02*
X9506326Y-21583153D01*
X9506326Y-21583153D02*
X9515850Y-21564105D01*
X9515850Y-21564105D02*
X9534897Y-21535534D01*
X9534897Y-21535534D02*
X9544421Y-21526010D01*
X9611088Y-21573629D02*
X9620612Y-21564105D01*
X9620612Y-21564105D02*
X9639659Y-21554582D01*
X9639659Y-21554582D02*
X9687278Y-21554582D01*
X9687278Y-21554582D02*
X9706326Y-21564105D01*
X9706326Y-21564105D02*
X9715850Y-21573629D01*
X9715850Y-21573629D02*
X9725374Y-21592677D01*
X9725374Y-21592677D02*
X9725374Y-21611724D01*
X9725374Y-21611724D02*
X9715850Y-21640296D01*
X9715850Y-21640296D02*
X9601564Y-21754582D01*
X9601564Y-21754582D02*
X9725374Y-21754582D01*
X9963469Y-21754582D02*
X9963469Y-21554582D01*
X10049183Y-21754582D02*
X10049183Y-21649820D01*
X10049183Y-21649820D02*
X10039659Y-21630772D01*
X10039659Y-21630772D02*
X10020612Y-21621248D01*
X10020612Y-21621248D02*
X9992040Y-21621248D01*
X9992040Y-21621248D02*
X9972993Y-21630772D01*
X9972993Y-21630772D02*
X9963469Y-21640296D01*
X10172993Y-21754582D02*
X10153945Y-21745058D01*
X10153945Y-21745058D02*
X10144421Y-21735534D01*
X10144421Y-21735534D02*
X10134898Y-21716486D01*
X10134898Y-21716486D02*
X10134898Y-21659344D01*
X10134898Y-21659344D02*
X10144421Y-21640296D01*
X10144421Y-21640296D02*
X10153945Y-21630772D01*
X10153945Y-21630772D02*
X10172993Y-21621248D01*
X10172993Y-21621248D02*
X10201564Y-21621248D01*
X10201564Y-21621248D02*
X10220612Y-21630772D01*
X10220612Y-21630772D02*
X10230136Y-21640296D01*
X10230136Y-21640296D02*
X10239659Y-21659344D01*
X10239659Y-21659344D02*
X10239659Y-21716486D01*
X10239659Y-21716486D02*
X10230136Y-21735534D01*
X10230136Y-21735534D02*
X10220612Y-21745058D01*
X10220612Y-21745058D02*
X10201564Y-21754582D01*
X10201564Y-21754582D02*
X10172993Y-21754582D01*
X10353945Y-21754582D02*
X10334898Y-21745058D01*
X10334898Y-21745058D02*
X10325374Y-21726010D01*
X10325374Y-21726010D02*
X10325374Y-21554582D01*
X10506326Y-21745058D02*
X10487279Y-21754582D01*
X10487279Y-21754582D02*
X10449183Y-21754582D01*
X10449183Y-21754582D02*
X10430136Y-21745058D01*
X10430136Y-21745058D02*
X10420612Y-21726010D01*
X10420612Y-21726010D02*
X10420612Y-21649820D01*
X10420612Y-21649820D02*
X10430136Y-21630772D01*
X10430136Y-21630772D02*
X10449183Y-21621248D01*
X10449183Y-21621248D02*
X10487279Y-21621248D01*
X10487279Y-21621248D02*
X10506326Y-21630772D01*
X10506326Y-21630772D02*
X10515850Y-21649820D01*
X10515850Y-21649820D02*
X10515850Y-21668867D01*
X10515850Y-21668867D02*
X10420612Y-21687915D01*
X10592040Y-21745058D02*
X10611088Y-21754582D01*
X10611088Y-21754582D02*
X10649183Y-21754582D01*
X10649183Y-21754582D02*
X10668231Y-21745058D01*
X10668231Y-21745058D02*
X10677755Y-21726010D01*
X10677755Y-21726010D02*
X10677755Y-21716486D01*
X10677755Y-21716486D02*
X10668231Y-21697439D01*
X10668231Y-21697439D02*
X10649183Y-21687915D01*
X10649183Y-21687915D02*
X10620612Y-21687915D01*
X10620612Y-21687915D02*
X10601564Y-21678391D01*
X10601564Y-21678391D02*
X10592040Y-21659344D01*
X10592040Y-21659344D02*
X10592040Y-21649820D01*
X10592040Y-21649820D02*
X10601564Y-21630772D01*
X10601564Y-21630772D02*
X10620612Y-21621248D01*
X10620612Y-21621248D02*
X10649183Y-21621248D01*
X10649183Y-21621248D02*
X10668231Y-21630772D01*
X10744421Y-21830772D02*
X10753945Y-21821248D01*
X10753945Y-21821248D02*
X10772993Y-21792677D01*
X10772993Y-21792677D02*
X10782517Y-21773629D01*
X10782517Y-21773629D02*
X10792040Y-21745058D01*
X10792040Y-21745058D02*
X10801564Y-21697439D01*
X10801564Y-21697439D02*
X10801564Y-21659344D01*
X10801564Y-21659344D02*
X10792040Y-21611724D01*
X10792040Y-21611724D02*
X10782517Y-21583153D01*
X10782517Y-21583153D02*
X10772993Y-21564105D01*
X10772993Y-21564105D02*
X10753945Y-21535534D01*
X10753945Y-21535534D02*
X10744421Y-21526010D01*
D13*
X5894358Y-21852098D02*
X5894358Y-22002098D01*
X5819358Y-21927098D02*
X5969358Y-21927098D01*
D10*
X6334897Y-22018582D02*
X6220611Y-22018582D01*
X6277754Y-22018582D02*
X6277754Y-21818582D01*
X6277754Y-21818582D02*
X6258707Y-21847153D01*
X6258707Y-21847153D02*
X6239659Y-21866201D01*
X6239659Y-21866201D02*
X6220611Y-21875724D01*
X6420611Y-21999534D02*
X6430135Y-22009058D01*
X6430135Y-22009058D02*
X6420611Y-22018582D01*
X6420611Y-22018582D02*
X6411088Y-22009058D01*
X6411088Y-22009058D02*
X6420611Y-21999534D01*
X6420611Y-21999534D02*
X6420611Y-22018582D01*
X6611088Y-21818582D02*
X6515849Y-21818582D01*
X6515849Y-21818582D02*
X6506326Y-21913820D01*
X6506326Y-21913820D02*
X6515849Y-21904296D01*
X6515849Y-21904296D02*
X6534897Y-21894772D01*
X6534897Y-21894772D02*
X6582516Y-21894772D01*
X6582516Y-21894772D02*
X6601564Y-21904296D01*
X6601564Y-21904296D02*
X6611088Y-21913820D01*
X6611088Y-21913820D02*
X6620611Y-21932867D01*
X6620611Y-21932867D02*
X6620611Y-21980486D01*
X6620611Y-21980486D02*
X6611088Y-21999534D01*
X6611088Y-21999534D02*
X6601564Y-22009058D01*
X6601564Y-22009058D02*
X6582516Y-22018582D01*
X6582516Y-22018582D02*
X6534897Y-22018582D01*
X6534897Y-22018582D02*
X6515849Y-22009058D01*
X6515849Y-22009058D02*
X6506326Y-21999534D01*
X6744421Y-21818582D02*
X6763469Y-21818582D01*
X6763469Y-21818582D02*
X6782516Y-21828105D01*
X6782516Y-21828105D02*
X6792040Y-21837629D01*
X6792040Y-21837629D02*
X6801564Y-21856677D01*
X6801564Y-21856677D02*
X6811088Y-21894772D01*
X6811088Y-21894772D02*
X6811088Y-21942391D01*
X6811088Y-21942391D02*
X6801564Y-21980486D01*
X6801564Y-21980486D02*
X6792040Y-21999534D01*
X6792040Y-21999534D02*
X6782516Y-22009058D01*
X6782516Y-22009058D02*
X6763469Y-22018582D01*
X6763469Y-22018582D02*
X6744421Y-22018582D01*
X6744421Y-22018582D02*
X6725373Y-22009058D01*
X6725373Y-22009058D02*
X6715849Y-21999534D01*
X6715849Y-21999534D02*
X6706326Y-21980486D01*
X6706326Y-21980486D02*
X6696802Y-21942391D01*
X6696802Y-21942391D02*
X6696802Y-21894772D01*
X6696802Y-21894772D02*
X6706326Y-21856677D01*
X6706326Y-21856677D02*
X6715849Y-21837629D01*
X6715849Y-21837629D02*
X6725373Y-21828105D01*
X6725373Y-21828105D02*
X6744421Y-21818582D01*
X6934897Y-21818582D02*
X6953945Y-21818582D01*
X6953945Y-21818582D02*
X6972992Y-21828105D01*
X6972992Y-21828105D02*
X6982516Y-21837629D01*
X6982516Y-21837629D02*
X6992040Y-21856677D01*
X6992040Y-21856677D02*
X7001564Y-21894772D01*
X7001564Y-21894772D02*
X7001564Y-21942391D01*
X7001564Y-21942391D02*
X6992040Y-21980486D01*
X6992040Y-21980486D02*
X6982516Y-21999534D01*
X6982516Y-21999534D02*
X6972992Y-22009058D01*
X6972992Y-22009058D02*
X6953945Y-22018582D01*
X6953945Y-22018582D02*
X6934897Y-22018582D01*
X6934897Y-22018582D02*
X6915849Y-22009058D01*
X6915849Y-22009058D02*
X6906326Y-21999534D01*
X6906326Y-21999534D02*
X6896802Y-21980486D01*
X6896802Y-21980486D02*
X6887278Y-21942391D01*
X6887278Y-21942391D02*
X6887278Y-21894772D01*
X6887278Y-21894772D02*
X6896802Y-21856677D01*
X6896802Y-21856677D02*
X6906326Y-21837629D01*
X6906326Y-21837629D02*
X6915849Y-21828105D01*
X6915849Y-21828105D02*
X6934897Y-21818582D01*
X7087278Y-22018582D02*
X7087278Y-21885248D01*
X7087278Y-21904296D02*
X7096802Y-21894772D01*
X7096802Y-21894772D02*
X7115849Y-21885248D01*
X7115849Y-21885248D02*
X7144421Y-21885248D01*
X7144421Y-21885248D02*
X7163469Y-21894772D01*
X7163469Y-21894772D02*
X7172992Y-21913820D01*
X7172992Y-21913820D02*
X7172992Y-22018582D01*
X7172992Y-21913820D02*
X7182516Y-21894772D01*
X7182516Y-21894772D02*
X7201564Y-21885248D01*
X7201564Y-21885248D02*
X7230135Y-21885248D01*
X7230135Y-21885248D02*
X7249183Y-21894772D01*
X7249183Y-21894772D02*
X7258707Y-21913820D01*
X7258707Y-21913820D02*
X7258707Y-22018582D01*
X7353945Y-22018582D02*
X7353945Y-21885248D01*
X7353945Y-21904296D02*
X7363469Y-21894772D01*
X7363469Y-21894772D02*
X7382516Y-21885248D01*
X7382516Y-21885248D02*
X7411088Y-21885248D01*
X7411088Y-21885248D02*
X7430135Y-21894772D01*
X7430135Y-21894772D02*
X7439659Y-21913820D01*
X7439659Y-21913820D02*
X7439659Y-22018582D01*
X7439659Y-21913820D02*
X7449183Y-21894772D01*
X7449183Y-21894772D02*
X7468230Y-21885248D01*
X7468230Y-21885248D02*
X7496802Y-21885248D01*
X7496802Y-21885248D02*
X7515850Y-21894772D01*
X7515850Y-21894772D02*
X7525373Y-21913820D01*
X7525373Y-21913820D02*
X7525373Y-22018582D01*
X7915850Y-21809058D02*
X7744421Y-22066201D01*
X8172992Y-21818582D02*
X8192040Y-21818582D01*
X8192040Y-21818582D02*
X8211088Y-21828105D01*
X8211088Y-21828105D02*
X8220612Y-21837629D01*
X8220612Y-21837629D02*
X8230135Y-21856677D01*
X8230135Y-21856677D02*
X8239659Y-21894772D01*
X8239659Y-21894772D02*
X8239659Y-21942391D01*
X8239659Y-21942391D02*
X8230135Y-21980486D01*
X8230135Y-21980486D02*
X8220612Y-21999534D01*
X8220612Y-21999534D02*
X8211088Y-22009058D01*
X8211088Y-22009058D02*
X8192040Y-22018582D01*
X8192040Y-22018582D02*
X8172992Y-22018582D01*
X8172992Y-22018582D02*
X8153945Y-22009058D01*
X8153945Y-22009058D02*
X8144421Y-21999534D01*
X8144421Y-21999534D02*
X8134897Y-21980486D01*
X8134897Y-21980486D02*
X8125373Y-21942391D01*
X8125373Y-21942391D02*
X8125373Y-21894772D01*
X8125373Y-21894772D02*
X8134897Y-21856677D01*
X8134897Y-21856677D02*
X8144421Y-21837629D01*
X8144421Y-21837629D02*
X8153945Y-21828105D01*
X8153945Y-21828105D02*
X8172992Y-21818582D01*
X8325373Y-21999534D02*
X8334897Y-22009058D01*
X8334897Y-22009058D02*
X8325373Y-22018582D01*
X8325373Y-22018582D02*
X8315850Y-22009058D01*
X8315850Y-22009058D02*
X8325373Y-21999534D01*
X8325373Y-21999534D02*
X8325373Y-22018582D01*
X8458707Y-21818582D02*
X8477755Y-21818582D01*
X8477755Y-21818582D02*
X8496802Y-21828105D01*
X8496802Y-21828105D02*
X8506326Y-21837629D01*
X8506326Y-21837629D02*
X8515850Y-21856677D01*
X8515850Y-21856677D02*
X8525374Y-21894772D01*
X8525374Y-21894772D02*
X8525374Y-21942391D01*
X8525374Y-21942391D02*
X8515850Y-21980486D01*
X8515850Y-21980486D02*
X8506326Y-21999534D01*
X8506326Y-21999534D02*
X8496802Y-22009058D01*
X8496802Y-22009058D02*
X8477755Y-22018582D01*
X8477755Y-22018582D02*
X8458707Y-22018582D01*
X8458707Y-22018582D02*
X8439659Y-22009058D01*
X8439659Y-22009058D02*
X8430135Y-21999534D01*
X8430135Y-21999534D02*
X8420612Y-21980486D01*
X8420612Y-21980486D02*
X8411088Y-21942391D01*
X8411088Y-21942391D02*
X8411088Y-21894772D01*
X8411088Y-21894772D02*
X8420612Y-21856677D01*
X8420612Y-21856677D02*
X8430135Y-21837629D01*
X8430135Y-21837629D02*
X8439659Y-21828105D01*
X8439659Y-21828105D02*
X8458707Y-21818582D01*
X8706326Y-21818582D02*
X8611088Y-21818582D01*
X8611088Y-21818582D02*
X8601564Y-21913820D01*
X8601564Y-21913820D02*
X8611088Y-21904296D01*
X8611088Y-21904296D02*
X8630135Y-21894772D01*
X8630135Y-21894772D02*
X8677755Y-21894772D01*
X8677755Y-21894772D02*
X8696802Y-21904296D01*
X8696802Y-21904296D02*
X8706326Y-21913820D01*
X8706326Y-21913820D02*
X8715850Y-21932867D01*
X8715850Y-21932867D02*
X8715850Y-21980486D01*
X8715850Y-21980486D02*
X8706326Y-21999534D01*
X8706326Y-21999534D02*
X8696802Y-22009058D01*
X8696802Y-22009058D02*
X8677755Y-22018582D01*
X8677755Y-22018582D02*
X8630135Y-22018582D01*
X8630135Y-22018582D02*
X8611088Y-22009058D01*
X8611088Y-22009058D02*
X8601564Y-21999534D01*
X8811088Y-22018582D02*
X8849183Y-22018582D01*
X8849183Y-22018582D02*
X8868231Y-22009058D01*
X8868231Y-22009058D02*
X8877755Y-21999534D01*
X8877755Y-21999534D02*
X8896802Y-21970963D01*
X8896802Y-21970963D02*
X8906326Y-21932867D01*
X8906326Y-21932867D02*
X8906326Y-21856677D01*
X8906326Y-21856677D02*
X8896802Y-21837629D01*
X8896802Y-21837629D02*
X8887278Y-21828105D01*
X8887278Y-21828105D02*
X8868231Y-21818582D01*
X8868231Y-21818582D02*
X8830135Y-21818582D01*
X8830135Y-21818582D02*
X8811088Y-21828105D01*
X8811088Y-21828105D02*
X8801564Y-21837629D01*
X8801564Y-21837629D02*
X8792040Y-21856677D01*
X8792040Y-21856677D02*
X8792040Y-21904296D01*
X8792040Y-21904296D02*
X8801564Y-21923344D01*
X8801564Y-21923344D02*
X8811088Y-21932867D01*
X8811088Y-21932867D02*
X8830135Y-21942391D01*
X8830135Y-21942391D02*
X8868231Y-21942391D01*
X8868231Y-21942391D02*
X8887278Y-21932867D01*
X8887278Y-21932867D02*
X8896802Y-21923344D01*
X8896802Y-21923344D02*
X8906326Y-21904296D01*
X9096802Y-22018582D02*
X8982516Y-22018582D01*
X9039659Y-22018582D02*
X9039659Y-21818582D01*
X9039659Y-21818582D02*
X9020612Y-21847153D01*
X9020612Y-21847153D02*
X9001564Y-21866201D01*
X9001564Y-21866201D02*
X8982516Y-21875724D01*
X9172993Y-21818582D02*
X9172993Y-21856677D01*
X9249183Y-21818582D02*
X9249183Y-21856677D01*
X9544421Y-22094772D02*
X9534897Y-22085248D01*
X9534897Y-22085248D02*
X9515850Y-22056677D01*
X9515850Y-22056677D02*
X9506326Y-22037629D01*
X9506326Y-22037629D02*
X9496802Y-22009058D01*
X9496802Y-22009058D02*
X9487278Y-21961439D01*
X9487278Y-21961439D02*
X9487278Y-21923344D01*
X9487278Y-21923344D02*
X9496802Y-21875724D01*
X9496802Y-21875724D02*
X9506326Y-21847153D01*
X9506326Y-21847153D02*
X9515850Y-21828105D01*
X9515850Y-21828105D02*
X9534897Y-21799534D01*
X9534897Y-21799534D02*
X9544421Y-21790010D01*
X9611088Y-21837629D02*
X9620612Y-21828105D01*
X9620612Y-21828105D02*
X9639659Y-21818582D01*
X9639659Y-21818582D02*
X9687278Y-21818582D01*
X9687278Y-21818582D02*
X9706326Y-21828105D01*
X9706326Y-21828105D02*
X9715850Y-21837629D01*
X9715850Y-21837629D02*
X9725374Y-21856677D01*
X9725374Y-21856677D02*
X9725374Y-21875724D01*
X9725374Y-21875724D02*
X9715850Y-21904296D01*
X9715850Y-21904296D02*
X9601564Y-22018582D01*
X9601564Y-22018582D02*
X9725374Y-22018582D01*
X9896802Y-21885248D02*
X9896802Y-22018582D01*
X9849183Y-21809058D02*
X9801564Y-21951915D01*
X9801564Y-21951915D02*
X9925374Y-21951915D01*
X10153945Y-22018582D02*
X10153945Y-21818582D01*
X10239659Y-22018582D02*
X10239659Y-21913820D01*
X10239659Y-21913820D02*
X10230136Y-21894772D01*
X10230136Y-21894772D02*
X10211088Y-21885248D01*
X10211088Y-21885248D02*
X10182517Y-21885248D01*
X10182517Y-21885248D02*
X10163469Y-21894772D01*
X10163469Y-21894772D02*
X10153945Y-21904296D01*
X10363469Y-22018582D02*
X10344421Y-22009058D01*
X10344421Y-22009058D02*
X10334898Y-21999534D01*
X10334898Y-21999534D02*
X10325374Y-21980486D01*
X10325374Y-21980486D02*
X10325374Y-21923344D01*
X10325374Y-21923344D02*
X10334898Y-21904296D01*
X10334898Y-21904296D02*
X10344421Y-21894772D01*
X10344421Y-21894772D02*
X10363469Y-21885248D01*
X10363469Y-21885248D02*
X10392040Y-21885248D01*
X10392040Y-21885248D02*
X10411088Y-21894772D01*
X10411088Y-21894772D02*
X10420612Y-21904296D01*
X10420612Y-21904296D02*
X10430136Y-21923344D01*
X10430136Y-21923344D02*
X10430136Y-21980486D01*
X10430136Y-21980486D02*
X10420612Y-21999534D01*
X10420612Y-21999534D02*
X10411088Y-22009058D01*
X10411088Y-22009058D02*
X10392040Y-22018582D01*
X10392040Y-22018582D02*
X10363469Y-22018582D01*
X10544421Y-22018582D02*
X10525374Y-22009058D01*
X10525374Y-22009058D02*
X10515850Y-21990010D01*
X10515850Y-21990010D02*
X10515850Y-21818582D01*
X10696802Y-22009058D02*
X10677755Y-22018582D01*
X10677755Y-22018582D02*
X10639659Y-22018582D01*
X10639659Y-22018582D02*
X10620612Y-22009058D01*
X10620612Y-22009058D02*
X10611088Y-21990010D01*
X10611088Y-21990010D02*
X10611088Y-21913820D01*
X10611088Y-21913820D02*
X10620612Y-21894772D01*
X10620612Y-21894772D02*
X10639659Y-21885248D01*
X10639659Y-21885248D02*
X10677755Y-21885248D01*
X10677755Y-21885248D02*
X10696802Y-21894772D01*
X10696802Y-21894772D02*
X10706326Y-21913820D01*
X10706326Y-21913820D02*
X10706326Y-21932867D01*
X10706326Y-21932867D02*
X10611088Y-21951915D01*
X10782517Y-22009058D02*
X10801564Y-22018582D01*
X10801564Y-22018582D02*
X10839659Y-22018582D01*
X10839659Y-22018582D02*
X10858707Y-22009058D01*
X10858707Y-22009058D02*
X10868231Y-21990010D01*
X10868231Y-21990010D02*
X10868231Y-21980486D01*
X10868231Y-21980486D02*
X10858707Y-21961439D01*
X10858707Y-21961439D02*
X10839659Y-21951915D01*
X10839659Y-21951915D02*
X10811088Y-21951915D01*
X10811088Y-21951915D02*
X10792040Y-21942391D01*
X10792040Y-21942391D02*
X10782517Y-21923344D01*
X10782517Y-21923344D02*
X10782517Y-21913820D01*
X10782517Y-21913820D02*
X10792040Y-21894772D01*
X10792040Y-21894772D02*
X10811088Y-21885248D01*
X10811088Y-21885248D02*
X10839659Y-21885248D01*
X10839659Y-21885248D02*
X10858707Y-21894772D01*
X10934898Y-22094772D02*
X10944421Y-22085248D01*
X10944421Y-22085248D02*
X10963469Y-22056677D01*
X10963469Y-22056677D02*
X10972993Y-22037629D01*
X10972993Y-22037629D02*
X10982517Y-22009058D01*
X10982517Y-22009058D02*
X10992040Y-21961439D01*
X10992040Y-21961439D02*
X10992040Y-21923344D01*
X10992040Y-21923344D02*
X10982517Y-21875724D01*
X10982517Y-21875724D02*
X10972993Y-21847153D01*
X10972993Y-21847153D02*
X10963469Y-21828105D01*
X10963469Y-21828105D02*
X10944421Y-21799534D01*
X10944421Y-21799534D02*
X10934898Y-21790010D01*
X5940070Y-22267809D02*
X5940070Y-22126386D01*
X5798647Y-22126386D01*
X5798647Y-22267809D01*
X5940070Y-22267809D01*
X6220611Y-22107629D02*
X6230135Y-22098105D01*
X6230135Y-22098105D02*
X6249183Y-22088582D01*
X6249183Y-22088582D02*
X6296802Y-22088582D01*
X6296802Y-22088582D02*
X6315849Y-22098105D01*
X6315849Y-22098105D02*
X6325373Y-22107629D01*
X6325373Y-22107629D02*
X6334897Y-22126677D01*
X6334897Y-22126677D02*
X6334897Y-22145724D01*
X6334897Y-22145724D02*
X6325373Y-22174296D01*
X6325373Y-22174296D02*
X6211088Y-22288582D01*
X6211088Y-22288582D02*
X6334897Y-22288582D01*
X6420611Y-22269534D02*
X6430135Y-22279058D01*
X6430135Y-22279058D02*
X6420611Y-22288582D01*
X6420611Y-22288582D02*
X6411088Y-22279058D01*
X6411088Y-22279058D02*
X6420611Y-22269534D01*
X6420611Y-22269534D02*
X6420611Y-22288582D01*
X6506326Y-22107629D02*
X6515849Y-22098105D01*
X6515849Y-22098105D02*
X6534897Y-22088582D01*
X6534897Y-22088582D02*
X6582516Y-22088582D01*
X6582516Y-22088582D02*
X6601564Y-22098105D01*
X6601564Y-22098105D02*
X6611088Y-22107629D01*
X6611088Y-22107629D02*
X6620611Y-22126677D01*
X6620611Y-22126677D02*
X6620611Y-22145724D01*
X6620611Y-22145724D02*
X6611088Y-22174296D01*
X6611088Y-22174296D02*
X6496802Y-22288582D01*
X6496802Y-22288582D02*
X6620611Y-22288582D01*
X6744421Y-22088582D02*
X6763469Y-22088582D01*
X6763469Y-22088582D02*
X6782516Y-22098105D01*
X6782516Y-22098105D02*
X6792040Y-22107629D01*
X6792040Y-22107629D02*
X6801564Y-22126677D01*
X6801564Y-22126677D02*
X6811088Y-22164772D01*
X6811088Y-22164772D02*
X6811088Y-22212391D01*
X6811088Y-22212391D02*
X6801564Y-22250486D01*
X6801564Y-22250486D02*
X6792040Y-22269534D01*
X6792040Y-22269534D02*
X6782516Y-22279058D01*
X6782516Y-22279058D02*
X6763469Y-22288582D01*
X6763469Y-22288582D02*
X6744421Y-22288582D01*
X6744421Y-22288582D02*
X6725373Y-22279058D01*
X6725373Y-22279058D02*
X6715849Y-22269534D01*
X6715849Y-22269534D02*
X6706326Y-22250486D01*
X6706326Y-22250486D02*
X6696802Y-22212391D01*
X6696802Y-22212391D02*
X6696802Y-22164772D01*
X6696802Y-22164772D02*
X6706326Y-22126677D01*
X6706326Y-22126677D02*
X6715849Y-22107629D01*
X6715849Y-22107629D02*
X6725373Y-22098105D01*
X6725373Y-22098105D02*
X6744421Y-22088582D01*
X6934897Y-22088582D02*
X6953945Y-22088582D01*
X6953945Y-22088582D02*
X6972992Y-22098105D01*
X6972992Y-22098105D02*
X6982516Y-22107629D01*
X6982516Y-22107629D02*
X6992040Y-22126677D01*
X6992040Y-22126677D02*
X7001564Y-22164772D01*
X7001564Y-22164772D02*
X7001564Y-22212391D01*
X7001564Y-22212391D02*
X6992040Y-22250486D01*
X6992040Y-22250486D02*
X6982516Y-22269534D01*
X6982516Y-22269534D02*
X6972992Y-22279058D01*
X6972992Y-22279058D02*
X6953945Y-22288582D01*
X6953945Y-22288582D02*
X6934897Y-22288582D01*
X6934897Y-22288582D02*
X6915849Y-22279058D01*
X6915849Y-22279058D02*
X6906326Y-22269534D01*
X6906326Y-22269534D02*
X6896802Y-22250486D01*
X6896802Y-22250486D02*
X6887278Y-22212391D01*
X6887278Y-22212391D02*
X6887278Y-22164772D01*
X6887278Y-22164772D02*
X6896802Y-22126677D01*
X6896802Y-22126677D02*
X6906326Y-22107629D01*
X6906326Y-22107629D02*
X6915849Y-22098105D01*
X6915849Y-22098105D02*
X6934897Y-22088582D01*
X7087278Y-22288582D02*
X7087278Y-22155248D01*
X7087278Y-22174296D02*
X7096802Y-22164772D01*
X7096802Y-22164772D02*
X7115849Y-22155248D01*
X7115849Y-22155248D02*
X7144421Y-22155248D01*
X7144421Y-22155248D02*
X7163469Y-22164772D01*
X7163469Y-22164772D02*
X7172992Y-22183820D01*
X7172992Y-22183820D02*
X7172992Y-22288582D01*
X7172992Y-22183820D02*
X7182516Y-22164772D01*
X7182516Y-22164772D02*
X7201564Y-22155248D01*
X7201564Y-22155248D02*
X7230135Y-22155248D01*
X7230135Y-22155248D02*
X7249183Y-22164772D01*
X7249183Y-22164772D02*
X7258707Y-22183820D01*
X7258707Y-22183820D02*
X7258707Y-22288582D01*
X7353945Y-22288582D02*
X7353945Y-22155248D01*
X7353945Y-22174296D02*
X7363469Y-22164772D01*
X7363469Y-22164772D02*
X7382516Y-22155248D01*
X7382516Y-22155248D02*
X7411088Y-22155248D01*
X7411088Y-22155248D02*
X7430135Y-22164772D01*
X7430135Y-22164772D02*
X7439659Y-22183820D01*
X7439659Y-22183820D02*
X7439659Y-22288582D01*
X7439659Y-22183820D02*
X7449183Y-22164772D01*
X7449183Y-22164772D02*
X7468230Y-22155248D01*
X7468230Y-22155248D02*
X7496802Y-22155248D01*
X7496802Y-22155248D02*
X7515850Y-22164772D01*
X7515850Y-22164772D02*
X7525373Y-22183820D01*
X7525373Y-22183820D02*
X7525373Y-22288582D01*
X7915850Y-22079058D02*
X7744421Y-22336201D01*
X8172992Y-22088582D02*
X8192040Y-22088582D01*
X8192040Y-22088582D02*
X8211088Y-22098105D01*
X8211088Y-22098105D02*
X8220612Y-22107629D01*
X8220612Y-22107629D02*
X8230135Y-22126677D01*
X8230135Y-22126677D02*
X8239659Y-22164772D01*
X8239659Y-22164772D02*
X8239659Y-22212391D01*
X8239659Y-22212391D02*
X8230135Y-22250486D01*
X8230135Y-22250486D02*
X8220612Y-22269534D01*
X8220612Y-22269534D02*
X8211088Y-22279058D01*
X8211088Y-22279058D02*
X8192040Y-22288582D01*
X8192040Y-22288582D02*
X8172992Y-22288582D01*
X8172992Y-22288582D02*
X8153945Y-22279058D01*
X8153945Y-22279058D02*
X8144421Y-22269534D01*
X8144421Y-22269534D02*
X8134897Y-22250486D01*
X8134897Y-22250486D02*
X8125373Y-22212391D01*
X8125373Y-22212391D02*
X8125373Y-22164772D01*
X8125373Y-22164772D02*
X8134897Y-22126677D01*
X8134897Y-22126677D02*
X8144421Y-22107629D01*
X8144421Y-22107629D02*
X8153945Y-22098105D01*
X8153945Y-22098105D02*
X8172992Y-22088582D01*
X8325373Y-22269534D02*
X8334897Y-22279058D01*
X8334897Y-22279058D02*
X8325373Y-22288582D01*
X8325373Y-22288582D02*
X8315850Y-22279058D01*
X8315850Y-22279058D02*
X8325373Y-22269534D01*
X8325373Y-22269534D02*
X8325373Y-22288582D01*
X8458707Y-22088582D02*
X8477755Y-22088582D01*
X8477755Y-22088582D02*
X8496802Y-22098105D01*
X8496802Y-22098105D02*
X8506326Y-22107629D01*
X8506326Y-22107629D02*
X8515850Y-22126677D01*
X8515850Y-22126677D02*
X8525374Y-22164772D01*
X8525374Y-22164772D02*
X8525374Y-22212391D01*
X8525374Y-22212391D02*
X8515850Y-22250486D01*
X8515850Y-22250486D02*
X8506326Y-22269534D01*
X8506326Y-22269534D02*
X8496802Y-22279058D01*
X8496802Y-22279058D02*
X8477755Y-22288582D01*
X8477755Y-22288582D02*
X8458707Y-22288582D01*
X8458707Y-22288582D02*
X8439659Y-22279058D01*
X8439659Y-22279058D02*
X8430135Y-22269534D01*
X8430135Y-22269534D02*
X8420612Y-22250486D01*
X8420612Y-22250486D02*
X8411088Y-22212391D01*
X8411088Y-22212391D02*
X8411088Y-22164772D01*
X8411088Y-22164772D02*
X8420612Y-22126677D01*
X8420612Y-22126677D02*
X8430135Y-22107629D01*
X8430135Y-22107629D02*
X8439659Y-22098105D01*
X8439659Y-22098105D02*
X8458707Y-22088582D01*
X8639659Y-22174296D02*
X8620612Y-22164772D01*
X8620612Y-22164772D02*
X8611088Y-22155248D01*
X8611088Y-22155248D02*
X8601564Y-22136201D01*
X8601564Y-22136201D02*
X8601564Y-22126677D01*
X8601564Y-22126677D02*
X8611088Y-22107629D01*
X8611088Y-22107629D02*
X8620612Y-22098105D01*
X8620612Y-22098105D02*
X8639659Y-22088582D01*
X8639659Y-22088582D02*
X8677755Y-22088582D01*
X8677755Y-22088582D02*
X8696802Y-22098105D01*
X8696802Y-22098105D02*
X8706326Y-22107629D01*
X8706326Y-22107629D02*
X8715850Y-22126677D01*
X8715850Y-22126677D02*
X8715850Y-22136201D01*
X8715850Y-22136201D02*
X8706326Y-22155248D01*
X8706326Y-22155248D02*
X8696802Y-22164772D01*
X8696802Y-22164772D02*
X8677755Y-22174296D01*
X8677755Y-22174296D02*
X8639659Y-22174296D01*
X8639659Y-22174296D02*
X8620612Y-22183820D01*
X8620612Y-22183820D02*
X8611088Y-22193344D01*
X8611088Y-22193344D02*
X8601564Y-22212391D01*
X8601564Y-22212391D02*
X8601564Y-22250486D01*
X8601564Y-22250486D02*
X8611088Y-22269534D01*
X8611088Y-22269534D02*
X8620612Y-22279058D01*
X8620612Y-22279058D02*
X8639659Y-22288582D01*
X8639659Y-22288582D02*
X8677755Y-22288582D01*
X8677755Y-22288582D02*
X8696802Y-22279058D01*
X8696802Y-22279058D02*
X8706326Y-22269534D01*
X8706326Y-22269534D02*
X8715850Y-22250486D01*
X8715850Y-22250486D02*
X8715850Y-22212391D01*
X8715850Y-22212391D02*
X8706326Y-22193344D01*
X8706326Y-22193344D02*
X8696802Y-22183820D01*
X8696802Y-22183820D02*
X8677755Y-22174296D01*
X8887278Y-22088582D02*
X8849183Y-22088582D01*
X8849183Y-22088582D02*
X8830135Y-22098105D01*
X8830135Y-22098105D02*
X8820612Y-22107629D01*
X8820612Y-22107629D02*
X8801564Y-22136201D01*
X8801564Y-22136201D02*
X8792040Y-22174296D01*
X8792040Y-22174296D02*
X8792040Y-22250486D01*
X8792040Y-22250486D02*
X8801564Y-22269534D01*
X8801564Y-22269534D02*
X8811088Y-22279058D01*
X8811088Y-22279058D02*
X8830135Y-22288582D01*
X8830135Y-22288582D02*
X8868231Y-22288582D01*
X8868231Y-22288582D02*
X8887278Y-22279058D01*
X8887278Y-22279058D02*
X8896802Y-22269534D01*
X8896802Y-22269534D02*
X8906326Y-22250486D01*
X8906326Y-22250486D02*
X8906326Y-22202867D01*
X8906326Y-22202867D02*
X8896802Y-22183820D01*
X8896802Y-22183820D02*
X8887278Y-22174296D01*
X8887278Y-22174296D02*
X8868231Y-22164772D01*
X8868231Y-22164772D02*
X8830135Y-22164772D01*
X8830135Y-22164772D02*
X8811088Y-22174296D01*
X8811088Y-22174296D02*
X8801564Y-22183820D01*
X8801564Y-22183820D02*
X8792040Y-22202867D01*
X9077755Y-22088582D02*
X9039659Y-22088582D01*
X9039659Y-22088582D02*
X9020612Y-22098105D01*
X9020612Y-22098105D02*
X9011088Y-22107629D01*
X9011088Y-22107629D02*
X8992040Y-22136201D01*
X8992040Y-22136201D02*
X8982516Y-22174296D01*
X8982516Y-22174296D02*
X8982516Y-22250486D01*
X8982516Y-22250486D02*
X8992040Y-22269534D01*
X8992040Y-22269534D02*
X9001564Y-22279058D01*
X9001564Y-22279058D02*
X9020612Y-22288582D01*
X9020612Y-22288582D02*
X9058707Y-22288582D01*
X9058707Y-22288582D02*
X9077755Y-22279058D01*
X9077755Y-22279058D02*
X9087278Y-22269534D01*
X9087278Y-22269534D02*
X9096802Y-22250486D01*
X9096802Y-22250486D02*
X9096802Y-22202867D01*
X9096802Y-22202867D02*
X9087278Y-22183820D01*
X9087278Y-22183820D02*
X9077755Y-22174296D01*
X9077755Y-22174296D02*
X9058707Y-22164772D01*
X9058707Y-22164772D02*
X9020612Y-22164772D01*
X9020612Y-22164772D02*
X9001564Y-22174296D01*
X9001564Y-22174296D02*
X8992040Y-22183820D01*
X8992040Y-22183820D02*
X8982516Y-22202867D01*
X9172993Y-22088582D02*
X9172993Y-22126677D01*
X9249183Y-22088582D02*
X9249183Y-22126677D01*
X9544421Y-22364772D02*
X9534897Y-22355248D01*
X9534897Y-22355248D02*
X9515850Y-22326677D01*
X9515850Y-22326677D02*
X9506326Y-22307629D01*
X9506326Y-22307629D02*
X9496802Y-22279058D01*
X9496802Y-22279058D02*
X9487278Y-22231439D01*
X9487278Y-22231439D02*
X9487278Y-22193344D01*
X9487278Y-22193344D02*
X9496802Y-22145724D01*
X9496802Y-22145724D02*
X9506326Y-22117153D01*
X9506326Y-22117153D02*
X9515850Y-22098105D01*
X9515850Y-22098105D02*
X9534897Y-22069534D01*
X9534897Y-22069534D02*
X9544421Y-22060010D01*
X9706326Y-22088582D02*
X9668231Y-22088582D01*
X9668231Y-22088582D02*
X9649183Y-22098105D01*
X9649183Y-22098105D02*
X9639659Y-22107629D01*
X9639659Y-22107629D02*
X9620612Y-22136201D01*
X9620612Y-22136201D02*
X9611088Y-22174296D01*
X9611088Y-22174296D02*
X9611088Y-22250486D01*
X9611088Y-22250486D02*
X9620612Y-22269534D01*
X9620612Y-22269534D02*
X9630136Y-22279058D01*
X9630136Y-22279058D02*
X9649183Y-22288582D01*
X9649183Y-22288582D02*
X9687278Y-22288582D01*
X9687278Y-22288582D02*
X9706326Y-22279058D01*
X9706326Y-22279058D02*
X9715850Y-22269534D01*
X9715850Y-22269534D02*
X9725374Y-22250486D01*
X9725374Y-22250486D02*
X9725374Y-22202867D01*
X9725374Y-22202867D02*
X9715850Y-22183820D01*
X9715850Y-22183820D02*
X9706326Y-22174296D01*
X9706326Y-22174296D02*
X9687278Y-22164772D01*
X9687278Y-22164772D02*
X9649183Y-22164772D01*
X9649183Y-22164772D02*
X9630136Y-22174296D01*
X9630136Y-22174296D02*
X9620612Y-22183820D01*
X9620612Y-22183820D02*
X9611088Y-22202867D01*
X9963469Y-22288582D02*
X9963469Y-22088582D01*
X10049183Y-22288582D02*
X10049183Y-22183820D01*
X10049183Y-22183820D02*
X10039659Y-22164772D01*
X10039659Y-22164772D02*
X10020612Y-22155248D01*
X10020612Y-22155248D02*
X9992040Y-22155248D01*
X9992040Y-22155248D02*
X9972993Y-22164772D01*
X9972993Y-22164772D02*
X9963469Y-22174296D01*
X10172993Y-22288582D02*
X10153945Y-22279058D01*
X10153945Y-22279058D02*
X10144421Y-22269534D01*
X10144421Y-22269534D02*
X10134898Y-22250486D01*
X10134898Y-22250486D02*
X10134898Y-22193344D01*
X10134898Y-22193344D02*
X10144421Y-22174296D01*
X10144421Y-22174296D02*
X10153945Y-22164772D01*
X10153945Y-22164772D02*
X10172993Y-22155248D01*
X10172993Y-22155248D02*
X10201564Y-22155248D01*
X10201564Y-22155248D02*
X10220612Y-22164772D01*
X10220612Y-22164772D02*
X10230136Y-22174296D01*
X10230136Y-22174296D02*
X10239659Y-22193344D01*
X10239659Y-22193344D02*
X10239659Y-22250486D01*
X10239659Y-22250486D02*
X10230136Y-22269534D01*
X10230136Y-22269534D02*
X10220612Y-22279058D01*
X10220612Y-22279058D02*
X10201564Y-22288582D01*
X10201564Y-22288582D02*
X10172993Y-22288582D01*
X10353945Y-22288582D02*
X10334898Y-22279058D01*
X10334898Y-22279058D02*
X10325374Y-22260010D01*
X10325374Y-22260010D02*
X10325374Y-22088582D01*
X10506326Y-22279058D02*
X10487279Y-22288582D01*
X10487279Y-22288582D02*
X10449183Y-22288582D01*
X10449183Y-22288582D02*
X10430136Y-22279058D01*
X10430136Y-22279058D02*
X10420612Y-22260010D01*
X10420612Y-22260010D02*
X10420612Y-22183820D01*
X10420612Y-22183820D02*
X10430136Y-22164772D01*
X10430136Y-22164772D02*
X10449183Y-22155248D01*
X10449183Y-22155248D02*
X10487279Y-22155248D01*
X10487279Y-22155248D02*
X10506326Y-22164772D01*
X10506326Y-22164772D02*
X10515850Y-22183820D01*
X10515850Y-22183820D02*
X10515850Y-22202867D01*
X10515850Y-22202867D02*
X10420612Y-22221915D01*
X10592040Y-22279058D02*
X10611088Y-22288582D01*
X10611088Y-22288582D02*
X10649183Y-22288582D01*
X10649183Y-22288582D02*
X10668231Y-22279058D01*
X10668231Y-22279058D02*
X10677755Y-22260010D01*
X10677755Y-22260010D02*
X10677755Y-22250486D01*
X10677755Y-22250486D02*
X10668231Y-22231439D01*
X10668231Y-22231439D02*
X10649183Y-22221915D01*
X10649183Y-22221915D02*
X10620612Y-22221915D01*
X10620612Y-22221915D02*
X10601564Y-22212391D01*
X10601564Y-22212391D02*
X10592040Y-22193344D01*
X10592040Y-22193344D02*
X10592040Y-22183820D01*
X10592040Y-22183820D02*
X10601564Y-22164772D01*
X10601564Y-22164772D02*
X10620612Y-22155248D01*
X10620612Y-22155248D02*
X10649183Y-22155248D01*
X10649183Y-22155248D02*
X10668231Y-22164772D01*
X10744421Y-22364772D02*
X10753945Y-22355248D01*
X10753945Y-22355248D02*
X10772993Y-22326677D01*
X10772993Y-22326677D02*
X10782517Y-22307629D01*
X10782517Y-22307629D02*
X10792040Y-22279058D01*
X10792040Y-22279058D02*
X10801564Y-22231439D01*
X10801564Y-22231439D02*
X10801564Y-22193344D01*
X10801564Y-22193344D02*
X10792040Y-22145724D01*
X10792040Y-22145724D02*
X10782517Y-22117153D01*
X10782517Y-22117153D02*
X10772993Y-22098105D01*
X10772993Y-22098105D02*
X10753945Y-22069534D01*
X10753945Y-22069534D02*
X10744421Y-22060010D01*
M02*
