%TF.GenerationSoftware,KiCad,Pcbnew,9.0.4*%
%TF.CreationDate,2025-08-24T22:07:03+03:00*%
%TF.ProjectId,MOKETA,4d4f4b45-5441-42e6-9b69-6361645f7063,rev?*%
%TF.SameCoordinates,Original*%
%TF.FileFunction,Paste,Top*%
%TF.FilePolarity,Positive*%
%FSLAX46Y46*%
G04 Gerber Fmt 4.6, Leading zero omitted, Abs format (unit mm)*
G04 Created by KiCad (PCBNEW 9.0.4) date 2025-08-24 22:07:03*
%MOMM*%
%LPD*%
G01*
G04 APERTURE LIST*
G04 Aperture macros list*
%AMRoundRect*
0 Rectangle with rounded corners*
0 $1 Rounding radius*
0 $2 $3 $4 $5 $6 $7 $8 $9 X,Y pos of 4 corners*
0 Add a 4 corners polygon primitive as box body*
4,1,4,$2,$3,$4,$5,$6,$7,$8,$9,$2,$3,0*
0 Add four circle primitives for the rounded corners*
1,1,$1+$1,$2,$3*
1,1,$1+$1,$4,$5*
1,1,$1+$1,$6,$7*
1,1,$1+$1,$8,$9*
0 Add four rect primitives between the rounded corners*
20,1,$1+$1,$2,$3,$4,$5,0*
20,1,$1+$1,$4,$5,$6,$7,0*
20,1,$1+$1,$6,$7,$8,$9,0*
20,1,$1+$1,$8,$9,$2,$3,0*%
G04 Aperture macros list end*
%ADD10O,1.900000X1.900000*%
%ADD11RoundRect,0.250000X-0.700000X-0.700000X0.700000X-0.700000X0.700000X0.700000X-0.700000X0.700000X0*%
%ADD12C,3.500000*%
%ADD13RoundRect,0.200000X0.784645X-0.320334X0.519355X0.669740X-0.784645X0.320334X-0.519355X-0.669740X0*%
%ADD14RoundRect,0.200000X-0.259964X-0.768469X0.609369X-0.535531X0.259964X0.768469X-0.609369X0.535531X0*%
%ADD15RoundRect,0.200000X-0.300000X-0.100000X0.300000X-0.100000X0.300000X0.100000X-0.300000X0.100000X0*%
%ADD16RoundRect,0.200000X0.100000X-0.300000X0.100000X0.300000X-0.100000X0.300000X-0.100000X-0.300000X0*%
%ADD17O,1.800000X1.800000*%
%ADD18RoundRect,0.250000X0.650000X-0.650000X0.650000X0.650000X-0.650000X0.650000X-0.650000X-0.650000X0*%
G04 APERTURE END LIST*
D10*
%TO.C,U1*%
X210828193Y-95657847D03*
X210828193Y-98197847D03*
D11*
X210828193Y-100737847D03*
X210828193Y-103277847D03*
D10*
X210828193Y-105817847D03*
X210828193Y-108357847D03*
X210828193Y-110897847D03*
X210828193Y-113437847D03*
X210828193Y-115977847D03*
X210828193Y-118517847D03*
X210828193Y-121057847D03*
X210828193Y-123597847D03*
X195588193Y-123597847D03*
X195588193Y-121057847D03*
X195588193Y-118517847D03*
X195588193Y-115977847D03*
X195588193Y-113437847D03*
X195588193Y-110897847D03*
X195588193Y-108357847D03*
X195588193Y-105817847D03*
X195588193Y-103277847D03*
X195588193Y-100737847D03*
D11*
X195588193Y-98197847D03*
D10*
X195588193Y-95657847D03*
%TD*%
D12*
%TO.C,MH*%
X179721380Y-94865123D03*
%TD*%
D13*
%TO.C,D45*%
X333167737Y-118227128D03*
X332397751Y-115353498D03*
%TD*%
D14*
%TO.C,R2*%
X309287473Y-169242239D03*
X312281843Y-168439899D03*
%TD*%
D12*
%TO.C,MH*%
X268622596Y-158376602D03*
%TD*%
D15*
%TO.C,SW44*%
X216795730Y-92272125D03*
X216795730Y-94508125D03*
X223995730Y-92272125D03*
X223995730Y-94508125D03*
D16*
X222645730Y-95215125D03*
X219645730Y-95215125D03*
X218145730Y-95215125D03*
%TD*%
D13*
%TO.C,D46*%
X334591239Y-123539717D03*
X333821253Y-120666087D03*
%TD*%
D12*
%TO.C,MH*%
X188721372Y-105849998D03*
%TD*%
D14*
%TO.C,R4*%
X311202733Y-176390091D03*
X314197103Y-175587751D03*
%TD*%
D12*
%TO.C,MH*%
X137748870Y-158376599D03*
%TD*%
D13*
%TO.C,D44*%
X331744232Y-112914534D03*
X330974246Y-110040904D03*
%TD*%
D14*
%TO.C,R3*%
X310245103Y-172816168D03*
X313239473Y-172013828D03*
%TD*%
D12*
%TO.C,MH*%
X226670082Y-94865120D03*
%TD*%
D17*
%TO.C,J1*%
X200655733Y-192450000D03*
D18*
X205735733Y-192450000D03*
%TD*%
D14*
%TO.C,R1*%
X308329842Y-165668317D03*
X311324212Y-164865977D03*
%TD*%
D13*
%TO.C,D43*%
X330320727Y-107601943D03*
X329550741Y-104728313D03*
%TD*%
D12*
%TO.C,MH*%
X217670090Y-105880245D03*
%TD*%
M02*
