%TF.GenerationSoftware,KiCad,Pcbnew,9.0.4*%
%TF.CreationDate,2025-08-26T18:51:56+03:00*%
%TF.ProjectId,MOKETA,4d4f4b45-5441-42e6-9b69-6361645f7063,rev?*%
%TF.SameCoordinates,Original*%
%TF.FileFunction,Drillmap*%
%TF.FilePolarity,Positive*%
%FSLAX45Y45*%
G04 Gerber Fmt 4.5, Leading zero omitted, Abs format (unit mm)*
G04 Created by KiCad (PCBNEW 9.0.4) date 2025-08-26 18:51:56*
%MOMM*%
%LPD*%
G01*
G04 APERTURE LIST*
%ADD10C,0.200000*%
%ADD11C,0.010000*%
%ADD12C,0.100000*%
%ADD13C,0.150000*%
%ADD14C,0.220000*%
G04 APERTURE END LIST*
D10*
X6454828Y-16995303D02*
G75*
G02*
X6127035Y-16927077I-131758J188523D01*
G01*
X32120271Y-9389920D02*
G75*
G02*
X32425879Y-9284378I206209J-101870D01*
G01*
X8213269Y-9284380D02*
G75*
G02*
X8518874Y-9389921I99391J-207430D01*
G01*
X17572138Y-9843931D02*
X17572138Y-9186512D01*
X27786964Y-19012953D02*
G75*
G02*
X27537815Y-18920970I-59535J222163D01*
G01*
X7679509Y-9927355D02*
G75*
G02*
X8213269Y-9284380I965921J-258815D01*
G01*
X23067008Y-9843930D02*
X23067008Y-9186512D01*
X21309571Y-13655920D02*
X21309573Y-12057001D01*
X33292672Y-17537703D02*
X27786964Y-19012953D01*
X33462364Y-17334474D02*
G75*
G02*
X33292674Y-17537709I-229204J18914D01*
G01*
X23067008Y-9843930D02*
G75*
G02*
X22891274Y-10268196I-600008J0D01*
G01*
X21209570Y-13655920D02*
X21209573Y-12055920D01*
X13101332Y-18920970D02*
G75*
G02*
X13939156Y-19145466I379228J-260350D01*
G01*
X26699985Y-19145466D02*
G75*
G02*
X26528599Y-19350129I-229336J17956D01*
G01*
X31057313Y-9186174D02*
X25858393Y-9186174D01*
X31057313Y-9186174D02*
G75*
G02*
X31274163Y-9339507I7J-229996D01*
G01*
X15864984Y-9339508D02*
G75*
G02*
X16081830Y-9186169I216856J-76672D01*
G01*
X26699985Y-19145466D02*
G75*
G02*
X27537809Y-18920974I458595J-35854D01*
G01*
X20319573Y-20340063D02*
G75*
G02*
X20739733Y-20612801I-3J-460007D01*
G01*
X19253837Y-11631657D02*
X17818584Y-10196405D01*
X25641546Y-9339508D02*
G75*
G02*
X25858393Y-9186178I216854J-76683D01*
G01*
X34625715Y-16145241D02*
G75*
G02*
X34512110Y-16927077I-965915J-258819D01*
G01*
X19899415Y-20612801D02*
G75*
G02*
X20319573Y-20340064I420155J-187259D01*
G01*
X32959637Y-9927355D02*
X34625715Y-16145241D01*
X20944035Y-20749098D02*
G75*
G02*
X20739728Y-20612803I5785J229948D01*
G01*
X17572138Y-9186512D02*
X16081830Y-9186174D01*
X23067008Y-9186512D02*
X24557313Y-9186174D01*
X19429569Y-13655921D02*
G75*
G02*
X19329571Y-13655921I-49999J1D01*
G01*
X34512110Y-16927076D02*
G75*
G02*
X34184322Y-16995297I-196030J120296D01*
G01*
X26528600Y-19350131D02*
X21900935Y-20590110D01*
X15864984Y-9339508D02*
G75*
G02*
X14997600Y-9339508I-433692J153333D01*
G01*
X21900935Y-20590110D02*
G75*
G02*
X20944035Y-20749098I-1294085J4829570D01*
G01*
X7346473Y-17537703D02*
X12852189Y-19012955D01*
X7346473Y-17537703D02*
G75*
G02*
X7176789Y-17334474I59537J222163D01*
G01*
X24557313Y-9186174D02*
G75*
G02*
X24774163Y-9339507I7J-229996D01*
G01*
X21385309Y-11631658D02*
X22820562Y-10196405D01*
X14108932Y-19349698D02*
G75*
G02*
X13939157Y-19145466I59518J222158D01*
G01*
X22967008Y-9842852D02*
G75*
G02*
X22820562Y-10196406I-500008J2D01*
G01*
X19183126Y-11703447D02*
G75*
G02*
X19329576Y-12057000I-353566J-353563D01*
G01*
X19183126Y-11703447D02*
X17747874Y-10268195D01*
X13101332Y-18920970D02*
G75*
G02*
X12852189Y-19012955I-189612J130170D01*
G01*
X14780754Y-9186174D02*
G75*
G02*
X14997600Y-9339508I-4J-230006D01*
G01*
X6454828Y-16995303D02*
G75*
G02*
X7176783Y-17334474I263515J-377043D01*
G01*
X19329573Y-12057000D02*
X19329569Y-13655921D01*
X17818584Y-10196405D02*
G75*
G02*
X17672140Y-9842851I353566J353555D01*
G01*
X22967008Y-9842852D02*
X22967008Y-9186512D01*
X21456020Y-11703447D02*
X22891272Y-10268194D01*
X19253837Y-11631657D02*
G75*
G02*
X19429572Y-12055921I-424287J-424273D01*
G01*
X9364984Y-9339508D02*
G75*
G02*
X8518875Y-9389920I-433692J153335D01*
G01*
X33462364Y-17334474D02*
G75*
G02*
X34184317Y-16995304I458436J-37866D01*
G01*
X14108932Y-19349698D02*
X18738212Y-20590110D01*
X32120271Y-9389920D02*
G75*
G02*
X31274155Y-9339510I-412421J203740D01*
G01*
X9364984Y-9339508D02*
G75*
G02*
X9581830Y-9186169I216856J-76672D01*
G01*
X21209573Y-12055922D02*
G75*
G02*
X21385311Y-11631659I599987J2D01*
G01*
X21309573Y-12057001D02*
G75*
G02*
X21456022Y-11703450I499987J1D01*
G01*
X32425878Y-9284381D02*
G75*
G02*
X32959638Y-9927355I-432148J-901780D01*
G01*
X7679509Y-9927355D02*
X6013432Y-16145239D01*
X19899415Y-20612801D02*
G75*
G02*
X19695111Y-20749100I-210075J93621D01*
G01*
X17672138Y-9842851D02*
X17672138Y-9186512D01*
X22967008Y-9186512D02*
X17672138Y-9186512D01*
X21309571Y-13655920D02*
G75*
G02*
X21209570Y-13655920I-50001J0D01*
G01*
X19695111Y-20749098D02*
G75*
G02*
X18738212Y-20590109I337219J4988728D01*
G01*
X19429569Y-13655921D02*
X19429572Y-12055921D01*
X6127036Y-16927076D02*
G75*
G02*
X6013435Y-16145239I852334J523016D01*
G01*
X17747874Y-10268195D02*
G75*
G02*
X17572134Y-9843931I424276J424275D01*
G01*
X25641546Y-9339508D02*
G75*
G02*
X24774162Y-9339508I-433692J153333D01*
G01*
X14780754Y-9186174D02*
X9581830Y-9186174D01*
D11*
X28657865Y-13260402D02*
X28339109Y-13345812D01*
X28264052Y-13065693D01*
X28582807Y-12980283D01*
X28657865Y-13260402D01*
X30185576Y-11613398D02*
X29866821Y-11698809D01*
X29791763Y-11418690D01*
X30110519Y-11333280D01*
X30185576Y-11613398D01*
X29149621Y-15095661D02*
X28830865Y-15181071D01*
X28755808Y-14900953D01*
X29074563Y-14815542D01*
X29149621Y-15095661D01*
X8824999Y-11625298D02*
X8749941Y-11905417D01*
X8431186Y-11820007D01*
X8506243Y-11539888D01*
X8824999Y-11625298D01*
X17696663Y-15220974D02*
X17621606Y-15501092D01*
X17302850Y-15415682D01*
X17377908Y-15135563D01*
X17696663Y-15220974D01*
X7841486Y-15295816D02*
X7766429Y-15575935D01*
X7447673Y-15490524D01*
X7522731Y-15210406D01*
X7841486Y-15295816D01*
X17204907Y-17056233D02*
X17129850Y-17336351D01*
X16811094Y-17250941D01*
X16886152Y-16970823D01*
X17204907Y-17056233D01*
X30676332Y-13448657D02*
X30357577Y-13534068D01*
X30282519Y-13253949D01*
X30601275Y-13168539D01*
X30676332Y-13448657D01*
X18484482Y-19621831D02*
X18409424Y-19901950D01*
X18090669Y-19816540D01*
X18165726Y-19536421D01*
X18484482Y-19621831D01*
X22548477Y-19816540D02*
X22229722Y-19901950D01*
X22154665Y-19621832D01*
X22473420Y-19536421D01*
X22548477Y-19816540D01*
X28167108Y-11424143D02*
X27848353Y-11509553D01*
X27773295Y-11229434D01*
X28092051Y-11144024D01*
X28167108Y-11424143D01*
X16713151Y-18891492D02*
X16638094Y-19171610D01*
X16319338Y-19086200D01*
X16394396Y-18806081D01*
X16713151Y-18891492D01*
X32206961Y-11819006D02*
X31888206Y-11904417D01*
X31813148Y-11624298D01*
X32131904Y-11538888D01*
X32206961Y-11819006D01*
X18188420Y-13385714D02*
X18113363Y-13665833D01*
X17794607Y-13580423D01*
X17869665Y-13300304D01*
X18188420Y-13385714D01*
X13839795Y-14932928D02*
X13764738Y-15213046D01*
X13445982Y-15127636D01*
X13521040Y-14847518D01*
X13839795Y-14932928D01*
X22844540Y-13580423D02*
X22525784Y-13665833D01*
X22450727Y-13385715D01*
X22769482Y-13300304D01*
X22844540Y-13580423D01*
X24497590Y-12408655D02*
X24178835Y-12494065D01*
X24103777Y-12213946D01*
X24422533Y-12128536D01*
X24497590Y-12408655D01*
X33189474Y-15490525D02*
X32870718Y-15575935D01*
X32795661Y-15295816D01*
X33114416Y-15210406D01*
X33189474Y-15490525D01*
X16043613Y-14049206D02*
X15968556Y-14329324D01*
X15649800Y-14243914D01*
X15724858Y-13963796D01*
X16043613Y-14049206D01*
X27191164Y-15127637D02*
X26872408Y-15213047D01*
X26797351Y-14932929D01*
X27116106Y-14847518D01*
X27191164Y-15127637D01*
X23828052Y-17250941D02*
X23509297Y-17336351D01*
X23434239Y-17056233D01*
X23752995Y-16970823D01*
X23828052Y-17250941D01*
X15551857Y-15884464D02*
X15476799Y-16164583D01*
X15158044Y-16079173D01*
X15233101Y-15799054D01*
X15551857Y-15884464D01*
X10355627Y-13253949D02*
X10280569Y-13534067D01*
X9961814Y-13448657D01*
X10036871Y-13168538D01*
X10355627Y-13253949D01*
X16535369Y-12213947D02*
X16460312Y-12494065D01*
X16141556Y-12408655D01*
X16216614Y-12128537D01*
X16535369Y-12213947D01*
X14331552Y-13097669D02*
X14256494Y-13377788D01*
X13937739Y-13292377D01*
X14012796Y-13012259D01*
X14331552Y-13097669D01*
X26700408Y-13291377D02*
X26381652Y-13376788D01*
X26306595Y-13096669D01*
X26625350Y-13011259D01*
X26700408Y-13291377D01*
X26209651Y-11457118D02*
X25890896Y-11542528D01*
X25815838Y-11262410D01*
X26134594Y-11177000D01*
X26209651Y-11457118D01*
X23335296Y-15414682D02*
X23016540Y-15500093D01*
X22941483Y-15219974D01*
X23260238Y-15134564D01*
X23335296Y-15414682D01*
X12373095Y-13065693D02*
X12298037Y-13345812D01*
X11979282Y-13260402D01*
X12054339Y-12980283D01*
X12373095Y-13065693D01*
X32699717Y-13655266D02*
X32380962Y-13740676D01*
X32305904Y-13460558D01*
X32624660Y-13375148D01*
X32699717Y-13655266D01*
X24318808Y-19087200D02*
X24000053Y-19172610D01*
X23924995Y-18892492D01*
X24243751Y-18807082D01*
X24318808Y-19087200D01*
X9863871Y-15089208D02*
X9788814Y-15369327D01*
X9470058Y-15283916D01*
X9545116Y-15003798D01*
X9863871Y-15089208D01*
X11881339Y-14900953D02*
X11806281Y-15181071D01*
X11487526Y-15095661D01*
X11562583Y-14815542D01*
X11881339Y-14900953D01*
X25479103Y-16079173D02*
X25160347Y-16164583D01*
X25085290Y-15884465D01*
X25404045Y-15799055D01*
X25479103Y-16079173D01*
X12864851Y-11230434D02*
X12789794Y-11510552D01*
X12471038Y-11425142D01*
X12546096Y-11145024D01*
X12864851Y-11230434D01*
X8333242Y-13460557D02*
X8258184Y-13740676D01*
X7939429Y-13655266D01*
X8014486Y-13375147D01*
X8333242Y-13460557D01*
X14941821Y-18161152D02*
X14866763Y-18441270D01*
X14548008Y-18355860D01*
X14623065Y-18075741D01*
X14941821Y-18161152D01*
X24987347Y-14243914D02*
X24668591Y-14329324D01*
X24593534Y-14049206D01*
X24912289Y-13963795D01*
X24987347Y-14243914D01*
X10847383Y-11418690D02*
X10772326Y-11698808D01*
X10453570Y-11613398D01*
X10528628Y-11333279D01*
X10847383Y-11418690D01*
X14823308Y-11262410D02*
X14748250Y-11542529D01*
X14429495Y-11457118D01*
X14504552Y-11177000D01*
X14823308Y-11262410D01*
X26089139Y-18355860D02*
X25770383Y-18441271D01*
X25695326Y-18161152D01*
X26014081Y-18075742D01*
X26089139Y-18355860D01*
X31168089Y-15282917D02*
X30849333Y-15368327D01*
X30774276Y-15088209D01*
X31093031Y-15002798D01*
X31168089Y-15282917D01*
D10*
D12*
X8600624Y-14730860D02*
X8630624Y-14760860D01*
X8630624Y-14730860D02*
X8600624Y-14760860D01*
X9092381Y-12895601D02*
X9122381Y-12925601D01*
X9122381Y-12895601D02*
X9092381Y-12925601D01*
X9584137Y-11060342D02*
X9614137Y-11090342D01*
X9614137Y-11060342D02*
X9584137Y-11090342D01*
X10103987Y-11749586D02*
X10133987Y-11779586D01*
X10133987Y-11749586D02*
X10103987Y-11779586D01*
X10285160Y-11073438D02*
X10315160Y-11103438D01*
X10315160Y-11073438D02*
X10285160Y-11103438D01*
X10603400Y-14022660D02*
X10633400Y-14052660D01*
X10633400Y-14022660D02*
X10603400Y-14052660D01*
X10623010Y-14524252D02*
X10653010Y-14554252D01*
X10653010Y-14524252D02*
X10623010Y-14554252D01*
X10659573Y-15311512D02*
X10689573Y-15341512D01*
X10689573Y-15311512D02*
X10659573Y-15341512D01*
X10784573Y-13346512D02*
X10814573Y-13376512D01*
X10814573Y-13346512D02*
X10784573Y-13376512D01*
X10840747Y-14635364D02*
X10870747Y-14665364D01*
X10870747Y-14635364D02*
X10840747Y-14665364D01*
X11114766Y-12688993D02*
X11144766Y-12718993D01*
X11144766Y-12688993D02*
X11114766Y-12718993D01*
X11606522Y-10853734D02*
X11636522Y-10883734D01*
X11636522Y-10853734D02*
X11606522Y-10883734D01*
X12640477Y-14335996D02*
X12670477Y-14365996D01*
X12670477Y-14335996D02*
X12640477Y-14365996D01*
X13132234Y-12500737D02*
X13162234Y-12530737D01*
X13162234Y-12500737D02*
X13132234Y-12530737D01*
X13623990Y-10665478D02*
X13653990Y-10695478D01*
X13653990Y-10665478D02*
X13623990Y-10695478D01*
X14598934Y-14367972D02*
X14628934Y-14397972D01*
X14628934Y-14367972D02*
X14598934Y-14397972D01*
X15090690Y-12532713D02*
X15120690Y-12562713D01*
X15120690Y-12532713D02*
X15090690Y-12562713D01*
X15582446Y-10697453D02*
X15612446Y-10727453D01*
X15612446Y-10697453D02*
X15582446Y-10727453D01*
X15700959Y-17596196D02*
X15730959Y-17626196D01*
X15730959Y-17596196D02*
X15700959Y-17626196D01*
X16310995Y-15319509D02*
X16340995Y-15349509D01*
X16340995Y-15319509D02*
X16310995Y-15349509D01*
X16802752Y-13484249D02*
X16832752Y-13514249D01*
X16832752Y-13484249D02*
X16802752Y-13514249D01*
X17213552Y-15424163D02*
X17243552Y-15454163D01*
X17243552Y-15424163D02*
X17213552Y-15454163D01*
X17294508Y-11648990D02*
X17324508Y-11678990D01*
X17324508Y-11648990D02*
X17294508Y-11678990D01*
X17383573Y-17069221D02*
X17413573Y-17099221D01*
X17413573Y-17069221D02*
X17383573Y-17099221D01*
X17472290Y-18326535D02*
X17502290Y-18356535D01*
X17502290Y-18326535D02*
X17472290Y-18356535D01*
X17964046Y-16491277D02*
X17994046Y-16521277D01*
X17994046Y-16491277D02*
X17964046Y-16521277D01*
X18455802Y-14656018D02*
X18485802Y-14686018D01*
X18485802Y-14656018D02*
X18455802Y-14686018D01*
X18947558Y-12820759D02*
X18977558Y-12850759D01*
X18977558Y-12820759D02*
X18947558Y-12850759D01*
X19243621Y-19056876D02*
X19273621Y-19086876D01*
X19273621Y-19056876D02*
X19243621Y-19086876D01*
X19545543Y-17445543D02*
X19575543Y-17475543D01*
X19575543Y-17445543D02*
X19545543Y-17475543D01*
X19704573Y-17031513D02*
X19734573Y-17061513D01*
X19734573Y-17031513D02*
X19704573Y-17061513D01*
X19723919Y-16631513D02*
X19753919Y-16661513D01*
X19753919Y-16631513D02*
X19723919Y-16661513D01*
X19778919Y-16531513D02*
X19808919Y-16561513D01*
X19808919Y-16531513D02*
X19778919Y-16561513D01*
X19833919Y-16231513D02*
X19863919Y-16261513D01*
X19863919Y-16231513D02*
X19833919Y-16261513D01*
X19890000Y-16431512D02*
X19920000Y-16461512D01*
X19920000Y-16431512D02*
X19890000Y-16461512D01*
X19945000Y-16031512D02*
X19975000Y-16061512D01*
X19975000Y-16031512D02*
X19945000Y-16061512D01*
X20000000Y-15431512D02*
X20030000Y-15461512D01*
X20030000Y-15431512D02*
X20000000Y-15461512D01*
X20065000Y-15731513D02*
X20095000Y-15761513D01*
X20095000Y-15731513D02*
X20065000Y-15761513D01*
X20380000Y-15831512D02*
X20410000Y-15861512D01*
X20410000Y-15831512D02*
X20380000Y-15861512D01*
X20470000Y-16731512D02*
X20500000Y-16761512D01*
X20500000Y-16731512D02*
X20470000Y-16761512D01*
X20545000Y-17335000D02*
X20575000Y-17365000D01*
X20575000Y-17335000D02*
X20545000Y-17365000D01*
X20604900Y-15331513D02*
X20634900Y-15361513D01*
X20634900Y-15331513D02*
X20604900Y-15361513D01*
X20659900Y-15931513D02*
X20689900Y-15961513D01*
X20689900Y-15931513D02*
X20659900Y-15961513D01*
X20715000Y-16331513D02*
X20745000Y-16361513D01*
X20745000Y-16331513D02*
X20715000Y-16361513D01*
X20770000Y-15531513D02*
X20800000Y-15561513D01*
X20800000Y-15531513D02*
X20770000Y-15561513D01*
X20825000Y-15631513D02*
X20855000Y-15661513D01*
X20855000Y-15631513D02*
X20825000Y-15661513D01*
X20880000Y-16131512D02*
X20910000Y-16161512D01*
X20910000Y-16131512D02*
X20880000Y-16161512D01*
X20940000Y-16831513D02*
X20970000Y-16861513D01*
X20970000Y-16831513D02*
X20940000Y-16861513D01*
X20995000Y-16931513D02*
X21025000Y-16961513D01*
X21025000Y-16931513D02*
X20995000Y-16961513D01*
X22160000Y-9506513D02*
X22190000Y-9536513D01*
X22190000Y-9506513D02*
X22160000Y-9536513D01*
X22165929Y-15394310D02*
X22195929Y-15424310D01*
X22195929Y-15394310D02*
X22165929Y-15424310D01*
X22717214Y-17451732D02*
X22747214Y-17481732D01*
X22747214Y-17451732D02*
X22717214Y-17481732D01*
X22853866Y-18658076D02*
X22883866Y-18688076D01*
X22883866Y-18658076D02*
X22853866Y-18688076D01*
X22942052Y-11643483D02*
X22972052Y-11673483D01*
X22972052Y-11643483D02*
X22942052Y-11673483D01*
X23149928Y-12421959D02*
X23179928Y-12451959D01*
X23179928Y-12421959D02*
X23149928Y-12451959D01*
X23640684Y-14256218D02*
X23670684Y-14286218D01*
X23670684Y-14256218D02*
X23640684Y-14286218D01*
X24133440Y-16092477D02*
X24163440Y-16122477D01*
X24163440Y-16092477D02*
X24133440Y-16122477D01*
X24624196Y-17928737D02*
X24654196Y-17958737D01*
X24654196Y-17928737D02*
X24624196Y-17958737D01*
X24802978Y-11250191D02*
X24832978Y-11280191D01*
X24832978Y-11250191D02*
X24802978Y-11280191D01*
X25292735Y-13085450D02*
X25322735Y-13115450D01*
X25322735Y-13085450D02*
X25292735Y-13115450D01*
X25784491Y-14920710D02*
X25814491Y-14950710D01*
X25814491Y-14920710D02*
X25784491Y-14950710D01*
X26394527Y-17197397D02*
X26424527Y-17227397D01*
X26424527Y-17197397D02*
X26394527Y-17227397D01*
X26515039Y-10298654D02*
X26545039Y-10328654D01*
X26545039Y-10298654D02*
X26515039Y-10328654D01*
X26911793Y-11782089D02*
X26941793Y-11812089D01*
X26941793Y-11782089D02*
X26911793Y-11812089D01*
X27005796Y-12132913D02*
X27035796Y-12162913D01*
X27035796Y-12132913D02*
X27005796Y-12162913D01*
X27102987Y-17758438D02*
X27132987Y-17788438D01*
X27132987Y-17758438D02*
X27102987Y-17788438D01*
X27284160Y-18434586D02*
X27314160Y-18464586D01*
X27314160Y-18434586D02*
X27284160Y-18464586D01*
X27496552Y-13969173D02*
X27526552Y-13999173D01*
X27526552Y-13969173D02*
X27496552Y-13999173D01*
X28472496Y-10265679D02*
X28502496Y-10295679D01*
X28502496Y-10265679D02*
X28472496Y-10295679D01*
X28963253Y-12101938D02*
X28993253Y-12131938D01*
X28993253Y-12101938D02*
X28963253Y-12131938D01*
X29455009Y-13937197D02*
X29485009Y-13967197D01*
X29485009Y-13937197D02*
X29455009Y-13967197D01*
X30362426Y-16665784D02*
X30392426Y-16695784D01*
X30392426Y-16665784D02*
X30362426Y-16695784D01*
X30459019Y-16639902D02*
X30489019Y-16669902D01*
X30489019Y-16639902D02*
X30459019Y-16669902D01*
X30490964Y-10454935D02*
X30520964Y-10484935D01*
X30520964Y-10454935D02*
X30490964Y-10484935D01*
X30555611Y-16614020D02*
X30585611Y-16644020D01*
X30585611Y-16614020D02*
X30555611Y-16644020D01*
X30654232Y-16595708D02*
X30684232Y-16625708D01*
X30684232Y-16595708D02*
X30654232Y-16625708D01*
X30981721Y-12290194D02*
X31011721Y-12320194D01*
X31011721Y-12290194D02*
X30981721Y-12320194D01*
X31362128Y-13708892D02*
X31392128Y-13738892D01*
X31392128Y-13708892D02*
X31362128Y-13738892D01*
X31473477Y-14124453D02*
X31503477Y-14154453D01*
X31503477Y-14124453D02*
X31473477Y-14154453D01*
X32512349Y-10660543D02*
X32542349Y-10690543D01*
X32542349Y-10660543D02*
X32512349Y-10690543D01*
X32610293Y-11445084D02*
X32640293Y-11475084D01*
X32640293Y-11445084D02*
X32610293Y-11475084D01*
X32728573Y-11886512D02*
X32758573Y-11916512D01*
X32758573Y-11886512D02*
X32728573Y-11916512D01*
X32978573Y-10601513D02*
X33008573Y-10631513D01*
X33008573Y-10601513D02*
X32978573Y-10631513D01*
X33005106Y-12496802D02*
X33035106Y-12526802D01*
X33035106Y-12496802D02*
X33005106Y-12526802D01*
X33120924Y-11132772D02*
X33150924Y-11162772D01*
X33150924Y-11132772D02*
X33120924Y-11162772D01*
X33263274Y-11664031D02*
X33293274Y-11694031D01*
X33293274Y-11664031D02*
X33263274Y-11694031D01*
X33405625Y-12195290D02*
X33435625Y-12225290D01*
X33435625Y-12195290D02*
X33405625Y-12225290D01*
X33494862Y-14332060D02*
X33524862Y-14362060D01*
X33524862Y-14332060D02*
X33494862Y-14362060D01*
X20115573Y-19245000D02*
G75*
G02*
X20015573Y-19245000I-50000J0D01*
G01*
X20015573Y-19245000D02*
G75*
G02*
X20115573Y-19245000I50000J0D01*
G01*
X20623573Y-19245000D02*
G75*
G02*
X20523573Y-19245000I-50000J0D01*
G01*
X20523573Y-19245000D02*
G75*
G02*
X20623573Y-19245000I50000J0D01*
G01*
D13*
X19558819Y-9490785D02*
X19558819Y-9640785D01*
X19483819Y-9565785D02*
X19633819Y-9565785D01*
X19558819Y-9744785D02*
X19558819Y-9894785D01*
X19483819Y-9819785D02*
X19633819Y-9819785D01*
X19558819Y-9998785D02*
X19558819Y-10148785D01*
X19483819Y-10073785D02*
X19633819Y-10073785D01*
X19558819Y-10252785D02*
X19558819Y-10402785D01*
X19483819Y-10327785D02*
X19633819Y-10327785D01*
X19558819Y-10506785D02*
X19558819Y-10656785D01*
X19483819Y-10581785D02*
X19633819Y-10581785D01*
X19558819Y-10760785D02*
X19558819Y-10910785D01*
X19483819Y-10835785D02*
X19633819Y-10835785D01*
X19558819Y-11014785D02*
X19558819Y-11164785D01*
X19483819Y-11089785D02*
X19633819Y-11089785D01*
X19558819Y-11268785D02*
X19558819Y-11418785D01*
X19483819Y-11343785D02*
X19633819Y-11343785D01*
X19558819Y-11522785D02*
X19558819Y-11672785D01*
X19483819Y-11597785D02*
X19633819Y-11597785D01*
X19558819Y-11776785D02*
X19558819Y-11926785D01*
X19483819Y-11851785D02*
X19633819Y-11851785D01*
X19558819Y-12030785D02*
X19558819Y-12180785D01*
X19483819Y-12105785D02*
X19633819Y-12105785D01*
X19558819Y-12284785D02*
X19558819Y-12434785D01*
X19483819Y-12359785D02*
X19633819Y-12359785D01*
X21082819Y-9490785D02*
X21082819Y-9640785D01*
X21007819Y-9565785D02*
X21157819Y-9565785D01*
X21082819Y-9744785D02*
X21082819Y-9894785D01*
X21007819Y-9819785D02*
X21157819Y-9819785D01*
X21082819Y-9998785D02*
X21082819Y-10148785D01*
X21007819Y-10073785D02*
X21157819Y-10073785D01*
X21082819Y-10252785D02*
X21082819Y-10402785D01*
X21007819Y-10327785D02*
X21157819Y-10327785D01*
X21082819Y-10506785D02*
X21082819Y-10656785D01*
X21007819Y-10581785D02*
X21157819Y-10581785D01*
X21082819Y-10760785D02*
X21082819Y-10910785D01*
X21007819Y-10835785D02*
X21157819Y-10835785D01*
X21082819Y-11014785D02*
X21082819Y-11164785D01*
X21007819Y-11089785D02*
X21157819Y-11089785D01*
X21082819Y-11268785D02*
X21082819Y-11418785D01*
X21007819Y-11343785D02*
X21157819Y-11343785D01*
X21082819Y-11522785D02*
X21082819Y-11672785D01*
X21007819Y-11597785D02*
X21157819Y-11597785D01*
X21082819Y-11776785D02*
X21082819Y-11926785D01*
X21007819Y-11851785D02*
X21157819Y-11851785D01*
X21082819Y-12030785D02*
X21082819Y-12180785D01*
X21007819Y-12105785D02*
X21157819Y-12105785D01*
X21082819Y-12284785D02*
X21082819Y-12434785D01*
X21007819Y-12359785D02*
X21157819Y-12359785D01*
D14*
X13852669Y-15915442D02*
X13852669Y-15759877D01*
X13697104Y-15759877D01*
X13697104Y-15915442D01*
X13852669Y-15915442D01*
X18049921Y-9564295D02*
X18049921Y-9408730D01*
X17894356Y-9408730D01*
X17894356Y-9564295D01*
X18049921Y-9564295D01*
X18949920Y-10662782D02*
X18949920Y-10507217D01*
X18794355Y-10507217D01*
X18794355Y-10662782D01*
X18949920Y-10662782D01*
X21844792Y-10665807D02*
X21844792Y-10510242D01*
X21689227Y-10510242D01*
X21689227Y-10665807D01*
X21844792Y-10665807D01*
X22744791Y-9564295D02*
X22744791Y-9408730D01*
X22589226Y-9408730D01*
X22589226Y-9564295D01*
X22744791Y-9564295D01*
X26940042Y-15915443D02*
X26940042Y-15759878D01*
X26784477Y-15759878D01*
X26784477Y-15915443D01*
X26940042Y-15915443D01*
D10*
X6230137Y-21070582D02*
X6230137Y-20870582D01*
X6230137Y-20870582D02*
X6277756Y-20870582D01*
X6277756Y-20870582D02*
X6306328Y-20880105D01*
X6306328Y-20880105D02*
X6325376Y-20899153D01*
X6325376Y-20899153D02*
X6334899Y-20918201D01*
X6334899Y-20918201D02*
X6344423Y-20956296D01*
X6344423Y-20956296D02*
X6344423Y-20984867D01*
X6344423Y-20984867D02*
X6334899Y-21022963D01*
X6334899Y-21022963D02*
X6325376Y-21042010D01*
X6325376Y-21042010D02*
X6306328Y-21061058D01*
X6306328Y-21061058D02*
X6277756Y-21070582D01*
X6277756Y-21070582D02*
X6230137Y-21070582D01*
X6430137Y-21070582D02*
X6430137Y-20937248D01*
X6430137Y-20975344D02*
X6439661Y-20956296D01*
X6439661Y-20956296D02*
X6449185Y-20946772D01*
X6449185Y-20946772D02*
X6468233Y-20937248D01*
X6468233Y-20937248D02*
X6487280Y-20937248D01*
X6553947Y-21070582D02*
X6553947Y-20937248D01*
X6553947Y-20870582D02*
X6544423Y-20880105D01*
X6544423Y-20880105D02*
X6553947Y-20889629D01*
X6553947Y-20889629D02*
X6563471Y-20880105D01*
X6563471Y-20880105D02*
X6553947Y-20870582D01*
X6553947Y-20870582D02*
X6553947Y-20889629D01*
X6677756Y-21070582D02*
X6658709Y-21061058D01*
X6658709Y-21061058D02*
X6649185Y-21042010D01*
X6649185Y-21042010D02*
X6649185Y-20870582D01*
X6782518Y-21070582D02*
X6763471Y-21061058D01*
X6763471Y-21061058D02*
X6753947Y-21042010D01*
X6753947Y-21042010D02*
X6753947Y-20870582D01*
X7011090Y-21070582D02*
X7011090Y-20870582D01*
X7011090Y-20870582D02*
X7077757Y-21013439D01*
X7077757Y-21013439D02*
X7144423Y-20870582D01*
X7144423Y-20870582D02*
X7144423Y-21070582D01*
X7325376Y-21070582D02*
X7325376Y-20965820D01*
X7325376Y-20965820D02*
X7315852Y-20946772D01*
X7315852Y-20946772D02*
X7296804Y-20937248D01*
X7296804Y-20937248D02*
X7258709Y-20937248D01*
X7258709Y-20937248D02*
X7239661Y-20946772D01*
X7325376Y-21061058D02*
X7306328Y-21070582D01*
X7306328Y-21070582D02*
X7258709Y-21070582D01*
X7258709Y-21070582D02*
X7239661Y-21061058D01*
X7239661Y-21061058D02*
X7230137Y-21042010D01*
X7230137Y-21042010D02*
X7230137Y-21022963D01*
X7230137Y-21022963D02*
X7239661Y-21003915D01*
X7239661Y-21003915D02*
X7258709Y-20994391D01*
X7258709Y-20994391D02*
X7306328Y-20994391D01*
X7306328Y-20994391D02*
X7325376Y-20984867D01*
X7420614Y-20937248D02*
X7420614Y-21137248D01*
X7420614Y-20946772D02*
X7439661Y-20937248D01*
X7439661Y-20937248D02*
X7477757Y-20937248D01*
X7477757Y-20937248D02*
X7496804Y-20946772D01*
X7496804Y-20946772D02*
X7506328Y-20956296D01*
X7506328Y-20956296D02*
X7515852Y-20975344D01*
X7515852Y-20975344D02*
X7515852Y-21032486D01*
X7515852Y-21032486D02*
X7506328Y-21051534D01*
X7506328Y-21051534D02*
X7496804Y-21061058D01*
X7496804Y-21061058D02*
X7477757Y-21070582D01*
X7477757Y-21070582D02*
X7439661Y-21070582D01*
X7439661Y-21070582D02*
X7420614Y-21061058D01*
X7601566Y-21051534D02*
X7611090Y-21061058D01*
X7611090Y-21061058D02*
X7601566Y-21070582D01*
X7601566Y-21070582D02*
X7592042Y-21061058D01*
X7592042Y-21061058D02*
X7601566Y-21051534D01*
X7601566Y-21051534D02*
X7601566Y-21070582D01*
X7601566Y-20946772D02*
X7611090Y-20956296D01*
X7611090Y-20956296D02*
X7601566Y-20965820D01*
X7601566Y-20965820D02*
X7592042Y-20956296D01*
X7592042Y-20956296D02*
X7601566Y-20946772D01*
X7601566Y-20946772D02*
X7601566Y-20965820D01*
D12*
X5939361Y-21384098D02*
X5969361Y-21414098D01*
X5969361Y-21384098D02*
X5939361Y-21414098D01*
D10*
X6268233Y-21290582D02*
X6287280Y-21290582D01*
X6287280Y-21290582D02*
X6306328Y-21300105D01*
X6306328Y-21300105D02*
X6315852Y-21309629D01*
X6315852Y-21309629D02*
X6325376Y-21328677D01*
X6325376Y-21328677D02*
X6334899Y-21366772D01*
X6334899Y-21366772D02*
X6334899Y-21414391D01*
X6334899Y-21414391D02*
X6325376Y-21452486D01*
X6325376Y-21452486D02*
X6315852Y-21471534D01*
X6315852Y-21471534D02*
X6306328Y-21481058D01*
X6306328Y-21481058D02*
X6287280Y-21490582D01*
X6287280Y-21490582D02*
X6268233Y-21490582D01*
X6268233Y-21490582D02*
X6249185Y-21481058D01*
X6249185Y-21481058D02*
X6239661Y-21471534D01*
X6239661Y-21471534D02*
X6230137Y-21452486D01*
X6230137Y-21452486D02*
X6220614Y-21414391D01*
X6220614Y-21414391D02*
X6220614Y-21366772D01*
X6220614Y-21366772D02*
X6230137Y-21328677D01*
X6230137Y-21328677D02*
X6239661Y-21309629D01*
X6239661Y-21309629D02*
X6249185Y-21300105D01*
X6249185Y-21300105D02*
X6268233Y-21290582D01*
X6420614Y-21471534D02*
X6430137Y-21481058D01*
X6430137Y-21481058D02*
X6420614Y-21490582D01*
X6420614Y-21490582D02*
X6411090Y-21481058D01*
X6411090Y-21481058D02*
X6420614Y-21471534D01*
X6420614Y-21471534D02*
X6420614Y-21490582D01*
X6496804Y-21290582D02*
X6620614Y-21290582D01*
X6620614Y-21290582D02*
X6553947Y-21366772D01*
X6553947Y-21366772D02*
X6582518Y-21366772D01*
X6582518Y-21366772D02*
X6601566Y-21376296D01*
X6601566Y-21376296D02*
X6611090Y-21385820D01*
X6611090Y-21385820D02*
X6620614Y-21404867D01*
X6620614Y-21404867D02*
X6620614Y-21452486D01*
X6620614Y-21452486D02*
X6611090Y-21471534D01*
X6611090Y-21471534D02*
X6601566Y-21481058D01*
X6601566Y-21481058D02*
X6582518Y-21490582D01*
X6582518Y-21490582D02*
X6525376Y-21490582D01*
X6525376Y-21490582D02*
X6506328Y-21481058D01*
X6506328Y-21481058D02*
X6496804Y-21471534D01*
X6744423Y-21290582D02*
X6763471Y-21290582D01*
X6763471Y-21290582D02*
X6782518Y-21300105D01*
X6782518Y-21300105D02*
X6792042Y-21309629D01*
X6792042Y-21309629D02*
X6801566Y-21328677D01*
X6801566Y-21328677D02*
X6811090Y-21366772D01*
X6811090Y-21366772D02*
X6811090Y-21414391D01*
X6811090Y-21414391D02*
X6801566Y-21452486D01*
X6801566Y-21452486D02*
X6792042Y-21471534D01*
X6792042Y-21471534D02*
X6782518Y-21481058D01*
X6782518Y-21481058D02*
X6763471Y-21490582D01*
X6763471Y-21490582D02*
X6744423Y-21490582D01*
X6744423Y-21490582D02*
X6725376Y-21481058D01*
X6725376Y-21481058D02*
X6715852Y-21471534D01*
X6715852Y-21471534D02*
X6706328Y-21452486D01*
X6706328Y-21452486D02*
X6696804Y-21414391D01*
X6696804Y-21414391D02*
X6696804Y-21366772D01*
X6696804Y-21366772D02*
X6706328Y-21328677D01*
X6706328Y-21328677D02*
X6715852Y-21309629D01*
X6715852Y-21309629D02*
X6725376Y-21300105D01*
X6725376Y-21300105D02*
X6744423Y-21290582D01*
X6934899Y-21290582D02*
X6953947Y-21290582D01*
X6953947Y-21290582D02*
X6972995Y-21300105D01*
X6972995Y-21300105D02*
X6982518Y-21309629D01*
X6982518Y-21309629D02*
X6992042Y-21328677D01*
X6992042Y-21328677D02*
X7001566Y-21366772D01*
X7001566Y-21366772D02*
X7001566Y-21414391D01*
X7001566Y-21414391D02*
X6992042Y-21452486D01*
X6992042Y-21452486D02*
X6982518Y-21471534D01*
X6982518Y-21471534D02*
X6972995Y-21481058D01*
X6972995Y-21481058D02*
X6953947Y-21490582D01*
X6953947Y-21490582D02*
X6934899Y-21490582D01*
X6934899Y-21490582D02*
X6915852Y-21481058D01*
X6915852Y-21481058D02*
X6906328Y-21471534D01*
X6906328Y-21471534D02*
X6896804Y-21452486D01*
X6896804Y-21452486D02*
X6887280Y-21414391D01*
X6887280Y-21414391D02*
X6887280Y-21366772D01*
X6887280Y-21366772D02*
X6896804Y-21328677D01*
X6896804Y-21328677D02*
X6906328Y-21309629D01*
X6906328Y-21309629D02*
X6915852Y-21300105D01*
X6915852Y-21300105D02*
X6934899Y-21290582D01*
X7087280Y-21490582D02*
X7087280Y-21357248D01*
X7087280Y-21376296D02*
X7096804Y-21366772D01*
X7096804Y-21366772D02*
X7115852Y-21357248D01*
X7115852Y-21357248D02*
X7144423Y-21357248D01*
X7144423Y-21357248D02*
X7163471Y-21366772D01*
X7163471Y-21366772D02*
X7172995Y-21385820D01*
X7172995Y-21385820D02*
X7172995Y-21490582D01*
X7172995Y-21385820D02*
X7182518Y-21366772D01*
X7182518Y-21366772D02*
X7201566Y-21357248D01*
X7201566Y-21357248D02*
X7230137Y-21357248D01*
X7230137Y-21357248D02*
X7249185Y-21366772D01*
X7249185Y-21366772D02*
X7258709Y-21385820D01*
X7258709Y-21385820D02*
X7258709Y-21490582D01*
X7353947Y-21490582D02*
X7353947Y-21357248D01*
X7353947Y-21376296D02*
X7363471Y-21366772D01*
X7363471Y-21366772D02*
X7382518Y-21357248D01*
X7382518Y-21357248D02*
X7411090Y-21357248D01*
X7411090Y-21357248D02*
X7430138Y-21366772D01*
X7430138Y-21366772D02*
X7439661Y-21385820D01*
X7439661Y-21385820D02*
X7439661Y-21490582D01*
X7439661Y-21385820D02*
X7449185Y-21366772D01*
X7449185Y-21366772D02*
X7468233Y-21357248D01*
X7468233Y-21357248D02*
X7496804Y-21357248D01*
X7496804Y-21357248D02*
X7515852Y-21366772D01*
X7515852Y-21366772D02*
X7525376Y-21385820D01*
X7525376Y-21385820D02*
X7525376Y-21490582D01*
X7915852Y-21281058D02*
X7744423Y-21538201D01*
X8172995Y-21290582D02*
X8192042Y-21290582D01*
X8192042Y-21290582D02*
X8211090Y-21300105D01*
X8211090Y-21300105D02*
X8220614Y-21309629D01*
X8220614Y-21309629D02*
X8230138Y-21328677D01*
X8230138Y-21328677D02*
X8239661Y-21366772D01*
X8239661Y-21366772D02*
X8239661Y-21414391D01*
X8239661Y-21414391D02*
X8230138Y-21452486D01*
X8230138Y-21452486D02*
X8220614Y-21471534D01*
X8220614Y-21471534D02*
X8211090Y-21481058D01*
X8211090Y-21481058D02*
X8192042Y-21490582D01*
X8192042Y-21490582D02*
X8172995Y-21490582D01*
X8172995Y-21490582D02*
X8153947Y-21481058D01*
X8153947Y-21481058D02*
X8144423Y-21471534D01*
X8144423Y-21471534D02*
X8134900Y-21452486D01*
X8134900Y-21452486D02*
X8125376Y-21414391D01*
X8125376Y-21414391D02*
X8125376Y-21366772D01*
X8125376Y-21366772D02*
X8134900Y-21328677D01*
X8134900Y-21328677D02*
X8144423Y-21309629D01*
X8144423Y-21309629D02*
X8153947Y-21300105D01*
X8153947Y-21300105D02*
X8172995Y-21290582D01*
X8325376Y-21471534D02*
X8334900Y-21481058D01*
X8334900Y-21481058D02*
X8325376Y-21490582D01*
X8325376Y-21490582D02*
X8315852Y-21481058D01*
X8315852Y-21481058D02*
X8325376Y-21471534D01*
X8325376Y-21471534D02*
X8325376Y-21490582D01*
X8458709Y-21290582D02*
X8477757Y-21290582D01*
X8477757Y-21290582D02*
X8496804Y-21300105D01*
X8496804Y-21300105D02*
X8506328Y-21309629D01*
X8506328Y-21309629D02*
X8515852Y-21328677D01*
X8515852Y-21328677D02*
X8525376Y-21366772D01*
X8525376Y-21366772D02*
X8525376Y-21414391D01*
X8525376Y-21414391D02*
X8515852Y-21452486D01*
X8515852Y-21452486D02*
X8506328Y-21471534D01*
X8506328Y-21471534D02*
X8496804Y-21481058D01*
X8496804Y-21481058D02*
X8477757Y-21490582D01*
X8477757Y-21490582D02*
X8458709Y-21490582D01*
X8458709Y-21490582D02*
X8439662Y-21481058D01*
X8439662Y-21481058D02*
X8430138Y-21471534D01*
X8430138Y-21471534D02*
X8420614Y-21452486D01*
X8420614Y-21452486D02*
X8411090Y-21414391D01*
X8411090Y-21414391D02*
X8411090Y-21366772D01*
X8411090Y-21366772D02*
X8420614Y-21328677D01*
X8420614Y-21328677D02*
X8430138Y-21309629D01*
X8430138Y-21309629D02*
X8439662Y-21300105D01*
X8439662Y-21300105D02*
X8458709Y-21290582D01*
X8715852Y-21490582D02*
X8601566Y-21490582D01*
X8658709Y-21490582D02*
X8658709Y-21290582D01*
X8658709Y-21290582D02*
X8639662Y-21319153D01*
X8639662Y-21319153D02*
X8620614Y-21338201D01*
X8620614Y-21338201D02*
X8601566Y-21347724D01*
X8906328Y-21490582D02*
X8792043Y-21490582D01*
X8849185Y-21490582D02*
X8849185Y-21290582D01*
X8849185Y-21290582D02*
X8830138Y-21319153D01*
X8830138Y-21319153D02*
X8811090Y-21338201D01*
X8811090Y-21338201D02*
X8792043Y-21347724D01*
X9020614Y-21376296D02*
X9001566Y-21366772D01*
X9001566Y-21366772D02*
X8992043Y-21357248D01*
X8992043Y-21357248D02*
X8982519Y-21338201D01*
X8982519Y-21338201D02*
X8982519Y-21328677D01*
X8982519Y-21328677D02*
X8992043Y-21309629D01*
X8992043Y-21309629D02*
X9001566Y-21300105D01*
X9001566Y-21300105D02*
X9020614Y-21290582D01*
X9020614Y-21290582D02*
X9058709Y-21290582D01*
X9058709Y-21290582D02*
X9077757Y-21300105D01*
X9077757Y-21300105D02*
X9087281Y-21309629D01*
X9087281Y-21309629D02*
X9096804Y-21328677D01*
X9096804Y-21328677D02*
X9096804Y-21338201D01*
X9096804Y-21338201D02*
X9087281Y-21357248D01*
X9087281Y-21357248D02*
X9077757Y-21366772D01*
X9077757Y-21366772D02*
X9058709Y-21376296D01*
X9058709Y-21376296D02*
X9020614Y-21376296D01*
X9020614Y-21376296D02*
X9001566Y-21385820D01*
X9001566Y-21385820D02*
X8992043Y-21395344D01*
X8992043Y-21395344D02*
X8982519Y-21414391D01*
X8982519Y-21414391D02*
X8982519Y-21452486D01*
X8982519Y-21452486D02*
X8992043Y-21471534D01*
X8992043Y-21471534D02*
X9001566Y-21481058D01*
X9001566Y-21481058D02*
X9020614Y-21490582D01*
X9020614Y-21490582D02*
X9058709Y-21490582D01*
X9058709Y-21490582D02*
X9077757Y-21481058D01*
X9077757Y-21481058D02*
X9087281Y-21471534D01*
X9087281Y-21471534D02*
X9096804Y-21452486D01*
X9096804Y-21452486D02*
X9096804Y-21414391D01*
X9096804Y-21414391D02*
X9087281Y-21395344D01*
X9087281Y-21395344D02*
X9077757Y-21385820D01*
X9077757Y-21385820D02*
X9058709Y-21376296D01*
X9172995Y-21290582D02*
X9172995Y-21328677D01*
X9249185Y-21290582D02*
X9249185Y-21328677D01*
X9544424Y-21566772D02*
X9534900Y-21557248D01*
X9534900Y-21557248D02*
X9515852Y-21528677D01*
X9515852Y-21528677D02*
X9506328Y-21509629D01*
X9506328Y-21509629D02*
X9496805Y-21481058D01*
X9496805Y-21481058D02*
X9487281Y-21433439D01*
X9487281Y-21433439D02*
X9487281Y-21395344D01*
X9487281Y-21395344D02*
X9496805Y-21347724D01*
X9496805Y-21347724D02*
X9506328Y-21319153D01*
X9506328Y-21319153D02*
X9515852Y-21300105D01*
X9515852Y-21300105D02*
X9534900Y-21271534D01*
X9534900Y-21271534D02*
X9544424Y-21262010D01*
X9649185Y-21376296D02*
X9630138Y-21366772D01*
X9630138Y-21366772D02*
X9620614Y-21357248D01*
X9620614Y-21357248D02*
X9611090Y-21338201D01*
X9611090Y-21338201D02*
X9611090Y-21328677D01*
X9611090Y-21328677D02*
X9620614Y-21309629D01*
X9620614Y-21309629D02*
X9630138Y-21300105D01*
X9630138Y-21300105D02*
X9649185Y-21290582D01*
X9649185Y-21290582D02*
X9687281Y-21290582D01*
X9687281Y-21290582D02*
X9706328Y-21300105D01*
X9706328Y-21300105D02*
X9715852Y-21309629D01*
X9715852Y-21309629D02*
X9725376Y-21328677D01*
X9725376Y-21328677D02*
X9725376Y-21338201D01*
X9725376Y-21338201D02*
X9715852Y-21357248D01*
X9715852Y-21357248D02*
X9706328Y-21366772D01*
X9706328Y-21366772D02*
X9687281Y-21376296D01*
X9687281Y-21376296D02*
X9649185Y-21376296D01*
X9649185Y-21376296D02*
X9630138Y-21385820D01*
X9630138Y-21385820D02*
X9620614Y-21395344D01*
X9620614Y-21395344D02*
X9611090Y-21414391D01*
X9611090Y-21414391D02*
X9611090Y-21452486D01*
X9611090Y-21452486D02*
X9620614Y-21471534D01*
X9620614Y-21471534D02*
X9630138Y-21481058D01*
X9630138Y-21481058D02*
X9649185Y-21490582D01*
X9649185Y-21490582D02*
X9687281Y-21490582D01*
X9687281Y-21490582D02*
X9706328Y-21481058D01*
X9706328Y-21481058D02*
X9715852Y-21471534D01*
X9715852Y-21471534D02*
X9725376Y-21452486D01*
X9725376Y-21452486D02*
X9725376Y-21414391D01*
X9725376Y-21414391D02*
X9715852Y-21395344D01*
X9715852Y-21395344D02*
X9706328Y-21385820D01*
X9706328Y-21385820D02*
X9687281Y-21376296D01*
X9839662Y-21376296D02*
X9820614Y-21366772D01*
X9820614Y-21366772D02*
X9811090Y-21357248D01*
X9811090Y-21357248D02*
X9801566Y-21338201D01*
X9801566Y-21338201D02*
X9801566Y-21328677D01*
X9801566Y-21328677D02*
X9811090Y-21309629D01*
X9811090Y-21309629D02*
X9820614Y-21300105D01*
X9820614Y-21300105D02*
X9839662Y-21290582D01*
X9839662Y-21290582D02*
X9877757Y-21290582D01*
X9877757Y-21290582D02*
X9896805Y-21300105D01*
X9896805Y-21300105D02*
X9906328Y-21309629D01*
X9906328Y-21309629D02*
X9915852Y-21328677D01*
X9915852Y-21328677D02*
X9915852Y-21338201D01*
X9915852Y-21338201D02*
X9906328Y-21357248D01*
X9906328Y-21357248D02*
X9896805Y-21366772D01*
X9896805Y-21366772D02*
X9877757Y-21376296D01*
X9877757Y-21376296D02*
X9839662Y-21376296D01*
X9839662Y-21376296D02*
X9820614Y-21385820D01*
X9820614Y-21385820D02*
X9811090Y-21395344D01*
X9811090Y-21395344D02*
X9801566Y-21414391D01*
X9801566Y-21414391D02*
X9801566Y-21452486D01*
X9801566Y-21452486D02*
X9811090Y-21471534D01*
X9811090Y-21471534D02*
X9820614Y-21481058D01*
X9820614Y-21481058D02*
X9839662Y-21490582D01*
X9839662Y-21490582D02*
X9877757Y-21490582D01*
X9877757Y-21490582D02*
X9896805Y-21481058D01*
X9896805Y-21481058D02*
X9906328Y-21471534D01*
X9906328Y-21471534D02*
X9915852Y-21452486D01*
X9915852Y-21452486D02*
X9915852Y-21414391D01*
X9915852Y-21414391D02*
X9906328Y-21395344D01*
X9906328Y-21395344D02*
X9896805Y-21385820D01*
X9896805Y-21385820D02*
X9877757Y-21376296D01*
X10153947Y-21490582D02*
X10153947Y-21290582D01*
X10239662Y-21490582D02*
X10239662Y-21385820D01*
X10239662Y-21385820D02*
X10230138Y-21366772D01*
X10230138Y-21366772D02*
X10211090Y-21357248D01*
X10211090Y-21357248D02*
X10182519Y-21357248D01*
X10182519Y-21357248D02*
X10163471Y-21366772D01*
X10163471Y-21366772D02*
X10153947Y-21376296D01*
X10363471Y-21490582D02*
X10344424Y-21481058D01*
X10344424Y-21481058D02*
X10334900Y-21471534D01*
X10334900Y-21471534D02*
X10325376Y-21452486D01*
X10325376Y-21452486D02*
X10325376Y-21395344D01*
X10325376Y-21395344D02*
X10334900Y-21376296D01*
X10334900Y-21376296D02*
X10344424Y-21366772D01*
X10344424Y-21366772D02*
X10363471Y-21357248D01*
X10363471Y-21357248D02*
X10392043Y-21357248D01*
X10392043Y-21357248D02*
X10411090Y-21366772D01*
X10411090Y-21366772D02*
X10420614Y-21376296D01*
X10420614Y-21376296D02*
X10430138Y-21395344D01*
X10430138Y-21395344D02*
X10430138Y-21452486D01*
X10430138Y-21452486D02*
X10420614Y-21471534D01*
X10420614Y-21471534D02*
X10411090Y-21481058D01*
X10411090Y-21481058D02*
X10392043Y-21490582D01*
X10392043Y-21490582D02*
X10363471Y-21490582D01*
X10544424Y-21490582D02*
X10525376Y-21481058D01*
X10525376Y-21481058D02*
X10515852Y-21462010D01*
X10515852Y-21462010D02*
X10515852Y-21290582D01*
X10696805Y-21481058D02*
X10677757Y-21490582D01*
X10677757Y-21490582D02*
X10639662Y-21490582D01*
X10639662Y-21490582D02*
X10620614Y-21481058D01*
X10620614Y-21481058D02*
X10611090Y-21462010D01*
X10611090Y-21462010D02*
X10611090Y-21385820D01*
X10611090Y-21385820D02*
X10620614Y-21366772D01*
X10620614Y-21366772D02*
X10639662Y-21357248D01*
X10639662Y-21357248D02*
X10677757Y-21357248D01*
X10677757Y-21357248D02*
X10696805Y-21366772D01*
X10696805Y-21366772D02*
X10706328Y-21385820D01*
X10706328Y-21385820D02*
X10706328Y-21404867D01*
X10706328Y-21404867D02*
X10611090Y-21423915D01*
X10782519Y-21481058D02*
X10801567Y-21490582D01*
X10801567Y-21490582D02*
X10839662Y-21490582D01*
X10839662Y-21490582D02*
X10858709Y-21481058D01*
X10858709Y-21481058D02*
X10868233Y-21462010D01*
X10868233Y-21462010D02*
X10868233Y-21452486D01*
X10868233Y-21452486D02*
X10858709Y-21433439D01*
X10858709Y-21433439D02*
X10839662Y-21423915D01*
X10839662Y-21423915D02*
X10811090Y-21423915D01*
X10811090Y-21423915D02*
X10792043Y-21414391D01*
X10792043Y-21414391D02*
X10782519Y-21395344D01*
X10782519Y-21395344D02*
X10782519Y-21385820D01*
X10782519Y-21385820D02*
X10792043Y-21366772D01*
X10792043Y-21366772D02*
X10811090Y-21357248D01*
X10811090Y-21357248D02*
X10839662Y-21357248D01*
X10839662Y-21357248D02*
X10858709Y-21366772D01*
X10934900Y-21566772D02*
X10944424Y-21557248D01*
X10944424Y-21557248D02*
X10963471Y-21528677D01*
X10963471Y-21528677D02*
X10972995Y-21509629D01*
X10972995Y-21509629D02*
X10982519Y-21481058D01*
X10982519Y-21481058D02*
X10992043Y-21433439D01*
X10992043Y-21433439D02*
X10992043Y-21395344D01*
X10992043Y-21395344D02*
X10982519Y-21347724D01*
X10982519Y-21347724D02*
X10972995Y-21319153D01*
X10972995Y-21319153D02*
X10963471Y-21300105D01*
X10963471Y-21300105D02*
X10944424Y-21271534D01*
X10944424Y-21271534D02*
X10934900Y-21262010D01*
D12*
X5969361Y-21663098D02*
G75*
G02*
X5869361Y-21663098I-50000J0D01*
G01*
X5869361Y-21663098D02*
G75*
G02*
X5969361Y-21663098I50000J0D01*
G01*
D10*
X6334899Y-21754582D02*
X6220614Y-21754582D01*
X6277756Y-21754582D02*
X6277756Y-21554582D01*
X6277756Y-21554582D02*
X6258709Y-21583153D01*
X6258709Y-21583153D02*
X6239661Y-21602201D01*
X6239661Y-21602201D02*
X6220614Y-21611724D01*
X6420614Y-21735534D02*
X6430137Y-21745058D01*
X6430137Y-21745058D02*
X6420614Y-21754582D01*
X6420614Y-21754582D02*
X6411090Y-21745058D01*
X6411090Y-21745058D02*
X6420614Y-21735534D01*
X6420614Y-21735534D02*
X6420614Y-21754582D01*
X6553947Y-21554582D02*
X6572995Y-21554582D01*
X6572995Y-21554582D02*
X6592042Y-21564105D01*
X6592042Y-21564105D02*
X6601566Y-21573629D01*
X6601566Y-21573629D02*
X6611090Y-21592677D01*
X6611090Y-21592677D02*
X6620614Y-21630772D01*
X6620614Y-21630772D02*
X6620614Y-21678391D01*
X6620614Y-21678391D02*
X6611090Y-21716486D01*
X6611090Y-21716486D02*
X6601566Y-21735534D01*
X6601566Y-21735534D02*
X6592042Y-21745058D01*
X6592042Y-21745058D02*
X6572995Y-21754582D01*
X6572995Y-21754582D02*
X6553947Y-21754582D01*
X6553947Y-21754582D02*
X6534899Y-21745058D01*
X6534899Y-21745058D02*
X6525376Y-21735534D01*
X6525376Y-21735534D02*
X6515852Y-21716486D01*
X6515852Y-21716486D02*
X6506328Y-21678391D01*
X6506328Y-21678391D02*
X6506328Y-21630772D01*
X6506328Y-21630772D02*
X6515852Y-21592677D01*
X6515852Y-21592677D02*
X6525376Y-21573629D01*
X6525376Y-21573629D02*
X6534899Y-21564105D01*
X6534899Y-21564105D02*
X6553947Y-21554582D01*
X6744423Y-21554582D02*
X6763471Y-21554582D01*
X6763471Y-21554582D02*
X6782518Y-21564105D01*
X6782518Y-21564105D02*
X6792042Y-21573629D01*
X6792042Y-21573629D02*
X6801566Y-21592677D01*
X6801566Y-21592677D02*
X6811090Y-21630772D01*
X6811090Y-21630772D02*
X6811090Y-21678391D01*
X6811090Y-21678391D02*
X6801566Y-21716486D01*
X6801566Y-21716486D02*
X6792042Y-21735534D01*
X6792042Y-21735534D02*
X6782518Y-21745058D01*
X6782518Y-21745058D02*
X6763471Y-21754582D01*
X6763471Y-21754582D02*
X6744423Y-21754582D01*
X6744423Y-21754582D02*
X6725376Y-21745058D01*
X6725376Y-21745058D02*
X6715852Y-21735534D01*
X6715852Y-21735534D02*
X6706328Y-21716486D01*
X6706328Y-21716486D02*
X6696804Y-21678391D01*
X6696804Y-21678391D02*
X6696804Y-21630772D01*
X6696804Y-21630772D02*
X6706328Y-21592677D01*
X6706328Y-21592677D02*
X6715852Y-21573629D01*
X6715852Y-21573629D02*
X6725376Y-21564105D01*
X6725376Y-21564105D02*
X6744423Y-21554582D01*
X6934899Y-21554582D02*
X6953947Y-21554582D01*
X6953947Y-21554582D02*
X6972995Y-21564105D01*
X6972995Y-21564105D02*
X6982518Y-21573629D01*
X6982518Y-21573629D02*
X6992042Y-21592677D01*
X6992042Y-21592677D02*
X7001566Y-21630772D01*
X7001566Y-21630772D02*
X7001566Y-21678391D01*
X7001566Y-21678391D02*
X6992042Y-21716486D01*
X6992042Y-21716486D02*
X6982518Y-21735534D01*
X6982518Y-21735534D02*
X6972995Y-21745058D01*
X6972995Y-21745058D02*
X6953947Y-21754582D01*
X6953947Y-21754582D02*
X6934899Y-21754582D01*
X6934899Y-21754582D02*
X6915852Y-21745058D01*
X6915852Y-21745058D02*
X6906328Y-21735534D01*
X6906328Y-21735534D02*
X6896804Y-21716486D01*
X6896804Y-21716486D02*
X6887280Y-21678391D01*
X6887280Y-21678391D02*
X6887280Y-21630772D01*
X6887280Y-21630772D02*
X6896804Y-21592677D01*
X6896804Y-21592677D02*
X6906328Y-21573629D01*
X6906328Y-21573629D02*
X6915852Y-21564105D01*
X6915852Y-21564105D02*
X6934899Y-21554582D01*
X7087280Y-21754582D02*
X7087280Y-21621248D01*
X7087280Y-21640296D02*
X7096804Y-21630772D01*
X7096804Y-21630772D02*
X7115852Y-21621248D01*
X7115852Y-21621248D02*
X7144423Y-21621248D01*
X7144423Y-21621248D02*
X7163471Y-21630772D01*
X7163471Y-21630772D02*
X7172995Y-21649820D01*
X7172995Y-21649820D02*
X7172995Y-21754582D01*
X7172995Y-21649820D02*
X7182518Y-21630772D01*
X7182518Y-21630772D02*
X7201566Y-21621248D01*
X7201566Y-21621248D02*
X7230137Y-21621248D01*
X7230137Y-21621248D02*
X7249185Y-21630772D01*
X7249185Y-21630772D02*
X7258709Y-21649820D01*
X7258709Y-21649820D02*
X7258709Y-21754582D01*
X7353947Y-21754582D02*
X7353947Y-21621248D01*
X7353947Y-21640296D02*
X7363471Y-21630772D01*
X7363471Y-21630772D02*
X7382518Y-21621248D01*
X7382518Y-21621248D02*
X7411090Y-21621248D01*
X7411090Y-21621248D02*
X7430138Y-21630772D01*
X7430138Y-21630772D02*
X7439661Y-21649820D01*
X7439661Y-21649820D02*
X7439661Y-21754582D01*
X7439661Y-21649820D02*
X7449185Y-21630772D01*
X7449185Y-21630772D02*
X7468233Y-21621248D01*
X7468233Y-21621248D02*
X7496804Y-21621248D01*
X7496804Y-21621248D02*
X7515852Y-21630772D01*
X7515852Y-21630772D02*
X7525376Y-21649820D01*
X7525376Y-21649820D02*
X7525376Y-21754582D01*
X7915852Y-21545058D02*
X7744423Y-21802201D01*
X8172995Y-21554582D02*
X8192042Y-21554582D01*
X8192042Y-21554582D02*
X8211090Y-21564105D01*
X8211090Y-21564105D02*
X8220614Y-21573629D01*
X8220614Y-21573629D02*
X8230138Y-21592677D01*
X8230138Y-21592677D02*
X8239661Y-21630772D01*
X8239661Y-21630772D02*
X8239661Y-21678391D01*
X8239661Y-21678391D02*
X8230138Y-21716486D01*
X8230138Y-21716486D02*
X8220614Y-21735534D01*
X8220614Y-21735534D02*
X8211090Y-21745058D01*
X8211090Y-21745058D02*
X8192042Y-21754582D01*
X8192042Y-21754582D02*
X8172995Y-21754582D01*
X8172995Y-21754582D02*
X8153947Y-21745058D01*
X8153947Y-21745058D02*
X8144423Y-21735534D01*
X8144423Y-21735534D02*
X8134900Y-21716486D01*
X8134900Y-21716486D02*
X8125376Y-21678391D01*
X8125376Y-21678391D02*
X8125376Y-21630772D01*
X8125376Y-21630772D02*
X8134900Y-21592677D01*
X8134900Y-21592677D02*
X8144423Y-21573629D01*
X8144423Y-21573629D02*
X8153947Y-21564105D01*
X8153947Y-21564105D02*
X8172995Y-21554582D01*
X8325376Y-21735534D02*
X8334900Y-21745058D01*
X8334900Y-21745058D02*
X8325376Y-21754582D01*
X8325376Y-21754582D02*
X8315852Y-21745058D01*
X8315852Y-21745058D02*
X8325376Y-21735534D01*
X8325376Y-21735534D02*
X8325376Y-21754582D01*
X8458709Y-21554582D02*
X8477757Y-21554582D01*
X8477757Y-21554582D02*
X8496804Y-21564105D01*
X8496804Y-21564105D02*
X8506328Y-21573629D01*
X8506328Y-21573629D02*
X8515852Y-21592677D01*
X8515852Y-21592677D02*
X8525376Y-21630772D01*
X8525376Y-21630772D02*
X8525376Y-21678391D01*
X8525376Y-21678391D02*
X8515852Y-21716486D01*
X8515852Y-21716486D02*
X8506328Y-21735534D01*
X8506328Y-21735534D02*
X8496804Y-21745058D01*
X8496804Y-21745058D02*
X8477757Y-21754582D01*
X8477757Y-21754582D02*
X8458709Y-21754582D01*
X8458709Y-21754582D02*
X8439662Y-21745058D01*
X8439662Y-21745058D02*
X8430138Y-21735534D01*
X8430138Y-21735534D02*
X8420614Y-21716486D01*
X8420614Y-21716486D02*
X8411090Y-21678391D01*
X8411090Y-21678391D02*
X8411090Y-21630772D01*
X8411090Y-21630772D02*
X8420614Y-21592677D01*
X8420614Y-21592677D02*
X8430138Y-21573629D01*
X8430138Y-21573629D02*
X8439662Y-21564105D01*
X8439662Y-21564105D02*
X8458709Y-21554582D01*
X8592043Y-21554582D02*
X8715852Y-21554582D01*
X8715852Y-21554582D02*
X8649185Y-21630772D01*
X8649185Y-21630772D02*
X8677757Y-21630772D01*
X8677757Y-21630772D02*
X8696804Y-21640296D01*
X8696804Y-21640296D02*
X8706328Y-21649820D01*
X8706328Y-21649820D02*
X8715852Y-21668867D01*
X8715852Y-21668867D02*
X8715852Y-21716486D01*
X8715852Y-21716486D02*
X8706328Y-21735534D01*
X8706328Y-21735534D02*
X8696804Y-21745058D01*
X8696804Y-21745058D02*
X8677757Y-21754582D01*
X8677757Y-21754582D02*
X8620614Y-21754582D01*
X8620614Y-21754582D02*
X8601566Y-21745058D01*
X8601566Y-21745058D02*
X8592043Y-21735534D01*
X8811090Y-21754582D02*
X8849185Y-21754582D01*
X8849185Y-21754582D02*
X8868233Y-21745058D01*
X8868233Y-21745058D02*
X8877757Y-21735534D01*
X8877757Y-21735534D02*
X8896804Y-21706963D01*
X8896804Y-21706963D02*
X8906328Y-21668867D01*
X8906328Y-21668867D02*
X8906328Y-21592677D01*
X8906328Y-21592677D02*
X8896804Y-21573629D01*
X8896804Y-21573629D02*
X8887281Y-21564105D01*
X8887281Y-21564105D02*
X8868233Y-21554582D01*
X8868233Y-21554582D02*
X8830138Y-21554582D01*
X8830138Y-21554582D02*
X8811090Y-21564105D01*
X8811090Y-21564105D02*
X8801566Y-21573629D01*
X8801566Y-21573629D02*
X8792043Y-21592677D01*
X8792043Y-21592677D02*
X8792043Y-21640296D01*
X8792043Y-21640296D02*
X8801566Y-21659344D01*
X8801566Y-21659344D02*
X8811090Y-21668867D01*
X8811090Y-21668867D02*
X8830138Y-21678391D01*
X8830138Y-21678391D02*
X8868233Y-21678391D01*
X8868233Y-21678391D02*
X8887281Y-21668867D01*
X8887281Y-21668867D02*
X8896804Y-21659344D01*
X8896804Y-21659344D02*
X8906328Y-21640296D01*
X9077757Y-21621248D02*
X9077757Y-21754582D01*
X9030138Y-21545058D02*
X8982519Y-21687915D01*
X8982519Y-21687915D02*
X9106328Y-21687915D01*
X9172995Y-21554582D02*
X9172995Y-21592677D01*
X9249185Y-21554582D02*
X9249185Y-21592677D01*
X9544424Y-21830772D02*
X9534900Y-21821248D01*
X9534900Y-21821248D02*
X9515852Y-21792677D01*
X9515852Y-21792677D02*
X9506328Y-21773629D01*
X9506328Y-21773629D02*
X9496805Y-21745058D01*
X9496805Y-21745058D02*
X9487281Y-21697439D01*
X9487281Y-21697439D02*
X9487281Y-21659344D01*
X9487281Y-21659344D02*
X9496805Y-21611724D01*
X9496805Y-21611724D02*
X9506328Y-21583153D01*
X9506328Y-21583153D02*
X9515852Y-21564105D01*
X9515852Y-21564105D02*
X9534900Y-21535534D01*
X9534900Y-21535534D02*
X9544424Y-21526010D01*
X9611090Y-21573629D02*
X9620614Y-21564105D01*
X9620614Y-21564105D02*
X9639662Y-21554582D01*
X9639662Y-21554582D02*
X9687281Y-21554582D01*
X9687281Y-21554582D02*
X9706328Y-21564105D01*
X9706328Y-21564105D02*
X9715852Y-21573629D01*
X9715852Y-21573629D02*
X9725376Y-21592677D01*
X9725376Y-21592677D02*
X9725376Y-21611724D01*
X9725376Y-21611724D02*
X9715852Y-21640296D01*
X9715852Y-21640296D02*
X9601566Y-21754582D01*
X9601566Y-21754582D02*
X9725376Y-21754582D01*
X9963471Y-21754582D02*
X9963471Y-21554582D01*
X10049186Y-21754582D02*
X10049186Y-21649820D01*
X10049186Y-21649820D02*
X10039662Y-21630772D01*
X10039662Y-21630772D02*
X10020614Y-21621248D01*
X10020614Y-21621248D02*
X9992043Y-21621248D01*
X9992043Y-21621248D02*
X9972995Y-21630772D01*
X9972995Y-21630772D02*
X9963471Y-21640296D01*
X10172995Y-21754582D02*
X10153947Y-21745058D01*
X10153947Y-21745058D02*
X10144424Y-21735534D01*
X10144424Y-21735534D02*
X10134900Y-21716486D01*
X10134900Y-21716486D02*
X10134900Y-21659344D01*
X10134900Y-21659344D02*
X10144424Y-21640296D01*
X10144424Y-21640296D02*
X10153947Y-21630772D01*
X10153947Y-21630772D02*
X10172995Y-21621248D01*
X10172995Y-21621248D02*
X10201567Y-21621248D01*
X10201567Y-21621248D02*
X10220614Y-21630772D01*
X10220614Y-21630772D02*
X10230138Y-21640296D01*
X10230138Y-21640296D02*
X10239662Y-21659344D01*
X10239662Y-21659344D02*
X10239662Y-21716486D01*
X10239662Y-21716486D02*
X10230138Y-21735534D01*
X10230138Y-21735534D02*
X10220614Y-21745058D01*
X10220614Y-21745058D02*
X10201567Y-21754582D01*
X10201567Y-21754582D02*
X10172995Y-21754582D01*
X10353947Y-21754582D02*
X10334900Y-21745058D01*
X10334900Y-21745058D02*
X10325376Y-21726010D01*
X10325376Y-21726010D02*
X10325376Y-21554582D01*
X10506328Y-21745058D02*
X10487281Y-21754582D01*
X10487281Y-21754582D02*
X10449186Y-21754582D01*
X10449186Y-21754582D02*
X10430138Y-21745058D01*
X10430138Y-21745058D02*
X10420614Y-21726010D01*
X10420614Y-21726010D02*
X10420614Y-21649820D01*
X10420614Y-21649820D02*
X10430138Y-21630772D01*
X10430138Y-21630772D02*
X10449186Y-21621248D01*
X10449186Y-21621248D02*
X10487281Y-21621248D01*
X10487281Y-21621248D02*
X10506328Y-21630772D01*
X10506328Y-21630772D02*
X10515852Y-21649820D01*
X10515852Y-21649820D02*
X10515852Y-21668867D01*
X10515852Y-21668867D02*
X10420614Y-21687915D01*
X10592043Y-21745058D02*
X10611090Y-21754582D01*
X10611090Y-21754582D02*
X10649186Y-21754582D01*
X10649186Y-21754582D02*
X10668233Y-21745058D01*
X10668233Y-21745058D02*
X10677757Y-21726010D01*
X10677757Y-21726010D02*
X10677757Y-21716486D01*
X10677757Y-21716486D02*
X10668233Y-21697439D01*
X10668233Y-21697439D02*
X10649186Y-21687915D01*
X10649186Y-21687915D02*
X10620614Y-21687915D01*
X10620614Y-21687915D02*
X10601567Y-21678391D01*
X10601567Y-21678391D02*
X10592043Y-21659344D01*
X10592043Y-21659344D02*
X10592043Y-21649820D01*
X10592043Y-21649820D02*
X10601567Y-21630772D01*
X10601567Y-21630772D02*
X10620614Y-21621248D01*
X10620614Y-21621248D02*
X10649186Y-21621248D01*
X10649186Y-21621248D02*
X10668233Y-21630772D01*
X10744424Y-21830772D02*
X10753948Y-21821248D01*
X10753948Y-21821248D02*
X10772995Y-21792677D01*
X10772995Y-21792677D02*
X10782519Y-21773629D01*
X10782519Y-21773629D02*
X10792043Y-21745058D01*
X10792043Y-21745058D02*
X10801567Y-21697439D01*
X10801567Y-21697439D02*
X10801567Y-21659344D01*
X10801567Y-21659344D02*
X10792043Y-21611724D01*
X10792043Y-21611724D02*
X10782519Y-21583153D01*
X10782519Y-21583153D02*
X10772995Y-21564105D01*
X10772995Y-21564105D02*
X10753948Y-21535534D01*
X10753948Y-21535534D02*
X10744424Y-21526010D01*
D13*
X5894361Y-21852098D02*
X5894361Y-22002098D01*
X5819361Y-21927098D02*
X5969361Y-21927098D01*
D10*
X6334899Y-22018582D02*
X6220614Y-22018582D01*
X6277756Y-22018582D02*
X6277756Y-21818582D01*
X6277756Y-21818582D02*
X6258709Y-21847153D01*
X6258709Y-21847153D02*
X6239661Y-21866201D01*
X6239661Y-21866201D02*
X6220614Y-21875724D01*
X6420614Y-21999534D02*
X6430137Y-22009058D01*
X6430137Y-22009058D02*
X6420614Y-22018582D01*
X6420614Y-22018582D02*
X6411090Y-22009058D01*
X6411090Y-22009058D02*
X6420614Y-21999534D01*
X6420614Y-21999534D02*
X6420614Y-22018582D01*
X6611090Y-21818582D02*
X6515852Y-21818582D01*
X6515852Y-21818582D02*
X6506328Y-21913820D01*
X6506328Y-21913820D02*
X6515852Y-21904296D01*
X6515852Y-21904296D02*
X6534899Y-21894772D01*
X6534899Y-21894772D02*
X6582518Y-21894772D01*
X6582518Y-21894772D02*
X6601566Y-21904296D01*
X6601566Y-21904296D02*
X6611090Y-21913820D01*
X6611090Y-21913820D02*
X6620614Y-21932867D01*
X6620614Y-21932867D02*
X6620614Y-21980486D01*
X6620614Y-21980486D02*
X6611090Y-21999534D01*
X6611090Y-21999534D02*
X6601566Y-22009058D01*
X6601566Y-22009058D02*
X6582518Y-22018582D01*
X6582518Y-22018582D02*
X6534899Y-22018582D01*
X6534899Y-22018582D02*
X6515852Y-22009058D01*
X6515852Y-22009058D02*
X6506328Y-21999534D01*
X6744423Y-21818582D02*
X6763471Y-21818582D01*
X6763471Y-21818582D02*
X6782518Y-21828105D01*
X6782518Y-21828105D02*
X6792042Y-21837629D01*
X6792042Y-21837629D02*
X6801566Y-21856677D01*
X6801566Y-21856677D02*
X6811090Y-21894772D01*
X6811090Y-21894772D02*
X6811090Y-21942391D01*
X6811090Y-21942391D02*
X6801566Y-21980486D01*
X6801566Y-21980486D02*
X6792042Y-21999534D01*
X6792042Y-21999534D02*
X6782518Y-22009058D01*
X6782518Y-22009058D02*
X6763471Y-22018582D01*
X6763471Y-22018582D02*
X6744423Y-22018582D01*
X6744423Y-22018582D02*
X6725376Y-22009058D01*
X6725376Y-22009058D02*
X6715852Y-21999534D01*
X6715852Y-21999534D02*
X6706328Y-21980486D01*
X6706328Y-21980486D02*
X6696804Y-21942391D01*
X6696804Y-21942391D02*
X6696804Y-21894772D01*
X6696804Y-21894772D02*
X6706328Y-21856677D01*
X6706328Y-21856677D02*
X6715852Y-21837629D01*
X6715852Y-21837629D02*
X6725376Y-21828105D01*
X6725376Y-21828105D02*
X6744423Y-21818582D01*
X6934899Y-21818582D02*
X6953947Y-21818582D01*
X6953947Y-21818582D02*
X6972995Y-21828105D01*
X6972995Y-21828105D02*
X6982518Y-21837629D01*
X6982518Y-21837629D02*
X6992042Y-21856677D01*
X6992042Y-21856677D02*
X7001566Y-21894772D01*
X7001566Y-21894772D02*
X7001566Y-21942391D01*
X7001566Y-21942391D02*
X6992042Y-21980486D01*
X6992042Y-21980486D02*
X6982518Y-21999534D01*
X6982518Y-21999534D02*
X6972995Y-22009058D01*
X6972995Y-22009058D02*
X6953947Y-22018582D01*
X6953947Y-22018582D02*
X6934899Y-22018582D01*
X6934899Y-22018582D02*
X6915852Y-22009058D01*
X6915852Y-22009058D02*
X6906328Y-21999534D01*
X6906328Y-21999534D02*
X6896804Y-21980486D01*
X6896804Y-21980486D02*
X6887280Y-21942391D01*
X6887280Y-21942391D02*
X6887280Y-21894772D01*
X6887280Y-21894772D02*
X6896804Y-21856677D01*
X6896804Y-21856677D02*
X6906328Y-21837629D01*
X6906328Y-21837629D02*
X6915852Y-21828105D01*
X6915852Y-21828105D02*
X6934899Y-21818582D01*
X7087280Y-22018582D02*
X7087280Y-21885248D01*
X7087280Y-21904296D02*
X7096804Y-21894772D01*
X7096804Y-21894772D02*
X7115852Y-21885248D01*
X7115852Y-21885248D02*
X7144423Y-21885248D01*
X7144423Y-21885248D02*
X7163471Y-21894772D01*
X7163471Y-21894772D02*
X7172995Y-21913820D01*
X7172995Y-21913820D02*
X7172995Y-22018582D01*
X7172995Y-21913820D02*
X7182518Y-21894772D01*
X7182518Y-21894772D02*
X7201566Y-21885248D01*
X7201566Y-21885248D02*
X7230137Y-21885248D01*
X7230137Y-21885248D02*
X7249185Y-21894772D01*
X7249185Y-21894772D02*
X7258709Y-21913820D01*
X7258709Y-21913820D02*
X7258709Y-22018582D01*
X7353947Y-22018582D02*
X7353947Y-21885248D01*
X7353947Y-21904296D02*
X7363471Y-21894772D01*
X7363471Y-21894772D02*
X7382518Y-21885248D01*
X7382518Y-21885248D02*
X7411090Y-21885248D01*
X7411090Y-21885248D02*
X7430138Y-21894772D01*
X7430138Y-21894772D02*
X7439661Y-21913820D01*
X7439661Y-21913820D02*
X7439661Y-22018582D01*
X7439661Y-21913820D02*
X7449185Y-21894772D01*
X7449185Y-21894772D02*
X7468233Y-21885248D01*
X7468233Y-21885248D02*
X7496804Y-21885248D01*
X7496804Y-21885248D02*
X7515852Y-21894772D01*
X7515852Y-21894772D02*
X7525376Y-21913820D01*
X7525376Y-21913820D02*
X7525376Y-22018582D01*
X7915852Y-21809058D02*
X7744423Y-22066201D01*
X8172995Y-21818582D02*
X8192042Y-21818582D01*
X8192042Y-21818582D02*
X8211090Y-21828105D01*
X8211090Y-21828105D02*
X8220614Y-21837629D01*
X8220614Y-21837629D02*
X8230138Y-21856677D01*
X8230138Y-21856677D02*
X8239661Y-21894772D01*
X8239661Y-21894772D02*
X8239661Y-21942391D01*
X8239661Y-21942391D02*
X8230138Y-21980486D01*
X8230138Y-21980486D02*
X8220614Y-21999534D01*
X8220614Y-21999534D02*
X8211090Y-22009058D01*
X8211090Y-22009058D02*
X8192042Y-22018582D01*
X8192042Y-22018582D02*
X8172995Y-22018582D01*
X8172995Y-22018582D02*
X8153947Y-22009058D01*
X8153947Y-22009058D02*
X8144423Y-21999534D01*
X8144423Y-21999534D02*
X8134900Y-21980486D01*
X8134900Y-21980486D02*
X8125376Y-21942391D01*
X8125376Y-21942391D02*
X8125376Y-21894772D01*
X8125376Y-21894772D02*
X8134900Y-21856677D01*
X8134900Y-21856677D02*
X8144423Y-21837629D01*
X8144423Y-21837629D02*
X8153947Y-21828105D01*
X8153947Y-21828105D02*
X8172995Y-21818582D01*
X8325376Y-21999534D02*
X8334900Y-22009058D01*
X8334900Y-22009058D02*
X8325376Y-22018582D01*
X8325376Y-22018582D02*
X8315852Y-22009058D01*
X8315852Y-22009058D02*
X8325376Y-21999534D01*
X8325376Y-21999534D02*
X8325376Y-22018582D01*
X8458709Y-21818582D02*
X8477757Y-21818582D01*
X8477757Y-21818582D02*
X8496804Y-21828105D01*
X8496804Y-21828105D02*
X8506328Y-21837629D01*
X8506328Y-21837629D02*
X8515852Y-21856677D01*
X8515852Y-21856677D02*
X8525376Y-21894772D01*
X8525376Y-21894772D02*
X8525376Y-21942391D01*
X8525376Y-21942391D02*
X8515852Y-21980486D01*
X8515852Y-21980486D02*
X8506328Y-21999534D01*
X8506328Y-21999534D02*
X8496804Y-22009058D01*
X8496804Y-22009058D02*
X8477757Y-22018582D01*
X8477757Y-22018582D02*
X8458709Y-22018582D01*
X8458709Y-22018582D02*
X8439662Y-22009058D01*
X8439662Y-22009058D02*
X8430138Y-21999534D01*
X8430138Y-21999534D02*
X8420614Y-21980486D01*
X8420614Y-21980486D02*
X8411090Y-21942391D01*
X8411090Y-21942391D02*
X8411090Y-21894772D01*
X8411090Y-21894772D02*
X8420614Y-21856677D01*
X8420614Y-21856677D02*
X8430138Y-21837629D01*
X8430138Y-21837629D02*
X8439662Y-21828105D01*
X8439662Y-21828105D02*
X8458709Y-21818582D01*
X8706328Y-21818582D02*
X8611090Y-21818582D01*
X8611090Y-21818582D02*
X8601566Y-21913820D01*
X8601566Y-21913820D02*
X8611090Y-21904296D01*
X8611090Y-21904296D02*
X8630138Y-21894772D01*
X8630138Y-21894772D02*
X8677757Y-21894772D01*
X8677757Y-21894772D02*
X8696804Y-21904296D01*
X8696804Y-21904296D02*
X8706328Y-21913820D01*
X8706328Y-21913820D02*
X8715852Y-21932867D01*
X8715852Y-21932867D02*
X8715852Y-21980486D01*
X8715852Y-21980486D02*
X8706328Y-21999534D01*
X8706328Y-21999534D02*
X8696804Y-22009058D01*
X8696804Y-22009058D02*
X8677757Y-22018582D01*
X8677757Y-22018582D02*
X8630138Y-22018582D01*
X8630138Y-22018582D02*
X8611090Y-22009058D01*
X8611090Y-22009058D02*
X8601566Y-21999534D01*
X8811090Y-22018582D02*
X8849185Y-22018582D01*
X8849185Y-22018582D02*
X8868233Y-22009058D01*
X8868233Y-22009058D02*
X8877757Y-21999534D01*
X8877757Y-21999534D02*
X8896804Y-21970963D01*
X8896804Y-21970963D02*
X8906328Y-21932867D01*
X8906328Y-21932867D02*
X8906328Y-21856677D01*
X8906328Y-21856677D02*
X8896804Y-21837629D01*
X8896804Y-21837629D02*
X8887281Y-21828105D01*
X8887281Y-21828105D02*
X8868233Y-21818582D01*
X8868233Y-21818582D02*
X8830138Y-21818582D01*
X8830138Y-21818582D02*
X8811090Y-21828105D01*
X8811090Y-21828105D02*
X8801566Y-21837629D01*
X8801566Y-21837629D02*
X8792043Y-21856677D01*
X8792043Y-21856677D02*
X8792043Y-21904296D01*
X8792043Y-21904296D02*
X8801566Y-21923344D01*
X8801566Y-21923344D02*
X8811090Y-21932867D01*
X8811090Y-21932867D02*
X8830138Y-21942391D01*
X8830138Y-21942391D02*
X8868233Y-21942391D01*
X8868233Y-21942391D02*
X8887281Y-21932867D01*
X8887281Y-21932867D02*
X8896804Y-21923344D01*
X8896804Y-21923344D02*
X8906328Y-21904296D01*
X9096804Y-22018582D02*
X8982519Y-22018582D01*
X9039662Y-22018582D02*
X9039662Y-21818582D01*
X9039662Y-21818582D02*
X9020614Y-21847153D01*
X9020614Y-21847153D02*
X9001566Y-21866201D01*
X9001566Y-21866201D02*
X8982519Y-21875724D01*
X9172995Y-21818582D02*
X9172995Y-21856677D01*
X9249185Y-21818582D02*
X9249185Y-21856677D01*
X9544424Y-22094772D02*
X9534900Y-22085248D01*
X9534900Y-22085248D02*
X9515852Y-22056677D01*
X9515852Y-22056677D02*
X9506328Y-22037629D01*
X9506328Y-22037629D02*
X9496805Y-22009058D01*
X9496805Y-22009058D02*
X9487281Y-21961439D01*
X9487281Y-21961439D02*
X9487281Y-21923344D01*
X9487281Y-21923344D02*
X9496805Y-21875724D01*
X9496805Y-21875724D02*
X9506328Y-21847153D01*
X9506328Y-21847153D02*
X9515852Y-21828105D01*
X9515852Y-21828105D02*
X9534900Y-21799534D01*
X9534900Y-21799534D02*
X9544424Y-21790010D01*
X9611090Y-21837629D02*
X9620614Y-21828105D01*
X9620614Y-21828105D02*
X9639662Y-21818582D01*
X9639662Y-21818582D02*
X9687281Y-21818582D01*
X9687281Y-21818582D02*
X9706328Y-21828105D01*
X9706328Y-21828105D02*
X9715852Y-21837629D01*
X9715852Y-21837629D02*
X9725376Y-21856677D01*
X9725376Y-21856677D02*
X9725376Y-21875724D01*
X9725376Y-21875724D02*
X9715852Y-21904296D01*
X9715852Y-21904296D02*
X9601566Y-22018582D01*
X9601566Y-22018582D02*
X9725376Y-22018582D01*
X9896805Y-21885248D02*
X9896805Y-22018582D01*
X9849185Y-21809058D02*
X9801566Y-21951915D01*
X9801566Y-21951915D02*
X9925376Y-21951915D01*
X10153947Y-22018582D02*
X10153947Y-21818582D01*
X10239662Y-22018582D02*
X10239662Y-21913820D01*
X10239662Y-21913820D02*
X10230138Y-21894772D01*
X10230138Y-21894772D02*
X10211090Y-21885248D01*
X10211090Y-21885248D02*
X10182519Y-21885248D01*
X10182519Y-21885248D02*
X10163471Y-21894772D01*
X10163471Y-21894772D02*
X10153947Y-21904296D01*
X10363471Y-22018582D02*
X10344424Y-22009058D01*
X10344424Y-22009058D02*
X10334900Y-21999534D01*
X10334900Y-21999534D02*
X10325376Y-21980486D01*
X10325376Y-21980486D02*
X10325376Y-21923344D01*
X10325376Y-21923344D02*
X10334900Y-21904296D01*
X10334900Y-21904296D02*
X10344424Y-21894772D01*
X10344424Y-21894772D02*
X10363471Y-21885248D01*
X10363471Y-21885248D02*
X10392043Y-21885248D01*
X10392043Y-21885248D02*
X10411090Y-21894772D01*
X10411090Y-21894772D02*
X10420614Y-21904296D01*
X10420614Y-21904296D02*
X10430138Y-21923344D01*
X10430138Y-21923344D02*
X10430138Y-21980486D01*
X10430138Y-21980486D02*
X10420614Y-21999534D01*
X10420614Y-21999534D02*
X10411090Y-22009058D01*
X10411090Y-22009058D02*
X10392043Y-22018582D01*
X10392043Y-22018582D02*
X10363471Y-22018582D01*
X10544424Y-22018582D02*
X10525376Y-22009058D01*
X10525376Y-22009058D02*
X10515852Y-21990010D01*
X10515852Y-21990010D02*
X10515852Y-21818582D01*
X10696805Y-22009058D02*
X10677757Y-22018582D01*
X10677757Y-22018582D02*
X10639662Y-22018582D01*
X10639662Y-22018582D02*
X10620614Y-22009058D01*
X10620614Y-22009058D02*
X10611090Y-21990010D01*
X10611090Y-21990010D02*
X10611090Y-21913820D01*
X10611090Y-21913820D02*
X10620614Y-21894772D01*
X10620614Y-21894772D02*
X10639662Y-21885248D01*
X10639662Y-21885248D02*
X10677757Y-21885248D01*
X10677757Y-21885248D02*
X10696805Y-21894772D01*
X10696805Y-21894772D02*
X10706328Y-21913820D01*
X10706328Y-21913820D02*
X10706328Y-21932867D01*
X10706328Y-21932867D02*
X10611090Y-21951915D01*
X10782519Y-22009058D02*
X10801567Y-22018582D01*
X10801567Y-22018582D02*
X10839662Y-22018582D01*
X10839662Y-22018582D02*
X10858709Y-22009058D01*
X10858709Y-22009058D02*
X10868233Y-21990010D01*
X10868233Y-21990010D02*
X10868233Y-21980486D01*
X10868233Y-21980486D02*
X10858709Y-21961439D01*
X10858709Y-21961439D02*
X10839662Y-21951915D01*
X10839662Y-21951915D02*
X10811090Y-21951915D01*
X10811090Y-21951915D02*
X10792043Y-21942391D01*
X10792043Y-21942391D02*
X10782519Y-21923344D01*
X10782519Y-21923344D02*
X10782519Y-21913820D01*
X10782519Y-21913820D02*
X10792043Y-21894772D01*
X10792043Y-21894772D02*
X10811090Y-21885248D01*
X10811090Y-21885248D02*
X10839662Y-21885248D01*
X10839662Y-21885248D02*
X10858709Y-21894772D01*
X10934900Y-22094772D02*
X10944424Y-22085248D01*
X10944424Y-22085248D02*
X10963471Y-22056677D01*
X10963471Y-22056677D02*
X10972995Y-22037629D01*
X10972995Y-22037629D02*
X10982519Y-22009058D01*
X10982519Y-22009058D02*
X10992043Y-21961439D01*
X10992043Y-21961439D02*
X10992043Y-21923344D01*
X10992043Y-21923344D02*
X10982519Y-21875724D01*
X10982519Y-21875724D02*
X10972995Y-21847153D01*
X10972995Y-21847153D02*
X10963471Y-21828105D01*
X10963471Y-21828105D02*
X10944424Y-21799534D01*
X10944424Y-21799534D02*
X10934900Y-21790010D01*
X5940072Y-22267809D02*
X5940072Y-22126386D01*
X5798649Y-22126386D01*
X5798649Y-22267809D01*
X5940072Y-22267809D01*
X6220614Y-22107629D02*
X6230137Y-22098105D01*
X6230137Y-22098105D02*
X6249185Y-22088582D01*
X6249185Y-22088582D02*
X6296804Y-22088582D01*
X6296804Y-22088582D02*
X6315852Y-22098105D01*
X6315852Y-22098105D02*
X6325376Y-22107629D01*
X6325376Y-22107629D02*
X6334899Y-22126677D01*
X6334899Y-22126677D02*
X6334899Y-22145724D01*
X6334899Y-22145724D02*
X6325376Y-22174296D01*
X6325376Y-22174296D02*
X6211090Y-22288582D01*
X6211090Y-22288582D02*
X6334899Y-22288582D01*
X6420614Y-22269534D02*
X6430137Y-22279058D01*
X6430137Y-22279058D02*
X6420614Y-22288582D01*
X6420614Y-22288582D02*
X6411090Y-22279058D01*
X6411090Y-22279058D02*
X6420614Y-22269534D01*
X6420614Y-22269534D02*
X6420614Y-22288582D01*
X6506328Y-22107629D02*
X6515852Y-22098105D01*
X6515852Y-22098105D02*
X6534899Y-22088582D01*
X6534899Y-22088582D02*
X6582518Y-22088582D01*
X6582518Y-22088582D02*
X6601566Y-22098105D01*
X6601566Y-22098105D02*
X6611090Y-22107629D01*
X6611090Y-22107629D02*
X6620614Y-22126677D01*
X6620614Y-22126677D02*
X6620614Y-22145724D01*
X6620614Y-22145724D02*
X6611090Y-22174296D01*
X6611090Y-22174296D02*
X6496804Y-22288582D01*
X6496804Y-22288582D02*
X6620614Y-22288582D01*
X6744423Y-22088582D02*
X6763471Y-22088582D01*
X6763471Y-22088582D02*
X6782518Y-22098105D01*
X6782518Y-22098105D02*
X6792042Y-22107629D01*
X6792042Y-22107629D02*
X6801566Y-22126677D01*
X6801566Y-22126677D02*
X6811090Y-22164772D01*
X6811090Y-22164772D02*
X6811090Y-22212391D01*
X6811090Y-22212391D02*
X6801566Y-22250486D01*
X6801566Y-22250486D02*
X6792042Y-22269534D01*
X6792042Y-22269534D02*
X6782518Y-22279058D01*
X6782518Y-22279058D02*
X6763471Y-22288582D01*
X6763471Y-22288582D02*
X6744423Y-22288582D01*
X6744423Y-22288582D02*
X6725376Y-22279058D01*
X6725376Y-22279058D02*
X6715852Y-22269534D01*
X6715852Y-22269534D02*
X6706328Y-22250486D01*
X6706328Y-22250486D02*
X6696804Y-22212391D01*
X6696804Y-22212391D02*
X6696804Y-22164772D01*
X6696804Y-22164772D02*
X6706328Y-22126677D01*
X6706328Y-22126677D02*
X6715852Y-22107629D01*
X6715852Y-22107629D02*
X6725376Y-22098105D01*
X6725376Y-22098105D02*
X6744423Y-22088582D01*
X6934899Y-22088582D02*
X6953947Y-22088582D01*
X6953947Y-22088582D02*
X6972995Y-22098105D01*
X6972995Y-22098105D02*
X6982518Y-22107629D01*
X6982518Y-22107629D02*
X6992042Y-22126677D01*
X6992042Y-22126677D02*
X7001566Y-22164772D01*
X7001566Y-22164772D02*
X7001566Y-22212391D01*
X7001566Y-22212391D02*
X6992042Y-22250486D01*
X6992042Y-22250486D02*
X6982518Y-22269534D01*
X6982518Y-22269534D02*
X6972995Y-22279058D01*
X6972995Y-22279058D02*
X6953947Y-22288582D01*
X6953947Y-22288582D02*
X6934899Y-22288582D01*
X6934899Y-22288582D02*
X6915852Y-22279058D01*
X6915852Y-22279058D02*
X6906328Y-22269534D01*
X6906328Y-22269534D02*
X6896804Y-22250486D01*
X6896804Y-22250486D02*
X6887280Y-22212391D01*
X6887280Y-22212391D02*
X6887280Y-22164772D01*
X6887280Y-22164772D02*
X6896804Y-22126677D01*
X6896804Y-22126677D02*
X6906328Y-22107629D01*
X6906328Y-22107629D02*
X6915852Y-22098105D01*
X6915852Y-22098105D02*
X6934899Y-22088582D01*
X7087280Y-22288582D02*
X7087280Y-22155248D01*
X7087280Y-22174296D02*
X7096804Y-22164772D01*
X7096804Y-22164772D02*
X7115852Y-22155248D01*
X7115852Y-22155248D02*
X7144423Y-22155248D01*
X7144423Y-22155248D02*
X7163471Y-22164772D01*
X7163471Y-22164772D02*
X7172995Y-22183820D01*
X7172995Y-22183820D02*
X7172995Y-22288582D01*
X7172995Y-22183820D02*
X7182518Y-22164772D01*
X7182518Y-22164772D02*
X7201566Y-22155248D01*
X7201566Y-22155248D02*
X7230137Y-22155248D01*
X7230137Y-22155248D02*
X7249185Y-22164772D01*
X7249185Y-22164772D02*
X7258709Y-22183820D01*
X7258709Y-22183820D02*
X7258709Y-22288582D01*
X7353947Y-22288582D02*
X7353947Y-22155248D01*
X7353947Y-22174296D02*
X7363471Y-22164772D01*
X7363471Y-22164772D02*
X7382518Y-22155248D01*
X7382518Y-22155248D02*
X7411090Y-22155248D01*
X7411090Y-22155248D02*
X7430138Y-22164772D01*
X7430138Y-22164772D02*
X7439661Y-22183820D01*
X7439661Y-22183820D02*
X7439661Y-22288582D01*
X7439661Y-22183820D02*
X7449185Y-22164772D01*
X7449185Y-22164772D02*
X7468233Y-22155248D01*
X7468233Y-22155248D02*
X7496804Y-22155248D01*
X7496804Y-22155248D02*
X7515852Y-22164772D01*
X7515852Y-22164772D02*
X7525376Y-22183820D01*
X7525376Y-22183820D02*
X7525376Y-22288582D01*
X7915852Y-22079058D02*
X7744423Y-22336201D01*
X8172995Y-22088582D02*
X8192042Y-22088582D01*
X8192042Y-22088582D02*
X8211090Y-22098105D01*
X8211090Y-22098105D02*
X8220614Y-22107629D01*
X8220614Y-22107629D02*
X8230138Y-22126677D01*
X8230138Y-22126677D02*
X8239661Y-22164772D01*
X8239661Y-22164772D02*
X8239661Y-22212391D01*
X8239661Y-22212391D02*
X8230138Y-22250486D01*
X8230138Y-22250486D02*
X8220614Y-22269534D01*
X8220614Y-22269534D02*
X8211090Y-22279058D01*
X8211090Y-22279058D02*
X8192042Y-22288582D01*
X8192042Y-22288582D02*
X8172995Y-22288582D01*
X8172995Y-22288582D02*
X8153947Y-22279058D01*
X8153947Y-22279058D02*
X8144423Y-22269534D01*
X8144423Y-22269534D02*
X8134900Y-22250486D01*
X8134900Y-22250486D02*
X8125376Y-22212391D01*
X8125376Y-22212391D02*
X8125376Y-22164772D01*
X8125376Y-22164772D02*
X8134900Y-22126677D01*
X8134900Y-22126677D02*
X8144423Y-22107629D01*
X8144423Y-22107629D02*
X8153947Y-22098105D01*
X8153947Y-22098105D02*
X8172995Y-22088582D01*
X8325376Y-22269534D02*
X8334900Y-22279058D01*
X8334900Y-22279058D02*
X8325376Y-22288582D01*
X8325376Y-22288582D02*
X8315852Y-22279058D01*
X8315852Y-22279058D02*
X8325376Y-22269534D01*
X8325376Y-22269534D02*
X8325376Y-22288582D01*
X8458709Y-22088582D02*
X8477757Y-22088582D01*
X8477757Y-22088582D02*
X8496804Y-22098105D01*
X8496804Y-22098105D02*
X8506328Y-22107629D01*
X8506328Y-22107629D02*
X8515852Y-22126677D01*
X8515852Y-22126677D02*
X8525376Y-22164772D01*
X8525376Y-22164772D02*
X8525376Y-22212391D01*
X8525376Y-22212391D02*
X8515852Y-22250486D01*
X8515852Y-22250486D02*
X8506328Y-22269534D01*
X8506328Y-22269534D02*
X8496804Y-22279058D01*
X8496804Y-22279058D02*
X8477757Y-22288582D01*
X8477757Y-22288582D02*
X8458709Y-22288582D01*
X8458709Y-22288582D02*
X8439662Y-22279058D01*
X8439662Y-22279058D02*
X8430138Y-22269534D01*
X8430138Y-22269534D02*
X8420614Y-22250486D01*
X8420614Y-22250486D02*
X8411090Y-22212391D01*
X8411090Y-22212391D02*
X8411090Y-22164772D01*
X8411090Y-22164772D02*
X8420614Y-22126677D01*
X8420614Y-22126677D02*
X8430138Y-22107629D01*
X8430138Y-22107629D02*
X8439662Y-22098105D01*
X8439662Y-22098105D02*
X8458709Y-22088582D01*
X8639662Y-22174296D02*
X8620614Y-22164772D01*
X8620614Y-22164772D02*
X8611090Y-22155248D01*
X8611090Y-22155248D02*
X8601566Y-22136201D01*
X8601566Y-22136201D02*
X8601566Y-22126677D01*
X8601566Y-22126677D02*
X8611090Y-22107629D01*
X8611090Y-22107629D02*
X8620614Y-22098105D01*
X8620614Y-22098105D02*
X8639662Y-22088582D01*
X8639662Y-22088582D02*
X8677757Y-22088582D01*
X8677757Y-22088582D02*
X8696804Y-22098105D01*
X8696804Y-22098105D02*
X8706328Y-22107629D01*
X8706328Y-22107629D02*
X8715852Y-22126677D01*
X8715852Y-22126677D02*
X8715852Y-22136201D01*
X8715852Y-22136201D02*
X8706328Y-22155248D01*
X8706328Y-22155248D02*
X8696804Y-22164772D01*
X8696804Y-22164772D02*
X8677757Y-22174296D01*
X8677757Y-22174296D02*
X8639662Y-22174296D01*
X8639662Y-22174296D02*
X8620614Y-22183820D01*
X8620614Y-22183820D02*
X8611090Y-22193344D01*
X8611090Y-22193344D02*
X8601566Y-22212391D01*
X8601566Y-22212391D02*
X8601566Y-22250486D01*
X8601566Y-22250486D02*
X8611090Y-22269534D01*
X8611090Y-22269534D02*
X8620614Y-22279058D01*
X8620614Y-22279058D02*
X8639662Y-22288582D01*
X8639662Y-22288582D02*
X8677757Y-22288582D01*
X8677757Y-22288582D02*
X8696804Y-22279058D01*
X8696804Y-22279058D02*
X8706328Y-22269534D01*
X8706328Y-22269534D02*
X8715852Y-22250486D01*
X8715852Y-22250486D02*
X8715852Y-22212391D01*
X8715852Y-22212391D02*
X8706328Y-22193344D01*
X8706328Y-22193344D02*
X8696804Y-22183820D01*
X8696804Y-22183820D02*
X8677757Y-22174296D01*
X8887281Y-22088582D02*
X8849185Y-22088582D01*
X8849185Y-22088582D02*
X8830138Y-22098105D01*
X8830138Y-22098105D02*
X8820614Y-22107629D01*
X8820614Y-22107629D02*
X8801566Y-22136201D01*
X8801566Y-22136201D02*
X8792043Y-22174296D01*
X8792043Y-22174296D02*
X8792043Y-22250486D01*
X8792043Y-22250486D02*
X8801566Y-22269534D01*
X8801566Y-22269534D02*
X8811090Y-22279058D01*
X8811090Y-22279058D02*
X8830138Y-22288582D01*
X8830138Y-22288582D02*
X8868233Y-22288582D01*
X8868233Y-22288582D02*
X8887281Y-22279058D01*
X8887281Y-22279058D02*
X8896804Y-22269534D01*
X8896804Y-22269534D02*
X8906328Y-22250486D01*
X8906328Y-22250486D02*
X8906328Y-22202867D01*
X8906328Y-22202867D02*
X8896804Y-22183820D01*
X8896804Y-22183820D02*
X8887281Y-22174296D01*
X8887281Y-22174296D02*
X8868233Y-22164772D01*
X8868233Y-22164772D02*
X8830138Y-22164772D01*
X8830138Y-22164772D02*
X8811090Y-22174296D01*
X8811090Y-22174296D02*
X8801566Y-22183820D01*
X8801566Y-22183820D02*
X8792043Y-22202867D01*
X9077757Y-22088582D02*
X9039662Y-22088582D01*
X9039662Y-22088582D02*
X9020614Y-22098105D01*
X9020614Y-22098105D02*
X9011090Y-22107629D01*
X9011090Y-22107629D02*
X8992043Y-22136201D01*
X8992043Y-22136201D02*
X8982519Y-22174296D01*
X8982519Y-22174296D02*
X8982519Y-22250486D01*
X8982519Y-22250486D02*
X8992043Y-22269534D01*
X8992043Y-22269534D02*
X9001566Y-22279058D01*
X9001566Y-22279058D02*
X9020614Y-22288582D01*
X9020614Y-22288582D02*
X9058709Y-22288582D01*
X9058709Y-22288582D02*
X9077757Y-22279058D01*
X9077757Y-22279058D02*
X9087281Y-22269534D01*
X9087281Y-22269534D02*
X9096804Y-22250486D01*
X9096804Y-22250486D02*
X9096804Y-22202867D01*
X9096804Y-22202867D02*
X9087281Y-22183820D01*
X9087281Y-22183820D02*
X9077757Y-22174296D01*
X9077757Y-22174296D02*
X9058709Y-22164772D01*
X9058709Y-22164772D02*
X9020614Y-22164772D01*
X9020614Y-22164772D02*
X9001566Y-22174296D01*
X9001566Y-22174296D02*
X8992043Y-22183820D01*
X8992043Y-22183820D02*
X8982519Y-22202867D01*
X9172995Y-22088582D02*
X9172995Y-22126677D01*
X9249185Y-22088582D02*
X9249185Y-22126677D01*
X9544424Y-22364772D02*
X9534900Y-22355248D01*
X9534900Y-22355248D02*
X9515852Y-22326677D01*
X9515852Y-22326677D02*
X9506328Y-22307629D01*
X9506328Y-22307629D02*
X9496805Y-22279058D01*
X9496805Y-22279058D02*
X9487281Y-22231439D01*
X9487281Y-22231439D02*
X9487281Y-22193344D01*
X9487281Y-22193344D02*
X9496805Y-22145724D01*
X9496805Y-22145724D02*
X9506328Y-22117153D01*
X9506328Y-22117153D02*
X9515852Y-22098105D01*
X9515852Y-22098105D02*
X9534900Y-22069534D01*
X9534900Y-22069534D02*
X9544424Y-22060010D01*
X9706328Y-22088582D02*
X9668233Y-22088582D01*
X9668233Y-22088582D02*
X9649185Y-22098105D01*
X9649185Y-22098105D02*
X9639662Y-22107629D01*
X9639662Y-22107629D02*
X9620614Y-22136201D01*
X9620614Y-22136201D02*
X9611090Y-22174296D01*
X9611090Y-22174296D02*
X9611090Y-22250486D01*
X9611090Y-22250486D02*
X9620614Y-22269534D01*
X9620614Y-22269534D02*
X9630138Y-22279058D01*
X9630138Y-22279058D02*
X9649185Y-22288582D01*
X9649185Y-22288582D02*
X9687281Y-22288582D01*
X9687281Y-22288582D02*
X9706328Y-22279058D01*
X9706328Y-22279058D02*
X9715852Y-22269534D01*
X9715852Y-22269534D02*
X9725376Y-22250486D01*
X9725376Y-22250486D02*
X9725376Y-22202867D01*
X9725376Y-22202867D02*
X9715852Y-22183820D01*
X9715852Y-22183820D02*
X9706328Y-22174296D01*
X9706328Y-22174296D02*
X9687281Y-22164772D01*
X9687281Y-22164772D02*
X9649185Y-22164772D01*
X9649185Y-22164772D02*
X9630138Y-22174296D01*
X9630138Y-22174296D02*
X9620614Y-22183820D01*
X9620614Y-22183820D02*
X9611090Y-22202867D01*
X9963471Y-22288582D02*
X9963471Y-22088582D01*
X10049186Y-22288582D02*
X10049186Y-22183820D01*
X10049186Y-22183820D02*
X10039662Y-22164772D01*
X10039662Y-22164772D02*
X10020614Y-22155248D01*
X10020614Y-22155248D02*
X9992043Y-22155248D01*
X9992043Y-22155248D02*
X9972995Y-22164772D01*
X9972995Y-22164772D02*
X9963471Y-22174296D01*
X10172995Y-22288582D02*
X10153947Y-22279058D01*
X10153947Y-22279058D02*
X10144424Y-22269534D01*
X10144424Y-22269534D02*
X10134900Y-22250486D01*
X10134900Y-22250486D02*
X10134900Y-22193344D01*
X10134900Y-22193344D02*
X10144424Y-22174296D01*
X10144424Y-22174296D02*
X10153947Y-22164772D01*
X10153947Y-22164772D02*
X10172995Y-22155248D01*
X10172995Y-22155248D02*
X10201567Y-22155248D01*
X10201567Y-22155248D02*
X10220614Y-22164772D01*
X10220614Y-22164772D02*
X10230138Y-22174296D01*
X10230138Y-22174296D02*
X10239662Y-22193344D01*
X10239662Y-22193344D02*
X10239662Y-22250486D01*
X10239662Y-22250486D02*
X10230138Y-22269534D01*
X10230138Y-22269534D02*
X10220614Y-22279058D01*
X10220614Y-22279058D02*
X10201567Y-22288582D01*
X10201567Y-22288582D02*
X10172995Y-22288582D01*
X10353947Y-22288582D02*
X10334900Y-22279058D01*
X10334900Y-22279058D02*
X10325376Y-22260010D01*
X10325376Y-22260010D02*
X10325376Y-22088582D01*
X10506328Y-22279058D02*
X10487281Y-22288582D01*
X10487281Y-22288582D02*
X10449186Y-22288582D01*
X10449186Y-22288582D02*
X10430138Y-22279058D01*
X10430138Y-22279058D02*
X10420614Y-22260010D01*
X10420614Y-22260010D02*
X10420614Y-22183820D01*
X10420614Y-22183820D02*
X10430138Y-22164772D01*
X10430138Y-22164772D02*
X10449186Y-22155248D01*
X10449186Y-22155248D02*
X10487281Y-22155248D01*
X10487281Y-22155248D02*
X10506328Y-22164772D01*
X10506328Y-22164772D02*
X10515852Y-22183820D01*
X10515852Y-22183820D02*
X10515852Y-22202867D01*
X10515852Y-22202867D02*
X10420614Y-22221915D01*
X10592043Y-22279058D02*
X10611090Y-22288582D01*
X10611090Y-22288582D02*
X10649186Y-22288582D01*
X10649186Y-22288582D02*
X10668233Y-22279058D01*
X10668233Y-22279058D02*
X10677757Y-22260010D01*
X10677757Y-22260010D02*
X10677757Y-22250486D01*
X10677757Y-22250486D02*
X10668233Y-22231439D01*
X10668233Y-22231439D02*
X10649186Y-22221915D01*
X10649186Y-22221915D02*
X10620614Y-22221915D01*
X10620614Y-22221915D02*
X10601567Y-22212391D01*
X10601567Y-22212391D02*
X10592043Y-22193344D01*
X10592043Y-22193344D02*
X10592043Y-22183820D01*
X10592043Y-22183820D02*
X10601567Y-22164772D01*
X10601567Y-22164772D02*
X10620614Y-22155248D01*
X10620614Y-22155248D02*
X10649186Y-22155248D01*
X10649186Y-22155248D02*
X10668233Y-22164772D01*
X10744424Y-22364772D02*
X10753948Y-22355248D01*
X10753948Y-22355248D02*
X10772995Y-22326677D01*
X10772995Y-22326677D02*
X10782519Y-22307629D01*
X10782519Y-22307629D02*
X10792043Y-22279058D01*
X10792043Y-22279058D02*
X10801567Y-22231439D01*
X10801567Y-22231439D02*
X10801567Y-22193344D01*
X10801567Y-22193344D02*
X10792043Y-22145724D01*
X10792043Y-22145724D02*
X10782519Y-22117153D01*
X10782519Y-22117153D02*
X10772995Y-22098105D01*
X10772995Y-22098105D02*
X10753948Y-22069534D01*
X10753948Y-22069534D02*
X10744424Y-22060010D01*
M02*
