M48
; DRILL file {KiCad 9.0.4} date 2025-08-24T22:07:00+0300
; FORMAT={-:-/ absolute / metric / decimal}
; #@! TF.CreationDate,2025-08-24T22:07:00+03:00
; #@! TF.GenerationSoftware,Kicad,Pcbnew,9.0.4
; #@! TF.FileFunction,NonPlated,1,2,NPTH
FMAT,2
METRIC
; #@! TA.AperFunction,NonPlated,NPTH,ComponentDrill
T1C0.700
; #@! TA.AperFunction,NonPlated,NPTH,ComponentDrill
T2C1.702
; #@! TA.AperFunction,NonPlated,NPTH,ComponentDrill
T3C3.000
; #@! TA.AperFunction,NonPlated,NPTH,ComponentDrill
T4C3.988
%
G90
G05
T1
X218.896Y-93.365
X221.896Y-93.365
T2
X72.859Y-147.691
X77.776Y-129.338
X82.673Y-150.32
X82.694Y-110.986
X87.59Y-131.968
X92.508Y-113.615
X93.083Y-145.625
X98.0Y-127.272
X102.897Y-148.254
X102.918Y-108.919
X107.814Y-129.902
X112.732Y-111.549
X113.257Y-143.742
X118.175Y-125.389
X123.071Y-146.372
X123.093Y-107.037
X127.989Y-128.019
X132.842Y-144.062
X132.906Y-109.666
X137.76Y-125.709
X142.656Y-146.691
X142.677Y-107.357
X143.862Y-176.344
X147.573Y-128.339
X149.963Y-153.577
X152.491Y-109.986
X153.676Y-178.974
X154.88Y-135.225
X159.776Y-156.207
X159.798Y-116.872
X161.576Y-183.647
X164.694Y-137.854
X166.493Y-165.295
X169.612Y-119.502
X171.389Y-186.277
X171.411Y-146.942
X176.307Y-167.924
X176.328Y-128.59
X179.289Y-190.951
X181.224Y-149.572
X186.142Y-131.219
X189.103Y-193.58
X217.289Y-193.58
X220.249Y-131.219
X225.157Y-149.562
X227.103Y-190.951
X230.063Y-128.59
X230.085Y-167.924
X234.971Y-146.932
X234.992Y-186.287
X236.78Y-119.502
X239.898Y-165.295
X241.678Y-137.854
X244.806Y-183.657
X246.594Y-116.872
X246.595Y-156.207
X251.491Y-135.225
X252.695Y-178.974
X253.901Y-109.986
X256.409Y-153.577
X258.808Y-128.329
X262.509Y-176.344
X263.714Y-107.357
X263.716Y-146.691
X268.622Y-125.699
X273.475Y-109.656
X273.529Y-144.062
X278.383Y-128.019
X283.289Y-107.027
X283.3Y-146.372
X288.197Y-125.389
X293.114Y-143.742
X293.66Y-111.549
X298.567Y-129.902
X303.474Y-108.919
X303.485Y-148.244
X308.381Y-127.272
X313.299Y-145.615
X313.874Y-113.605
X318.801Y-131.968
X323.687Y-110.975
X323.699Y-150.32
X328.615Y-129.338
X333.513Y-147.691
T3
X74.743Y-145.566
X79.661Y-127.213
X81.534Y-144.756
X84.578Y-108.861
X86.452Y-126.403
X91.369Y-108.051
X94.967Y-143.5
X99.884Y-125.147
X101.758Y-142.69
X104.802Y-106.795
X106.675Y-124.337
X111.593Y-105.985
X115.142Y-141.617
X120.059Y-123.265
X121.933Y-140.807
X124.977Y-104.912
X126.85Y-122.455
X131.768Y-104.102
X134.726Y-141.937
X139.644Y-123.584
X141.517Y-141.127
X144.561Y-105.232
X145.746Y-174.219
X146.435Y-122.775
X151.352Y-104.422
X151.847Y-151.452
X152.537Y-173.409
X156.764Y-133.1
X158.638Y-150.642
X161.682Y-114.747
X163.46Y-181.523
X163.555Y-132.29
X168.377Y-163.17
X168.473Y-113.937
X170.251Y-180.713
X173.295Y-144.818
X175.168Y-162.36
X178.212Y-126.465
X180.086Y-144.008
X181.173Y-188.826
X185.003Y-125.655
X187.964Y-188.016
X217.858Y-190.798
X220.819Y-128.437
X223.334Y-186.701
X225.726Y-146.78
X226.295Y-124.34
X230.654Y-165.142
X231.203Y-142.683
X235.561Y-183.505
X236.13Y-161.045
X237.349Y-116.719
X241.038Y-179.408
X242.247Y-135.072
X242.826Y-112.622
X247.164Y-153.425
X247.723Y-130.975
X252.641Y-149.328
X253.265Y-176.191
X254.47Y-107.204
X258.741Y-172.095
X259.377Y-125.547
X259.946Y-103.107
X264.285Y-143.909
X264.854Y-121.45
X269.761Y-139.812
X274.044Y-106.874
X278.952Y-125.237
X279.521Y-102.777
X283.87Y-143.589
X284.428Y-121.14
X289.346Y-139.493
X294.229Y-108.767
X299.137Y-127.119
X299.705Y-104.67
X304.054Y-145.462
X304.613Y-123.023
X309.53Y-141.365
X314.443Y-110.823
X319.371Y-129.186
X319.919Y-106.726
X324.268Y-147.538
X324.847Y-125.089
X329.744Y-143.441
T4
X77.766Y-149.005
X82.683Y-130.653
X87.601Y-112.3
X97.99Y-146.939
X102.907Y-128.587
X107.825Y-110.234
X118.164Y-145.057
X123.082Y-126.704
X127.999Y-108.352
X137.749Y-145.377
X142.666Y-127.024
X147.584Y-108.671
X148.769Y-177.659
X154.869Y-154.892
X159.787Y-136.539
X164.705Y-118.187
X166.482Y-184.962
X171.4Y-166.61
X176.318Y-148.257
X181.235Y-129.904
X184.196Y-192.266
X222.196Y-192.266
X225.156Y-129.904
X230.064Y-148.247
X234.991Y-166.61
X239.899Y-184.972
X241.687Y-118.187
X246.584Y-136.539
X251.502Y-154.892
X257.602Y-177.659
X258.807Y-108.671
X263.715Y-127.014
X268.623Y-145.377
X278.382Y-108.342
X283.29Y-126.704
X288.207Y-145.057
X298.567Y-110.234
X303.474Y-128.587
X308.392Y-146.929
X318.781Y-112.29
X323.708Y-130.653
X328.606Y-149.005
M30
