M48
; DRILL file {KiCad 9.0.4} date 2025-09-23T11:51:17+0300
; FORMAT={-:-/ absolute / metric / decimal}
; #@! TF.CreationDate,2025-09-23T11:51:17+03:00
; #@! TF.GenerationSoftware,Kicad,Pcbnew,9.0.4
; #@! TF.FileFunction,Plated,1,2,PTH
FMAT,2
METRIC
; #@! TA.AperFunction,Plated,PTH,ViaDrill
T1C0.300
; #@! TA.AperFunction,Plated,PTH,ComponentDrill
T2C1.000
; #@! TA.AperFunction,Plated,PTH,ComponentDrill
T3C1.500
; #@! TA.AperFunction,Plated,PTH,ComponentDrill
T4C2.200
%
G90
G05
T1
X86.156Y-147.459
X91.074Y-129.106
X95.991Y-110.753
X101.19Y-117.646
X103.002Y-110.884
X106.184Y-140.377
X106.38Y-145.393
X106.746Y-153.265
X107.996Y-133.615
X108.557Y-146.504
X111.298Y-127.04
X116.215Y-108.687
X126.555Y-143.51
X131.472Y-125.157
X136.39Y-106.805
X146.139Y-143.83
X151.057Y-125.477
X155.974Y-107.125
X157.16Y-176.112
X163.26Y-153.345
X168.178Y-134.992
X172.286Y-154.392
X173.095Y-116.64
X173.986Y-170.842
X174.873Y-183.415
X179.79Y-165.063
X184.708Y-146.71
X189.626Y-128.358
X192.586Y-190.719
X195.605Y-174.605
X197.196Y-170.465
X197.389Y-166.465
X197.939Y-165.465
X198.489Y-162.465
X199.05Y-164.465
X199.6Y-160.465
X200.15Y-154.465
X200.8Y-157.465
X203.95Y-158.465
X204.85Y-167.465
X205.6Y-173.5
X206.199Y-153.465
X206.749Y-159.465
X207.3Y-163.465
X207.85Y-155.465
X208.4Y-156.465
X208.95Y-161.465
X209.55Y-168.465
X210.1Y-169.465
X221.75Y-95.215
X221.809Y-154.093
X227.322Y-174.667
X228.689Y-186.731
X229.571Y-116.585
X231.649Y-124.37
X236.557Y-142.712
X241.484Y-161.075
X246.392Y-179.437
X248.18Y-112.652
X253.077Y-131.005
X257.995Y-149.357
X264.095Y-172.124
X265.3Y-103.137
X269.268Y-117.971
X270.208Y-121.479
X271.18Y-177.734
X272.992Y-184.496
X275.116Y-139.842
X284.875Y-102.807
X289.783Y-121.169
X294.7Y-139.522
X303.774Y-166.808
X304.74Y-166.549
X305.06Y-104.699
X305.706Y-166.29
X306.692Y-166.107
X309.967Y-123.052
X313.771Y-137.239
X314.885Y-141.395
X325.273Y-106.755
X326.253Y-114.601
X327.436Y-119.015
X329.936Y-106.165
X330.201Y-125.118
X331.359Y-111.478
X332.783Y-116.79
X334.206Y-122.103
X335.099Y-143.471
T2
X200.656Y-192.45
X205.736Y-192.45
T3
X195.588Y-95.658
X195.588Y-98.198
X195.588Y-100.738
X195.588Y-103.278
X195.588Y-105.818
X195.588Y-108.358
X195.588Y-110.898
X195.588Y-113.438
X195.588Y-115.978
X195.588Y-118.518
X195.588Y-121.058
X195.588Y-123.598
X210.828Y-95.658
X210.828Y-98.198
X210.828Y-100.738
X210.828Y-103.278
X210.828Y-105.818
X210.828Y-108.358
X210.828Y-110.898
X210.828Y-113.438
X210.828Y-115.978
X210.828Y-118.518
X210.828Y-121.058
X210.828Y-123.598
T4
X137.749Y-158.377
X179.721Y-94.865
X188.721Y-105.85
X217.67Y-105.88
X226.67Y-94.865
X268.623Y-158.377
M30
